<svg xmlns="http://www.w3.org/2000/svg" viewBox="0 0 1920 361.09"><defs><style>.cls-1{fill:#d4e4e6;}.cls-2{fill:#fff;}</style></defs><title>origin_bottom</title><g id="bg4"><path id="_路徑_" data-name="&lt;路徑&gt;" class="cls-1" d="M0,125.66s139-91.3,138.13-57.45c-2.37,92.25,129.71-14,181.87-44.85,79.66-47.15,163.25-11.25,195.64,6.47a8.55,8.55,0,0,1,.25,14.85C495.44,56.86,440,105.36,490,157.36c39.38,40.95,183.6-8.06,217.59-65.51a5.45,5.45,0,0,1,9.71.65c10.22,24.06,41.27,72.37,120.37,46.86C931.1,109.22,951,41.47,949.46,10a5.46,5.46,0,0,1,7.95-5.15c15.69,8.13,46.45,33.77,48.92,110.48,3.34,103.33,49.34,104,88,91.33,36.7-12,83-73.88,76.8-133.15a5.46,5.46,0,0,1,7.9-5.45c20.06,10.19,66.74,42,83.3,123.27,21.34,104.66,108,67.33,126,48.66s68-98.66,220-93.33,242,112.67,311.67,90v232H0Z"/><path id="_路徑_2" data-name="&lt;路徑&gt;" class="cls-2" d="M0,361.09V240.7S105.13,214,160.63,170.36s135-19.5,231,35.17,163.88,2.83,183.88-16.17c18.11-17.21,74-44.26,111.82-29.9a6.24,6.24,0,0,1,1,11.16c-12.73,7.85-31.62,24.54-21.28,50.74,15,38,91,32.68,110,19.34s78-69.57,166-41.46,103,69.71,180,51.41c71.15-16.9,138.89-75.16,189-55.62a6.26,6.26,0,0,1,.59,11.42c-19.42,9.7-54.22,33.58-26.6,70.91,37,50,162,35,231-19,62.9-49.23,151.56-76.84,193.26-42.33a6.25,6.25,0,0,1-3.79,11.06c-19.14.5-50.7,7.17-53.47,45.27-4,55,95,65,117,55s116-56,150-41v74.73"/></g></svg>