<svg xmlns="http://www.w3.org/2000/svg" viewBox="0 0 159.84 150.47"><defs><style>.cls-1{fill:#c7423a;}.cls-2{fill:#ffe7e6;}.cls-3{fill:#1f5d73;}.cls-4{fill:#eb6860;}</style></defs><title>goldenfish_l</title><g id="fish1"><g id="_群組_" data-name="&lt;群組&gt;"><circle id="_路徑_" data-name="&lt;路徑&gt;" class="cls-1" cx="97.29" cy="76.86" r="62.55"/><ellipse id="_路徑_2" data-name="&lt;路徑&gt;" class="cls-2" cx="121.62" cy="56.57" rx="17.25" ry="14.82" transform="translate(16.34 139.68) rotate(-63.23)"/><ellipse id="_路徑_3" data-name="&lt;路徑&gt;" class="cls-3" cx="121.62" cy="56.57" rx="11.85" ry="10.18" transform="translate(16.34 139.68) rotate(-63.23)"/><ellipse id="_路徑_4" data-name="&lt;路徑&gt;" class="cls-3" cx="149.19" cy="79.58" rx="3.41" ry="4.81" transform="translate(-12.87 127.82) rotate(-44.65)"/><path id="_路徑_5" data-name="&lt;路徑&gt;" class="cls-3" d="M155.81,99s-.84-4.42-4.35-3.72-11.53,9.49-19.29,9.14-8-7.12-4.82-7.78,3.16,3.25,1.31,3.91,3.12,4.83,8.57,2S151.11,92,154.05,94.2s2.16,3.69,2.16,3.69Z"/><path id="_路徑_6" data-name="&lt;路徑&gt;" class="cls-4" d="M21.62,104.4A26.58,26.58,0,0,1,23,78.73s-10.51-5.79-13.85-20S24.26,39.78,24.26,39.78A117.25,117.25,0,0,1,8.79,15.13C1.77.2,22,1.14,22,1.14,38.1,7.06,43.61,34.33,44.94,42.62a62.62,62.62,0,0,0-3.34,62.75c-2.07,3.15-5.51,8.34-7.94,11.91C30.09,115.78,25.3,112.33,21.62,104.4Z"/><path id="_路徑_7" data-name="&lt;路徑&gt;" class="cls-2" d="M14.83,36.33S-15.16,4.47,12.25.26A19.35,19.35,0,0,1,22,1.14S1.77.2,8.79,15.13A117.25,117.25,0,0,0,24.26,39.78S5.81,44.47,9.14,58.7,23,78.73,23,78.73a26.58,26.58,0,0,0-1.37,25.67c3.68,7.93,8.47,11.38,12,12.88-.92,1.34-1.69,2.46-2.2,3.15-2.58,3.52-16.17.94-18.74-13.82s2.34-22.86,2.34-22.86S7.8,82.25,2.88,61.87,14.83,36.33,14.83,36.33Z"/><path id="_路徑_8" data-name="&lt;路徑&gt;" class="cls-4" d="M91.28,146.2c-4.74-2.11-5.66-7.88-5.66-7.88s-7.86,9.29-11.47,6.48-2.72-10.72-2.72-10.72-9.66,3.69-12.65-.79S60.27,123,60.27,123c7.56-4.22,29.52-11.6,42.17-7.38,0,0,1.51,12-.62,21.82C101.66,137.77,96,148.28,91.28,146.2Z"/><path id="_路徑_9" data-name="&lt;路徑&gt;" class="cls-2" d="M60.27,123s-4.48,5.8-1.49,10.28,12.65.79,12.65.79-.88,7.91,2.72,10.72,11.47-6.48,11.47-6.48.92,5.77,5.66,7.88,10.38-8.43,10.54-8.75c-1,4.75-2.9,9-6.23,11-10.19,6.32-10.54-5.63-10.54-5.63s-3,6.16-9.14,7.47-10-7.11-7.55-13.09c0,0-6.68,3.69-10.37,1.06S52.72,127.23,60.27,123Z"/><circle id="_路徑_10" data-name="&lt;路徑&gt;" class="cls-2" cx="85.93" cy="30.94" r="2.81"/><circle id="_路徑_11" data-name="&lt;路徑&gt;" class="cls-2" cx="60.62" cy="45.7" r="2.81"/><circle id="_路徑_12" data-name="&lt;路徑&gt;" class="cls-2" cx="87.91" cy="63.5" r="2.58"/><circle id="_路徑_13" data-name="&lt;路徑&gt;" class="cls-2" cx="54.7" cy="76.47" r="3.11"/><circle id="_路徑_14" data-name="&lt;路徑&gt;" class="cls-2" cx="80.53" cy="86.34" r="2.59"/><circle id="_路徑_15" data-name="&lt;路徑&gt;" class="cls-2" cx="118.46" cy="27.78" r="3.16"/><circle id="_路徑_16" data-name="&lt;路徑&gt;" class="cls-2" cx="142.71" cy="42.05" r="2.32"/><circle id="_路徑_17" data-name="&lt;路徑&gt;" class="cls-2" cx="28.3" cy="27.78" r="3.16"/><circle id="_路徑_18" data-name="&lt;路徑&gt;" class="cls-2" cx="23.6" cy="63.4" r="4.7"/><circle id="_路徑_19" data-name="&lt;路徑&gt;" class="cls-2" cx="27.94" cy="100.88" r="3.52"/><circle id="_路徑_20" data-name="&lt;路徑&gt;" class="cls-2" cx="94.27" cy="132.23" r="1.84"/><circle id="_路徑_21" data-name="&lt;路徑&gt;" class="cls-2" cx="78.13" cy="132.79" r="2.4"/><circle id="_路徑_22" data-name="&lt;路徑&gt;" class="cls-2" cx="66.95" cy="128.28" r="1.23"/></g></g></svg>