<svg xmlns="http://www.w3.org/2000/svg" viewBox="0 0 1920 272.35"><defs><style>.cls-1{fill:#ffe7e6;}</style></defs><title>feature_bottom</title><g id="bg5"><path id="_路徑_" data-name="&lt;路徑&gt;" class="cls-1" d="M0,131.36S163.63-80.13,382.62,54.86s240,162.39,355.48,112c108.14-47.24,87.41-150.18,229.62-143.4a6.78,6.78,0,0,1,2.59,12.91c-22.82,10.72-49.95,31.33-44,67.58,10,60.66,68.67,59.33,89.34,46.66,20.14-12.34,139.55-209.29,363.4-133.08a6.78,6.78,0,0,1,.49,12.68c-28.45,12-79.6,42-50.7,94.24,39,70.57,173-33.71,237-26.88,148.67,15.84,189.17,74.34,255.17,17.34s62.45-63.8,99-85.49v243H0Z"/></g></svg>