<svg id="bg1" xmlns="http://www.w3.org/2000/svg" viewBox="0 0 1920 304.92"><defs><style>.cls-1{fill:#1f5d73;}.cls-2{fill:#ffd557;opacity:0.44;}.cls-3{fill:#22657d;}</style></defs><title>aptinet_header_bottom</title><rect id="_矩形_" data-name="&lt;矩形&gt;" class="cls-1" y="24.85" width="1920" height="148.06"/><circle id="_路徑_" data-name="&lt;路徑&gt;" class="cls-2" cx="443.18" cy="60.93" r="27.98"/><circle id="_路徑_2" data-name="&lt;路徑&gt;" class="cls-2" cx="298.24" cy="59.23" r="27.98"/><circle id="_路徑_3" data-name="&lt;路徑&gt;" class="cls-2" cx="87.54" cy="60.93" r="27.98"/><circle id="_路徑_4" data-name="&lt;路徑&gt;" class="cls-2" cx="603.68" cy="68.37" r="27.98"/><circle id="_路徑_5" data-name="&lt;路徑&gt;" class="cls-2" cx="980.15" cy="63.37" r="27.98"/><circle id="_路徑_6" data-name="&lt;路徑&gt;" class="cls-2" cx="1385.16" cy="69.37" r="27.98"/><circle id="_路徑_7" data-name="&lt;路徑&gt;" class="cls-2" cx="1827.84" cy="67.37" r="27.98"/><circle id="_路徑_8" data-name="&lt;路徑&gt;" class="cls-2" cx="1926.34" cy="64.37" r="27.98"/><circle id="_路徑_9" data-name="&lt;路徑&gt;" class="cls-2" cx="1542.62" cy="64.37" r="27.98"/><circle id="_路徑_10" data-name="&lt;路徑&gt;" class="cls-2" cx="356.88" cy="38.39" r="22.54"/><circle id="_路徑_11" data-name="&lt;路徑&gt;" class="cls-2" cx="200.22" cy="40.39" r="22.54"/><circle id="_路徑_12" data-name="&lt;路徑&gt;" class="cls-2" cx="126.65" cy="38.39" r="22.54"/><circle id="_路徑_13" data-name="&lt;路徑&gt;" class="cls-2" cx="10.65" cy="48.79" r="22.54"/><circle id="_路徑_14" data-name="&lt;路徑&gt;" class="cls-2" cx="237.34" cy="46.83" r="22.54"/><circle id="_路徑_15" data-name="&lt;路徑&gt;" class="cls-2" cx="566.88" cy="40.39" r="22.54"/><circle id="_路徑_16" data-name="&lt;路徑&gt;" class="cls-2" cx="728.88" cy="43.39" r="22.54"/><circle id="_路徑_17" data-name="&lt;路徑&gt;" class="cls-2" cx="851.87" cy="37.39" r="22.54"/><circle id="_路徑_18" data-name="&lt;路徑&gt;" class="cls-2" cx="1030.67" cy="40.39" r="22.54"/><circle id="_路徑_19" data-name="&lt;路徑&gt;" class="cls-2" cx="1160.67" cy="41.39" r="22.54"/><circle id="_路徑_20" data-name="&lt;路徑&gt;" class="cls-2" cx="1464.15" cy="44.39" r="22.54"/><circle id="_路徑_21" data-name="&lt;路徑&gt;" class="cls-2" cx="1419.07" cy="51.23" r="22.54"/><circle id="_路徑_22" data-name="&lt;路徑&gt;" class="cls-2" cx="1649" cy="37.39" r="22.54"/><circle id="_路徑_23" data-name="&lt;路徑&gt;" class="cls-2" cx="1749" cy="47.39" r="22.54"/><circle id="_路徑_24" data-name="&lt;路徑&gt;" class="cls-2" cx="298.24" cy="15.85" r="15.85"/><circle id="_路徑_25" data-name="&lt;路徑&gt;" class="cls-2" cx="126.65" cy="15.85" r="15.85"/><circle id="_路徑_26" data-name="&lt;路徑&gt;" class="cls-2" cx="20.65" cy="31.25" r="15.85"/><circle id="_路徑_27" data-name="&lt;路徑&gt;" class="cls-2" cx="253.18" cy="24.29" r="15.85"/><circle id="_路徑_28" data-name="&lt;路徑&gt;" class="cls-2" cx="399.28" cy="31.69" r="15.85"/><circle id="_路徑_29" data-name="&lt;路徑&gt;" class="cls-2" cx="497.34" cy="32.95" r="15.85"/><circle id="_路徑_30" data-name="&lt;路徑&gt;" class="cls-2" cx="647.51" cy="31.69" r="15.85"/><circle id="_路徑_31" data-name="&lt;路徑&gt;" class="cls-2" cx="670.6" cy="40.39" r="15.85"/><circle id="_路徑_32" data-name="&lt;路徑&gt;" class="cls-2" cx="767.26" cy="31.69" r="15.85"/><circle id="_路徑_33" data-name="&lt;路徑&gt;" class="cls-2" cx="807.26" cy="35.39" r="15.85"/><circle id="_路徑_34" data-name="&lt;路徑&gt;" class="cls-2" cx="823.11" cy="24.54" r="15.85"/><circle id="_路徑_35" data-name="&lt;路徑&gt;" class="cls-2" cx="903.11" cy="32.95" r="15.85"/><circle id="_路徑_36" data-name="&lt;路徑&gt;" class="cls-2" cx="944.15" cy="41.39" r="15.85"/><circle id="_路徑_37" data-name="&lt;路徑&gt;" class="cls-2" cx="996" cy="32.95" r="15.85"/><circle id="_路徑_38" data-name="&lt;路徑&gt;" class="cls-2" cx="1069.06" cy="31.69" r="15.85"/><circle id="_路徑_39" data-name="&lt;路徑&gt;" class="cls-2" cx="1199.06" cy="27.54" r="15.85"/><circle id="_路徑_40" data-name="&lt;路徑&gt;" class="cls-2" cx="1237.9" cy="40.39" r="15.85"/><circle id="_路徑_41" data-name="&lt;路徑&gt;" class="cls-2" cx="1284.84" cy="37.39" r="15.85"/><circle id="_路徑_42" data-name="&lt;路徑&gt;" class="cls-2" cx="1333.01" cy="47.39" r="15.85"/><circle id="_路徑_43" data-name="&lt;路徑&gt;" class="cls-2" cx="1364.71" cy="31.54" r="15.85"/><circle id="_路徑_44" data-name="&lt;路徑&gt;" class="cls-2" cx="1434.91" cy="31.54" r="15.85"/><circle id="_路徑_45" data-name="&lt;路徑&gt;" class="cls-2" cx="1514.64" cy="41.39" r="15.85"/><circle id="_路徑_46" data-name="&lt;路徑&gt;" class="cls-2" cx="1596.64" cy="36.39" r="15.85"/><circle id="_路徑_47" data-name="&lt;路徑&gt;" class="cls-2" cx="1617.3" cy="28.69" r="15.85"/><circle id="_路徑_48" data-name="&lt;路徑&gt;" class="cls-2" cx="1681.3" cy="40.39" r="15.85"/><circle id="_路徑_49" data-name="&lt;路徑&gt;" class="cls-2" cx="1713" cy="28.69" r="15.85"/><circle id="_路徑_50" data-name="&lt;路徑&gt;" class="cls-2" cx="1779.66" cy="36.39" r="15.85"/><circle id="_路徑_51" data-name="&lt;路徑&gt;" class="cls-2" cx="1821.66" cy="28.69" r="15.85"/><circle id="_路徑_52" data-name="&lt;路徑&gt;" class="cls-2" cx="1855.82" cy="40.39" r="15.85"/><circle id="_路徑_53" data-name="&lt;路徑&gt;" class="cls-2" cx="1891.82" cy="31.54" r="15.85"/><circle id="_路徑_54" data-name="&lt;路徑&gt;" class="cls-2" cx="1900.49" cy="43.39" r="15.85"/><circle id="_路徑_55" data-name="&lt;路徑&gt;" class="cls-2" cx="1115.06" cy="43.39" r="15.85"/><circle id="_路徑_56" data-name="&lt;路徑&gt;" class="cls-2" cx="43.71" cy="15.85" r="15.85"/><circle id="_路徑_57" data-name="&lt;路徑&gt;" class="cls-2" cx="65.68" cy="15.85" r="15.85"/><circle id="_路徑_58" data-name="&lt;路徑&gt;" class="cls-2" cx="513.19" cy="17.85" r="12.13"/><circle id="_路徑_59" data-name="&lt;路徑&gt;" class="cls-2" cx="443.18" cy="26.09" r="12.13"/><circle id="_路徑_60" data-name="&lt;路徑&gt;" class="cls-2" cx="615.81" cy="24.54" r="12.13"/><circle id="_路徑_61" data-name="&lt;路徑&gt;" class="cls-2" cx="698.58" cy="27.54" r="12.13"/><circle id="_路徑_62" data-name="&lt;路徑&gt;" class="cls-2" cx="960" cy="31.25" r="12.13"/><circle id="_路徑_63" data-name="&lt;路徑&gt;" class="cls-2" cx="1265.88" cy="26.09" r="12.13"/><circle id="_路徑_64" data-name="&lt;路徑&gt;" class="cls-2" cx="1542.62" cy="28.69" r="12.13"/><circle id="_路徑_65" data-name="&lt;路徑&gt;" class="cls-2" cx="1345.15" cy="28.69" r="12.13"/><circle id="_路徑_66" data-name="&lt;路徑&gt;" class="cls-2" cx="1566.89" cy="28.69" r="12.13"/><circle id="_路徑_67" data-name="&lt;路徑&gt;" class="cls-2" cx="538.87" cy="21.54" r="12.13"/><path id="_路徑_68" data-name="&lt;路徑&gt;" class="cls-3" d="M1920,304.92H0V141.18s167-12.64,222.76-13.28c184.42-2.11,552.81,25.57,737.24,27,163.15,1.27,489.34-12,652.48-13.72,76.88-.81,307.52,0,307.52,0Z"/></svg>