<svg xmlns="http://www.w3.org/2000/svg" viewBox="0 0 632.64 476.41"><defs><style>.cls-1{fill:#ffccc9;}.cls-2{fill:#ffe7e6;}</style></defs><title>video_bottom</title><g id="bg2"><path id="_路徑_" data-name="&lt;路徑&gt;" class="cls-1" d="M632.64,476.41s-39.92-14.25-92.86-17.66c-53.57-3.46-38.81-25.86-9.06-29.9,36.69-5,27.18-23.1,6.8-26.72s-69.3-8.15-101-6.8-31.23-18-10.42-33.51C446,347,398.91,330.11,349.54,338.26s-155.36,24-165.32-4.07c-6.76-19.05,27.17-20.84,25.36-43.49s-78.94,4.17-81.14-20.79S233.59,254.49,242.2,230.7C249.56,210.34,176.3,181.52,98,189c-17.55,1.67-33.73,11.09-42.79,26.21A24.08,24.08,0,0,1,43.35,225C23.87,233.18,0,224.57,0,198.46c0-33.68,39.27-52.7,127.6-43.19s186.16,14.5,191.6-15.4-52.55-26.25-36.69-45.27c7.26-8.72,24.43-12.88,40.89-14.82,12.16-1.44,23-9.09,27.4-20.52,1.91-5,8.81-9.85,25.47-13.15a212,212,0,0,1,47-4.15,33.39,33.39,0,0,0,29.26-15.15C454.88,23.1,459,19.05,466,14.86c27.63-16.76,129.54-22.65,166.69,0Z"/><path id="_路徑_2" data-name="&lt;路徑&gt;" class="cls-2" d="M632.64,355.48s-45.71-14.79-90.9-15.56-53.59-16.6-43.4-22.95c7.12-4.43,27.17-3,27.17-19.7,0-44.95-109.27-13.36-175.06-41-43-18.07,13.18-36,81.08-40.31,65.71-4.18,42.12-34,12.68-37.6s-41.67-19.47-10.42-31.25c17.37-6.55,42.3-7.91,62.11-8.77A49.45,49.45,0,0,0,533,118.53c5.82-7.66,17.38-15.39,40.31-16.71,47.56-2.71,59.34,1.82,59.34,1.82Z"/></g></svg>