<svg xmlns="http://www.w3.org/2000/svg" viewBox="0 0 373.75 214.38"><defs><style>.cls-1{fill:#1f5d73;}.cls-14,.cls-15,.cls-2,.cls-6{fill:none;}.cls-2{stroke:#ffe7e6;stroke-width:4px;}.cls-10,.cls-15,.cls-2,.cls-6,.cls-7{stroke-linecap:round;stroke-linejoin:round;}.cls-3{fill:#ffe7e6;}.cls-4,.cls-7{fill:#6ed8e6;}.cls-5{fill:#14a5b8;}.cls-10,.cls-6,.cls-7{stroke:#fff;}.cls-10,.cls-8{fill:#ffabb7;}.cls-9{fill:#fff;}.cls-11{fill:#eb6860;}.cls-12{fill:#c7423a;}.cls-13{fill:#ffd557;}.cls-14,.cls-15{stroke:#ffd557;stroke-width:0.37px;}.cls-14{stroke-miterlimit:10;}</style></defs><title>aptinet_footer</title><g id="harvest"><circle id="_路徑_" data-name="&lt;路徑&gt;" class="cls-1" cx="186.22" cy="63.06" r="63.06"/><g id="_群組_" data-name="&lt;群組&gt;"><line id="_路徑_2" data-name="&lt;路徑&gt;" class="cls-2" x1="2.17" y1="172.49" x2="2.17" y2="212.25"/><line id="_路徑_3" data-name="&lt;路徑&gt;" class="cls-2" x1="30.51" y1="172.49" x2="30.51" y2="212.25"/><line id="_路徑_4" data-name="&lt;路徑&gt;" class="cls-2" x1="115.41" y1="212.25" x2="115.41" y2="172.49"/><polyline id="_路徑_5" data-name="&lt;路徑&gt;" class="cls-2" points="256.95 172.49 228.69 172.49 228.69 212.25 256.95 212.25"/><polyline id="_路徑_6" data-name="&lt;路徑&gt;" class="cls-2" points="58.73 212.25 72.96 172.49 87.18 212.25"/><polyline id="_路徑_7" data-name="&lt;路徑&gt;" class="cls-2" points="200.64 172.49 186.42 212.25 172.19 172.49"/><path id="_矩形_" data-name="&lt;矩形&gt;" class="cls-2" d="M115.41,172.49h18.4a9.94,9.94,0,0,1,9.94,9.94v0a9.94,9.94,0,0,1-9.94,9.94h-18.4a0,0,0,0,1,0,0V172.49A0,0,0,0,1,115.41,172.49Z"/><line id="_路徑_8" data-name="&lt;路徑&gt;" class="cls-2" x1="143.71" y1="212.25" x2="132.31" y2="192.9"/><path id="_路徑_9" data-name="&lt;路徑&gt;" class="cls-2" d="M313.62,182.43h0a9.94,9.94,0,0,0-9.94-9.94h-8.45a9.94,9.94,0,0,0-9.94,9.94h0a9.94,9.94,0,0,0,9.94,9.94h8.45a9.94,9.94,0,0,1,9.94,9.94h0a9.94,9.94,0,0,1-9.94,9.94h-8.45a9.94,9.94,0,0,1-9.94-9.94h0"/><g id="_群組_2" data-name="&lt;群組&gt;"><line id="_路徑_10" data-name="&lt;路徑&gt;" class="cls-2" x1="370.26" y1="172.49" x2="341.99" y2="172.49"/><line id="_路徑_11" data-name="&lt;路徑&gt;" class="cls-2" x1="356.13" y1="212.25" x2="356.13" y2="172.49"/></g><path id="_矩形_2" data-name="&lt;矩形&gt;" class="cls-3" d="M69.73,192.9h.1a8.62,8.62,0,0,1,8.62,8.62v.1a0,0,0,0,1,0,0h-.1A8.62,8.62,0,0,1,69.73,193v-.1A0,0,0,0,1,69.73,192.9Z"/><path id="_矩形_3" data-name="&lt;矩形&gt;" class="cls-3" d="M11.39,186.91H12a9.74,9.74,0,0,1,9.74,9.74v.6a0,0,0,0,1,0,0h-.6a9.74,9.74,0,0,1-9.74-9.74v-.6a0,0,0,0,1,0,0Z"/><path id="_矩形_4" data-name="&lt;矩形&gt;" class="cls-3" d="M239.2,186.91h.6a9.74,9.74,0,0,1,9.74,9.74v.6a0,0,0,0,1,0,0h-.6a9.74,9.74,0,0,1-9.74-9.74v-.6A0,0,0,0,1,239.2,186.91Z"/></g><g id="_群組_3" data-name="&lt;群組&gt;"><g id="_群組_4" data-name="&lt;群組&gt;"><path id="_路徑_12" data-name="&lt;路徑&gt;" class="cls-4" d="M202.92,51a2.51,2.51,0,0,1,2.85-1.76,2.37,2.37,0,0,1,1.67,3.35c-.34.75-.72,3.13-3.43,3.18-2.26,0-4.35-2.75-4.61-5.11-.33-3,1.09-7.39,6.7-6.87s5,5.45,7.62,6.37,3.31-.38,3.31-.38-.8,3.15-3.4,3.9-6.19-1.09-6.19-1.09"/><path id="_路徑_13" data-name="&lt;路徑&gt;" class="cls-5" d="M189.34,93.37s-5.81,3-8.09,4.55-4.83-.42-3.52-1.93c0,0-1.65,2-3.68,1.48s-.67-3.94-.67-3.94,5.74-8.37,17.21-4.91Z"/><path id="_路徑_14" data-name="&lt;路徑&gt;" class="cls-4" d="M173,94.43c-.68.68-1,2.51-3.63,2.68a3.45,3.45,0,0,1-3.57-3.35s-3.57,2.29-5.69-1.12,1.67-6,1.67-6A3,3,0,0,1,160,82.82c1-2.79,4.13-1.51,4.13-1.51A2.88,2.88,0,0,1,167.4,79a3.3,3.3,0,0,1,3.19,2.51s.44-1.28,1.5-.78c0,0,17.64-5.24,28.86-3.46s5.36,3.07,5.08,4.3,9.76,1.56,10.82,3.46-3.12,1.73-3.79,3,.36,3-6.31,3.4-6.65.18-6.65.18-.45,6.69-7,6.1a5,5,0,0,1-4.51-3.33s-1.39-2.6,1.56-4.84C190.18,89.52,180.1,87.37,173,94.43Z"/><path id="_路徑_15" data-name="&lt;路徑&gt;" class="cls-6" d="M168.49,85.58a1.56,1.56,0,0,0-2-1.17,2,2,0,0,0-.92,3.1,2.88,2.88,0,0,0,3.18,1.28c1.65-.28,14.77-10,25-5.22s5.77,13.1,2.21,13.86-6.4.12-7.57-3.64,4.27-6.7,6.7-3.81-.17,4.81-1.3,4.6A1.9,1.9,0,0,1,192.35,92"/><path id="_路徑_16" data-name="&lt;路徑&gt;" class="cls-6" d="M173.31,86.44a2.17,2.17,0,0,0,1-2,2.25,2.25,0,0,0-1.59-1.76s.33-1.57-.59-1.94-1.5.78-1.5.78A3.44,3.44,0,0,0,167.4,79a3.3,3.3,0,0,0-3.23,2.29S161,80.06,160,82.82a3,3,0,0,0,1.78,3.85s-3.89,2.57-1.56,6.14,5.58,1,5.58,1a3.43,3.43,0,0,0,3.57,3.35c3.48,0,6.09-10,20.77-7.59"/><path id="_路徑_17" data-name="&lt;路徑&gt;" class="cls-4" d="M221.44,90h-4.29A1.12,1.12,0,0,0,216,91.11h0a.64.64,0,0,1-.64.64h-.12a.92.92,0,0,0-.92.92h0a.92.92,0,0,0,.92.92h3.41a.64.64,0,0,0,.64-.64h0a.64.64,0,0,1,.64-.64h1.49a1.16,1.16,0,0,0,1.16-1.17h0A1.16,1.16,0,0,0,221.44,90Z"/><path id="_路徑_18" data-name="&lt;路徑&gt;" class="cls-7" d="M202.92,51a2.42,2.42,0,0,1,2.85-1.76c1.72.42,1.87,2.39,1.67,3.35A3.5,3.5,0,0,1,204,55.81c-2.54,0-4.11-2.54-4.61-5.11a6,6,0,0,1,6.7-6.87c5.61.51,5,5.45,7.62,6.37s3.31-.38,3.31-.38-.8,3.15-3.4,3.9-6.19-1.09-6.19-1.09"/></g><g id="_群組_5" data-name="&lt;群組&gt;"><g id="_矩形_5" data-name="&lt;矩形&gt;"><path id="_路徑_19" data-name="&lt;路徑&gt;" class="cls-8" d="M183.84,86a4,4,0,0,1-4-3.62l-1.27-14A4,4,0,0,1,182.22,64l.36,0a4,4,0,0,1,4,3.63l1.27,14a4,4,0,0,1-3.6,4.33Z"/><path id="_複合路徑_" data-name="&lt;複合路徑&gt;" class="cls-9" d="M182.58,64.48A3.48,3.48,0,0,1,186,67.65l1.27,14a3.48,3.48,0,0,1-3.15,3.78h-.32a3.48,3.48,0,0,1-3.46-3.17l-1.27-14a3.48,3.48,0,0,1,3.15-3.78l.32,0m0-1h0l-.41,0a4.5,4.5,0,0,0-4.06,4.87l1.27,14a4.46,4.46,0,0,0,4.46,4.08h.41a4.5,4.5,0,0,0,4.06-4.87l-1.27-14a4.46,4.46,0,0,0-4.46-4.08Z"/></g><g id="_矩形_6" data-name="&lt;矩形&gt;"><path id="_路徑_20" data-name="&lt;路徑&gt;" class="cls-8" d="M197.26,71.56a3.27,3.27,0,0,1-2.63-1.33l-7.84-10.64a3.26,3.26,0,0,1,.69-4.56,3.2,3.2,0,0,1,1.93-.64A3.29,3.29,0,0,1,192,55.72l7.84,10.64a3.22,3.22,0,0,1,.6,2.42,3.26,3.26,0,0,1-1.29,2.14A3.2,3.2,0,0,1,197.26,71.56Z"/><path id="_複合路徑_2" data-name="&lt;複合路徑&gt;" class="cls-9" d="M189.41,54.89A2.77,2.77,0,0,1,191.64,56l7.84,10.65a2.76,2.76,0,0,1-.58,3.86,2.8,2.8,0,0,1-1.64.54A2.75,2.75,0,0,1,195,69.93l-7.84-10.64a2.76,2.76,0,0,1,.58-3.86,2.8,2.8,0,0,1,1.64-.54m0-1h0a3.77,3.77,0,0,0-3,6l7.85,10.64a3.75,3.75,0,0,0,5.26.79,3.75,3.75,0,0,0,.79-5.26l-7.84-10.64a3.77,3.77,0,0,0-3-1.53Z"/></g><path id="_路徑_21" data-name="&lt;路徑&gt;" class="cls-10" d="M185.84,53a7,7,0,0,0-4.8,1.33l-6.74-9.25a3,3,0,0,0-3.94-.82,2.89,2.89,0,0,0-.79,4.14l8.59,11.79v5.27a7,7,0,0,0,5.71,6.88l-1.73,13.75a3.72,3.72,0,0,0,3.08,4.18,3.64,3.64,0,0,0,4.13-3.15s2.12-15.54,2.12-16.06a36.47,36.47,0,0,0-.1-11"/><g id="_群組_6" data-name="&lt;群組&gt;"><path id="_路徑_22" data-name="&lt;路徑&gt;" class="cls-8" d="M184.87,55.58a8.95,8.95,0,0,1-8.88-9,8.92,8.92,0,0,1,15.26-6.23,8.79,8.79,0,0,1,2.58,6.32,8.94,8.94,0,0,1-8.92,8.88Z"/><path id="_複合路徑_3" data-name="&lt;複合路徑&gt;" class="cls-9" d="M184.91,38.23h0a8.43,8.43,0,0,1,0,16.85h0a8.43,8.43,0,0,1,0-16.85m0-1a9.43,9.43,0,1,0,9.42,9.47A9.41,9.41,0,0,0,185,37.23h-.05Z"/></g></g><g id="_群組_7" data-name="&lt;群組&gt;"><path id="_矩形_7" data-name="&lt;矩形&gt;" class="cls-11" d="M182.6,28.57h.89a3.75,3.75,0,0,1,3.75,3.75v.89a0,0,0,0,1,0,0h-.89a3.75,3.75,0,0,1-3.75-3.75v-.89A0,0,0,0,1,182.6,28.57Z" transform="translate(76 -121.71) rotate(45)"/><path id="_矩形_8" data-name="&lt;矩形&gt;" class="cls-11" d="M185.17,29.43h.4a3.75,3.75,0,0,1,3.75,3.75v.4a0,0,0,0,1,0,0h-.4a3.75,3.75,0,0,1-3.75-3.75v-.4A0,0,0,0,1,185.17,29.43Z" transform="translate(157.33 -156) rotate(71.39)"/><path id="_矩形_9" data-name="&lt;矩形&gt;" class="cls-11" d="M186.9,31.25h.16A3.75,3.75,0,0,1,190.81,35v.16a0,0,0,0,1,0,0h-.16a3.75,3.75,0,0,1-3.75-3.75v-.16A0,0,0,0,1,186.9,31.25Z" transform="translate(247.29 -149.42) rotate(97.77)"/><path id="_矩形_10" data-name="&lt;矩形&gt;" class="cls-11" d="M187.34,37.43h0a3.38,3.38,0,0,1,3.38,3.38v0a0,0,0,0,1,0,0h0a3.38,3.38,0,0,1-3.38-3.38v0A0,0,0,0,1,187.34,37.43Z" transform="translate(372.87 -19.79) rotate(150.54)"/><path id="_矩形_11" data-name="&lt;矩形&gt;" class="cls-11" d="M184.26,29.43h.4a0,0,0,0,1,0,0v.4a3.75,3.75,0,0,1-3.75,3.75h-.4a0,0,0,0,1,0,0v-.4A3.75,3.75,0,0,1,184.26,29.43Z" transform="translate(270.72 -131.47) rotate(108.61)"/><path id="_矩形_12" data-name="&lt;矩形&gt;" class="cls-11" d="M182.77,31.25h.16a0,0,0,0,1,0,0v.16a3.75,3.75,0,0,1-3.75,3.75H179a0,0,0,0,1,0,0V35A3.75,3.75,0,0,1,182.77,31.25Z" transform="translate(189.41 -150.6) rotate(82.23)"/><path id="_矩形_13" data-name="&lt;矩形&gt;" class="cls-11" d="M182.48,37.43h0a0,0,0,0,1,0,0v0a3.38,3.38,0,0,1-3.38,3.38h0a0,0,0,0,1,0,0v0A3.38,3.38,0,0,1,182.48,37.43Z" transform="translate(42.61 -83.86) rotate(29.46)"/><circle id="_路徑_23" data-name="&lt;路徑&gt;" class="cls-12" cx="184.91" cy="36.75" r="4.1"/><g id="_群組_8" data-name="&lt;群組&gt;"><ellipse id="_路徑_24" data-name="&lt;路徑&gt;" class="cls-3" cx="182.58" cy="35.71" rx="1.17" ry="1.03" transform="translate(13.49 113.31) rotate(-35.72)"/><ellipse id="_路徑_25" data-name="&lt;路徑&gt;" class="cls-1" cx="182.58" cy="35.71" rx="0.92" ry="0.81" transform="translate(13.49 113.31) rotate(-35.72)"/></g><g id="_群組_9" data-name="&lt;群組&gt;"><ellipse id="_路徑_26" data-name="&lt;路徑&gt;" class="cls-3" cx="187.24" cy="35.71" rx="1.03" ry="1.17" transform="translate(48.94 166.89) rotate(-54.28)"/><ellipse id="_路徑_27" data-name="&lt;路徑&gt;" class="cls-1" cx="187.24" cy="35.71" rx="0.81" ry="0.92" transform="translate(48.94 166.89) rotate(-54.28)"/></g></g><g id="_群組_10" data-name="&lt;群組&gt;"><path id="_路徑_28" data-name="&lt;路徑&gt;" class="cls-12" d="M167.15,38.25a6,6,0,0,1,4.62-.75,5.56,5.56,0,1,0-7.43,4.5A6,6,0,0,1,167.15,38.25Z"/><g id="_群組_11" data-name="&lt;群組&gt;"><path id="_複合路徑_4" data-name="&lt;複合路徑&gt;" class="cls-13" d="M170.38,37.69a5.15,5.15,0,0,1,1,.09A5.18,5.18,0,0,1,166.26,42a5.35,5.35,0,0,1-1.48-.21,5.75,5.75,0,0,1,2.56-3.2,5.9,5.9,0,0,1,3-.87m0-.37a6.22,6.22,0,0,0-3.23.93A6,6,0,0,0,164.34,42a5.75,5.75,0,0,0,1.92.34,5.57,5.57,0,0,0,5.51-4.84,5.3,5.3,0,0,0-1.39-.18Z"/></g><line id="_路徑_29" data-name="&lt;路徑&gt;" class="cls-14" x1="167.15" y1="38.25" x2="169.14" y2="41.53"/><line id="_路徑_30" data-name="&lt;路徑&gt;" class="cls-15" x1="169.4" y1="37.58" x2="169.15" y2="41.29"/><line id="_路徑_31" data-name="&lt;路徑&gt;" class="cls-15" x1="165.55" y1="39.91" x2="168.96" y2="41.41"/><path id="_矩形_14" data-name="&lt;矩形&gt;" class="cls-13" d="M170.41,40.89H171a.11.11,0,0,1,.11.11v6a.41.41,0,0,1-.41.41h0a.41.41,0,0,1-.41-.41V41A.11.11,0,0,1,170.41,40.89Z" transform="translate(1.8 94.78) rotate(-31.19)"/></g></g></g></svg>