<svg xmlns="http://www.w3.org/2000/svg" viewBox="0 0 298.66 282.43"><defs><style>.cls-1{fill:#c7423a;}.cls-2{fill:#ffe7e6;}.cls-3{fill:#1f5d73;}.cls-4{fill:#eb6860;}</style></defs><title>goldenfish</title><g id="fish2"><g id="_群組_" data-name="&lt;群組&gt;"><circle id="_路徑_" data-name="&lt;路徑&gt;" class="cls-1" cx="117.37" cy="144.27" r="117.4"/><ellipse id="_路徑_2" data-name="&lt;路徑&gt;" class="cls-2" cx="71.7" cy="106.17" rx="27.81" ry="32.37" transform="translate(-40.13 43.67) rotate(-26.77)"/><ellipse id="_路徑_3" data-name="&lt;路徑&gt;" class="cls-3" cx="71.7" cy="106.17" rx="19.12" ry="22.25" transform="translate(-40.13 43.67) rotate(-26.77)"/><ellipse id="_路徑_4" data-name="&lt;路徑&gt;" class="cls-3" cx="19.95" cy="149.37" rx="9.02" ry="6.4" transform="translate(-100.33 58.58) rotate(-45.35)"/><path id="_路徑_5" data-name="&lt;路徑&gt;" class="cls-3" d="M7.52,185.76s1.57-8.3,8.17-7,21.64,17.81,36.21,17.15,15-13.35,9.05-14.59-5.94,6.1-2.47,7.34-5.86,9.07-16.08,3.79-26-19.79-31.58-15.67-4.05,6.93-4.05,6.93Z"/><path id="_路徑_6" data-name="&lt;路徑&gt;" class="cls-4" d="M259.4,196c12.53-27-2.58-48.17-2.58-48.17s19.72-10.88,26-37.59-28.36-35.53-28.36-35.53a220.42,220.42,0,0,0,29-46.26c13.19-28-24.81-26.25-24.81-26.25-30.19,11.1-40.55,62.28-43,77.86a117.51,117.51,0,0,1,6.26,117.77c3.9,5.91,10.34,15.65,14.91,22.35C243.5,217.31,252.49,210.83,259.4,196Z"/><path id="_路徑_7" data-name="&lt;路徑&gt;" class="cls-2" d="M272.15,68.2S328.43,8.39,277,.48a36.21,36.21,0,0,0-18.32,1.67s38-1.78,24.81,26.25a220.42,220.42,0,0,1-29,46.26s34.63,8.82,28.36,35.53-26,37.59-26,37.59,15.11,21.15,2.58,48.17c-6.91,14.88-15.9,21.36-22.6,24.18,1.72,2.52,3.17,4.62,4.13,5.92,4.84,6.6,30.34,1.76,35.18-25.94s-4.4-42.91-4.4-42.91,13.63-2.82,22.86-41.08S272.15,68.2,272.15,68.2Z"/><path id="_路徑_8" data-name="&lt;路徑&gt;" class="cls-4" d="M128.64,274.42c8.9-4,10.63-14.79,10.63-14.79s14.76,17.43,21.52,12.15,5.11-20.12,5.11-20.12,18.14,6.93,23.75-1.48-2.81-19.29-2.81-19.29C172.66,223,131.44,209.12,107.7,217c0,0-2.84,22.58,1.15,41C109.17,258.59,119.87,278.32,128.64,274.42Z"/><path id="_路徑_9" data-name="&lt;路徑&gt;" class="cls-2" d="M186.84,230.89s8.41,10.88,2.81,19.29-23.75,1.48-23.75,1.48,1.65,14.84-5.11,20.12-21.52-12.15-21.52-12.15-1.73,10.83-10.63,14.79S109.17,258.59,108.85,258c1.94,8.91,5.46,16.83,11.71,20.71,19.12,11.87,19.78-10.56,19.78-10.56s5.61,11.56,17.15,14,18.8-13.36,14.18-24.57c0,0,12.54,6.93,19.46,2S201,238.8,186.84,230.89Z"/><circle id="_路徑_10" data-name="&lt;路徑&gt;" class="cls-2" cx="138.7" cy="58.08" r="5.28"/><circle id="_路徑_11" data-name="&lt;路徑&gt;" class="cls-2" cx="186.18" cy="85.78" r="5.28"/><circle id="_路徑_12" data-name="&lt;路徑&gt;" class="cls-2" cx="134.97" cy="119.19" r="4.85"/><circle id="_路徑_13" data-name="&lt;路徑&gt;" class="cls-2" cx="197.3" cy="143.53" r="5.84"/><circle id="_路徑_14" data-name="&lt;路徑&gt;" class="cls-2" cx="148.83" cy="162.06" r="4.85"/><circle id="_路徑_15" data-name="&lt;路徑&gt;" class="cls-2" cx="77.63" cy="52.15" r="5.94"/><circle id="_路徑_16" data-name="&lt;路徑&gt;" class="cls-2" cx="32.1" cy="78.92" r="4.35"/><circle id="_路徑_17" data-name="&lt;路徑&gt;" class="cls-2" cx="246.86" cy="52.15" r="5.94"/><circle id="_路徑_18" data-name="&lt;路徑&gt;" class="cls-2" cx="255.69" cy="119.01" r="8.82"/><circle id="_路徑_19" data-name="&lt;路徑&gt;" class="cls-2" cx="247.53" cy="189.35" r="6.61"/><circle id="_路徑_20" data-name="&lt;路徑&gt;" class="cls-2" cx="123.03" cy="248.2" r="3.46"/><circle id="_路徑_21" data-name="&lt;路徑&gt;" class="cls-2" cx="153.32" cy="249.24" r="4.5"/><circle id="_路徑_22" data-name="&lt;路徑&gt;" class="cls-2" cx="174.31" cy="240.78" r="2.31"/></g></g></svg>