<svg xmlns="http://www.w3.org/2000/svg" viewBox="0 0 30.57 29.98"><defs><style>.cls-1{fill:#968756;}.cls-2{fill:#028090;}.cls-3{fill:none;stroke:#028090;stroke-linecap:round;stroke-linejoin:round;}</style></defs><title>button_img</title><g id="l1"><ellipse id="_路徑_" data-name="&lt;路徑&gt;" class="cls-1" cx="11.91" cy="24.02" rx="11.91" ry="5.95"/><g id="_群組_" data-name="&lt;群組&gt;"><path id="_矩形_" data-name="&lt;矩形&gt;" class="cls-2" d="M4,0H4a11.2,11.2,0,0,1,11.2,11.2v0a.51.51,0,0,1-.51.51h0A11.2,11.2,0,0,1,3.54.51v0A.51.51,0,0,1,4,0Z"/><path id="_矩形_2" data-name="&lt;矩形&gt;" class="cls-2" d="M28,3.79h0a.51.51,0,0,1,.51.51v0a11.2,11.2,0,0,1-11.2,11.2h0a.51.51,0,0,1-.51-.51v0A11.2,11.2,0,0,1,28,3.79Z" transform="translate(36.08 30.21) rotate(-146.3)"/><path id="_路徑_2" data-name="&lt;路徑&gt;" class="cls-3" d="M12.07,22.8s-.42-8.07,2.62-11.54"/></g></g></svg>