<svg xmlns="http://www.w3.org/2000/svg" viewBox="0 0 43.38 33.75"><defs><style>.cls-1{fill:#ffe491;}.cls-2{fill:#ffd557;}.cls-3{fill:#ffbf00;}.cls-4{fill:#eb9994;}.cls-5{fill:#eb6860;}.cls-6{fill:#f39800;}.cls-7{fill:#c7423a;}</style></defs><title>title_cheese</title><g id="n2"><g id="_群組_" data-name="&lt;群組&gt;"><path id="_路徑_" data-name="&lt;路徑&gt;" class="cls-1" d="M37.92,0l.14.46C38,.16,37.92,0,37.92,0Z"/><polygon id="_路徑_2" data-name="&lt;路徑&gt;" class="cls-2" points="0.3 7.57 4.66 21.6 33.21 33.75 28.86 19.72 0.3 7.57"/><path id="_路徑_3" data-name="&lt;路徑&gt;" class="cls-3" d="M42.67,17.28,38.06.46c.59,2.15,3.76,11.22-9.2,19.26l4.35,14C45.69,25.47,42.67,17.28,42.67,17.28Z"/><path id="_路徑_4" data-name="&lt;路徑&gt;" class="cls-1" d="M.3,7.57,28.86,19.72c13-8,9.79-17.11,9.2-19.26L37.92,0Z"/><path id="_路徑_5" data-name="&lt;路徑&gt;" class="cls-4" d="M8.19,8.84c-1.46-1-3.36,0-4,.38l4.46,1.9A1.43,1.43,0,0,0,8.19,8.84Z"/><path id="_路徑_6" data-name="&lt;路徑&gt;" class="cls-5" d="M7.81,16.28c1.24-.39,1.67-2.54,1-4.82l-.12-.34L4.19,9.22a6,6,0,0,0,.1,3.63C5,15.13,6.57,16.66,7.81,16.28Z"/><ellipse id="_路徑_7" data-name="&lt;路徑&gt;" class="cls-5" cx="13.3" cy="21.73" rx="1.28" ry="2.36" transform="translate(-5.84 4.92) rotate(-17.25)"/><ellipse id="_路徑_8" data-name="&lt;路徑&gt;" class="cls-5" cx="23.25" cy="22.65" rx="2.41" ry="4.13" transform="translate(-5.67 7.91) rotate(-17.25)"/><path id="_路徑_9" data-name="&lt;路徑&gt;" class="cls-6" d="M30.46,28.75c.32,1,1.07,1.72,1.68,1.53L31,26.54C30.37,26.72,30.14,27.71,30.46,28.75Z"/><path id="_路徑_10" data-name="&lt;路徑&gt;" class="cls-7" d="M32.65,28.07c-.32-1-1.07-1.72-1.68-1.53l1.17,3.74C32.74,30.1,33,29.11,32.65,28.07Z"/><ellipse id="_路徑_11" data-name="&lt;路徑&gt;" class="cls-4" cx="16.88" cy="7.49" rx="2.41" ry="2.02" transform="translate(-0.95 2.7) rotate(-8.88)"/><ellipse id="_路徑_12" data-name="&lt;路徑&gt;" class="cls-4" cx="27.19" cy="13.81" rx="1.44" ry="1.21" transform="translate(-1.81 4.36) rotate(-8.88)"/><g id="_群組_2" data-name="&lt;群組&gt;"><path id="_路徑_13" data-name="&lt;路徑&gt;" class="cls-4" d="M32.56,6.4c2.38-.37,4-2.28,3.74-4.27A3.17,3.17,0,0,0,35.44.41L27.84,2a3.2,3.2,0,0,0-.14,1.51C28,5.46,30.19,6.77,32.56,6.4Z"/></g><ellipse id="_路徑_14" data-name="&lt;路徑&gt;" class="cls-7" cx="35.33" cy="20.42" rx="2.04" ry="2.68" transform="translate(-4.47 11.39) rotate(-17.25)"/><g id="_群組_3" data-name="&lt;群組&gt;"><path id="_路徑_15" data-name="&lt;路徑&gt;" class="cls-7" d="M42.67,17.28a1.53,1.53,0,0,0-.36.07c-1.23.38-1.82,2-1.32,3.62a3.54,3.54,0,0,0,1.43,2A10.36,10.36,0,0,0,42.67,17.28Z"/></g><ellipse id="_路徑_16" data-name="&lt;路徑&gt;" class="cls-7" cx="40.25" cy="14.19" rx="0.61" ry="0.8" transform="translate(-2.4 12.57) rotate(-17.25)"/></g></g></svg>