<svg xmlns="http://www.w3.org/2000/svg" viewBox="0 0 407.56 822.98"><defs><style>.cls-1{fill:#d4e4e6;}.cls-2{fill:#14a5b8;}.cls-3{fill:#eb6860;}.cls-4{fill:#39bbcc;}.cls-5{fill:#968756;}</style></defs><title>video_tree_right</title><g id="圖層_45" data-name="圖層 45"><path class="cls-1" d="M9.64,823s-21.69-83.7,0-85.47c0,0,12.56-6,18.78,10.1s6.09,21.95,16.26,17.49c0,0,8.79-4.09,4-28.69s-5.81-42.15,4.69-42.87,28.75,50.19,41,46.1c0,0,11.23,1.86,8.11-46.11,0,0-1.44-41.37,16.39-43.38,0,0,7.24-2.84,15.82,20.16s13.68,42.33,22.35,42,12-19.67,16-33.33,9.53-17.21,17.27-18.72,14.24,2.63,17.46,10.65a75.17,75.17,0,0,1,5.42,23.41c.68,8.43,4.36,16.4,6.23,18.58s6.79,8.35,15.62,5.41c0,0,.92-.31,1.38-2.28a176.4,176.4,0,0,0,2.18-20.85c.46-9.56,2.36-40.24,16.57-40.89s18.45,11.65,20,23,3.18,25,10.3,41.21S309.35,773.14,313.85,823Z"/><path class="cls-2" d="M407.56,823V740l-9-.56s-5,8.21-9.69,1.52c0,0-3.55-5.4-8.36-19.38s-10.24-34.76-19.62-37.25c0,0-9.75-2.39-13.17,15.18a126.49,126.49,0,0,0-1.28,19.69c.12,11.07-.78,22.65-10.58,11.51a111.92,111.92,0,0,1-9-16.73c-4.73-10.63-16.22-43.92-32.19-25.72,0,0-5.73,5.85-2.13,31.25,0,0,4.67,26.94,6.42,32.69s13.24,42.88,14.88,70.25Z"/></g><g id="bg1"><circle id="_路徑_" data-name="&lt;路徑&gt;" class="cls-3" cx="53.34" cy="670.31" r="8.67"/><circle id="_路徑_2" data-name="&lt;路徑&gt;" class="cls-3" cx="188.68" cy="621.31" r="15.67"/><g id="_群組_" data-name="&lt;群組&gt;"><path id="_路徑_3" data-name="&lt;路徑&gt;" class="cls-3" d="M371.81,628.78l-10.95,23-18-18a25.49,25.49,0,1,0,29-5Z"/></g><g id="_群組_2" data-name="&lt;群組&gt;"><path id="_路徑_4" data-name="&lt;路徑&gt;" class="cls-4" d="M184.34,11.23c-95.56,31.69-131.83,181.63-81,334.92S272.82,598,368.38,566.32a118.34,118.34,0,0,0,39-21.93V139.61C347.85,41.29,259-13.53,184.34,11.23Z"/></g><g id="_群組_3" data-name="&lt;群組&gt;"><path id="_路徑_5" data-name="&lt;路徑&gt;" class="cls-5" d="M373.67,442.47q-10.14-23.69-21.9-47a726.44,726.44,0,0,0-54.87-91.16c-3.38-5.9-16.88-19.88-32.24-13.88-16.71,6.53-15.41,19.8-12.34,29.78a151.42,151.42,0,0,0,12.75,33.8c7.84,14.39,14.3,28.88,21.85,43.35s14.92,29,22,43.54c38.79,85,77.07,169.1,85.18,264.17,2,26.22,7.3,51,13.22,76V526.75A703.41,703.41,0,0,0,373.67,442.47Z"/></g></g></svg>