<svg xmlns="http://www.w3.org/2000/svg" viewBox="0 0 1919.5 62.13"><defs><style>.cls-1{fill:#ffe7e6;}</style></defs><title>feature_bottom</title><g id="bg5"><path id="_路徑_" data-name="&lt;路徑&gt;" class="cls-1" d="M1919.5,62.13V18.82A18.83,18.83,0,0,0,1900.68,0h0a18.83,18.83,0,0,0-18.82,18.82V33.68A18.82,18.82,0,0,1,1863,52.5h0a18.82,18.82,0,0,1-18.81-18.82V18.82A18.83,18.83,0,0,0,1825.41,0h0a18.82,18.82,0,0,0-18.82,18.82V33.68a18.83,18.83,0,0,1-18.82,18.82h0A18.83,18.83,0,0,1,1769,33.68V18.82A18.82,18.82,0,0,0,1750.13,0h0a18.83,18.83,0,0,0-18.82,18.82V33.68A18.82,18.82,0,0,1,1712.5,52.5h0a18.82,18.82,0,0,1-18.82-18.82V18.82A18.83,18.83,0,0,0,1674.86,0h0A18.82,18.82,0,0,0,1656,18.82V33.68a18.83,18.83,0,0,1-18.82,18.82h0a18.83,18.83,0,0,1-18.82-18.82V18.82A18.82,18.82,0,0,0,1599.58,0h0a18.83,18.83,0,0,0-18.82,18.82V33.68A18.82,18.82,0,0,1,1562,52.5h0a18.82,18.82,0,0,1-18.82-18.82V18.82A18.83,18.83,0,0,0,1524.31,0h0a18.83,18.83,0,0,0-18.82,18.82V33.68a18.82,18.82,0,0,1-18.82,18.82h0a18.83,18.83,0,0,1-18.82-18.82V18.82A18.82,18.82,0,0,0,1449,0h0a18.82,18.82,0,0,0-18.81,18.82V33.68A18.83,18.83,0,0,1,1411.4,52.5h0a18.82,18.82,0,0,1-18.82-18.82V18.82A18.83,18.83,0,0,0,1373.76,0h0a18.83,18.83,0,0,0-18.82,18.82V33.68a18.82,18.82,0,0,1-18.82,18.82h0a18.83,18.83,0,0,1-18.82-18.82V18.82A18.82,18.82,0,0,0,1298.49,0h0a18.82,18.82,0,0,0-18.82,18.82V33.68a18.83,18.83,0,0,1-18.82,18.82h0A18.82,18.82,0,0,1,1242,33.68V18.82A18.83,18.83,0,0,0,1223.21,0h0a18.83,18.83,0,0,0-18.82,18.82V33.68a18.82,18.82,0,0,1-18.82,18.82h0a18.82,18.82,0,0,1-18.81-18.82V18.82A18.83,18.83,0,0,0,1147.94,0h0a18.82,18.82,0,0,0-18.82,18.82V33.68A18.83,18.83,0,0,1,1110.3,52.5h0a18.83,18.83,0,0,1-18.82-18.82V18.82A18.82,18.82,0,0,0,1072.66,0h0a18.83,18.83,0,0,0-18.82,18.82V33.68A18.82,18.82,0,0,1,1035,52.5h0a18.82,18.82,0,0,1-18.81-18.82V18.82A18.83,18.83,0,0,0,997.39,0h0a18.82,18.82,0,0,0-18.82,18.82V33.68A18.83,18.83,0,0,1,959.75,52.5h0a18.83,18.83,0,0,1-18.82-18.82V18.82A18.82,18.82,0,0,0,922.11,0h0a18.83,18.83,0,0,0-18.82,18.82V33.68A18.82,18.82,0,0,1,884.48,52.5h0a18.82,18.82,0,0,1-18.82-18.82V18.82A18.83,18.83,0,0,0,846.84,0h0A18.83,18.83,0,0,0,828,18.82V33.68A18.83,18.83,0,0,1,809.2,52.5h0a18.83,18.83,0,0,1-18.82-18.82V18.82A18.82,18.82,0,0,0,771.56,0h0a18.82,18.82,0,0,0-18.81,18.82V33.68A18.83,18.83,0,0,1,733.93,52.5h0a18.82,18.82,0,0,1-18.82-18.82V18.82A18.83,18.83,0,0,0,696.29,0h0a18.83,18.83,0,0,0-18.82,18.82V33.68A18.82,18.82,0,0,1,658.65,52.5h0a18.83,18.83,0,0,1-18.82-18.82V18.82A18.82,18.82,0,0,0,621,0h0A18.82,18.82,0,0,0,602.2,18.82V33.68A18.83,18.83,0,0,1,583.38,52.5h0a18.82,18.82,0,0,1-18.82-18.82V18.82A18.83,18.83,0,0,0,545.74,0h0a18.83,18.83,0,0,0-18.82,18.82V33.68A18.82,18.82,0,0,1,508.1,52.5h0a18.83,18.83,0,0,1-18.82-18.82V18.82A18.82,18.82,0,0,0,470.47,0h0a18.82,18.82,0,0,0-18.82,18.82V33.68A18.83,18.83,0,0,1,432.83,52.5h0A18.83,18.83,0,0,1,414,33.68V18.82A18.83,18.83,0,0,0,395.19,0h0a18.83,18.83,0,0,0-18.82,18.82V33.68A18.82,18.82,0,0,1,357.55,52.5h0a18.82,18.82,0,0,1-18.81-18.82V18.82A18.83,18.83,0,0,0,319.92,0h0A18.82,18.82,0,0,0,301.1,18.82V33.68A18.83,18.83,0,0,1,282.28,52.5h0a18.83,18.83,0,0,1-18.82-18.82V18.82A18.82,18.82,0,0,0,244.64,0h0a18.83,18.83,0,0,0-18.82,18.82V33.68A18.82,18.82,0,0,1,207,52.5h0a18.82,18.82,0,0,1-18.81-18.82V18.82A18.83,18.83,0,0,0,169.37,0h0a18.82,18.82,0,0,0-18.82,18.82V33.68A18.83,18.83,0,0,1,131.73,52.5h0a18.83,18.83,0,0,1-18.82-18.82V18.82A18.82,18.82,0,0,0,94.09,0h0A18.83,18.83,0,0,0,75.27,18.82V33.68A18.82,18.82,0,0,1,56.46,52.5h0A18.82,18.82,0,0,1,37.64,33.68V18.82A18.83,18.83,0,0,0,18.82,0h0A18.83,18.83,0,0,0,0,18.82V62.13"/></g></svg>