<svg xmlns="http://www.w3.org/2000/svg" viewBox="0 0 1920 1357.89"><defs><style>.cls-1{fill:#14a5b8;}.cls-2{fill:#b28247;}.cls-3{fill:#114b5f;}.cls-19,.cls-4{fill:#fff;}.cls-5{fill:#c7423a;}.cls-6{fill:#d4e4e6;}.cls-7{fill:#ffabb7;}.cls-10,.cls-7{stroke:#fff;stroke-linecap:round;stroke-linejoin:round;stroke-width:4px;}.cls-8{fill:#39bbcc;}.cls-9{fill:#028090;}.cls-10{fill:none;}.cls-11{fill:#1a7291;}.cls-12{fill:#6ed8e6;}.cls-13{fill:#ffe491;}.cls-14{fill:#ffd557;}.cls-15{fill:#dcdddd;}.cls-16{fill:#eb6860;}.cls-17{fill:#eb9994;}.cls-18{fill:#ffccc9;}.cls-19{font-size:45px;font-family:GenJyuuGothicX-Bold, Gen Jyuu GothicX;font-weight:700;}</style></defs><title>about_1</title><g id="bg1"><path class="cls-1" d="M1827.05,8.09c15,85.5-51,180-51,180L1918.14,497.5S1920,189.59,1920,150.59v-179c-33.26.89-66.47,1.3-99.65,1.48C1822.59-16,1824.86-4.34,1827.05,8.09Z"/><path id="_路徑_" data-name="&lt;路徑&gt;" class="cls-1" d="M47.57,0c-5.17,16.28-8.75,33.22-8.92,50.09-.74,78,.9,193.49,37,235.49L0,390.58V0"/></g><g id="flag"><g id="_群組_" data-name="&lt;群組&gt;"><rect id="_矩形_" data-name="&lt;矩形&gt;" class="cls-2" x="1322.82" y="460.3" width="5.22" height="162.53" rx="1.91" ry="1.91" transform="translate(-50.56 937.44) rotate(-38.28)"/><g id="_群組_2" data-name="&lt;群組&gt;"><g id="_群組_3" data-name="&lt;群組&gt;"><path id="_路徑_2" data-name="&lt;路徑&gt;" class="cls-3" d="M1280.76,475.29q.09-.33.21-.66Q1280.85,475,1280.76,475.29Z"/><path id="_路徑_3" data-name="&lt;路徑&gt;" class="cls-3" d="M1282.22,472.34l.28-.36Z"/><path id="_路徑_4" data-name="&lt;路徑&gt;" class="cls-3" d="M1346.83,421c.13-.09.28-.17.42-.25C1347.11,420.82,1347,420.89,1346.83,421Z"/><path id="_路徑_5" data-name="&lt;路徑&gt;" class="cls-3" d="M1282.82,471.64l.24-.25Z"/><path id="_路徑_6" data-name="&lt;路徑&gt;" class="cls-3" d="M1281.73,473.05c.09-.15.18-.3.28-.44C1281.91,472.75,1281.82,472.9,1281.73,473.05Z"/><path id="_路徑_7" data-name="&lt;路徑&gt;" class="cls-3" d="M1281.32,473.78c.09-.17.18-.35.28-.52C1281.5,473.43,1281.41,473.61,1281.32,473.78Z"/><path id="_路徑_8" data-name="&lt;路徑&gt;" class="cls-3" d="M1281,474.53c.08-.2.16-.4.25-.59C1281.16,474.13,1281.08,474.33,1281,474.53Z"/><path id="_路徑_9" data-name="&lt;路徑&gt;" class="cls-3" d="M1391.51,466.43c0,.19.08.39.11.59C1391.59,466.82,1391.55,466.62,1391.51,466.43Z"/><path id="_路徑_10" data-name="&lt;路徑&gt;" class="cls-3" d="M1350.31,419.69c.22,0,.45-.05.67-.06C1350.76,419.64,1350.53,419.66,1350.31,419.69Z"/><path id="_路徑_11" data-name="&lt;路徑&gt;" class="cls-3" d="M1349.53,419.84c.23-.06.47-.1.71-.14C1350,419.74,1349.77,419.78,1349.53,419.84Z"/><path id="_路徑_12" data-name="&lt;路徑&gt;" class="cls-3" d="M1348.13,420.3a5.92,5.92,0,0,1,.66-.25A5.92,5.92,0,0,0,1348.13,420.3Z"/><path id="_路徑_13" data-name="&lt;路徑&gt;" class="cls-3" d="M1347.48,420.6a6.11,6.11,0,0,1,.58-.27A6.11,6.11,0,0,0,1347.48,420.6Z"/><path id="_路徑_14" data-name="&lt;路徑&gt;" class="cls-3" d="M1391.58,469.74a6.2,6.2,0,0,1-.16.72A6.2,6.2,0,0,0,1391.58,469.74Z"/><path id="_路徑_15" data-name="&lt;路徑&gt;" class="cls-3" d="M1348.79,420.05l.72-.21Z"/><path id="_路徑_16" data-name="&lt;路徑&gt;" class="cls-3" d="M1280.82,480c0-.17-.09-.34-.13-.52C1280.73,479.69,1280.77,479.86,1280.82,480Z"/><path id="_路徑_17" data-name="&lt;路徑&gt;" class="cls-3" d="M1325.34,524.82l-.44.26Z"/><path id="_路徑_18" data-name="&lt;路徑&gt;" class="cls-3" d="M1322.62,526c-.24,0-.47.1-.71.13C1322.15,526.07,1322.38,526,1322.62,526Z"/><path id="_路徑_19" data-name="&lt;路徑&gt;" class="cls-3" d="M1389.35,474.16l-.24.25Z"/><path id="_路徑_20" data-name="&lt;路徑&gt;" class="cls-3" d="M1324.68,525.2a6.36,6.36,0,0,1-.59.28A6.36,6.36,0,0,0,1324.68,525.2Z"/><path id="_路徑_21" data-name="&lt;路徑&gt;" class="cls-3" d="M1390,473.46l-.28.36Z"/><path id="_路徑_22" data-name="&lt;路徑&gt;" class="cls-3" d="M1390.85,472c-.09.18-.18.36-.28.54C1390.67,472.36,1390.76,472.18,1390.85,472Z"/><path id="_路徑_23" data-name="&lt;路徑&gt;" class="cls-3" d="M1390.44,472.74c-.09.15-.18.3-.29.45C1390.26,473,1390.35,472.89,1390.44,472.74Z"/><path id="_路徑_24" data-name="&lt;路徑&gt;" class="cls-3" d="M1391.41,470.49c-.06.23-.13.46-.21.68C1391.28,471,1391.35,470.72,1391.41,470.49Z"/><path id="_路徑_25" data-name="&lt;路徑&gt;" class="cls-3" d="M1351.1,419.62h0Z"/><path id="_路徑_26" data-name="&lt;路徑&gt;" class="cls-3" d="M1317.64,525.62c-.17-.07-.34-.13-.5-.21C1317.3,525.49,1317.47,525.55,1317.64,525.62Z"/><path id="_路徑_27" data-name="&lt;路徑&gt;" class="cls-3" d="M1281.06,480.71l-.15-.43Z"/><path id="_路徑_28" data-name="&lt;路徑&gt;" class="cls-3" d="M1318.32,525.85l-.49-.16Z"/><path id="_路徑_29" data-name="&lt;路徑&gt;" class="cls-3" d="M1321.84,526.11c-.22,0-.45,0-.67.06C1321.39,526.16,1321.62,526.14,1321.84,526.11Z"/><path id="_路徑_30" data-name="&lt;路徑&gt;" class="cls-3" d="M1391.17,471.25c-.08.21-.16.41-.25.61C1391,471.66,1391.09,471.46,1391.17,471.25Z"/><path id="_路徑_31" data-name="&lt;路徑&gt;" class="cls-3" d="M1319,526l-.51-.13Z"/><path id="_路徑_32" data-name="&lt;路徑&gt;" class="cls-3" d="M1391.1,465.07l.16.45C1391.21,465.37,1391.16,465.22,1391.1,465.07Z"/><polygon id="_路徑_33" data-name="&lt;路徑&gt;" class="cls-3" points="1326.74 523.76 1388 475.34 1340.18 478.07 1326.74 523.76"/><path id="_路徑_34" data-name="&lt;路徑&gt;" class="cls-3" d="M1391.34,465.76c.05.17.1.34.14.52C1391.44,466.1,1391.39,465.93,1391.34,465.76Z"/><path id="_路徑_35" data-name="&lt;路徑&gt;" class="cls-3" d="M1328.75,478.72l-47.37,2.69c-.06-.1-.1-.21-.15-.31a8.65,8.65,0,0,0,1.06,1.73L1314,523a8.45,8.45,0,0,0,3,2.4,8.83,8.83,0,0,1-1.67-1.05Z"/><path id="_路徑_36" data-name="&lt;路徑&gt;" class="cls-3" d="M1280.59,476.05a6.2,6.2,0,0,1,.16-.72,8.62,8.62,0,0,0-.1,4c0-.2-.08-.4-.11-.6A8.56,8.56,0,0,1,1280.59,476.05Z"/><polygon id="_路徑_37" data-name="&lt;路徑&gt;" class="cls-3" points="1345.41 422.05 1284.19 470.44 1331.98 467.73 1345.41 422.05"/><path id="_路徑_38" data-name="&lt;路徑&gt;" class="cls-3" d="M1319.14,526a8.87,8.87,0,0,0,1.92.14q-.33,0-.66,0A7.71,7.71,0,0,1,1319.14,526Z"/><path id="_路徑_39" data-name="&lt;路徑&gt;" class="cls-3" d="M1391.58,469.74a8.56,8.56,0,0,0,0-2.72A8.56,8.56,0,0,1,1391.58,469.74Z"/><path id="_路徑_40" data-name="&lt;路徑&gt;" class="cls-3" d="M1353.84,420l.48.16Z"/><path id="_路徑_41" data-name="&lt;路徑&gt;" class="cls-3" d="M1322.64,526a9,9,0,0,0,1.39-.45c-.22.09-.45.18-.67.25A6.44,6.44,0,0,1,1322.64,526Z"/><path id="_路徑_42" data-name="&lt;路徑&gt;" class="cls-3" d="M1352.94,419.75a7.89,7.89,0,0,0-1.18-.13A7.89,7.89,0,0,1,1352.94,419.75Z"/><path id="_路徑_43" data-name="&lt;路徑&gt;" class="cls-3" d="M1353.13,419.78l.49.11Z"/><path id="_路徑_44" data-name="&lt;路徑&gt;" class="cls-3" d="M1356.82,421.5l-13.4,45.58,47.36-2.7c.06.12.12.25.17.37a8.59,8.59,0,0,0-1.07-1.78l-31.71-40.12a8.58,8.58,0,0,0-3-2.41A8.37,8.37,0,0,1,1356.82,421.5Z"/><path id="_路徑_45" data-name="&lt;路徑&gt;" class="cls-3" d="M1354.52,420.18a5.32,5.32,0,0,1,.5.21A5.32,5.32,0,0,0,1354.52,420.18Z"/><path id="_路徑_46" data-name="&lt;路徑&gt;" class="cls-4" d="M1317.83,525.69l-.19-.07Z"/><path id="_路徑_47" data-name="&lt;路徑&gt;" class="cls-4" d="M1318.53,525.9l-.21,0Z"/><path id="_路徑_48" data-name="&lt;路徑&gt;" class="cls-4" d="M1319.14,526h0Z"/><path id="_路徑_49" data-name="&lt;路徑&gt;" class="cls-4" d="M1391.42,470.46v0Z"/><path id="_路徑_50" data-name="&lt;路徑&gt;" class="cls-4" d="M1391.26,465.52a2.25,2.25,0,0,0,.08.24A2.25,2.25,0,0,1,1391.26,465.52Z"/><path id="_路徑_51" data-name="&lt;路徑&gt;" class="cls-4" d="M1324.09,525.48l-.06,0Z"/><polygon id="_路徑_52" data-name="&lt;路徑&gt;" class="cls-4" points="1391.62 467.02 1391.62 467.02 1391.62 467.02 1391.62 467.02"/><path id="_路徑_53" data-name="&lt;路徑&gt;" class="cls-4" d="M1390.15,473.19l-.2.27Z"/><path id="_路徑_54" data-name="&lt;路徑&gt;" class="cls-4" d="M1389.67,473.82l-.32.34Z"/><path id="_路徑_55" data-name="&lt;路徑&gt;" class="cls-4" d="M1391.2,471.17l0,.08Z"/><path id="_路徑_56" data-name="&lt;路徑&gt;" class="cls-4" d="M1390.92,471.86c0,.05-.05.1-.07.14S1390.9,471.91,1390.92,471.86Z"/><path id="_路徑_57" data-name="&lt;路徑&gt;" class="cls-4" d="M1352.94,419.75l.19,0Z"/><path id="_路徑_58" data-name="&lt;路徑&gt;" class="cls-4" d="M1326,524.35a7.11,7.11,0,0,1-.65.47A7.11,7.11,0,0,0,1326,524.35Z"/><path id="_路徑_59" data-name="&lt;路徑&gt;" class="cls-4" d="M1391,464.75l.15.32Z"/><path id="_路徑_60" data-name="&lt;路徑&gt;" class="cls-4" d="M1324.9,525.08l-.22.12Z"/><path id="_路徑_61" data-name="&lt;路徑&gt;" class="cls-4" d="M1389.11,474.41c-.2.19-.41.38-.64.56C1388.7,474.79,1388.91,474.6,1389.11,474.41Z"/><path id="_路徑_62" data-name="&lt;路徑&gt;" class="cls-4" d="M1390.57,472.54l-.13.2Z"/><path id="_路徑_63" data-name="&lt;路徑&gt;" class="cls-4" d="M1347.25,420.73l.23-.13Z"/><polygon id="_路徑_64" data-name="&lt;路徑&gt;" class="cls-4" points="1348.79 420.05 1348.79 420.05 1348.79 420.05 1348.79 420.05"/><path id="_路徑_65" data-name="&lt;路徑&gt;" class="cls-4" d="M1317.14,525.41l-.13-.06Z"/><path id="_路徑_66" data-name="&lt;路徑&gt;" class="cls-4" d="M1282.5,472c.1-.12.21-.23.32-.34C1282.71,471.75,1282.6,471.86,1282.5,472Z"/><path id="_路徑_67" data-name="&lt;路徑&gt;" class="cls-4" d="M1346.83,421c-.23.15-.44.3-.66.47l-.76.6h0l.76-.6C1346.39,421.28,1346.6,421.13,1346.83,421Z"/><path id="_路徑_68" data-name="&lt;路徑&gt;" class="cls-4" d="M1348.06,420.33l.07,0Z"/><path id="_路徑_69" data-name="&lt;路徑&gt;" class="cls-4" d="M1282,472.61l.21-.27Z"/><path id="_路徑_70" data-name="&lt;路徑&gt;" class="cls-4" d="M1391.48,466.28l0,.15Z"/><path id="_路徑_71" data-name="&lt;路徑&gt;" class="cls-4" d="M1353.62,419.89l.22.06Z"/><path id="_路徑_72" data-name="&lt;路徑&gt;" class="cls-4" d="M1355,420.39l.11.05Z"/><path id="_路徑_73" data-name="&lt;路徑&gt;" class="cls-4" d="M1354.32,420.11l.2.07Z"/><polygon id="_路徑_74" data-name="&lt;路徑&gt;" class="cls-4" points="1351.76 419.62 1351.74 419.62 1351.74 419.62 1351.76 419.62"/><path id="_路徑_75" data-name="&lt;路徑&gt;" class="cls-4" d="M1280.75,475.33v0Z"/><path id="_路徑_76" data-name="&lt;路徑&gt;" class="cls-4" d="M1280.91,480.28l-.09-.25Z"/><path id="_路徑_77" data-name="&lt;路徑&gt;" class="cls-4" d="M1280.69,479.51a1,1,0,0,1,0-.14A1,1,0,0,0,1280.69,479.51Z"/><path id="_路徑_78" data-name="&lt;路徑&gt;" class="cls-4" d="M1281.23,481.1c-.06-.13-.12-.26-.17-.39C1281.11,480.84,1281.17,481,1281.23,481.1Z"/><path id="_路徑_79" data-name="&lt;路徑&gt;" class="cls-4" d="M1281.25,473.94c0-.05,0-.1.07-.16S1281.27,473.89,1281.25,473.94Z"/><path id="_路徑_80" data-name="&lt;路徑&gt;" class="cls-4" d="M1281.6,473.26a2.39,2.39,0,0,1,.13-.21A2.39,2.39,0,0,0,1281.6,473.26Z"/><path id="_路徑_81" data-name="&lt;路徑&gt;" class="cls-4" d="M1284.19,470.44h0l-.5.4a8.27,8.27,0,0,0-.63.55,8.27,8.27,0,0,1,.63-.55Z"/><path id="_路徑_82" data-name="&lt;路徑&gt;" class="cls-4" d="M1281,474.63l0-.1Z"/><path id="_路徑_83" data-name="&lt;路徑&gt;" class="cls-4" d="M1320.4,526.18l13.75-46.7-2.84-3.59-50.77,2.88c0,.2.07.4.11.6a1,1,0,0,0,0,.14c0,.18.08.35.13.52l.09.25.15.43c0,.13.11.26.17.39s.09.21.15.31l47.37-2.69-13.41,45.58a8.83,8.83,0,0,0,1.67,1.05l.13.06c.16.08.33.14.5.21l.19.07.49.16.21,0,.51.13h.1A7.71,7.71,0,0,0,1320.4,526.18Z"/><path id="_路徑_84" data-name="&lt;路徑&gt;" class="cls-4" d="M1342.8,472.52l1.42,1.79-7.46,5.9-13.4,45.55c.22-.07.45-.16.67-.25l.06,0a6.36,6.36,0,0,0,.59-.28l.22-.12.44-.26a7.11,7.11,0,0,0,.65-.47l.75-.59,13.44-45.69,47.82-2.73.47-.37c.23-.18.44-.37.64-.56l.24-.25.32-.34.28-.36.2-.27c.11-.15.2-.3.29-.45l.13-.2c.1-.18.19-.36.28-.54s.05-.09.07-.14.17-.4.25-.61l0-.08c.08-.22.15-.45.21-.68v0a6.2,6.2,0,0,0,.16-.72h0Z"/><path id="_路徑_85" data-name="&lt;路徑&gt;" class="cls-4" d="M1343.42,467.08l13.4-45.58a8.37,8.37,0,0,0-1.69-1.06l-.11-.05a5.32,5.32,0,0,0-.5-.21l-.2-.07-.48-.16-.22-.06-.49-.11-.19,0a7.89,7.89,0,0,0-1.18-.13h0L1338,466.43l2.75,3.49,50.88-2.9h0c0-.2-.07-.4-.11-.59l0-.15c0-.18-.09-.35-.14-.52a2.25,2.25,0,0,1-.08-.24l-.16-.45-.15-.32c0-.12-.11-.25-.17-.37Z"/><path id="_路徑_86" data-name="&lt;路徑&gt;" class="cls-4" d="M1329.26,473.29l-1.28-1.62,7.35-5.81,13.46-45.81h0a5.92,5.92,0,0,0-.66.25l-.07,0a6.11,6.11,0,0,0-.58.27l-.23.13c-.14.08-.29.16-.42.25s-.44.3-.66.47l-.76.6L1332,467.73l-47.79,2.71-.5.4a8.27,8.27,0,0,0-.63.55l-.24.25c-.11.11-.22.22-.32.34l-.28.36-.21.27c-.1.14-.19.29-.28.44a2.39,2.39,0,0,0-.13.21c-.1.17-.19.35-.28.52s0,.11-.07.16-.17.39-.25.59l0,.1q-.12.33-.21.66v0a6.2,6.2,0,0,0-.16.72Z"/><polygon id="_路徑_87" data-name="&lt;路徑&gt;" class="cls-5" points="1351.74 419.62 1351.74 419.62 1351.74 419.62 1351.74 419.62"/><path id="_路徑_88" data-name="&lt;路徑&gt;" class="cls-5" d="M1322.64,526h0Z"/><polygon id="_路徑_89" data-name="&lt;路徑&gt;" class="cls-5" points="1348.79 420.05 1348.79 420.05 1348.79 420.05 1348.79 420.05"/><polygon id="_路徑_90" data-name="&lt;路徑&gt;" class="cls-5" points="1391.62 467.02 1391.62 467.02 1391.62 467.02 1391.62 467.02"/><path id="_路徑_91" data-name="&lt;路徑&gt;" class="cls-5" d="M1351,419.63h0Z"/><path id="_路徑_92" data-name="&lt;路徑&gt;" class="cls-5" d="M1321.17,526.17h0Z"/><path id="_路徑_93" data-name="&lt;路徑&gt;" class="cls-5" d="M1350.24,419.7h0Z"/><path id="_路徑_94" data-name="&lt;路徑&gt;" class="cls-5" d="M1321.91,526.1h0Z"/><path id="_路徑_95" data-name="&lt;路徑&gt;" class="cls-5" d="M1349.51,419.84h0Z"/><path id="_複合路徑_" data-name="&lt;複合路徑&gt;" class="cls-5" d="M1340.74,469.92l-2.75-3.49,13.76-46.81H1351c-.22,0-.45,0-.67.06h-.07c-.24,0-.48.08-.71.14h0l-.72.21h0l-13.46,45.81-7.35,5.81,1.28,1.62-48.67,2.76a8.56,8.56,0,0,0,0,2.72l50.77-2.88,2.84,3.59-13.75,46.7q.33,0,.66,0h.11c.22,0,.45,0,.67-.06h.07c.24,0,.47-.08.71-.13h0a6.44,6.44,0,0,0,.72-.2l13.4-45.55,7.46-5.9-1.42-1.79,48.78-2.78h0a8.56,8.56,0,0,0,0-2.72h0Z"/></g><polygon id="_路徑_96" data-name="&lt;路徑&gt;" class="cls-4" points="1366.69 433.63 1335.29 458.44 1321.48 440.97 1308.39 451.31 1322.2 468.79 1290.81 493.61 1305.48 512.17 1336.88 487.36 1350.69 504.83 1363.78 494.49 1349.96 477.01 1381.36 452.19 1366.69 433.63"/><polygon id="_路徑_97" data-name="&lt;路徑&gt;" class="cls-5" points="1369.4 437.06 1335.57 463.8 1319.05 442.89 1310.82 449.4 1327.34 470.3 1293.52 497.04 1302.77 508.74 1336.59 482.01 1353.12 502.91 1361.35 496.4 1344.83 475.5 1378.65 448.76 1369.4 437.06"/></g></g></g><g id="bg2"><path class="cls-6" d="M1518.73-25.27c4.89,30.9,13.2,76.15,21,140.73,18,148.16-25.93,587.86-578.54,664.93-480.13,67-703.46-378.22-734.7-542.89s-19.94-214-12-229.33A75.94,75.94,0,0,0,218.23,0H50.17C38,34.46,29.9,84.38,39.08,177.5c12,121.33,55.17,256,55.17,256,60.52,300.67,388.82,574,909.25,572s772.71-534,772.71-534l-13-248c70.1-91.27,71.38-185.72,59.06-250.43C1721.05-26.35,1620.11-28,1518.73-25.27Z"/></g><g id="people1"><g id="_群組_4" data-name="&lt;群組&gt;"><path id="_路徑_98" data-name="&lt;路徑&gt;" class="cls-7" d="M67.67,140.17s12.66-8.67,20.66-28.67,32.67-8.67,37.34,0-10,41.33-60.67,70.67c0,0,4,72,20,96L0,342.45V164.83Z"/><path id="_路徑_99" data-name="&lt;路徑&gt;" class="cls-7" d="M-2.33,178.5s11.83,3.33,13,13-11.17,19.83-13,32.33l-20.34-14S-21.33,175.17-2.33,178.5Z"/><circle id="_路徑_100" data-name="&lt;路徑&gt;" class="cls-7" cx="19.33" cy="119.83" r="56.33"/><g id="_群組_5" data-name="&lt;群組&gt;"><g id="_群組_6" data-name="&lt;群組&gt;"><path id="_路徑_101" data-name="&lt;路徑&gt;" class="cls-1" d="M122.45,103.87c-5.47-4.49-7.55-7.53-6.74-8.51l-7.55,9.18c-.81,1,1.27,4,6.74,8.52s8.85,5.94,9.66,5l7.55-9.18C131.3,109.82,127.92,108.37,122.45,103.87Z"/></g><path id="_路徑_102" data-name="&lt;路徑&gt;" class="cls-8" d="M191.72,75.75a.77.77,0,0,0,.38-.23c1.65-2-9.4-13.8-24.68-26.36s-29-21.11-30.63-19.11a.74.74,0,0,0-.15.42l-21.06,65,.13-.15c-.81,1,1.27,4,6.74,8.51s8.85,5.95,9.66,5L132,109Z"/><g id="_群組_7" data-name="&lt;群組&gt;"><path class="cls-9" d="M177.29,57.69l-52.42,48.08-.05,0-7.5,9.13c4,3,6.56,3.9,7.24,3.07l7.42-9,59.74-33.24a.77.77,0,0,0,.38-.23C193.36,74,187.15,66.67,177.29,57.69Z"/></g></g></g></g><g id="people2"><g id="_群組_8" data-name="&lt;群組&gt;"><circle id="_路徑_103" data-name="&lt;路徑&gt;" class="cls-7" cx="1632" cy="152.59" r="61.83"/><path id="_路徑_104" data-name="&lt;路徑&gt;" class="cls-10" d="M1644.5,157.5c-5.25,3.5-27,0-33,12.5s3.5,34.5,30.5,27,37.5-18.5,38-39.5-17-13-25-7.5S1649.75,154,1644.5,157.5Z"/><path id="_路徑_105" data-name="&lt;路徑&gt;" class="cls-10" d="M1632,192.5s12.75-24.25,35.25-19.75"/><path id="_路徑_106" data-name="&lt;路徑&gt;" class="cls-7" d="M1621,237.5s-21,7.67-32.33-6,3-47,11.33-52.67,26.86.19,28,8c1.7,11.63-18.09,29.22,0,27.59,0,0,33.57,2.78,53.43-24.74,0,0,15.2-26.18,3.86-30.51s-20.66-6.67-13.33-20,46.33-3,43.33,19.33A90.94,90.94,0,0,1,1700,197.17s194,170.11,182,239.72-69,52.61-98-4.39-79-106-65-47,97,125,51,146-82.75,29-120.37-87S1621,237.5,1621,237.5Z"/><polygon id="_路徑_107" data-name="&lt;路徑&gt;" class="cls-7" points="1533 116.17 1526.33 128.17 1545 133.24 1549.67 124.7 1533 116.17"/><polygon id="_路徑_108" data-name="&lt;路徑&gt;" class="cls-7" points="1539.67 98.5 1549.67 90.75 1557.33 109.5 1551.67 113.5 1539.67 98.5"/><polygon id="_路徑_109" data-name="&lt;路徑&gt;" class="cls-7" points="1566.67 90.75 1571.67 105.83 1579 102.13 1576.33 87.17 1566.67 90.75"/></g></g><g id="bg3"><path id="_路徑_110" data-name="&lt;路徑&gt;" class="cls-8" d="M0,695.06V327.58S79.32,187,133.63,236.08c41.37,37.42-43.5,64.5-34.5,126s40.5-9,70.5-7.5,3,59.32-15,106.9,6,53.59,39,25.09,43.37,4.26,27,27c-23.52,32.66-25.5,112.37,1.5,110.93s27.65-52.36,54-44.93c32.88,9.26-13.49,121.49,18,129s52.88-55.06,81-34.5c27.61,20.19-30,90,7.5,114s46.38-63.23,76.5-61.5c29.26,1.67,25.49,30,25.49,58.5s28.38,40.55,40.44,30,47.28-47.55,63.06-45c21.2,3.43,21,20.89,15,34.44s-15.89,54,10.5,54,52.69-60.6,83.6-46.81c27.89,12.44-22.11,55.81,12.39,69.31s48.76-41.79,77.4-32.37c14.67,4.82-4.5,43.32,4.5,60.32s24,13.5,31,0,12.16-52,33.17-52.17c18.36-.12,19.08,17.45,18.83,46.67-.27,31.67,26,52,50,17s7.3-79.64,34.09-81.42c42.25-2.81,24,73.5,46.5,82.5s3.25-92.29,34.5-94.5c31.41-2.22,16.5,66,48,76.5s-7.25-80,19.5-88.5c28.21-8.9,22.5,57,40.5,57s0-66,13.5-96,42.59-13.89,51,13.5c13.09,42.63,30,38.88,45,14.94s4.5-55.44-10.5-106.44,43.49-52.5,54-13.5,25.5,94.5,51,57-28.57-117.06,0-138c22.73-16.65,46.5,22.5,57,70.5s52.5,34.5,45,0-21-85.56,6-90.78,28.49,42.78,46.49,57.78,46.5-3,51-25.5-37.5-139.63-6-171.06,61.88,10.57,48.94,67.57,18.56,105,41.06,58.5-50.62-204-41.06-240,36.56-46.5,60.56-28.5,12,151.49,49.49,159,63-66.25,46.5-118.62-3-62.72-40.5-114.54,30-71.32,70.5-35.32,27,133.49,67.5,120-1-81.14,36-87c21.63-3.41,30,30,30,30v378s-139.45,196.49-250.45,276-327,301.48-675,270-678-63-807-207S0,695.06,0,695.06Z"/><path id="_路徑_111" data-name="&lt;路徑&gt;" class="cls-1" d="M0,591.5s19-54,61-36-53,115-30.5,182,37.82-72.34,92.5-64c32,4.88,28,52,18,104s12,104,46,76,26.86-64.51,48.5-62c36.5,4.24-10,75.5,11.5,94.5s61.18-39,79-42c27-4.5,33,19.5,23,83s39,47,50.5,26S434,888.9,460,897c45,14-5,117,30.5,118s38.5-53,65-48c29,5.49,10,47,23.5,65.5s50.5,5.5,61-28.5,47.5-44.5,55-2.5,16,39,26.5,36.5,17.5-53.5,47-53.5c24.56,0,10,44.5,28.5,48s49.5-2.5,63.5-48,42.5-63,71-31.5-14,70.37,21,87.94,30-71.44,60.5-66.44,10.5,60,31,66.5,6-94,37-92,25,75.5,48,80,52.5-5,51.5-66,42.5-66.5,48.5-31c10.07,59.56,10.5,93.5,51,85.5s46.5-52.5,37-76.5-22.5-71.5-5-85,54.5,4.5,61.5,70.5,17.5,61,37,62,42-46.5,32-96.5-34.5-89.54-7.5-114.5c30-27.78,74,10.5,91,88s71.5,30,76-23-42-104.92-17.5-128c18.88-17.78,61,20,66.5,70s31,64.18,42,41.5c6-12.48-21-76.5,18-87.5,23.81-6.72,22.5,50,37.5,51s27.5-9.5,24-39-54.2-113.65-26.5-148c25-31,58-11.5,74.5,34.5s22,40,37,27.5,11-65-2.5-91.5-12.58-61,6.41-61.5c34.59-.83,35.26,49.67,48.26,53.67S1920,546.5,1920,546.5V819.39s-54.42,168.41-351.45,324.43S606.74,1459.5,0,1050.42Z"/><path id="_路徑_112" data-name="&lt;路徑&gt;" class="cls-9" d="M0,830.5s183.1,532,960,402.93,960-534.05,960-534.05v366S1454.84,1390.5,826.91,1327.5C185.16,1263.11,0,909.4,0,909.4Z"/><path id="_路徑_113" data-name="&lt;路徑&gt;" class="cls-11" d="M0,900.4s281,457.49,960,411c751.28-51.39,960-506.94,960-506.94v386.93s-458.77,105-960,120-960-237-960-237Z"/><path id="_路徑_114" data-name="&lt;路徑&gt;" class="cls-12" d="M0,1344.5V905.05s39-70.59,68.5-36.55c22.5,26-78.86,86-54.86,155s36-42,66-30-21,60,0,72,72-39,114-43.5,34.5,24,15,36-37.5,45-10.5,43.5,41.37-48,64.5-34.5c23.35,13.68-10.5,48,0,66s62-64.92,85.49-60c18.88,4,22.5,22.5,0,48s6,40.5,31.5,24,42,2.92,31.5,19.46-7.5,42,28.5,33,69-88.49,94.49-73.49-24.12,63-9.06,82.49,45.06,6,73.56-18,57.89-45.07,72-24c16.94,25.25-29.6,109,.4,118s40.31-70.06,71.6-59.47c29.45,10-30.1,80,31.4,84.47s37-126.38,76.6-113c32.4,11-28.1,91,15.4,109s33.08-88.12,61.09-83.47c29.93,5-42,106.5,0,106.5s43.35-116.36,75.91-116.36c42.42,0-15.91,116.36,21.59,105.86s16.12-94.89,45-93c22.42,1.47-15,60,48,70.5s-3-112.49,28.5-115.49,15,96,42,108-7.16-86.55,28.5-84c29.75,2.14,10.5,79.5,40.5,75s-20.74-153,22.92-151.49c55.67,2-7.93,114,43.07,130.49s12.54-94.12,43.5-91.53c29.93,2.5,10.5,52.53,37.5,55.53s-33.57-119,0-135c34.61-16.46,19.5,79.46,45,79.46s7.43-41.5,30-39c24,2.7,24,81,43.5,60s-2.53-60.87,24.44-62c34.5-1.5,16.44,80,53,41s-42-85.5-9.94-105c34.78-21.11,60,127.5,90,79.5s24-103.5-16.49-133.5-18-73.49,18-45,60,147,78,124.49-11.24-69,12-76.5c34.4-11,21,60,45,40.5s-17.21-82.47,16.5-85.49c34-3,57,76.49,64.49,7.5s22.46-64.5,22.46-64.5v451.34"/></g><g id="cheese"><g id="_群組_9" data-name="&lt;群組&gt;"><path id="_路徑_115" data-name="&lt;路徑&gt;" class="cls-13" d="M1167,823.19c-36.83-47.41-129.9-90.94-129.9-90.94l-255.7,365.23s72.74,72.56,129.89,90.94c27.43,19.21,106.91-47,177.52-147.84S1194.42,842.4,1167,823.19Z"/><g id="_群組_10" data-name="&lt;群組&gt;"><path id="_路徑_116" data-name="&lt;路徑&gt;" class="cls-14" d="M801.39,1068.92l-20,28.56s72.74,72.56,129.89,90.94c18.3,12.81,59.75-12.38,106.28-60.5-74.49-31.4-143.6-96.76-143.6-96.76Z"/></g><g id="_群組_11" data-name="&lt;群組&gt;"><path id="_路徑_117" data-name="&lt;路徑&gt;" class="cls-15" d="M782.5,1095.9l-1.11,1.58s72.74,72.56,129.89,90.94c8.57,6,22.22,3.67,39.1-5.46-70.48-23-137.82-87.06-137.82-87.06Z"/></g><g id="_群組_12" data-name="&lt;群組&gt;"><path id="_路徑_118" data-name="&lt;路徑&gt;" class="cls-4" d="M1167,823.19c-36.83-47.41-129.9-90.94-129.9-90.94l-2.85,4.07,12,26.52s93.5,41.56,129.36,96.39C1177.79,841.59,1175.16,828.92,1167,823.19Z"/></g><g id="_群組_13" data-name="&lt;群組&gt;"><path id="_路徑_119" data-name="&lt;路徑&gt;" class="cls-16" d="M783.26,1094.82l-1.87,2.66s72.74,72.56,129.89,90.94c5.6,3.92,13.36,4.28,22.76,1.53-58.49-20.78-137.54-89.36-137.54-89.36Z"/></g><g id="_群組_14" data-name="&lt;群組&gt;"><path id="_路徑_120" data-name="&lt;路徑&gt;" class="cls-17" d="M1167,823.19c-36.83-47.41-129.9-90.94-129.9-90.94l-5,7.21,13.68,8.61s99.12,51.78,130.6,100.61C1176.42,836.52,1173.43,827.7,1167,823.19Z"/></g><ellipse id="_路徑_121" data-name="&lt;路徑&gt;" class="cls-14" cx="909.24" cy="914.87" rx="222.92" ry="60.63" transform="translate(-361.68 1135.01) rotate(-55)"/><g id="_群組_15" data-name="&lt;群組&gt;"><path id="_路徑_122" data-name="&lt;路徑&gt;" class="cls-15" d="M1037.09,732.25c-6.36-4.45-15.54-4.31-26.75-.2L773.09,1059.3c-2.7,18.75-.21,32.23,8.3,38.18,7.18,5,17.94,4.2,31.17-1.58l233.66-333.06C1047.28,748,1044.4,737.37,1037.09,732.25Z"/></g><g id="_群組_16" data-name="&lt;群組&gt;"><path id="_路徑_123" data-name="&lt;路徑&gt;" class="cls-16" d="M1037.09,732.25c-3.79-2.66-8.59-3.67-14.22-3.19L772.05,1072.71c0,11.79,3,20.35,9.34,24.77,4,2.8,9.1,3.77,15.11,3.11l249.23-352.52C1044.5,740.85,1041.67,735.46,1037.09,732.25Z"/></g><path id="_路徑_124" data-name="&lt;路徑&gt;" class="cls-4" d="M990.59,901.05l-.15-.07c-9.49,15.91-20,32.24-31.53,48.66-11.73,16.75-23.71,32.54-35.65,47.15L1053,1088c12-14.68,24-30.56,35.85-47.41s22.5-33.46,32.15-49.69Z"/><path id="_路徑_125" data-name="&lt;路徑&gt;" class="cls-18" d="M984.34,911h0c-7.85,12.7-16.35,25.62-25.43,38.6-8.94,12.76-18,25-27.11,36.52h0l129.56,91.36c9.21-11.68,18.4-24,27.44-36.94,9.33-13.32,18-26.58,26-39.61Z"/><path id="_路徑_126" data-name="&lt;路徑&gt;" class="cls-15" d="M990.44,901l-52.87-26.57-53.84-27.06c-8.1,10.43-16.19,21.36-24.15,32.75-14.77,21.09-28,42-39.38,62.12l51,27,51.87,27.45.19.13c11.94-14.61,23.92-30.4,35.65-47.15C970.4,933.22,981,916.89,990.44,901Z"/><path id="_路徑_127" data-name="&lt;路徑&gt;" class="cls-16" d="M984.34,911l-53.57-26.92-54.29-27.29q-8.51,11.28-16.9,23.27c-12,17.07-22.89,34-32.67,50.55l52,27.53,52.88,28c9.09-11.55,18.17-23.76,27.11-36.52C968,936.66,976.49,923.74,984.34,911Z"/><ellipse id="_路徑_128" data-name="&lt;路徑&gt;" class="cls-16" cx="898.91" cy="1111.49" rx="20" ry="16.67"/><ellipse id="_路徑_129" data-name="&lt;路徑&gt;" class="cls-16" cx="984.54" cy="1099.74" rx="14.1" ry="11.75"/><ellipse id="_路徑_130" data-name="&lt;路徑&gt;" class="cls-16" cx="1053.98" cy="901.11" rx="21.93" ry="20.96"/><ellipse id="_路徑_131" data-name="&lt;路徑&gt;" class="cls-16" cx="1075.22" cy="802.46" rx="8.91" ry="10.43" transform="translate(-144.22 1361.92) rotate(-61.38)"/><g id="_群組_17" data-name="&lt;群組&gt;"><path id="_路徑_132" data-name="&lt;路徑&gt;" class="cls-16" d="M1148.64,859.23c-15.29,0-27.69,11.85-27.69,26.46s12.4,26.46,27.69,26.46a28.53,28.53,0,0,0,13.13-3.16,264.31,264.31,0,0,0,11.29-35.78A27.89,27.89,0,0,0,1148.64,859.23Z"/></g></g></g><g id="word1"><text class="cls-19" transform="translate(1512.59 1006.87) rotate(-21.98)">英</text><text class="cls-19" transform="translate(1562.37 986.43) rotate(-25.68)">國</text><text class="cls-19" transform="matrix(0.87, -0.49, 0.49, 0.87, 1610.52, 962.98)">滾</text><text class="cls-19" transform="translate(1657.16 936.72) rotate(-32.63)">起</text><text class="cls-19" transform="matrix(0.81, -0.59, 0.59, 0.81, 1702.1, 907.63)">司</text><text class="cls-19" transform="matrix(0.76, -0.65, 0.65, 0.76, 1746.16, 874.8)">節</text></g></svg>