<svg xmlns="http://www.w3.org/2000/svg" viewBox="0 0 1963.07 476.32"><defs><style>.cls-1{fill:#028090;}.cls-2{fill:#14a5b8;}.cls-3{fill:#39bbcc;}.cls-4{fill:#ffe491;}.cls-5{fill:#eb9994;}.cls-6,.cls-7,.cls-8{fill:#ffabb7;stroke:#fff;stroke-miterlimit:10;}.cls-6{stroke-width:2px;}.cls-7{stroke-width:3px;}.cls-8{stroke-width:4px;}</style></defs><title>margin_bottom</title><g id="bg0"><rect id="_矩形_" data-name="&lt;矩形&gt;" class="cls-1" y="133.98" width="1963.07" height="346.05"/><g id="_群組_" data-name="&lt;群組&gt;"><g id="_群組_2" data-name="&lt;群組&gt;"><g id="_群組_3" data-name="&lt;群組&gt;"><polygon class="cls-2" points="1370.17 133.72 597.7 133.72 535.83 292.8 1432.05 292.8 1370.17 133.72"/></g><polygon id="_路徑_" data-name="&lt;路徑&gt;" class="cls-3" points="535.83 292.8 463.84 477.87 1504.03 477.87 1432.05 292.8 535.83 292.8"/></g></g><g id="_群組_4" data-name="&lt;群組&gt;"><path id="_複合路徑_" data-name="&lt;複合路徑&gt;" class="cls-4" d="M992.94,97a7.72,7.72,0,0,1,11-7V85a9.26,9.26,0,0,0-9.25-9.25h-21.5a9.12,9.12,0,0,0-2.3.3,10.49,10.49,0,0,1-2.45,20.7,10.39,10.39,0,0,1-4.5-1v22.55a8.76,8.76,0,0,1,3-.53,9,9,0,0,1,5.69,16l.56,0h21.5a9.25,9.25,0,0,0,9.25-9.25V104a7.74,7.74,0,0,1-11-7Zm-11.25,17a3.25,3.25,0,1,1,3.25-3.25A3.24,3.24,0,0,1,981.69,114Zm14.5,16a3.25,3.25,0,1,1,3.25-3.25A3.24,3.24,0,0,1,996.19,130Z"/><path id="_路徑_2" data-name="&lt;路徑&gt;" class="cls-5" d="M978.94,86.22A10.51,10.51,0,0,0,970.89,76a9.25,9.25,0,0,0-6.95,9V95.7a10.39,10.39,0,0,0,4.5,1A10.5,10.5,0,0,0,978.94,86.22Z"/><path id="_路徑_3" data-name="&lt;路徑&gt;" class="cls-5" d="M1000.69,89.22a7.75,7.75,0,1,0,3.25,14.78V90A7.7,7.7,0,0,0,1000.69,89.22Z"/><path id="_路徑_4" data-name="&lt;路徑&gt;" class="cls-5" d="M975.94,126.72a9,9,0,0,0-9-9,8.76,8.76,0,0,0-3,.53v6.22a9.25,9.25,0,0,0,8.69,9.23A9,9,0,0,0,975.94,126.72Z"/><circle id="_路徑_5" data-name="&lt;路徑&gt;" class="cls-5" cx="981.69" cy="110.72" r="3.25"/><circle id="_路徑_6" data-name="&lt;路徑&gt;" class="cls-5" cx="996.19" cy="126.72" r="3.25"/></g><g id="_群組_5" data-name="&lt;群組&gt;"><path id="_矩形_2" data-name="&lt;矩形&gt;" class="cls-6" d="M739.8,94.51h0a15.28,15.28,0,0,1,15.28,15.28v18.29a5,5,0,0,1-5,5H728.52a4,4,0,0,1-4-4V109.79A15.28,15.28,0,0,1,739.8,94.51Z"/><rect id="_矩形_3" data-name="&lt;矩形&gt;" class="cls-6" x="754.24" y="92.97" width="10.7" height="41.64" rx="5.35" ry="5.35" transform="translate(37.96 376.8) rotate(-28.55)"/><rect id="_矩形_4" data-name="&lt;矩形&gt;" class="cls-6" x="714.67" y="92.97" width="10.7" height="41.64" rx="5.35" ry="5.35" transform="translate(1298.14 557.81) rotate(-151.45)"/><path id="_矩形_5" data-name="&lt;矩形&gt;" class="cls-6" d="M731.1,111.53h0a7.59,7.59,0,0,1,7.59,7.59v9.59a4,4,0,0,1-4,4h-7.34a3.82,3.82,0,0,1-3.82-3.82v-9.79a7.59,7.59,0,0,1,7.59-7.59Z"/><circle id="_路徑_7" data-name="&lt;路徑&gt;" class="cls-6" cx="739.91" cy="89.17" r="13.54"/><path id="_路徑_8" data-name="&lt;路徑&gt;" class="cls-6" d="M864,66.18l3.76-3.86a6.56,6.56,0,0,0-.12-9.27h0a6.56,6.56,0,0,0-9.27.12l-8.89,9.12a10.33,10.33,0,0,0,.19,14.6l9.12,8.88a6.56,6.56,0,0,0,9.27-.12h0a6.56,6.56,0,0,0-.12-9.27l-3.86-3.76A4.55,4.55,0,0,1,864,66.18Z"/><rect id="_矩形_6" data-name="&lt;矩形&gt;" class="cls-6" x="878.08" y="45.48" width="13.11" height="47.87" rx="6.56" ry="6.56" transform="translate(98.64 481.25) rotate(-32.14)"/><path id="_路徑_9" data-name="&lt;路徑&gt;" class="cls-6" d="M870.48,48.14H869.3a13.4,13.4,0,0,0-13.4,13.41L851,126a6.61,6.61,0,0,0,6.59,7.11h0a6.61,6.61,0,0,0,6.58-5.94l2.29-22.57a2.67,2.67,0,0,1,2.66-2.41h0a2.67,2.67,0,0,1,2.66,2.47l1.7,22.31a6.64,6.64,0,0,0,6.63,6.14h0a6.64,6.64,0,0,0,6.64-6.94l-2.83-64.58A13.4,13.4,0,0,0,870.48,48.14Z"/><circle id="_路徑_10" data-name="&lt;路徑&gt;" class="cls-6" cx="869.89" cy="33.27" r="16.44"/><path id="_路徑_11" data-name="&lt;路徑&gt;" class="cls-6" d="M1088.06,41.65l6.39-4.23a6.56,6.56,0,0,0,1.84-9.09h0a6.55,6.55,0,0,0-9.08-1.84l-10.62,7a10.33,10.33,0,0,0-2.9,14.31l7,10.61a6.55,6.55,0,0,0,9.08,1.84h0a6.55,6.55,0,0,0,1.85-9.08l-4.24-6.4A2.27,2.27,0,0,1,1088.06,41.65Z"/><rect id="_矩形_7" data-name="&lt;矩形&gt;" class="cls-6" x="1105.97" y="4.86" width="13.11" height="52.4" rx="6.56" ry="6.56" transform="translate(2189.12 313.24) rotate(-166.91)"/><path id="_路徑_12" data-name="&lt;路徑&gt;" class="cls-6" d="M1099,48.14h-1.17a13.41,13.41,0,0,0-13.41,13.41L1079.52,126a6.6,6.6,0,0,0,6.59,7.11h0a6.62,6.62,0,0,0,6.58-5.94l2.28-22.57a2.68,2.68,0,0,1,2.66-2.41h0a2.68,2.68,0,0,1,2.67,2.47l1.69,22.31a6.64,6.64,0,0,0,6.63,6.14h0a6.64,6.64,0,0,0,6.64-6.94l-2.82-64.58A13.41,13.41,0,0,0,1099,48.14Z"/><circle id="_路徑_13" data-name="&lt;路徑&gt;" class="cls-6" cx="1098.44" cy="33.27" r="16.44"/><path id="_路徑_14" data-name="&lt;路徑&gt;" class="cls-6" d="M1203.64,85.62s-15.08,8.89-12.41,16.89,4.7,11.9,6,12.51,10-4.1,10-4.1Z"/><rect id="_矩形_8" data-name="&lt;矩形&gt;" class="cls-6" x="1222.51" y="80.25" width="11.69" height="40.86" rx="5.85" ry="5.85" transform="translate(298.42 909.51) rotate(-45.7)"/><path id="_路徑_15" data-name="&lt;路徑&gt;" class="cls-6" d="M1255.8,126c-7.06-5.51-17.94-12.77-29.86-16.25l-1.41-17.36a9.17,9.17,0,0,0-9.14-8.43h-6.48a9.18,9.18,0,0,0-9.14,8.43l-1.63,20.12c-6.13,2.54-14.86,7.84-9.75,16.25a9.15,9.15,0,0,0,7.82,4.33h2.63a3.63,3.63,0,0,0,3.33-5.07c-.61-1.4-.79-2.79.14-3.75,1.84-1.9,7.18-7.59,24-.41,10.51,4.49,14.29,7,15.65,8.21a3.89,3.89,0,0,0,2.59,1h8.79A4,4,0,0,0,1255.8,126Z"/><circle id="_路徑_16" data-name="&lt;路徑&gt;" class="cls-6" cx="1212.15" cy="71.52" r="14.77"/></g></g><g id="crowd3"><g id="_群組_6" data-name="&lt;群組&gt;"><path id="_路徑_17" data-name="&lt;路徑&gt;" class="cls-6" d="M348.4,167.82h-24a5.42,5.42,0,0,1-5.42-5.59l1-32.7a16.46,16.46,0,0,1,16.46-16.46h0a16.46,16.46,0,0,1,16.46,16.46l1,32.7A5.42,5.42,0,0,1,348.4,167.82Z"/><circle id="_路徑_18" data-name="&lt;路徑&gt;" class="cls-6" cx="336.4" cy="101.72" r="17.55"/></g><g id="_群組_7" data-name="&lt;群組&gt;"><path id="_路徑_19" data-name="&lt;路徑&gt;" class="cls-6" d="M407.49,159.38h-24a5.42,5.42,0,0,1-5.42-5.59l1-32.7a16.46,16.46,0,0,1,16.46-16.46h0A16.46,16.46,0,0,1,412,121.09l1,32.7A5.43,5.43,0,0,1,407.49,159.38Z"/><circle id="_路徑_20" data-name="&lt;路徑&gt;" class="cls-6" cx="395.49" cy="93.28" r="17.55"/></g><g id="_群組_8" data-name="&lt;群組&gt;"><path id="_路徑_21" data-name="&lt;路徑&gt;" class="cls-6" d="M293.61,163h-24a5.43,5.43,0,0,1-5.43-5.59l1-32.7a16.46,16.46,0,0,1,16.46-16.46h0a16.46,16.46,0,0,1,16.46,16.46l1,32.7A5.42,5.42,0,0,1,293.61,163Z"/><circle id="_路徑_22" data-name="&lt;路徑&gt;" class="cls-6" cx="281.6" cy="96.88" r="17.55"/></g><g id="_群組_9" data-name="&lt;群組&gt;"><path id="_路徑_23" data-name="&lt;路徑&gt;" class="cls-6" d="M245.56,167.67h-24a5.43,5.43,0,0,1-5.43-5.59l1-32.7a16.46,16.46,0,0,1,16.46-16.46h0A16.46,16.46,0,0,1,250,129.38l1,32.7A5.43,5.43,0,0,1,245.56,167.67Z"/><circle id="_路徑_24" data-name="&lt;路徑&gt;" class="cls-6" cx="233.56" cy="101.57" r="17.55"/></g><g id="_群組_10" data-name="&lt;群組&gt;"><path id="_路徑_25" data-name="&lt;路徑&gt;" class="cls-6" d="M276.06,216.22h-24a5.43,5.43,0,0,1-5.43-5.59l1-32.7a16.46,16.46,0,0,1,16.46-16.46h0a16.46,16.46,0,0,1,16.46,16.46l1,32.7A5.42,5.42,0,0,1,276.06,216.22Z"/><circle id="_路徑_26" data-name="&lt;路徑&gt;" class="cls-6" cx="264.05" cy="150.12" r="17.55"/></g><g id="_群組_11" data-name="&lt;群組&gt;"><path id="_路徑_27" data-name="&lt;路徑&gt;" class="cls-6" d="M368.48,220.17h-24a5.42,5.42,0,0,1-5.42-5.59l1-32.7a16.46,16.46,0,0,1,16.46-16.46h0a16.46,16.46,0,0,1,16.46,16.46l1,32.7A5.43,5.43,0,0,1,368.48,220.17Z"/><circle id="_路徑_28" data-name="&lt;路徑&gt;" class="cls-6" cx="356.48" cy="154.07" r="17.55"/></g><g id="_群組_12" data-name="&lt;群組&gt;"><path id="_路徑_29" data-name="&lt;路徑&gt;" class="cls-6" d="M319.44,196.57h-24A5.42,5.42,0,0,1,290,191l1-32.7a16.45,16.45,0,0,1,16.46-16.46h0a16.46,16.46,0,0,1,16.46,16.46l1,32.7A5.42,5.42,0,0,1,319.44,196.57Z"/><circle id="_路徑_30" data-name="&lt;路徑&gt;" class="cls-6" cx="307.44" cy="130.48" r="17.55"/></g><g id="_群組_13" data-name="&lt;群組&gt;"><path id="_路徑_31" data-name="&lt;路徑&gt;" class="cls-6" d="M462.85,174.39h-24a5.42,5.42,0,0,1-5.42-5.58l1-32.7a16.46,16.46,0,0,1,16.46-16.46h0a16.46,16.46,0,0,1,16.46,16.46l1,32.7A5.43,5.43,0,0,1,462.85,174.39Z"/><circle id="_路徑_32" data-name="&lt;路徑&gt;" class="cls-6" cx="450.85" cy="108.3" r="17.55"/></g><g id="_群組_14" data-name="&lt;群組&gt;"><path id="_路徑_33" data-name="&lt;路徑&gt;" class="cls-6" d="M517.17,167.67h-24a5.43,5.43,0,0,1-5.43-5.59l1-32.7a16.46,16.46,0,0,1,16.46-16.46h0a16.46,16.46,0,0,1,16.46,16.46l1,32.7A5.43,5.43,0,0,1,517.17,167.67Z"/><circle id="_路徑_34" data-name="&lt;路徑&gt;" class="cls-6" cx="505.17" cy="101.57" r="17.55"/></g><g id="_群組_15" data-name="&lt;群組&gt;"><path id="_路徑_35" data-name="&lt;路徑&gt;" class="cls-6" d="M571.5,172.3h-24a5.43,5.43,0,0,1-5.43-5.59l1-32.7a16.46,16.46,0,0,1,16.46-16.46h0A16.46,16.46,0,0,1,576,134l1,32.7A5.42,5.42,0,0,1,571.5,172.3Z"/><circle id="_路徑_36" data-name="&lt;路徑&gt;" class="cls-6" cx="559.49" cy="106.2" r="17.55"/></g><g id="_群組_16" data-name="&lt;群組&gt;"><path id="_路徑_37" data-name="&lt;路徑&gt;" class="cls-6" d="M500.47,212.8h-24a5.42,5.42,0,0,1-5.42-5.59l1-32.7a16.46,16.46,0,0,1,16.46-16.46h0a16.46,16.46,0,0,1,16.46,16.46l1,32.7A5.43,5.43,0,0,1,500.47,212.8Z"/><circle id="_路徑_38" data-name="&lt;路徑&gt;" class="cls-6" cx="488.47" cy="146.7" r="17.55"/></g><g id="_群組_17" data-name="&lt;群組&gt;"><path id="_路徑_39" data-name="&lt;路徑&gt;" class="cls-6" d="M436,209.49H412a5.42,5.42,0,0,1-5.43-5.58l1-32.7A16.46,16.46,0,0,1,424,154.75h0a16.46,16.46,0,0,1,16.46,16.46l1,32.7A5.42,5.42,0,0,1,436,209.49Z"/><circle id="_路徑_40" data-name="&lt;路徑&gt;" class="cls-6" cx="424.03" cy="143.4" r="17.55"/></g><g id="_群組_18" data-name="&lt;群組&gt;"><path id="_路徑_41" data-name="&lt;路徑&gt;" class="cls-6" d="M468.94,250.33h-24a5.43,5.43,0,0,1-5.43-5.59l1-32.69a16.46,16.46,0,0,1,16.46-16.46h0a16.46,16.46,0,0,1,16.46,16.46l1,32.69A5.43,5.43,0,0,1,468.94,250.33Z"/><circle id="_路徑_42" data-name="&lt;路徑&gt;" class="cls-6" cx="456.94" cy="184.23" r="17.55"/></g><g id="_群組_19" data-name="&lt;群組&gt;"><path id="_路徑_43" data-name="&lt;路徑&gt;" class="cls-6" d="M541.32,230.65h-24a5.42,5.42,0,0,1-5.42-5.59l1-32.69a16.45,16.45,0,0,1,16.46-16.46h0a16.46,16.46,0,0,1,16.47,16.46l1,32.69A5.42,5.42,0,0,1,541.32,230.65Z"/><circle id="_路徑_44" data-name="&lt;路徑&gt;" class="cls-6" cx="529.31" cy="164.55" r="17.55"/></g><g id="_群組_20" data-name="&lt;群組&gt;"><path id="_路徑_45" data-name="&lt;路徑&gt;" class="cls-6" d="M82.6,157.37h-24a5.43,5.43,0,0,1-5.43-5.59l1-32.69a16.46,16.46,0,0,1,16.46-16.47h0a16.46,16.46,0,0,1,16.46,16.47l1,32.69A5.42,5.42,0,0,1,82.6,157.37Z"/><circle id="_路徑_46" data-name="&lt;路徑&gt;" class="cls-6" cx="70.59" cy="91.27" r="17.55"/></g><g id="_群組_21" data-name="&lt;群組&gt;"><path id="_路徑_47" data-name="&lt;路徑&gt;" class="cls-6" d="M138.74,169.7h-24a5.43,5.43,0,0,1-5.43-5.59l1-32.69A16.46,16.46,0,0,1,126.73,115h0a16.46,16.46,0,0,1,16.46,16.46l1,32.69A5.42,5.42,0,0,1,138.74,169.7Z"/><circle id="_路徑_48" data-name="&lt;路徑&gt;" class="cls-6" cx="126.73" cy="103.6" r="17.55"/></g><g id="_群組_22" data-name="&lt;群組&gt;"><path id="_路徑_49" data-name="&lt;路徑&gt;" class="cls-6" d="M191.24,152.87h-24a5.42,5.42,0,0,1-5.42-5.59l1-32.7a16.46,16.46,0,0,1,16.46-16.46h0a16.46,16.46,0,0,1,16.46,16.46l1,32.7A5.42,5.42,0,0,1,191.24,152.87Z"/><circle id="_路徑_50" data-name="&lt;路徑&gt;" class="cls-6" cx="179.24" cy="86.77" r="17.55"/></g><g id="_群組_23" data-name="&lt;群組&gt;"><path id="_路徑_51" data-name="&lt;路徑&gt;" class="cls-6" d="M217.63,216.22h-24a5.42,5.42,0,0,1-5.42-5.59l1-32.7a16.46,16.46,0,0,1,16.46-16.46h0a16.46,16.46,0,0,1,16.46,16.46l1,32.7A5.43,5.43,0,0,1,217.63,216.22Z"/><circle id="_路徑_52" data-name="&lt;路徑&gt;" class="cls-6" cx="205.63" cy="150.12" r="17.55"/></g><g id="_群組_24" data-name="&lt;群組&gt;"><path id="_路徑_53" data-name="&lt;路徑&gt;" class="cls-6" d="M164.18,209.64h-24a5.42,5.42,0,0,1-5.42-5.59l1-32.69a16.46,16.46,0,0,1,16.46-16.46h0a16.46,16.46,0,0,1,16.46,16.46l1,32.69A5.43,5.43,0,0,1,164.18,209.64Z"/><circle id="_路徑_54" data-name="&lt;路徑&gt;" class="cls-6" cx="152.18" cy="143.54" r="17.55"/></g><g id="_群組_25" data-name="&lt;群組&gt;"><path id="_路徑_55" data-name="&lt;路徑&gt;" class="cls-6" d="M59.65,205h-24a5.42,5.42,0,0,1-5.42-5.59l1-32.69a16.45,16.45,0,0,1,16.46-16.46h0a16.46,16.46,0,0,1,16.46,16.46l1,32.69A5.42,5.42,0,0,1,59.65,205Z"/><circle id="_路徑_56" data-name="&lt;路徑&gt;" class="cls-6" cx="47.65" cy="138.85" r="17.55"/></g><g id="_群組_26" data-name="&lt;群組&gt;"><path id="_路徑_57" data-name="&lt;路徑&gt;" class="cls-6" d="M121.6,213.44h-24a5.43,5.43,0,0,1-5.43-5.58l1-32.7a16.46,16.46,0,0,1,16.46-16.46h0a16.46,16.46,0,0,1,16.46,16.46l1,32.7A5.42,5.42,0,0,1,121.6,213.44Z"/><circle id="_路徑_58" data-name="&lt;路徑&gt;" class="cls-6" cx="109.59" cy="147.35" r="17.55"/></g><g id="_群組_27" data-name="&lt;群組&gt;"><path id="_路徑_59" data-name="&lt;路徑&gt;" class="cls-6" d="M170.12,247.71h-24a5.42,5.42,0,0,1-5.42-5.59l1-32.7A16.46,16.46,0,0,1,158.12,193h0a16.46,16.46,0,0,1,16.46,16.46l1,32.7A5.43,5.43,0,0,1,170.12,247.71Z"/><circle id="_路徑_60" data-name="&lt;路徑&gt;" class="cls-6" cx="158.12" cy="181.61" r="17.55"/></g><g id="_群組_28" data-name="&lt;群組&gt;"><path id="_路徑_61" data-name="&lt;路徑&gt;" class="cls-6" d="M246,243.57H222A5.43,5.43,0,0,1,216.6,238l1-32.69A16.46,16.46,0,0,1,234,188.83h0a16.46,16.46,0,0,1,16.46,16.46l1,32.69A5.42,5.42,0,0,1,246,243.57Z"/><circle id="_路徑_62" data-name="&lt;路徑&gt;" class="cls-6" cx="234.03" cy="177.47" r="17.55"/></g><g id="_群組_29" data-name="&lt;群組&gt;"><path id="_路徑_63" data-name="&lt;路徑&gt;" class="cls-6" d="M1614.67,175.79h24a5.43,5.43,0,0,0,5.43-5.59l-1-32.69a16.46,16.46,0,0,0-16.46-16.46h0a16.46,16.46,0,0,0-16.46,16.46l-1,32.69A5.43,5.43,0,0,0,1614.67,175.79Z"/><circle id="_路徑_64" data-name="&lt;路徑&gt;" class="cls-6" cx="1626.67" cy="109.69" r="17.55"/></g><g id="_群組_30" data-name="&lt;群組&gt;"><path id="_路徑_65" data-name="&lt;路徑&gt;" class="cls-6" d="M1555.58,167.35h24a5.43,5.43,0,0,0,5.43-5.59l-1-32.69a16.45,16.45,0,0,0-16.46-16.46h0a16.45,16.45,0,0,0-16.46,16.46l-1,32.69A5.43,5.43,0,0,0,1555.58,167.35Z"/><circle id="_路徑_66" data-name="&lt;路徑&gt;" class="cls-6" cx="1567.58" cy="101.25" r="17.55"/></g><g id="_群組_31" data-name="&lt;群組&gt;"><path id="_路徑_67" data-name="&lt;路徑&gt;" class="cls-6" d="M1669.46,171h24a5.42,5.42,0,0,0,5.42-5.59l-1-32.69a16.46,16.46,0,0,0-16.46-16.46h0A16.46,16.46,0,0,0,1665,132.67l-1,32.69A5.43,5.43,0,0,0,1669.46,171Z"/><circle id="_路徑_68" data-name="&lt;路徑&gt;" class="cls-6" cx="1681.46" cy="104.85" r="17.55"/></g><g id="_群組_32" data-name="&lt;群組&gt;"><path id="_路徑_69" data-name="&lt;路徑&gt;" class="cls-6" d="M1717.5,175.64h24a5.43,5.43,0,0,0,5.43-5.59l-1-32.69a16.46,16.46,0,0,0-16.46-16.46h0a16.46,16.46,0,0,0-16.46,16.46l-1,32.69A5.42,5.42,0,0,0,1717.5,175.64Z"/><circle id="_路徑_70" data-name="&lt;路徑&gt;" class="cls-6" cx="1729.51" cy="109.54" r="17.55"/></g><g id="_群組_33" data-name="&lt;群組&gt;"><path id="_路徑_71" data-name="&lt;路徑&gt;" class="cls-6" d="M1687,224.19h24a5.42,5.42,0,0,0,5.42-5.59l-1-32.69A16.46,16.46,0,0,0,1699,169.44h0a16.46,16.46,0,0,0-16.46,16.47l-1,32.69A5.43,5.43,0,0,0,1687,224.19Z"/><circle id="_路徑_72" data-name="&lt;路徑&gt;" class="cls-6" cx="1699.01" cy="158.09" r="17.55"/></g><g id="_群組_34" data-name="&lt;群組&gt;"><path id="_路徑_73" data-name="&lt;路徑&gt;" class="cls-6" d="M1594.58,228.14h24a5.43,5.43,0,0,0,5.43-5.59l-1-32.7a16.46,16.46,0,0,0-16.46-16.46h0a16.46,16.46,0,0,0-16.46,16.46l-1,32.7A5.42,5.42,0,0,0,1594.58,228.14Z"/><circle id="_路徑_74" data-name="&lt;路徑&gt;" class="cls-6" cx="1606.59" cy="162.04" r="17.55"/></g><g id="_群組_35" data-name="&lt;群組&gt;"><path id="_路徑_75" data-name="&lt;路徑&gt;" class="cls-6" d="M1643.63,204.55h24a5.43,5.43,0,0,0,5.43-5.59l-1-32.7a16.46,16.46,0,0,0-16.46-16.46h0a16.46,16.46,0,0,0-16.46,16.46l-1,32.7A5.43,5.43,0,0,0,1643.63,204.55Z"/><circle id="_路徑_76" data-name="&lt;路徑&gt;" class="cls-6" cx="1655.63" cy="138.45" r="17.55"/></g><g id="_群組_36" data-name="&lt;群組&gt;"><path id="_路徑_77" data-name="&lt;路徑&gt;" class="cls-6" d="M1500.21,182.37h24a5.43,5.43,0,0,0,5.43-5.59l-1-32.7a16.46,16.46,0,0,0-16.46-16.46h0a16.46,16.46,0,0,0-16.46,16.46l-1,32.7A5.42,5.42,0,0,0,1500.21,182.37Z"/><circle id="_路徑_78" data-name="&lt;路徑&gt;" class="cls-6" cx="1512.22" cy="116.27" r="17.55"/></g><g id="_群組_37" data-name="&lt;群組&gt;"><path id="_路徑_79" data-name="&lt;路徑&gt;" class="cls-6" d="M1445.89,175.64h24a5.42,5.42,0,0,0,5.42-5.59l-1-32.69a16.46,16.46,0,0,0-16.46-16.46h0a16.46,16.46,0,0,0-16.47,16.46l-1,32.69A5.42,5.42,0,0,0,1445.89,175.64Z"/><circle id="_路徑_80" data-name="&lt;路徑&gt;" class="cls-6" cx="1457.9" cy="109.54" r="17.55"/></g><g id="_群組_38" data-name="&lt;群組&gt;"><path id="_路徑_81" data-name="&lt;路徑&gt;" class="cls-6" d="M1396.24,169.07h24a5.43,5.43,0,0,0,5.43-5.59l-1-32.7a16.46,16.46,0,0,0-16.46-16.46h0a16.46,16.46,0,0,0-16.46,16.46l-1,32.7A5.43,5.43,0,0,0,1396.24,169.07Z"/><circle id="_路徑_82" data-name="&lt;路徑&gt;" class="cls-6" cx="1408.24" cy="102.97" r="17.55"/></g><g id="_群組_39" data-name="&lt;群組&gt;"><path id="_路徑_83" data-name="&lt;路徑&gt;" class="cls-6" d="M1462.59,220.77h24a5.43,5.43,0,0,0,5.43-5.59l-1-32.7A16.46,16.46,0,0,0,1474.6,166h0a16.46,16.46,0,0,0-16.46,16.46l-1,32.7A5.42,5.42,0,0,0,1462.59,220.77Z"/><circle id="_路徑_84" data-name="&lt;路徑&gt;" class="cls-6" cx="1474.6" cy="154.67" r="17.55"/></g><g id="_群組_40" data-name="&lt;群組&gt;"><path id="_路徑_85" data-name="&lt;路徑&gt;" class="cls-6" d="M1527,217.47h24a5.42,5.42,0,0,0,5.42-5.59l-1-32.7A16.46,16.46,0,0,0,1539,162.72h0a16.46,16.46,0,0,0-16.46,16.46l-1,32.7A5.42,5.42,0,0,0,1527,217.47Z"/><circle id="_路徑_86" data-name="&lt;路徑&gt;" class="cls-6" cx="1539.03" cy="151.37" r="17.55"/></g><g id="_群組_41" data-name="&lt;群組&gt;"><path id="_路徑_87" data-name="&lt;路徑&gt;" class="cls-6" d="M1494.12,258.3h24a5.42,5.42,0,0,0,5.42-5.58l-1-32.7a16.46,16.46,0,0,0-16.47-16.46h0A16.46,16.46,0,0,0,1489.66,220l-1,32.7A5.42,5.42,0,0,0,1494.12,258.3Z"/><circle id="_路徑_88" data-name="&lt;路徑&gt;" class="cls-6" cx="1506.12" cy="192.21" r="17.55"/></g><g id="_群組_42" data-name="&lt;群組&gt;"><path id="_路徑_89" data-name="&lt;路徑&gt;" class="cls-6" d="M1421.75,238.62h24a5.43,5.43,0,0,0,5.43-5.58l-1-32.7a16.46,16.46,0,0,0-16.46-16.46h0a16.46,16.46,0,0,0-16.46,16.46l-1,32.7A5.43,5.43,0,0,0,1421.75,238.62Z"/><circle id="_路徑_90" data-name="&lt;路徑&gt;" class="cls-6" cx="1433.75" cy="172.53" r="17.55"/></g><g id="_群組_43" data-name="&lt;群組&gt;"><path id="_路徑_91" data-name="&lt;路徑&gt;" class="cls-6" d="M1880.47,165.34h24a5.42,5.42,0,0,0,5.42-5.58l-1-32.7a16.46,16.46,0,0,0-16.46-16.46h0A16.46,16.46,0,0,0,1876,127.06l-1,32.7A5.42,5.42,0,0,0,1880.47,165.34Z"/><circle id="_路徑_92" data-name="&lt;路徑&gt;" class="cls-6" cx="1892.47" cy="99.24" r="17.55"/></g><g id="_群組_44" data-name="&lt;群組&gt;"><path id="_路徑_93" data-name="&lt;路徑&gt;" class="cls-6" d="M1824.33,177.68h24a5.42,5.42,0,0,0,5.42-5.59l-1-32.7a16.46,16.46,0,0,0-16.46-16.46h0a16.46,16.46,0,0,0-16.46,16.46l-1,32.7A5.43,5.43,0,0,0,1824.33,177.68Z"/><circle id="_路徑_94" data-name="&lt;路徑&gt;" class="cls-6" cx="1836.33" cy="111.58" r="17.55"/></g><g id="_群組_45" data-name="&lt;群組&gt;"><path id="_路徑_95" data-name="&lt;路徑&gt;" class="cls-6" d="M1771.83,160.84h24a5.43,5.43,0,0,0,5.43-5.59l-1-32.69a16.46,16.46,0,0,0-16.46-16.46h0a16.46,16.46,0,0,0-16.46,16.46l-1,32.69A5.43,5.43,0,0,0,1771.83,160.84Z"/><circle id="_路徑_96" data-name="&lt;路徑&gt;" class="cls-6" cx="1783.83" cy="94.74" r="17.55"/></g><g id="_群組_46" data-name="&lt;群組&gt;"><path id="_路徑_97" data-name="&lt;路徑&gt;" class="cls-6" d="M1745.44,224.19h24a5.43,5.43,0,0,0,5.43-5.59l-1-32.69a16.46,16.46,0,0,0-16.46-16.47h0A16.46,16.46,0,0,0,1741,185.91l-1,32.69A5.43,5.43,0,0,0,1745.44,224.19Z"/><circle id="_路徑_98" data-name="&lt;路徑&gt;" class="cls-6" cx="1757.44" cy="158.09" r="17.55"/></g><g id="_群組_47" data-name="&lt;群組&gt;"><path id="_路徑_99" data-name="&lt;路徑&gt;" class="cls-6" d="M1798.88,217.62h24a5.43,5.43,0,0,0,5.43-5.59l-1-32.7a16.46,16.46,0,0,0-16.46-16.46h0a16.46,16.46,0,0,0-16.46,16.46l-1,32.7A5.42,5.42,0,0,0,1798.88,217.62Z"/><circle id="_路徑_100" data-name="&lt;路徑&gt;" class="cls-6" cx="1810.89" cy="151.52" r="17.55"/></g><g id="_群組_48" data-name="&lt;群組&gt;"><path id="_路徑_101" data-name="&lt;路徑&gt;" class="cls-6" d="M1903.42,212.92h24a5.43,5.43,0,0,0,5.43-5.58l-1-32.7a16.46,16.46,0,0,0-16.46-16.46h0A16.46,16.46,0,0,0,1899,174.64l-1,32.7A5.43,5.43,0,0,0,1903.42,212.92Z"/><circle id="_路徑_102" data-name="&lt;路徑&gt;" class="cls-6" cx="1915.42" cy="146.83" r="17.55"/></g><g id="_群組_49" data-name="&lt;群組&gt;"><path id="_路徑_103" data-name="&lt;路徑&gt;" class="cls-6" d="M1841.47,221.42h24a5.42,5.42,0,0,0,5.42-5.59l-1-32.7a16.46,16.46,0,0,0-16.46-16.46h0A16.46,16.46,0,0,0,1837,183.13l-1,32.7A5.42,5.42,0,0,0,1841.47,221.42Z"/><circle id="_路徑_104" data-name="&lt;路徑&gt;" class="cls-6" cx="1853.47" cy="155.32" r="17.55"/></g><g id="_群組_50" data-name="&lt;群組&gt;"><path id="_路徑_105" data-name="&lt;路徑&gt;" class="cls-6" d="M1793,255.68h24a5.43,5.43,0,0,0,5.43-5.59l-1-32.69A16.46,16.46,0,0,0,1805,200.94h0a16.46,16.46,0,0,0-16.46,16.46l-1,32.69A5.43,5.43,0,0,0,1793,255.68Z"/><circle id="_路徑_106" data-name="&lt;路徑&gt;" class="cls-6" cx="1804.95" cy="189.58" r="17.55"/></g><g id="_群組_51" data-name="&lt;群組&gt;"><path id="_路徑_107" data-name="&lt;路徑&gt;" class="cls-6" d="M1717,251.54h24a5.42,5.42,0,0,0,5.42-5.58l-1-32.7A16.46,16.46,0,0,0,1729,196.8h0a16.46,16.46,0,0,0-16.46,16.46l-1,32.7A5.41,5.41,0,0,0,1717,251.54Z"/><circle id="_路徑_108" data-name="&lt;路徑&gt;" class="cls-6" cx="1729.03" cy="185.45" r="17.55"/></g></g><g id="crowd2"><g id="_群組_52" data-name="&lt;群組&gt;"><path id="_路徑_109" data-name="&lt;路徑&gt;" class="cls-7" d="M246.37,296.32H221.69a5.59,5.59,0,0,1-5.58-5.74l1-33.62A16.93,16.93,0,0,1,234,240h0A16.92,16.92,0,0,1,251,257l1,33.62A5.58,5.58,0,0,1,246.37,296.32Z"/><circle id="_路徑_110" data-name="&lt;路徑&gt;" class="cls-7" cx="234.03" cy="228.37" r="18.04"/></g><g id="_群組_53" data-name="&lt;群組&gt;"><path id="_路徑_111" data-name="&lt;路徑&gt;" class="cls-7" d="M289.4,276.28H264.71a5.57,5.57,0,0,1-5.57-5.75l1-33.61A16.92,16.92,0,0,1,277.06,220h0A16.92,16.92,0,0,1,294,236.92l1,33.61A5.57,5.57,0,0,1,289.4,276.28Z"/><circle id="_路徑_112" data-name="&lt;路徑&gt;" class="cls-7" cx="277.06" cy="208.33" r="18.04"/></g><g id="_群組_54" data-name="&lt;群組&gt;"><path id="_路徑_113" data-name="&lt;路徑&gt;" class="cls-7" d="M337.33,270.65H312.65a5.58,5.58,0,0,1-5.58-5.74l1-33.62A16.93,16.93,0,0,1,325,214.37h0a16.93,16.93,0,0,1,16.92,16.92l1,33.62A5.57,5.57,0,0,1,337.33,270.65Z"/><circle id="_路徑_114" data-name="&lt;路徑&gt;" class="cls-7" cx="324.99" cy="202.7" r="18.04"/></g><g id="_群組_55" data-name="&lt;群組&gt;"><path id="_路徑_115" data-name="&lt;路徑&gt;" class="cls-7" d="M389.91,267.47H365.23a5.58,5.58,0,0,1-5.58-5.74l1-33.62a16.93,16.93,0,0,1,16.93-16.92h0a16.93,16.93,0,0,1,16.92,16.92l1,33.62A5.57,5.57,0,0,1,389.91,267.47Z"/><circle id="_路徑_116" data-name="&lt;路徑&gt;" class="cls-7" cx="377.57" cy="199.52" r="18.04"/></g><g id="_群組_56" data-name="&lt;群組&gt;"><path id="_路徑_117" data-name="&lt;路徑&gt;" class="cls-7" d="M434.08,272H409.39a5.57,5.57,0,0,1-5.57-5.74l1-33.62a16.93,16.93,0,0,1,16.92-16.92h0a16.93,16.93,0,0,1,16.93,16.92l1,33.62A5.57,5.57,0,0,1,434.08,272Z"/><circle id="_路徑_118" data-name="&lt;路徑&gt;" class="cls-7" cx="421.73" cy="204.08" r="18.04"/></g><g id="_群組_57" data-name="&lt;群組&gt;"><path id="_路徑_119" data-name="&lt;路徑&gt;" class="cls-7" d="M515.12,289.56H490.44a5.58,5.58,0,0,1-5.58-5.74l1-33.62a16.93,16.93,0,0,1,16.93-16.92h0A16.93,16.93,0,0,1,519.7,250.2l1,33.62A5.57,5.57,0,0,1,515.12,289.56Z"/><circle id="_路徑_120" data-name="&lt;路徑&gt;" class="cls-7" cx="502.78" cy="221.61" r="18.04"/></g><g id="_群組_58" data-name="&lt;群組&gt;"><path id="_路徑_121" data-name="&lt;路徑&gt;" class="cls-7" d="M339.18,338.49H312a6.14,6.14,0,0,1-6.14-6.32l1.1-37a18.61,18.61,0,0,1,18.61-18.61h0a18.62,18.62,0,0,1,18.62,18.61l1.09,37A6.14,6.14,0,0,1,339.18,338.49Z"/><circle id="_路徑_122" data-name="&lt;路徑&gt;" class="cls-7" cx="325.6" cy="263.74" r="19.85"/></g><g id="_群組_59" data-name="&lt;群組&gt;"><path id="_路徑_123" data-name="&lt;路徑&gt;" class="cls-7" d="M382.55,326.19H355.41a6.14,6.14,0,0,1-6.14-6.32l1.1-37A18.61,18.61,0,0,1,369,264.28h0a18.61,18.61,0,0,1,18.61,18.61l1.1,37A6.14,6.14,0,0,1,382.55,326.19Z"/><circle id="_路徑_124" data-name="&lt;路徑&gt;" class="cls-7" cx="368.98" cy="251.44" r="19.85"/></g><g id="_群組_60" data-name="&lt;群組&gt;"><path id="_路徑_125" data-name="&lt;路徑&gt;" class="cls-7" d="M435.31,339.18H408.16a6.13,6.13,0,0,1-6.13-6.32l1.09-37a18.61,18.61,0,0,1,18.61-18.61h0a18.61,18.61,0,0,1,18.62,18.61l1.09,37A6.13,6.13,0,0,1,435.31,339.18Z"/><circle id="_路徑_126" data-name="&lt;路徑&gt;" class="cls-7" cx="421.73" cy="264.43" r="19.85"/></g><g id="_群組_61" data-name="&lt;群組&gt;"><path id="_路徑_127" data-name="&lt;路徑&gt;" class="cls-7" d="M485.64,330.89H458.49a6.14,6.14,0,0,1-6.13-6.32l1.09-37A18.62,18.62,0,0,1,472.07,269h0a18.61,18.61,0,0,1,18.61,18.61l1.1,37A6.14,6.14,0,0,1,485.64,330.89Z"/><circle id="_路徑_128" data-name="&lt;路徑&gt;" class="cls-7" cx="472.07" cy="256.14" r="19.85"/></g><g id="_群組_62" data-name="&lt;群組&gt;"><path id="_路徑_129" data-name="&lt;路徑&gt;" class="cls-7" d="M481.26,371.06H454.12a6.14,6.14,0,0,1-6.14-6.32l1.1-37a18.61,18.61,0,0,1,18.61-18.61h0a18.62,18.62,0,0,1,18.62,18.61l1.09,37A6.14,6.14,0,0,1,481.26,371.06Z"/><circle id="_路徑_130" data-name="&lt;路徑&gt;" class="cls-7" cx="467.69" cy="296.31" r="19.85"/></g><g id="_群組_63" data-name="&lt;群組&gt;"><path id="_路徑_131" data-name="&lt;路徑&gt;" class="cls-7" d="M426.31,374H399.17a6.14,6.14,0,0,1-6.14-6.32l1.1-37A18.62,18.62,0,0,1,412.74,312h0a18.62,18.62,0,0,1,18.62,18.62l1.09,37A6.14,6.14,0,0,1,426.31,374Z"/><circle id="_路徑_132" data-name="&lt;路徑&gt;" class="cls-7" cx="412.74" cy="299.2" r="19.85"/></g><g id="_群組_64" data-name="&lt;群組&gt;"><path id="_路徑_133" data-name="&lt;路徑&gt;" class="cls-7" d="M372,371.87H344.83a6.13,6.13,0,0,1-6.13-6.32l1.09-37A18.62,18.62,0,0,1,358.41,310h0A18.61,18.61,0,0,1,377,328.57l1.1,37A6.14,6.14,0,0,1,372,371.87Z"/><circle id="_路徑_134" data-name="&lt;路徑&gt;" class="cls-7" cx="358.41" cy="297.12" r="19.85"/></g><g id="_群組_65" data-name="&lt;群組&gt;"><path id="_路徑_135" data-name="&lt;路徑&gt;" class="cls-7" d="M301.46,356.45H274.31a6.14,6.14,0,0,1-6.14-6.32l1.1-37a18.61,18.61,0,0,1,18.61-18.61h0a18.62,18.62,0,0,1,18.62,18.61l1.09,37A6.14,6.14,0,0,1,301.46,356.45Z"/><circle id="_路徑_136" data-name="&lt;路徑&gt;" class="cls-7" cx="287.88" cy="281.7" r="19.85"/></g><g id="_群組_66" data-name="&lt;群組&gt;"><path id="_路徑_137" data-name="&lt;路徑&gt;" class="cls-7" d="M332.42,425.48H305.27a6.13,6.13,0,0,1-6.13-6.32l1.09-37a18.62,18.62,0,0,1,18.62-18.62h0a18.62,18.62,0,0,1,18.61,18.62l1.1,37A6.14,6.14,0,0,1,332.42,425.48Z"/><circle id="_路徑_138" data-name="&lt;路徑&gt;" class="cls-7" cx="318.85" cy="350.73" r="19.85"/></g><g id="_群組_67" data-name="&lt;群組&gt;"><path id="_路徑_139" data-name="&lt;路徑&gt;" class="cls-7" d="M389.9,410.87H362.75a6.13,6.13,0,0,1-6.13-6.32l1.09-37A18.62,18.62,0,0,1,376.33,349h0a18.61,18.61,0,0,1,18.61,18.61l1.1,37A6.14,6.14,0,0,1,389.9,410.87Z"/><circle id="_路徑_140" data-name="&lt;路徑&gt;" class="cls-7" cx="376.33" cy="336.12" r="19.85"/></g><g id="_群組_68" data-name="&lt;群組&gt;"><path id="_路徑_141" data-name="&lt;路徑&gt;" class="cls-7" d="M465.93,406.33H438.78a6.13,6.13,0,0,1-6.13-6.32l1.09-37a18.61,18.61,0,0,1,18.62-18.61h0A18.61,18.61,0,0,1,471,363l1.09,37A6.13,6.13,0,0,1,465.93,406.33Z"/><circle id="_路徑_142" data-name="&lt;路徑&gt;" class="cls-7" cx="452.36" cy="331.58" r="19.85"/></g><g id="_群組_69" data-name="&lt;群組&gt;"><path id="_路徑_143" data-name="&lt;路徑&gt;" class="cls-7" d="M118,271.79H93.35A5.59,5.59,0,0,1,87.77,266l1-33.61a16.92,16.92,0,0,1,16.92-16.92h0a16.92,16.92,0,0,1,16.93,16.92l1,33.61A5.58,5.58,0,0,1,118,271.79Z"/><circle id="_路徑_144" data-name="&lt;路徑&gt;" class="cls-7" cx="105.69" cy="203.84" r="18.04"/></g><g id="_群組_70" data-name="&lt;群組&gt;"><path id="_路徑_145" data-name="&lt;路徑&gt;" class="cls-7" d="M68.41,255.79H43.72a5.57,5.57,0,0,1-5.57-5.74l1-33.62a16.93,16.93,0,0,1,16.93-16.92h0A16.93,16.93,0,0,1,73,216.43l1,33.62A5.57,5.57,0,0,1,68.41,255.79Z"/><circle id="_路徑_146" data-name="&lt;路徑&gt;" class="cls-7" cx="56.07" cy="187.84" r="18.04"/></g><g id="_群組_71" data-name="&lt;群組&gt;"><path id="_路徑_147" data-name="&lt;路徑&gt;" class="cls-7" d="M78.65,323.28H51.5A6.13,6.13,0,0,1,45.37,317l1.09-37a18.62,18.62,0,0,1,18.62-18.62h0A18.62,18.62,0,0,1,83.69,280l1.1,37A6.14,6.14,0,0,1,78.65,323.28Z"/><circle id="_路徑_148" data-name="&lt;路徑&gt;" class="cls-7" cx="65.08" cy="248.53" r="19.85"/></g><g id="_群組_72" data-name="&lt;群組&gt;"><path id="_路徑_149" data-name="&lt;路徑&gt;" class="cls-7" d="M201.77,314.77H174.62a6.13,6.13,0,0,1-6.13-6.32l1.09-37a18.62,18.62,0,0,1,18.62-18.62h0a18.61,18.61,0,0,1,18.61,18.62l1.1,37A6.14,6.14,0,0,1,201.77,314.77Z"/><circle id="_路徑_150" data-name="&lt;路徑&gt;" class="cls-7" cx="188.2" cy="240.02" r="19.85"/></g><g id="_群組_73" data-name="&lt;群組&gt;"><path id="_路徑_151" data-name="&lt;路徑&gt;" class="cls-7" d="M201.77,368.81H174.62a6.13,6.13,0,0,1-6.13-6.32l1.09-37A18.62,18.62,0,0,1,188.2,306.9h0a18.61,18.61,0,0,1,18.61,18.61l1.1,37A6.14,6.14,0,0,1,201.77,368.81Z"/><circle id="_路徑_152" data-name="&lt;路徑&gt;" class="cls-7" cx="188.2" cy="294.06" r="19.85"/></g><g id="_群組_74" data-name="&lt;群組&gt;"><path id="_路徑_153" data-name="&lt;路徑&gt;" class="cls-7" d="M148.32,328.07H121.17a6.14,6.14,0,0,1-6.13-6.32l1.09-37a18.62,18.62,0,0,1,18.62-18.62h0a18.62,18.62,0,0,1,18.61,18.62l1.1,37A6.14,6.14,0,0,1,148.32,328.07Z"/><circle id="_路徑_154" data-name="&lt;路徑&gt;" class="cls-7" cx="134.75" cy="253.32" r="19.85"/></g><g id="_群組_75" data-name="&lt;群組&gt;"><path id="_路徑_155" data-name="&lt;路徑&gt;" class="cls-7" d="M253.55,373.49H226.4a6.14,6.14,0,0,1-6.14-6.32l1.1-37A18.62,18.62,0,0,1,240,311.57h0a18.62,18.62,0,0,1,18.62,18.62l1.09,37A6.14,6.14,0,0,1,253.55,373.49Z"/><circle id="_路徑_156" data-name="&lt;路徑&gt;" class="cls-7" cx="239.97" cy="298.74" r="19.85"/></g><g id="_群組_76" data-name="&lt;群組&gt;"><path id="_路徑_157" data-name="&lt;路徑&gt;" class="cls-7" d="M98.36,391.71H71.21a6.14,6.14,0,0,1-6.13-6.32l1.09-37A18.62,18.62,0,0,1,84.79,329.8h0a18.62,18.62,0,0,1,18.61,18.62l1.1,37A6.14,6.14,0,0,1,98.36,391.71Z"/><circle id="_路徑_158" data-name="&lt;路徑&gt;" class="cls-7" cx="84.79" cy="316.96" r="19.85"/></g><g id="_群組_77" data-name="&lt;群組&gt;"><path id="_路徑_159" data-name="&lt;路徑&gt;" class="cls-7" d="M51.72,383.42H24.57a6.13,6.13,0,0,1-6.13-6.32l1.09-37a18.61,18.61,0,0,1,18.62-18.61h0a18.61,18.61,0,0,1,18.61,18.61l1.09,37A6.13,6.13,0,0,1,51.72,383.42Z"/><circle id="_路徑_160" data-name="&lt;路徑&gt;" class="cls-7" cx="38.15" cy="308.67" r="19.85"/></g><g id="_群組_78" data-name="&lt;群組&gt;"><path id="_路徑_161" data-name="&lt;路徑&gt;" class="cls-7" d="M256.6,417.88H229.45a6.13,6.13,0,0,1-6.13-6.32l1.09-37A18.61,18.61,0,0,1,243,356h0a18.61,18.61,0,0,1,18.61,18.61l1.09,37A6.13,6.13,0,0,1,256.6,417.88Z"/><circle id="_路徑_162" data-name="&lt;路徑&gt;" class="cls-7" cx="243.03" cy="343.13" r="19.85"/></g><g id="_群組_79" data-name="&lt;群組&gt;"><path id="_路徑_163" data-name="&lt;路徑&gt;" class="cls-7" d="M148.2,398H121.05a6.14,6.14,0,0,1-6.13-6.32l1.09-37a18.62,18.62,0,0,1,18.62-18.62h0a18.62,18.62,0,0,1,18.61,18.62l1.1,37A6.14,6.14,0,0,1,148.2,398Z"/><circle id="_路徑_164" data-name="&lt;路徑&gt;" class="cls-7" cx="134.63" cy="323.28" r="19.85"/></g><g id="_群組_80" data-name="&lt;群組&gt;"><path id="_路徑_165" data-name="&lt;路徑&gt;" class="cls-7" d="M1716.69,304.29h24.68a5.58,5.58,0,0,0,5.58-5.74l-1-33.62A16.93,16.93,0,0,0,1729,248h0a16.93,16.93,0,0,0-16.92,16.92l-1,33.62A5.57,5.57,0,0,0,1716.69,304.29Z"/><circle id="_路徑_166" data-name="&lt;路徑&gt;" class="cls-7" cx="1729.03" cy="236.34" r="18.04"/></g><g id="_群組_81" data-name="&lt;群組&gt;"><path id="_路徑_167" data-name="&lt;路徑&gt;" class="cls-7" d="M1673.67,284.25h24.68a5.58,5.58,0,0,0,5.58-5.74l-1-33.62A16.92,16.92,0,0,0,1686,228h0a16.92,16.92,0,0,0-16.92,16.92l-1,33.62A5.58,5.58,0,0,0,1673.67,284.25Z"/><circle id="_路徑_168" data-name="&lt;路徑&gt;" class="cls-7" cx="1686.01" cy="216.3" r="18.04"/></g><g id="_群組_82" data-name="&lt;群組&gt;"><path id="_路徑_169" data-name="&lt;路徑&gt;" class="cls-7" d="M1625.74,278.62h24.68a5.58,5.58,0,0,0,5.58-5.74l-1-33.62a16.92,16.92,0,0,0-16.92-16.92h0a16.92,16.92,0,0,0-16.92,16.92l-1,33.62A5.58,5.58,0,0,0,1625.74,278.62Z"/><circle id="_路徑_170" data-name="&lt;路徑&gt;" class="cls-7" cx="1638.08" cy="210.67" r="18.04"/></g><g id="_群組_83" data-name="&lt;群組&gt;"><path id="_路徑_171" data-name="&lt;路徑&gt;" class="cls-7" d="M1573.16,275.45h24.68a5.58,5.58,0,0,0,5.58-5.75l-1-33.61a16.93,16.93,0,0,0-16.92-16.93h0a16.92,16.92,0,0,0-16.92,16.93l-1,33.61A5.58,5.58,0,0,0,1573.16,275.45Z"/><circle id="_路徑_172" data-name="&lt;路徑&gt;" class="cls-7" cx="1585.5" cy="207.49" r="18.04"/></g><g id="_群組_84" data-name="&lt;群組&gt;"><path id="_路徑_173" data-name="&lt;路徑&gt;" class="cls-7" d="M1529,280h24.68a5.58,5.58,0,0,0,5.58-5.75l-1-33.61a16.92,16.92,0,0,0-16.92-16.93h0a16.92,16.92,0,0,0-16.92,16.93l-1,33.61A5.58,5.58,0,0,0,1529,280Z"/><circle id="_路徑_174" data-name="&lt;路徑&gt;" class="cls-7" cx="1541.33" cy="212.05" r="18.04"/></g><g id="_群組_85" data-name="&lt;群組&gt;"><path id="_路徑_175" data-name="&lt;路徑&gt;" class="cls-7" d="M1448,297.54h24.68a5.58,5.58,0,0,0,5.58-5.75l-1-33.61a16.93,16.93,0,0,0-16.92-16.93h0a16.92,16.92,0,0,0-16.92,16.93l-1,33.61A5.58,5.58,0,0,0,1448,297.54Z"/><circle id="_路徑_176" data-name="&lt;路徑&gt;" class="cls-7" cx="1460.29" cy="229.58" r="18.04"/></g><g id="_群組_86" data-name="&lt;群組&gt;"><path id="_路徑_177" data-name="&lt;路徑&gt;" class="cls-7" d="M1623.89,346.46H1651a6.13,6.13,0,0,0,6.13-6.32l-1.09-37a18.62,18.62,0,0,0-18.62-18.62h0a18.62,18.62,0,0,0-18.61,18.62l-1.1,37A6.14,6.14,0,0,0,1623.89,346.46Z"/><circle id="_路徑_178" data-name="&lt;路徑&gt;" class="cls-7" cx="1637.46" cy="271.71" r="19.85"/></g><g id="_群組_87" data-name="&lt;群組&gt;"><path id="_路徑_179" data-name="&lt;路徑&gt;" class="cls-7" d="M1573.17,327.31h27.14a6.14,6.14,0,0,0,6.14-6.32l-1.1-37a18.62,18.62,0,0,0-18.61-18.62h0A18.62,18.62,0,0,0,1568.12,284L1567,321A6.14,6.14,0,0,0,1573.17,327.31Z"/><circle id="_路徑_180" data-name="&lt;路徑&gt;" class="cls-7" cx="1586.74" cy="252.56" r="19.85"/></g><g id="_群組_88" data-name="&lt;群組&gt;"><path id="_路徑_181" data-name="&lt;路徑&gt;" class="cls-7" d="M1527.76,347.15h27.15a6.14,6.14,0,0,0,6.13-6.32l-1.09-37a18.62,18.62,0,0,0-18.62-18.62h0a18.62,18.62,0,0,0-18.61,18.62l-1.1,37A6.14,6.14,0,0,0,1527.76,347.15Z"/><circle id="_路徑_182" data-name="&lt;路徑&gt;" class="cls-7" cx="1541.33" cy="272.4" r="19.85"/></g><g id="_群組_89" data-name="&lt;群組&gt;"><path id="_路徑_183" data-name="&lt;路徑&gt;" class="cls-7" d="M1477.42,338.86h27.15a6.14,6.14,0,0,0,6.14-6.32l-1.1-37A18.61,18.61,0,0,0,1491,277h0a18.62,18.62,0,0,0-18.62,18.61l-1.09,37A6.14,6.14,0,0,0,1477.42,338.86Z"/><circle id="_路徑_184" data-name="&lt;路徑&gt;" class="cls-7" cx="1491" cy="264.11" r="19.85"/></g><g id="_群組_90" data-name="&lt;群組&gt;"><path id="_路徑_185" data-name="&lt;路徑&gt;" class="cls-7" d="M1481.8,379H1509a6.13,6.13,0,0,0,6.13-6.32l-1.09-37a18.61,18.61,0,0,0-18.61-18.62h0a18.61,18.61,0,0,0-18.62,18.62l-1.09,37A6.13,6.13,0,0,0,1481.8,379Z"/><circle id="_路徑_186" data-name="&lt;路徑&gt;" class="cls-7" cx="1495.38" cy="304.28" r="19.85"/></g><g id="_群組_91" data-name="&lt;群組&gt;"><path id="_路徑_187" data-name="&lt;路徑&gt;" class="cls-7" d="M1536.75,381.92h27.15a6.13,6.13,0,0,0,6.13-6.31l-1.09-37A18.62,18.62,0,0,0,1550.33,320h0a18.62,18.62,0,0,0-18.62,18.62l-1.09,37A6.13,6.13,0,0,0,1536.75,381.92Z"/><circle id="_路徑_188" data-name="&lt;路徑&gt;" class="cls-7" cx="1550.33" cy="307.18" r="19.85"/></g><g id="_群組_92" data-name="&lt;群組&gt;"><path id="_路徑_189" data-name="&lt;路徑&gt;" class="cls-7" d="M1591.09,379.84h27.14a6.14,6.14,0,0,0,6.14-6.32l-1.1-37a18.61,18.61,0,0,0-18.61-18.61h0a18.61,18.61,0,0,0-18.61,18.61l-1.1,37A6.14,6.14,0,0,0,1591.09,379.84Z"/><circle id="_路徑_190" data-name="&lt;路徑&gt;" class="cls-7" cx="1604.66" cy="305.09" r="19.85"/></g><g id="_群組_93" data-name="&lt;群組&gt;"><path id="_路徑_191" data-name="&lt;路徑&gt;" class="cls-7" d="M1661.61,364.42h27.15a6.13,6.13,0,0,0,6.13-6.32l-1.09-37a18.61,18.61,0,0,0-18.62-18.61h0a18.61,18.61,0,0,0-18.61,18.61l-1.09,37A6.13,6.13,0,0,0,1661.61,364.42Z"/><circle id="_路徑_192" data-name="&lt;路徑&gt;" class="cls-7" cx="1675.18" cy="289.67" r="19.85"/></g><g id="_群組_94" data-name="&lt;群組&gt;"><path id="_路徑_193" data-name="&lt;路徑&gt;" class="cls-7" d="M1630.65,433.46h27.14a6.14,6.14,0,0,0,6.14-6.32l-1.1-37a18.61,18.61,0,0,0-18.61-18.61h0a18.62,18.62,0,0,0-18.62,18.61l-1.09,37A6.14,6.14,0,0,0,1630.65,433.46Z"/><circle id="_路徑_194" data-name="&lt;路徑&gt;" class="cls-7" cx="1644.22" cy="358.71" r="19.85"/></g><g id="_群組_95" data-name="&lt;群組&gt;"><path id="_路徑_195" data-name="&lt;路徑&gt;" class="cls-7" d="M1573.17,418.84h27.14a6.14,6.14,0,0,0,6.14-6.32l-1.1-37a18.62,18.62,0,0,0-18.61-18.62h0a18.62,18.62,0,0,0-18.62,18.62l-1.09,37A6.14,6.14,0,0,0,1573.17,418.84Z"/><circle id="_路徑_196" data-name="&lt;路徑&gt;" class="cls-7" cx="1586.74" cy="344.09" r="19.85"/></g><g id="_群組_96" data-name="&lt;群組&gt;"><path id="_路徑_197" data-name="&lt;路徑&gt;" class="cls-7" d="M1497.14,414.3h27.14a6.14,6.14,0,0,0,6.14-6.32l-1.09-37a18.62,18.62,0,0,0-18.62-18.61h0A18.61,18.61,0,0,0,1492.1,371l-1.1,37A6.14,6.14,0,0,0,1497.14,414.3Z"/><circle id="_路徑_198" data-name="&lt;路徑&gt;" class="cls-7" cx="1510.71" cy="339.55" r="19.85"/></g><g id="_群組_97" data-name="&lt;群組&gt;"><path id="_路徑_199" data-name="&lt;路徑&gt;" class="cls-7" d="M1845,279.76h24.68a5.58,5.58,0,0,0,5.58-5.74l-1-33.62a16.93,16.93,0,0,0-16.93-16.92h0a16.93,16.93,0,0,0-16.92,16.92l-1,33.62A5.57,5.57,0,0,0,1845,279.76Z"/><circle id="_路徑_200" data-name="&lt;路徑&gt;" class="cls-7" cx="1857.37" cy="211.81" r="18.04"/></g><g id="_群組_98" data-name="&lt;群組&gt;"><path id="_路徑_201" data-name="&lt;路徑&gt;" class="cls-7" d="M1894.66,263.77h24.68a5.58,5.58,0,0,0,5.58-5.75l-1-33.61A16.92,16.92,0,0,0,1907,207.48h0a16.92,16.92,0,0,0-16.92,16.93l-1,33.61A5.58,5.58,0,0,0,1894.66,263.77Z"/><circle id="_路徑_202" data-name="&lt;路徑&gt;" class="cls-7" cx="1907" cy="195.81" r="18.04"/></g><g id="_群組_99" data-name="&lt;群組&gt;"><path id="_路徑_203" data-name="&lt;路徑&gt;" class="cls-7" d="M1884.42,331.26h27.14a6.14,6.14,0,0,0,6.14-6.32l-1.1-37A18.62,18.62,0,0,0,1898,269.34h0A18.62,18.62,0,0,0,1879.37,288l-1.09,37A6.14,6.14,0,0,0,1884.42,331.26Z"/><circle id="_路徑_204" data-name="&lt;路徑&gt;" class="cls-7" cx="1897.99" cy="256.51" r="19.85"/></g><g id="_群組_100" data-name="&lt;群組&gt;"><path id="_路徑_205" data-name="&lt;路徑&gt;" class="cls-7" d="M1761.29,322.74h27.15a6.14,6.14,0,0,0,6.14-6.32l-1.1-37a18.62,18.62,0,0,0-18.61-18.62h0a18.62,18.62,0,0,0-18.62,18.62l-1.09,37A6.14,6.14,0,0,0,1761.29,322.74Z"/><circle id="_路徑_206" data-name="&lt;路徑&gt;" class="cls-7" cx="1774.87" cy="247.99" r="19.85"/></g><g id="_群組_101" data-name="&lt;群組&gt;"><path id="_路徑_207" data-name="&lt;路徑&gt;" class="cls-7" d="M1756.42,379.84h27.15a6.13,6.13,0,0,0,6.13-6.32l-1.09-37A18.61,18.61,0,0,0,1770,317.93h0a18.61,18.61,0,0,0-18.61,18.61l-1.09,37A6.13,6.13,0,0,0,1756.42,379.84Z"/><circle id="_路徑_208" data-name="&lt;路徑&gt;" class="cls-7" cx="1769.99" cy="305.09" r="19.85"/></g><g id="_群組_102" data-name="&lt;群組&gt;"><path id="_路徑_209" data-name="&lt;路徑&gt;" class="cls-7" d="M1814.74,336.05h27.15a6.14,6.14,0,0,0,6.14-6.32l-1.1-37a18.62,18.62,0,0,0-18.61-18.62h0a18.62,18.62,0,0,0-18.62,18.62l-1.09,37A6.14,6.14,0,0,0,1814.74,336.05Z"/><circle id="_路徑_210" data-name="&lt;路徑&gt;" class="cls-7" cx="1828.32" cy="261.3" r="19.85"/></g><g id="_群組_103" data-name="&lt;群組&gt;"><path id="_路徑_211" data-name="&lt;路徑&gt;" class="cls-7" d="M1709.52,381.46h27.15a6.13,6.13,0,0,0,6.13-6.32l-1.09-37a18.62,18.62,0,0,0-18.62-18.61h0a18.61,18.61,0,0,0-18.61,18.61l-1.1,37A6.14,6.14,0,0,0,1709.52,381.46Z"/><circle id="_路徑_212" data-name="&lt;路徑&gt;" class="cls-7" cx="1723.09" cy="306.71" r="19.85"/></g><g id="_群組_104" data-name="&lt;群組&gt;"><path id="_路徑_213" data-name="&lt;路徑&gt;" class="cls-7" d="M1864.7,399.69h27.15a6.14,6.14,0,0,0,6.14-6.32l-1.1-37a18.61,18.61,0,0,0-18.61-18.61h0a18.62,18.62,0,0,0-18.62,18.61l-1.09,37A6.14,6.14,0,0,0,1864.7,399.69Z"/><circle id="_路徑_214" data-name="&lt;路徑&gt;" class="cls-7" cx="1878.28" cy="324.94" r="19.85"/></g><g id="_群組_105" data-name="&lt;群組&gt;"><path id="_路徑_215" data-name="&lt;路徑&gt;" class="cls-7" d="M1911.35,391.39h27.14a6.14,6.14,0,0,0,6.14-6.32l-1.09-37a18.62,18.62,0,0,0-18.62-18.62h0a18.62,18.62,0,0,0-18.61,18.62l-1.1,37A6.14,6.14,0,0,0,1911.35,391.39Z"/><circle id="_路徑_216" data-name="&lt;路徑&gt;" class="cls-7" cx="1924.92" cy="316.64" r="19.85"/></g><g id="_群組_106" data-name="&lt;群組&gt;"><path id="_路徑_217" data-name="&lt;路徑&gt;" class="cls-7" d="M1706.47,425.85h27.14a6.14,6.14,0,0,0,6.14-6.32l-1.09-37A18.62,18.62,0,0,0,1720,363.94h0a18.62,18.62,0,0,0-18.61,18.62l-1.1,37A6.14,6.14,0,0,0,1706.47,425.85Z"/><circle id="_路徑_218" data-name="&lt;路徑&gt;" class="cls-7" cx="1720.04" cy="351.1" r="19.85"/></g><g id="_群組_107" data-name="&lt;群組&gt;"><path id="_路徑_219" data-name="&lt;路徑&gt;" class="cls-7" d="M1814.86,406H1842a6.14,6.14,0,0,0,6.14-6.32l-1.1-37a18.62,18.62,0,0,0-18.61-18.62h0a18.62,18.62,0,0,0-18.62,18.62l-1.09,37A6.14,6.14,0,0,0,1814.86,406Z"/><circle id="_路徑_220" data-name="&lt;路徑&gt;" class="cls-7" cx="1828.44" cy="331.26" r="19.85"/></g></g><g id="crowd1"><g id="_群組_108" data-name="&lt;群組&gt;"><path id="_路徑_221" data-name="&lt;路徑&gt;" class="cls-8" d="M86.69,478.07H54.5a7.27,7.27,0,0,1-7.27-7.49l1.29-43.84a22.07,22.07,0,0,1,22.07-22.07h0a22.07,22.07,0,0,1,22.07,22.07L94,470.58A7.28,7.28,0,0,1,86.69,478.07Z"/><circle id="_路徑_222" data-name="&lt;路徑&gt;" class="cls-8" cx="70.59" cy="389.45" r="23.53"/></g><g id="_群組_109" data-name="&lt;群組&gt;"><path id="_路徑_223" data-name="&lt;路徑&gt;" class="cls-8" d="M131.13,506.71H98.94a7.28,7.28,0,0,1-7.27-7.49L93,455.38A22.07,22.07,0,0,1,115,433.31h0a22.07,22.07,0,0,1,22.07,22.07l1.3,43.84A7.28,7.28,0,0,1,131.13,506.71Z"/><circle id="_路徑_224" data-name="&lt;路徑&gt;" class="cls-8" cx="115.03" cy="418.09" r="23.53"/></g><g id="_群組_110" data-name="&lt;群組&gt;"><path id="_路徑_225" data-name="&lt;路徑&gt;" class="cls-8" d="M191.76,474H159.57a7.28,7.28,0,0,1-7.27-7.5l1.3-43.83a22.07,22.07,0,0,1,22.07-22.07h0a22.07,22.07,0,0,1,22.07,22.07L199,466.46A7.28,7.28,0,0,1,191.76,474Z"/><circle id="_路徑_226" data-name="&lt;路徑&gt;" class="cls-8" cx="175.67" cy="385.34" r="23.53"/></g><g id="_群組_111" data-name="&lt;群組&gt;"><path id="_路徑_227" data-name="&lt;路徑&gt;" class="cls-8" d="M431.25,460.52H399.06a7.28,7.28,0,0,1-7.27-7.5l1.3-43.83a22.07,22.07,0,0,1,22.07-22.07h0a22.07,22.07,0,0,1,22.07,22.07L438.52,453A7.27,7.27,0,0,1,431.25,460.52Z"/><circle id="_路徑_228" data-name="&lt;路徑&gt;" class="cls-8" cx="415.16" cy="371.9" r="23.53"/></g><g id="_群組_112" data-name="&lt;群組&gt;"><path id="_路徑_229" data-name="&lt;路徑&gt;" class="cls-8" d="M341.7,508.76H309.51a7.27,7.27,0,0,1-7.27-7.49l1.29-43.84a22.07,22.07,0,0,1,22.07-22.07h0a22.07,22.07,0,0,1,22.07,22.07l1.3,43.84A7.28,7.28,0,0,1,341.7,508.76Z"/><circle id="_路徑_230" data-name="&lt;路徑&gt;" class="cls-8" cx="325.6" cy="420.14" r="23.53"/></g><g id="_群組_113" data-name="&lt;群組&gt;"><path id="_路徑_231" data-name="&lt;路徑&gt;" class="cls-8" d="M393.66,499.75H361.47a7.28,7.28,0,0,1-7.27-7.49l1.3-43.84a22.07,22.07,0,0,1,22.07-22.07h0a22.07,22.07,0,0,1,22.07,22.07l1.29,43.84A7.28,7.28,0,0,1,393.66,499.75Z"/><circle id="_路徑_232" data-name="&lt;路徑&gt;" class="cls-8" cx="377.57" cy="411.13" r="23.53"/></g><g id="_群組_114" data-name="&lt;群組&gt;"><path id="_路徑_233" data-name="&lt;路徑&gt;" class="cls-8" d="M287.4,489.39H255.22a7.28,7.28,0,0,1-7.28-7.5l1.3-43.83A22.07,22.07,0,0,1,271.31,416h0a22.07,22.07,0,0,1,22.07,22.07l1.3,43.83A7.28,7.28,0,0,1,287.4,489.39Z"/><circle id="_路徑_234" data-name="&lt;路徑&gt;" class="cls-8" cx="271.31" cy="400.77" r="23.53"/></g><g id="_群組_115" data-name="&lt;群組&gt;"><path id="_路徑_235" data-name="&lt;路徑&gt;" class="cls-8" d="M232.69,519.89H200.51a7.28,7.28,0,0,1-7.28-7.49l1.3-43.84a22.07,22.07,0,0,1,22.07-22.07h0a22.07,22.07,0,0,1,22.07,22.07L240,512.4A7.28,7.28,0,0,1,232.69,519.89Z"/><circle id="_路徑_236" data-name="&lt;路徑&gt;" class="cls-8" cx="216.6" cy="431.27" r="23.53"/></g><g id="_群組_116" data-name="&lt;群組&gt;"><path id="_路徑_237" data-name="&lt;路徑&gt;" class="cls-8" d="M39.62,506.71H7.44a7.28,7.28,0,0,1-7.28-7.49l1.3-43.84a22.07,22.07,0,0,1,22.07-22.07h0A22.07,22.07,0,0,1,45.6,455.38l1.3,43.84A7.28,7.28,0,0,1,39.62,506.71Z"/><circle id="_路徑_238" data-name="&lt;路徑&gt;" class="cls-8" cx="23.53" cy="418.09" r="23.53"/></g><g id="_群組_117" data-name="&lt;群組&gt;"><path id="_路徑_239" data-name="&lt;路徑&gt;" class="cls-8" d="M1876.38,486.05h32.19a7.28,7.28,0,0,0,7.27-7.5l-1.3-43.84a22.07,22.07,0,0,0-22.07-22.06h0a22.07,22.07,0,0,0-22.07,22.06l-1.29,43.84A7.28,7.28,0,0,0,1876.38,486.05Z"/><circle id="_路徑_240" data-name="&lt;路徑&gt;" class="cls-8" cx="1892.47" cy="397.42" r="23.53"/></g><g id="_群組_118" data-name="&lt;群組&gt;"><path id="_路徑_241" data-name="&lt;路徑&gt;" class="cls-8" d="M1831.94,514.68h32.18a7.28,7.28,0,0,0,7.28-7.49l-1.3-43.84A22.07,22.07,0,0,0,1848,441.28h0A22.07,22.07,0,0,0,1826,463.35l-1.3,43.84A7.28,7.28,0,0,0,1831.94,514.68Z"/><circle id="_路徑_242" data-name="&lt;路徑&gt;" class="cls-8" cx="1848.03" cy="426.06" r="23.53"/></g><g id="_群組_119" data-name="&lt;群組&gt;"><path id="_路徑_243" data-name="&lt;路徑&gt;" class="cls-8" d="M1771.3,481.93h32.19a7.27,7.27,0,0,0,7.27-7.49l-1.29-43.84a22.07,22.07,0,0,0-22.07-22.07h0a22.07,22.07,0,0,0-22.07,22.07l-1.3,43.84A7.28,7.28,0,0,0,1771.3,481.93Z"/><circle id="_路徑_244" data-name="&lt;路徑&gt;" class="cls-8" cx="1787.4" cy="393.31" r="23.53"/></g><g id="_群組_120" data-name="&lt;群組&gt;"><path id="_路徑_245" data-name="&lt;路徑&gt;" class="cls-8" d="M1531.81,468.49H1564a7.27,7.27,0,0,0,7.27-7.49L1570,417.16a22.07,22.07,0,0,0-22.07-22.07h0a22.07,22.07,0,0,0-22.07,22.07l-1.3,43.84A7.28,7.28,0,0,0,1531.81,468.49Z"/><circle id="_路徑_246" data-name="&lt;路徑&gt;" class="cls-8" cx="1547.91" cy="379.87" r="23.53"/></g><g id="_群組_121" data-name="&lt;群組&gt;"><path id="_路徑_247" data-name="&lt;路徑&gt;" class="cls-8" d="M1621.37,516.73h32.19a7.28,7.28,0,0,0,7.27-7.49l-1.3-43.84a22.08,22.08,0,0,0-22.07-22.07h0a22.08,22.08,0,0,0-22.07,22.07l-1.29,43.84A7.28,7.28,0,0,0,1621.37,516.73Z"/><circle id="_路徑_248" data-name="&lt;路徑&gt;" class="cls-8" cx="1637.46" cy="428.11" r="23.53"/></g><g id="_群組_122" data-name="&lt;群組&gt;"><path id="_路徑_249" data-name="&lt;路徑&gt;" class="cls-8" d="M1569.41,507.72h32.18a7.28,7.28,0,0,0,7.28-7.49l-1.3-43.84a22.07,22.07,0,0,0-22.07-22.07h0a22.07,22.07,0,0,0-22.07,22.07l-1.3,43.84A7.28,7.28,0,0,0,1569.41,507.72Z"/><circle id="_路徑_250" data-name="&lt;路徑&gt;" class="cls-8" cx="1585.5" cy="419.1" r="23.53"/></g><g id="_群組_123" data-name="&lt;群組&gt;"><path id="_路徑_251" data-name="&lt;路徑&gt;" class="cls-8" d="M1675.66,497.36h32.19a7.28,7.28,0,0,0,7.27-7.49l-1.3-43.84A22.07,22.07,0,0,0,1691.76,424h0A22.07,22.07,0,0,0,1669.69,446l-1.3,43.84A7.28,7.28,0,0,0,1675.66,497.36Z"/><circle id="_路徑_252" data-name="&lt;路徑&gt;" class="cls-8" cx="1691.76" cy="408.74" r="23.53"/></g><g id="_群組_124" data-name="&lt;群組&gt;"><path id="_路徑_253" data-name="&lt;路徑&gt;" class="cls-8" d="M1730.37,527.87h32.19a7.28,7.28,0,0,0,7.27-7.5l-1.3-43.83a22.07,22.07,0,0,0-22.07-22.07h0a22.07,22.07,0,0,0-22.06,22.07l-1.3,43.83A7.28,7.28,0,0,0,1730.37,527.87Z"/><circle id="_路徑_254" data-name="&lt;路徑&gt;" class="cls-8" cx="1746.46" cy="439.25" r="23.53"/></g><g id="_群組_125" data-name="&lt;群組&gt;"><path id="_路徑_255" data-name="&lt;路徑&gt;" class="cls-8" d="M1923.44,507.72h32.19a7.28,7.28,0,0,0,7.27-7.49l-1.3-43.84a22.07,22.07,0,0,0-22.06-22.07h0a22.07,22.07,0,0,0-22.06,22.07l-1.3,43.84A7.28,7.28,0,0,0,1923.44,507.72Z"/><circle id="_路徑_256" data-name="&lt;路徑&gt;" class="cls-8" cx="1939.53" cy="419.1" r="23.53"/></g></g></svg>