<svg xmlns="http://www.w3.org/2000/svg" viewBox="0 0 1920 1125.29"><defs><style>.cls-1{fill:#114b5f;}.cls-2{fill:#fff;}.cls-3{fill:#c7423a;}.cls-4{fill:#b28247;}.cls-5{fill:#39bbcc;}.cls-6{fill:#14a5b8;}.cls-7{fill:#1a7291;}</style></defs><title>bg_intro</title><g id="bg4"><g id="_群組_" data-name="&lt;群組&gt;"><g id="_群組_2" data-name="&lt;群組&gt;"><rect id="_矩形_" data-name="&lt;矩形&gt;" class="cls-1" x="1525.32" y="8.09" width="131" height="81.17" transform="translate(19.48 -204.23) rotate(7.39)"/><g id="_群組_3" data-name="&lt;群組&gt;"><g id="_群組_4" data-name="&lt;群組&gt;"><polygon id="_路徑_" data-name="&lt;路徑&gt;" class="cls-2" points="1651.72 88.44 1612.79 57.85 1609.21 57.39 1594.17 55.44 1590.6 54.97 1643.33 96.41 1650.56 97.35 1651.72 88.44"/></g><g id="_群組_5" data-name="&lt;群組&gt;"><polygon id="_路徑_2" data-name="&lt;路徑&gt;" class="cls-3" points="1608.34 56.52 1596.71 55.01 1650.56 97.33 1651.46 90.41 1608.34 56.52"/></g></g><g id="_群組_6" data-name="&lt;群組&gt;"><g id="_群組_7" data-name="&lt;群組&gt;"><polygon id="_路徑_3" data-name="&lt;路徑&gt;" class="cls-2" points="1521.8 71.59 1567.24 51.94 1570.82 52.41 1585.86 54.36 1589.44 54.82 1527.88 81.44 1520.65 80.5 1521.8 71.59"/></g><g id="_群組_8" data-name="&lt;群組&gt;"><polygon id="_路徑_4" data-name="&lt;路徑&gt;" class="cls-3" points="1571.89 51.79 1583.52 53.3 1520.65 80.48 1521.55 73.55 1571.89 51.79"/></g></g><g id="_群組_9" data-name="&lt;群組&gt;"><g id="_群組_10" data-name="&lt;群組&gt;"><polygon id="_路徑_5" data-name="&lt;路徑&gt;" class="cls-2" points="1529.93 8.91 1568.86 39.5 1572.44 39.96 1587.48 41.91 1591.05 42.38 1538.32 0.94 1531.09 0 1529.93 8.91"/></g><g id="_群組_11" data-name="&lt;群組&gt;"><polygon id="_路徑_6" data-name="&lt;路徑&gt;" class="cls-3" points="1573.31 40.83 1584.94 42.34 1531.09 0.02 1530.19 6.94 1573.31 40.83"/></g></g><g id="_群組_12" data-name="&lt;群組&gt;"><g id="_群組_13" data-name="&lt;群組&gt;"><polygon id="_路徑_7" data-name="&lt;路徑&gt;" class="cls-2" points="1659.85 25.76 1614.41 45.41 1610.83 44.94 1595.79 42.99 1592.21 42.53 1653.77 15.91 1661 16.85 1659.85 25.76"/></g><g id="_群組_14" data-name="&lt;群組&gt;"><polygon id="_路徑_8" data-name="&lt;路徑&gt;" class="cls-3" points="1609.76 45.56 1598.13 44.05 1661 16.87 1660.1 23.8 1609.76 45.56"/></g></g><g id="_群組_15" data-name="&lt;群組&gt;"><g id="_群組_16" data-name="&lt;群組&gt;"><rect id="_矩形_2" data-name="&lt;矩形&gt;" class="cls-2" x="1525.32" y="36.27" width="131" height="24.8" transform="translate(19.48 -204.23) rotate(7.39)"/></g><rect id="_矩形_3" data-name="&lt;矩形&gt;" class="cls-2" x="1525.32" y="36.27" width="131" height="24.8" transform="translate(19.48 -204.23) rotate(7.39)"/><rect id="_矩形_4" data-name="&lt;矩形&gt;" class="cls-2" x="1550.24" y="37.51" width="81.17" height="22.32" transform="matrix(-0.13, 0.99, -0.99, -0.13, 1843.73, -1522.67)"/><rect id="_矩形_5" data-name="&lt;矩形&gt;" class="cls-3" x="1550.24" y="40.9" width="81.17" height="15.56" transform="translate(1843.73 -1522.67) rotate(97.39)"/><rect id="_矩形_6" data-name="&lt;矩形&gt;" class="cls-3" x="1525.32" y="40.44" width="131" height="16.46" transform="translate(19.48 -204.23) rotate(7.39)"/></g></g><rect id="_矩形_7" data-name="&lt;矩形&gt;" class="cls-4" x="1514.88" y="-1.02" width="5.07" height="170.41" transform="translate(23.44 -194.49) rotate(7.39)"/></g><g id="_群組_17" data-name="&lt;群組&gt;"><path id="_路徑_9" data-name="&lt;路徑&gt;" class="cls-5" d="M63.14,404.37C100.63,451.53,85.63,798,235.63,808.51s267-105,442.47,63,265.49-94.5,363-66,99,115.5,180,69,171-690.39,303-638.43S1648.91,664.86,1744,513.2c-9.17,5.08-19.56,2-32.43-15.17-54-72-103.49-399-226.49-346.48s-204.06,297-243.21,384-63.16,146.13-84.78,176.26a31.43,31.43,0,0,1-25.54,13.06,8.48,8.48,0,0,1-8.48-8.48V714a13.24,13.24,0,0,0-12.64-13.36,13,13,0,0,0-13.36,13A12.49,12.49,0,0,1,1090,725.3c-9.6,4.32-18.94-2.59-18.94-11.68V699.48a13.24,13.24,0,0,0-12.37-13.35,13,13,0,0,0-13.63,13v18.66a13,13,0,0,1-26,0V703.65a13.24,13.24,0,0,0-12.37-13.35,13,13,0,0,0-13.63,13v2.39A13.24,13.24,0,0,1,980.68,719a13,13,0,0,1-13.63-13V691.9a13.24,13.24,0,0,0-12.37-13.35,13,13,0,0,0-13.63,13v20a13.24,13.24,0,0,1-12.37,13.35,13,13,0,0,1-13.63-13V697.74a13.24,13.24,0,0,0-12.42-13.36,13,13,0,0,0-13.58,13.13,7.24,7.24,0,0,1-7.26,7.11h-5.74a13,13,0,0,1-13-13v-2.3A13.25,13.25,0,0,0,850.68,676a13,13,0,0,0-13.63,13v12.47a13.24,13.24,0,0,1-12.37,13.35,13,13,0,0,1-13.63-13v-2.3a13.24,13.24,0,0,0-12.37-13.35,13,13,0,0,0-13.63,13v10.13a13.24,13.24,0,0,1-12.37,13.35,13,13,0,0,1-13.63-13V695.48a13.24,13.24,0,0,0-12.37-13.35,13,13,0,0,0-13.63,13v22.3a13.24,13.24,0,0,1-12.37,13.35,13,13,0,0,1-13.63-13V703.65a13.24,13.24,0,0,0-12.37-13.35,13,13,0,0,0-13.63,13v22.64a13.24,13.24,0,0,1-12.37,13.35,13,13,0,0,1-13.63-13V712.19a13.27,13.27,0,0,0-12.47-13.4,13,13,0,0,0-13.53,13.06,3,3,0,0,1-3,2.93h-9.23A13.77,13.77,0,0,1,603.05,701V687.65a13.24,13.24,0,0,0-12.37-13.35,13,13,0,0,0-13.63,13v22.39A13.24,13.24,0,0,1,564.68,723a13,13,0,0,1-13.63-13V695.9a13.24,13.24,0,0,0-12.37-13.35,13,13,0,0,0-13.63,13V702a12.77,12.77,0,0,1-12.77,12.77h0A12.78,12.78,0,0,1,499.5,702V687.65a13.24,13.24,0,0,0-12.37-13.35,13,13,0,0,0-13.63,13v22.39A13.24,13.24,0,0,1,461.13,723a13,13,0,0,1-13.63-13V695.9a13.24,13.24,0,0,0-12.37-13.35,13,13,0,0,0-13.63,13V701a9.46,9.46,0,0,1-8.63,9.54,9.25,9.25,0,0,1-9.87-9.23V683.4a13.24,13.24,0,0,0-12.37-13.35A13,13,0,0,0,377,683v9.64A13.24,13.24,0,0,1,364.63,706,13,13,0,0,1,351,693V678.9a13.24,13.24,0,0,0-12.37-13.35,13,13,0,0,0-13.63,13h0c0,32.82-37.34,51.85-63.76,32.4-124-91.27-69.41-234.7-141.11-313.4C60,331.53,0,386.38,0,386.38v9.55C19.49,385.3,44,380.35,63.14,404.37Z"/><path class="cls-5" d="M1920,561.63V495c-34.54-19.5-27-79.5-85.45-90-13.17-2.36-23.9,4.7-33.25,16.24,19.81,43.77,63.6,208.42,118.7,286.58V593.45a4.55,4.55,0,0,0,3.33-4.58V566.21A4.55,4.55,0,0,0,1920,561.63Z"/><g id="_群組_18" data-name="&lt;群組&gt;"><path class="cls-6" d="M1744,513.2c-95.07,151.66-87.92-225.16-219.92-277.12s-222,591.93-303,638.43-82.5-40.5-180-69-187.49,234-363,66-292.48-52.5-442.47-63-135-357-172.49-404.14C44,380.35,19.49,385.3,0,395.93v729.56H1920V707.85c-55.1-78.16-98.89-242.81-118.7-286.58C1779,448.78,1764.62,501.75,1744,513.2Z"/></g></g><path id="_路徑_10" data-name="&lt;路徑&gt;" class="cls-7" d="M1920,1125.29c-110,11-197.32-305.36-289-308.76-108-4-68,144-248.46,23s-255.54,239-403.54,245-200-168-304-224-288,56-420,126-186-304-218-369c-10.39-21.09-23.72-25.65-37-22.18v531.19"/></g></svg>