<svg xmlns="http://www.w3.org/2000/svg" viewBox="0 0 1740 703.5"><defs><style>.cls-1{fill:#d4e4e6;}.cls-2{fill:#eb9994;}.cls-3{fill:#eb6860;}.cls-4{fill:#ffccc9;}</style></defs><title>mountain</title><g id="ground"><path id="_路徑_" data-name="&lt;路徑&gt;" class="cls-1" d="M1740,703.5v-92H714S554,606.19,620,636s26,35.07-80,44.71-352-2.63-350,25.42"/><path id="_路徑_2" data-name="&lt;路徑&gt;" class="cls-1" d="M0,703.5c0-11,17.91-20,40-20s40,9,40,20"/></g><g id="mountain"><path id="_路徑_3" data-name="&lt;路徑&gt;" class="cls-2" d="M1509.75,19.42h0a3.13,3.13,0,0,0-3.12-3.13h-1a3.13,3.13,0,0,0-3.12,3.13v5.25a3.12,3.12,0,0,1-3.12,3.12h-1a3.12,3.12,0,0,1-3.12-3.12h0a3.13,3.13,0,0,0-3.12-3.13h-1a3.13,3.13,0,0,0-3.12,3.13v5.25a3.12,3.12,0,0,1-3.12,3.12h-1a3.12,3.12,0,0,1-3.12-3.12h0a3.13,3.13,0,0,0-3.12-3.13h-1a3.13,3.13,0,0,0-3.12,3.13v5.25a3.12,3.12,0,0,1-3.12,3.12h-1a3.12,3.12,0,0,1-3.12-3.12h0a3.13,3.13,0,0,0-3.12-3.13h-1a3.13,3.13,0,0,0-3.12,3.13v5.25a3.12,3.12,0,0,1-3.12,3.12h-1a3.12,3.12,0,0,1-3.12-3.12h0a3.13,3.13,0,0,0-3.12-3.13h-1a3.13,3.13,0,0,0-3.12,3.13v5.25a3.12,3.12,0,0,1-3.12,3.12h-1a3.12,3.12,0,0,1-3.12-3.12h0a3.13,3.13,0,0,0-3.12-3.13h-1a3.13,3.13,0,0,0-3.12,3.13v5.25a3.12,3.12,0,0,1-3.12,3.12h-1a3.12,3.12,0,0,1-3.12-3.12h0a3.13,3.13,0,0,0-3.12-3.13h-1a3.13,3.13,0,0,0-3.12,3.13v5.25a3.12,3.12,0,0,1-3.12,3.12h-1a3.12,3.12,0,0,1-3.12-3.12h0a3.13,3.13,0,0,0-3.12-3.13h-1a3.13,3.13,0,0,0-3.12,3.13v5.25a3.12,3.12,0,0,1-3.12,3.12h-1a3.12,3.12,0,0,1-3.12-3.12h0a3.13,3.13,0,0,0-3.12-3.13h-1a3.13,3.13,0,0,0-3.12,3.13v5.25a3.12,3.12,0,0,1-3.12,3.12h-1a3.12,3.12,0,0,1-3.12-3.12h0a3.13,3.13,0,0,0-3.12-3.13h-1a3.13,3.13,0,0,0-3.12,3.13v5.25a3.12,3.12,0,0,1-3.12,3.12h-1a3.12,3.12,0,0,1-3.12-3.12h0a3.13,3.13,0,0,0-3.12-3.13h-1a3.13,3.13,0,0,0-3.12,3.13v5.25a3.12,3.12,0,0,1-3.12,3.12h-1a3.12,3.12,0,0,1-3.12-3.12h0a3.13,3.13,0,0,0-3.12-3.13h-1a3.13,3.13,0,0,0-3.12,3.13v5.25a3.12,3.12,0,0,1-3.12,3.12h-1a3.12,3.12,0,0,1-3.12-3.12h0a3.13,3.13,0,0,0-3.12-3.13h-1a3.13,3.13,0,0,0-3.12,3.13v5.25a3.12,3.12,0,0,1-3.12,3.12h-1a3.12,3.12,0,0,1-3.12-3.12h0a3.13,3.13,0,0,0-3.12-3.13h-1a3.13,3.13,0,0,0-3.12,3.13v5.25a3.12,3.12,0,0,1-3.12,3.12h-1a3.12,3.12,0,0,1-3.12-3.12h0a3.13,3.13,0,0,0-3.12-3.13h-1a3.13,3.13,0,0,0-3.12,3.13v5.25a3.12,3.12,0,0,1-3.12,3.12h-1a3.12,3.12,0,0,1-3.12-3.12h0a3.13,3.13,0,0,0-3.12-3.13h-1a3.13,3.13,0,0,0-3.12,3.13v5.25a3.12,3.12,0,0,1-3.12,3.12h-1a3.12,3.12,0,0,1-3.12-3.12h0a3.13,3.13,0,0,0-3.12-3.13h-1a3.13,3.13,0,0,0-3.12,3.13v5.25a3.12,3.12,0,0,1-3.12,3.12h-1a3.12,3.12,0,0,1-3.12-3.12h0a3.13,3.13,0,0,0-3.12-3.13h-1a3.13,3.13,0,0,0-3.12,3.13v5.25a3.12,3.12,0,0,1-3.12,3.12h-1a3.12,3.12,0,0,1-3.12-3.12h0a3.13,3.13,0,0,0-3.12-3.13h-1a3.13,3.13,0,0,0-3.12,3.13v5.25a3.12,3.12,0,0,1-3.12,3.12h-1a3.12,3.12,0,0,1-3.12-3.12h0a3.13,3.13,0,0,0-3.12-3.13h-1a3.13,3.13,0,0,0-3.12,3.13v5.25a3.12,3.12,0,0,1-3.12,3.12h-1a3.12,3.12,0,0,1-3.12-3.12h0a3.13,3.13,0,0,0-3.12-3.13h-1a3.13,3.13,0,0,0-3.12,3.13v5.25a3.12,3.12,0,0,1-3.12,3.12h-1a3.12,3.12,0,0,1-3.12-3.12h0a3.13,3.13,0,0,0-3.12-3.13h-1a3.13,3.13,0,0,0-3.12,3.13v5.25a3.12,3.12,0,0,1-3.12,3.12h-1a3.12,3.12,0,0,1-3.12-3.12h0a3.13,3.13,0,0,0-3.12-3.13h-1a3.13,3.13,0,0,0-3.12,3.13v5.25a3.12,3.12,0,0,1-3.12,3.12h-1a3.12,3.12,0,0,1-3.12-3.12h0a3.13,3.13,0,0,0-3.12-3.13h-1a3.13,3.13,0,0,0-3.12,3.13v5.25a3.12,3.12,0,0,1-3.12,3.12h-1a3.12,3.12,0,0,1-3.12-3.12h0a3.13,3.13,0,0,0-3.12-3.13h-1a3.13,3.13,0,0,0-3.12,3.13v5.25a3.12,3.12,0,0,1-3.12,3.12h-1a3.12,3.12,0,0,1-3.12-3.12h0a3.13,3.13,0,0,0-3.12-3.13h-1a3.13,3.13,0,0,0-3.12,3.13v190h377v-314a4.13,4.13,0,0,0-4.12-4.13h0A3.12,3.12,0,0,1,1509.75,19.42Z"/><path id="_路徑_4" data-name="&lt;路徑&gt;" class="cls-3" d="M1462.5,219.5v-9.25a5.25,5.25,0,0,0-5.25-5.25h0a5.25,5.25,0,0,0-5.25,5.25v6a5.25,5.25,0,0,1-5.25,5.25h0a5.25,5.25,0,0,1-5.25-5.25V207a5.25,5.25,0,0,0-5.25-5.25h0A5.25,5.25,0,0,0,1431,207v6a5.25,5.25,0,0,1-5.25,5.25h0a5.25,5.25,0,0,1-5.25-5.25v-9.25a5.25,5.25,0,0,0-5.25-5.25h0a5.25,5.25,0,0,0-5.25,5.25v6a5.25,5.25,0,0,1-5.25,5.25h0a5.25,5.25,0,0,1-5.25-5.25V200.5a5.25,5.25,0,0,0-5.25-5.25h0a5.25,5.25,0,0,0-5.25,5.25v6a5.25,5.25,0,0,1-5.25,5.25h0a5.25,5.25,0,0,1-5.25-5.25v-9.25a5.25,5.25,0,0,0-5.25-5.25h0a5.25,5.25,0,0,0-5.25,5.25v6a5.25,5.25,0,0,1-5.25,5.25h0a5.25,5.25,0,0,1-5.25-5.25V194a5.25,5.25,0,0,0-5.25-5.25h0A5.25,5.25,0,0,0,1347,194v6a5.25,5.25,0,0,1-5.25,5.25h0a5.25,5.25,0,0,1-5.25-5.25v-9.25a5.25,5.25,0,0,0-5.25-5.25h0a5.25,5.25,0,0,0-5.25,5.25v6a5.25,5.25,0,0,1-5.25,5.25h0a5.25,5.25,0,0,1-5.25-5.25V187.5a5.25,5.25,0,0,0-5.25-5.25h0a5.25,5.25,0,0,0-5.25,5.25v6a5.25,5.25,0,0,1-5.25,5.25h0a5.25,5.25,0,0,1-5.25-5.25v-9.25a5.25,5.25,0,0,0-5.25-5.25h0a5.25,5.25,0,0,0-5.25,5.25v6a5.25,5.25,0,0,1-5.25,5.25h0a5.25,5.25,0,0,1-5.25-5.25V181a5.25,5.25,0,0,0-5.25-5.25h0A5.25,5.25,0,0,0,1263,181v6a5.25,5.25,0,0,1-5.25,5.25h0a5.25,5.25,0,0,1-5.25-5.25v-9.25a5.25,5.25,0,0,0-5.25-5.25h0a5.25,5.25,0,0,0-5.25,5.25v6a5.25,5.25,0,0,1-5.25,5.25h0a5.25,5.25,0,0,1-5.25-5.25V174.5a5.25,5.25,0,0,0-5.25-5.25h0a5.25,5.25,0,0,0-5.25,5.25v6a5.25,5.25,0,0,1-5.25,5.25h0a5.25,5.25,0,0,1-5.25-5.25v-9.25a5.25,5.25,0,0,0-5.25-5.25h0a5.25,5.25,0,0,0-5.25,5.25v6a5.25,5.25,0,0,1-5.25,5.25h0a5.25,5.25,0,0,1-5.25-5.25V168a5.25,5.25,0,0,0-5.25-5.25h0A5.25,5.25,0,0,0,1179,168v6a5.25,5.25,0,0,1-5.25,5.25h0a5.25,5.25,0,0,1-5.25-5.25v-9.25a5.25,5.25,0,0,0-5.25-5.25h0a5.25,5.25,0,0,0-5.25,5.25v6a5.25,5.25,0,0,1-5.25,5.25h0a5.25,5.25,0,0,1-5.25-5.25V161.5a5.25,5.25,0,0,0-5.25-5.25h0a5.25,5.25,0,0,0-5.25,5.25v6a5.25,5.25,0,0,1-5.25,5.25h0a5.25,5.25,0,0,1-5.25-5.25v-9.25a5.25,5.25,0,0,0-5.25-5.25h0a5.25,5.25,0,0,0-5.25,5.25v6a5.25,5.25,0,0,1-5.25,5.25h0a5.25,5.25,0,0,1-5.25-5.25V155a5.25,5.25,0,0,0-5.25-5.25h0A5.25,5.25,0,0,0,1095,155v6a5.25,5.25,0,0,1-5.25,5.25h0a5.25,5.25,0,0,1-5.25-5.25v-9.25a5.25,5.25,0,0,0-5.25-5.25h0a5.25,5.25,0,0,0-5.25,5.25V440.5h399V230a5.25,5.25,0,0,0-5.25-5.25h0A5.25,5.25,0,0,1,1462.5,219.5Z"/><path id="_路徑_5" data-name="&lt;路徑&gt;" class="cls-4" d="M1568.5,189.25v17a6.75,6.75,0,0,1-6.75,6.75h0a6.75,6.75,0,0,1-6.75-6.75v-6a6.75,6.75,0,0,0-6.75-6.75h0a6.75,6.75,0,0,0-6.75,6.75v17a6.75,6.75,0,0,1-6.75,6.75h0a6.75,6.75,0,0,1-6.75-6.75v-6a6.75,6.75,0,0,0-6.75-6.75h0a6.75,6.75,0,0,0-6.75,6.75v17a6.75,6.75,0,0,1-6.75,6.75h0a6.75,6.75,0,0,1-6.75-6.75v-6a6.75,6.75,0,0,0-6.75-6.75h0a6.75,6.75,0,0,0-6.75,6.75v17a6.75,6.75,0,0,1-6.75,6.75h0a6.75,6.75,0,0,1-6.75-6.75v-6a6.75,6.75,0,0,0-6.75-6.75h0a6.75,6.75,0,0,0-6.75,6.75v17a6.75,6.75,0,0,1-6.75,6.75h0a6.75,6.75,0,0,1-6.75-6.75v-6a6.75,6.75,0,0,0-6.75-6.75h0a6.75,6.75,0,0,0-6.75,6.75v17a6.75,6.75,0,0,1-6.75,6.75h0a6.75,6.75,0,0,1-6.75-6.75v-6a6.75,6.75,0,0,0-6.75-6.75h0a6.75,6.75,0,0,0-6.75,6.75v17a6.75,6.75,0,0,1-6.75,6.75h0a6.75,6.75,0,0,1-6.75-6.75v-6a6.75,6.75,0,0,0-6.75-6.75h0a6.75,6.75,0,0,0-6.75,6.75v17a6.75,6.75,0,0,1-6.75,6.75h0a6.75,6.75,0,0,1-6.75-6.75v-6a6.75,6.75,0,0,0-6.75-6.75h0a6.75,6.75,0,0,0-6.75,6.75v17a6.75,6.75,0,0,1-6.75,6.75h0a6.75,6.75,0,0,1-6.75-6.75v-6a6.75,6.75,0,0,0-6.75-6.75h0a6.75,6.75,0,0,0-6.75,6.75v17a6.75,6.75,0,0,1-6.75,6.75h0a6.75,6.75,0,0,1-6.75-6.75v-6a6.75,6.75,0,0,0-6.75-6.75h0a6.75,6.75,0,0,0-6.75,6.75v17a6.75,6.75,0,0,1-6.75,6.75h0a6.75,6.75,0,0,1-6.75-6.75v-6a6.75,6.75,0,0,0-6.75-6.75h0a6.75,6.75,0,0,0-6.75,6.75v17a6.75,6.75,0,0,1-6.75,6.75h0a6.75,6.75,0,0,1-6.75-6.75v-6a6.75,6.75,0,0,0-6.75-6.75h0a6.75,6.75,0,0,0-6.75,6.75v17a6.75,6.75,0,0,1-6.75,6.75h0a6.75,6.75,0,0,1-6.75-6.75v-6a6.75,6.75,0,0,0-6.75-6.75h0a6.75,6.75,0,0,0-6.75,6.75v17a6.75,6.75,0,0,1-6.75,6.75h0a6.75,6.75,0,0,1-6.75-6.75v-6a6.75,6.75,0,0,0-6.75-6.75h0a6.75,6.75,0,0,0-6.75,6.75v17a6.75,6.75,0,0,1-6.75,6.75h0a6.75,6.75,0,0,1-6.75-6.75v-6a6.75,6.75,0,0,0-6.75-6.75h0a6.75,6.75,0,0,0-6.75,6.75v17a6.75,6.75,0,0,1-6.75,6.75h0a6.75,6.75,0,0,1-6.75-6.75v-6a6.75,6.75,0,0,0-6.75-6.75h0a6.75,6.75,0,0,0-6.75,6.75v17a6.75,6.75,0,0,1-6.75,6.75h0a6.75,6.75,0,0,1-6.75-6.75v-6a6.75,6.75,0,0,0-6.75-6.75h0a6.75,6.75,0,0,0-6.75,6.75v17a6.75,6.75,0,0,1-6.75,6.75h0a6.75,6.75,0,0,1-6.75-6.75v-6a6.75,6.75,0,0,0-6.75-6.75h0a6.75,6.75,0,0,0-6.75,6.75v17a6.75,6.75,0,0,1-6.75,6.75h0a6.75,6.75,0,0,1-6.75-6.75v-6a6.75,6.75,0,0,0-6.75-6.75h0a6.75,6.75,0,0,0-6.75,6.75v17a6.75,6.75,0,0,1-6.75,6.75h0a6.75,6.75,0,0,1-6.75-6.75v-6a6.75,6.75,0,0,0-6.75-6.75h0a6.75,6.75,0,0,0-6.75,6.75v17a6.75,6.75,0,0,1-6.75,6.75h0a6.75,6.75,0,0,0-6.75,6.75V624.5h567V189.25a6.75,6.75,0,0,0-6.75-6.75h0A6.75,6.75,0,0,0,1568.5,189.25Z"/><path id="_路徑_6" data-name="&lt;路徑&gt;" class="cls-3" d="M1733.32,571.73h0a8.26,8.26,0,0,1-8.26,8.26h-.39a8.26,8.26,0,0,1-8.27-8.26h0a8.26,8.26,0,0,0-8.26-8.27h-.39a8.27,8.27,0,0,0-8.27,8.27h0a8.26,8.26,0,0,1-8.26,8.26h-.39a8.26,8.26,0,0,1-8.26-8.26h0a8.27,8.27,0,0,0-8.27-8.27h-.39a8.26,8.26,0,0,0-8.26,8.27h0a8.26,8.26,0,0,1-8.27,8.26H1657a8.26,8.26,0,0,1-8.27-8.26h0a8.26,8.26,0,0,0-8.26-8.27h-.39a8.27,8.27,0,0,0-8.27,8.27h0a8.26,8.26,0,0,1-8.26,8.26h-.39a8.26,8.26,0,0,1-8.27-8.26h0a8.26,8.26,0,0,0-8.26-8.27h-.39a8.26,8.26,0,0,0-8.26,8.27h0a8.26,8.26,0,0,1-8.27,8.26h-.39a8.26,8.26,0,0,1-8.26-8.26h0a8.27,8.27,0,0,0-8.27-8.27h-.39a8.26,8.26,0,0,0-8.26,8.27h0a8.26,8.26,0,0,1-8.27,8.26h-.38a8.26,8.26,0,0,1-8.27-8.26h0a8.26,8.26,0,0,0-8.26-8.27h-.39a8.27,8.27,0,0,0-8.27,8.27v4A8.26,8.26,0,0,1,1522,584h-.39a8.26,8.26,0,0,1-8.27-8.26v-4a8.26,8.26,0,0,0-8.26-8.27h-.39a8.26,8.26,0,0,0-8.26,8.27v3a8.26,8.26,0,0,1-8.27,8.26h-.39a8.26,8.26,0,0,1-8.26-8.26v-6a8.27,8.27,0,0,0-8.27-8.27h-.39a8.26,8.26,0,0,0-8.26,8.27v4a8.26,8.26,0,0,1-8.27,8.26H1454a8.26,8.26,0,0,1-8.27-8.26v-5a8.26,8.26,0,0,0-8.26-8.27h-.39a8.27,8.27,0,0,0-8.27,8.27v4a8.26,8.26,0,0,1-8.26,8.26h-.39a8.26,8.26,0,0,1-8.27-8.26v-8a8.26,8.26,0,0,0-8.26-8.27h-.39a8.26,8.26,0,0,0-8.26,8.27v1a8.26,8.26,0,0,1-8.27,8.26h-.39a8.26,8.26,0,0,1-8.26-8.26v-5a8.27,8.27,0,0,0-8.27-8.27h-.39a8.26,8.26,0,0,0-8.26,8.27v.87a8.27,8.27,0,0,1-8.27,8.27h-.38a8.27,8.27,0,0,1-8.27-8.27v-5a8.26,8.26,0,0,0-8.26-8.26h-.39a8.26,8.26,0,0,0-8.27,8.26v.74a8.26,8.26,0,0,1-8.26,8.27h-.39a8.26,8.26,0,0,1-8.26-8.27v-5.87a8.27,8.27,0,0,0-8.27-8.26h-.39a8.26,8.26,0,0,0-8.26,8.26v1.87a8.27,8.27,0,0,1-8.27,8.27h-.39a8.26,8.26,0,0,1-8.26-8.27V536.07a8.26,8.26,0,0,0-8.27-8.26h-.38a8.26,8.26,0,0,0-8.27,8.26v4.87a8.26,8.26,0,0,1-8.26,8.27H1251a8.27,8.27,0,0,1-8.27-8.27V520.67a8.26,8.26,0,0,0-8.26-8.27H1234a8.27,8.27,0,0,0-8.27,8.27v11.87a8.26,8.26,0,0,1-8.26,8.27h-.39a8.26,8.26,0,0,1-8.26-8.27V507.6a8.26,8.26,0,0,0-8.27-8.26h-.39a8.26,8.26,0,0,0-8.26,8.26v10.54a8.26,8.26,0,0,1-8.27,8.26h-.39a8.26,8.26,0,0,1-8.26-8.26V491.82a8.26,8.26,0,0,0-8.27-8.26h-.38a8.26,8.26,0,0,0-8.27,8.26v15.94a8.26,8.26,0,0,1-8.26,8.26h-.39a8.26,8.26,0,0,1-8.27-8.26V479a8.26,8.26,0,0,0-8.26-8.26h-.39a8.26,8.26,0,0,0-8.27,8.26v16.4a8.26,8.26,0,0,1-8.26,8.26h-.39a8.26,8.26,0,0,1-8.26-8.26V470.14a8.27,8.27,0,0,0-8.27-8.27h-.39a8.26,8.26,0,0,0-8.26,8.27V484a8.26,8.26,0,0,1-8.27,8.26h-.39a8.26,8.26,0,0,1-8.26-8.26V465.29a8.26,8.26,0,0,0-8.27-8.26h-.38a8.26,8.26,0,0,0-8.27,8.26v2.33a8.26,8.26,0,0,1-8.26,8.26h-.39a8.26,8.26,0,0,1-8.27-8.26V452.45a8.26,8.26,0,0,0-8.26-8.26H1031a8.27,8.27,0,0,0-8.27,8.26v3.79a8.26,8.26,0,0,1-8.26,8.26h-.39a8.26,8.26,0,0,1-8.26-8.26V435.61a8.27,8.27,0,0,0-8.27-8.27h-.39a8.26,8.26,0,0,0-8.26,8.27v6.25a8.26,8.26,0,0,1-8.27,8.26h-.39a8.26,8.26,0,0,1-8.26-8.26v-18.1a8.26,8.26,0,0,0-8.26-8.26h-.39a8.26,8.26,0,0,0-8.27,8.26V654a12.44,12.44,0,0,0,12.43,12.43h782.73V571.73a8.27,8.27,0,0,0-8.27-8.27h-.38A8.27,8.27,0,0,0,1733.32,571.73Z"/></g></svg>