<svg xmlns="http://www.w3.org/2000/svg" viewBox="0 0 261.63 718.14"><defs><style>.cls-1{fill:#39bbcc;}.cls-2{fill:#968756;}.cls-3{fill:#eb6860;}.cls-4{fill:#14a5b8;}.cls-5{fill:#d4e4e6;}</style></defs><title>video_tree_left</title><g id="bg1"><ellipse id="_路徑_" data-name="&lt;路徑&gt;" class="cls-1" cx="168.65" cy="418.53" rx="92.98" ry="93.92"/><path id="_路徑_2" data-name="&lt;路徑&gt;" class="cls-2" d="M55.86,723.13C44.48,720,35.57,712.27,37.34,705.74,52.1,634,59.5,563.81,94.3,499.92q6.61-13.91,14.46-27.49a359.05,359.05,0,0,1,37.41-52.83c2.29-3.42,13.3-4.82,22.48-2.1,8.84,2.61,13.78,7.8,11.9,13.72a70.18,70.18,0,0,1-8.13,19.92c-5.29,8.38-9.52,16.88-14.59,25.31s-10,16.9-14.7,25.42C117.6,551.67,92.41,601,90.5,658.22c-.47,20.13-5,38.59-9.45,57.77C79.36,723.28,68,726.48,55.86,723.13Z"/><circle id="_路徑_3" data-name="&lt;路徑&gt;" class="cls-3" cx="33.67" cy="507.33" r="10.67"/><circle id="_路徑_4" data-name="&lt;路徑&gt;" class="cls-3" cx="61.33" cy="526.33" r="8.33"/><circle id="_路徑_5" data-name="&lt;路徑&gt;" class="cls-3" cx="33.67" cy="542.67" r="10.67"/><g id="_群組_" data-name="&lt;群組&gt;"><path id="_路徑_6" data-name="&lt;路徑&gt;" class="cls-1" d="M108,26A132.08,132.08,0,0,0,0,82.16V237.84A132.08,132.08,0,0,0,108,294c73.27,0,132.66-60,132.66-134S181.26,26,108,26Z"/></g><g id="_群組_2" data-name="&lt;群組&gt;"><path id="_路徑_7" data-name="&lt;路徑&gt;" class="cls-2" d="M115,192.17C108.37,189.7,96,194,93,200a904,904,0,0,0-48.42,92.94q-10.63,23.58-20,47.48C15.48,361.65,7.36,383.09,0,404.71v153c15.67-77.58,45.39-149.77,75.45-222.61q9.64-22.15,19.85-44.15C102.08,276.27,108,261.63,115,247a195.71,195.71,0,0,0,12-34C130,203,123.5,195.33,115,192.17Z"/></g></g><g id="圖層_45" data-name="圖層 45"><path class="cls-4" d="M0,574.6s11.88-22.77,21-16.9,6,16.9,6,16.9,1.65,2.69-13.23,34c0,0-10,23.44,0,36.36,0,0,5.6,10,13.75-3.3S38,623.27,38,623.27s8.16-15.6,17.07-20.6,16.6-3,20.54,0,5.67,10.48,2.59,20.6-5.94,18.1-8.94,25.33-14.41,34.75-16.63,40.71S45.1,710.21,43,718.14H0Z"/><path class="cls-5" d="M44.21,718.14s43.12-109.26,71.33-114.7c0,0,15.85-2.4,11.07,19.83,0,0-3.25,10-5,14.17s-7.87,18-8,23.31-.59,8.53,3.82,12.2,9.21-.69,10.05-1.52a95.79,95.79,0,0,0,8.26-10.68c3.41-5.09,8.94-12.48,8.94-12.48s7.06-11.14,17.18-5.71c0,0,8.13,2,4.16,18.19s-4.6,21.08,1.09,21.75c0,0,3.7,2.67,13.15-9,0,0,8.44-10,15.87-6.06s6.27,8.5,6.31,12.95a31.07,31.07,0,0,1-2.19,8c-2,5.35-3.17,14.75,2.23,14.34s9-4.48,11.64-2.65,2.68,5.44-1.44,18Z"/></g></svg>