<svg xmlns="http://www.w3.org/2000/svg" viewBox="0 0 440 233.33"><defs><style>.cls-1{fill:#ffe7e6;}</style></defs><title>cloud1</title><g id="cloud1"><path id="_路徑_" data-name="&lt;路徑&gt;" class="cls-1" d="M440,146.33h0A22.33,22.33,0,0,0,417.67,124H306a5.33,5.33,0,0,1-5.33-5.33h0a5.33,5.33,0,0,1,5.33-5.34h1.33a18,18,0,0,0,18-18h0a18,18,0,0,0-18-18H254A5.32,5.32,0,0,1,248.67,72V64.67A5.33,5.33,0,0,1,254,59.33h0A19.32,19.32,0,0,0,273.33,40V24.67A24.66,24.66,0,0,0,248.67,0H131.33a22.66,22.66,0,0,0-22.66,22.67V42A17.33,17.33,0,0,0,126,59.33h0a5.33,5.33,0,0,1,5.33,5.34V72A5.32,5.32,0,0,1,126,77.33H36a36,36,0,0,0-36,36H0a36,36,0,0,0,36,36h90a5.33,5.33,0,0,1,5.33,5.34v20.66a5.33,5.33,0,0,1-5.33,5.34h-8.67A26.33,26.33,0,0,0,91,207h0a26.33,26.33,0,0,0,26.33,26.33H347.17A19.83,19.83,0,0,0,367,213.5h0a19.83,19.83,0,0,0-19.83-19.83h0a10.5,10.5,0,0,1-10.5-10.5v-2a12.49,12.49,0,0,1,12.5-12.5h68.5A22.34,22.34,0,0,0,440,146.33Z"/></g></svg>