<svg xmlns="http://www.w3.org/2000/svg" viewBox="0 0 144.75 75.25"><defs><style>.cls-1{fill:#ffe7e6;}</style></defs><title>cloud3</title><g id="cloud1"><path id="_路徑_" data-name="&lt;路徑&gt;" class="cls-1" d="M144.75,32.75h0A16.75,16.75,0,0,0,128,16h-.25a2.25,2.25,0,0,1-2.25-2.25h0A13.76,13.76,0,0,0,111.75,0H49A10.5,10.5,0,0,0,38.5,10.5h0a9.76,9.76,0,0,1-9.75,9.75H14.62A14.63,14.63,0,0,0,0,34.87H0A14.63,14.63,0,0,0,14.62,49.5H23.5a2.25,2.25,0,0,1,2.25,2.25v1A2.25,2.25,0,0,1,23.5,55h0a2.25,2.25,0,0,0-2.25,2.25h0a18,18,0,0,0,18,18h68.63A10.12,10.12,0,0,0,118,65.13h0A10.12,10.12,0,0,0,107.88,55H105.5a2.25,2.25,0,0,1-2.25-2.25v-1a2.25,2.25,0,0,1,2.25-2.25H128A16.75,16.75,0,0,0,144.75,32.75Z"/></g></svg>