<svg xmlns="http://www.w3.org/2000/svg" viewBox="0 0 267.42 147.5"><defs><style>.cls-1{fill:#ffe7e6;}</style></defs><title>cloud2</title><g id="cloud1"><path id="_路徑_" data-name="&lt;路徑&gt;" class="cls-1" d="M267.42,68.94h0A15.94,15.94,0,0,0,251.48,53H209.37A6.37,6.37,0,0,1,203,46.63h0a23.47,23.47,0,0,0-23.48-23.47H122.37A6.38,6.38,0,0,1,116,16.77h0A16.77,16.77,0,0,0,99.23,0h-58A12.24,12.24,0,0,0,29,12.25v4.5A12.24,12.24,0,0,0,41.25,29h0A12.24,12.24,0,0,1,53.5,41.25v3.37A22.63,22.63,0,0,1,30.88,67.25H12.5A12.5,12.5,0,0,0,0,79.75H0a12.5,12.5,0,0,0,12.5,12.5H58.63A6.37,6.37,0,0,1,65,98.62h0A6.37,6.37,0,0,1,58.63,105h0A16.62,16.62,0,0,0,42,121.62v9.26A16.62,16.62,0,0,0,58.62,147.5H198.38a17.13,17.13,0,0,0,17.12-17.12v-8.26A17.13,17.13,0,0,0,198.38,105h0A6.37,6.37,0,0,1,192,98.63V91.25a6.38,6.38,0,0,1,6.37-6.38h53.11A15.94,15.94,0,0,0,267.42,68.94Z"/></g></svg>