<svg xmlns="http://www.w3.org/2000/svg" viewBox="0 0 224.22 91.58"><defs><style>.cls-1{fill:#ffe7e6;}</style></defs><title>cloud4</title><g id="work2"><path id="_路徑_" data-name="&lt;路徑&gt;" class="cls-1" d="M114.4,42.36h0a5.75,5.75,0,0,1,5.75-5.75h30.73a18.3,18.3,0,0,0,18.31-18.3h0A18.31,18.31,0,0,0,150.88,0H53a12,12,0,0,0-12,12h0a12,12,0,0,1-12,12.05H17.16A17.16,17.16,0,0,0,0,41.25H0A17.16,17.16,0,0,0,17.16,58.41H46.33A16.59,16.59,0,0,1,62.92,75h0A16.58,16.58,0,0,0,79.5,91.58h123a21.74,21.74,0,0,0,21.74-21.73h0a21.74,21.74,0,0,0-21.74-21.74H120.15A5.74,5.74,0,0,1,114.4,42.36Z"/></g></svg>