<svg xmlns="http://www.w3.org/2000/svg" viewBox="0 0 371.92 43.67"><defs><style>.cls-1{fill:none;stroke:#1a7291;stroke-linecap:round;stroke-linejoin:round;stroke-width:4px;}.cls-2{fill:#1a7291;}</style></defs><title>dark_blue_logo</title><g id="harvest"><g id="_群組_" data-name="&lt;群組&gt;"><line id="_路徑_" data-name="&lt;路徑&gt;" class="cls-1" x1="1.88" y1="2.04" x2="1.88" y2="41.8"/><line id="_路徑_2" data-name="&lt;路徑&gt;" class="cls-1" x1="30.22" y1="2.04" x2="30.22" y2="41.8"/><line id="_路徑_3" data-name="&lt;路徑&gt;" class="cls-1" x1="115.12" y1="41.8" x2="115.12" y2="2.04"/><polyline id="_路徑_4" data-name="&lt;路徑&gt;" class="cls-1" points="256.66 2.04 228.4 2.04 228.4 41.8 256.66 41.8"/><polyline id="_路徑_5" data-name="&lt;路徑&gt;" class="cls-1" points="58.44 41.8 72.67 2.04 86.89 41.8"/><polyline id="_路徑_6" data-name="&lt;路徑&gt;" class="cls-1" points="200.35 2.04 186.13 41.8 171.9 2.04"/><path id="_矩形_" data-name="&lt;矩形&gt;" class="cls-1" d="M115.12,2h18.4A9.94,9.94,0,0,1,143.45,12v0a9.94,9.94,0,0,1-9.94,9.94h-18.4a0,0,0,0,1,0,0V2a0,0,0,0,1,0,0Z"/><line id="_路徑_7" data-name="&lt;路徑&gt;" class="cls-1" x1="143.43" y1="41.8" x2="132.02" y2="22.45"/><path id="_路徑_8" data-name="&lt;路徑&gt;" class="cls-1" d="M313.33,12h0A9.94,9.94,0,0,0,303.39,2h-8.45A9.94,9.94,0,0,0,285,12h0a9.94,9.94,0,0,0,9.94,9.94h8.45a9.94,9.94,0,0,1,9.94,9.94h0a9.94,9.94,0,0,1-9.94,9.94h-8.45A9.94,9.94,0,0,1,285,31.86h0"/><g id="_群組_2" data-name="&lt;群組&gt;"><line id="_路徑_9" data-name="&lt;路徑&gt;" class="cls-1" x1="369.97" y1="2.04" x2="341.71" y2="2.04"/><line id="_路徑_10" data-name="&lt;路徑&gt;" class="cls-1" x1="355.84" y1="41.8" x2="355.84" y2="2.04"/></g><path id="_矩形_2" data-name="&lt;矩形&gt;" class="cls-2" d="M69.44,22.45h.1a8.62,8.62,0,0,1,8.62,8.62v.1a0,0,0,0,1,0,0h-.1a8.62,8.62,0,0,1-8.62-8.62v-.1a0,0,0,0,1,0,0Z"/><path id="_矩形_3" data-name="&lt;矩形&gt;" class="cls-2" d="M11.1,16.46h.6a9.74,9.74,0,0,1,9.74,9.74v.6a0,0,0,0,1,0,0h-.6a9.74,9.74,0,0,1-9.74-9.74v-.6A0,0,0,0,1,11.1,16.46Z"/><path id="_矩形_4" data-name="&lt;矩形&gt;" class="cls-2" d="M238.91,16.46h.6a9.74,9.74,0,0,1,9.74,9.74v.6a0,0,0,0,1,0,0h-.6a9.74,9.74,0,0,1-9.74-9.74v-.6A0,0,0,0,1,238.91,16.46Z"/></g></g></svg>