<svg xmlns="http://www.w3.org/2000/svg" viewBox="0 0 319.5 492"><defs><style>.cls-1{fill:#ffabb7;}.cls-1,.cls-2{stroke:#fff;}.cls-1,.cls-2,.cls-3{stroke-miterlimit:10;stroke-width:4px;}.cls-2{fill:#fff;}.cls-3{fill:none;stroke:#ffabb7;}</style></defs><title>flyman</title><g id="people"><path id="_路徑_" data-name="&lt;路徑&gt;" class="cls-1" d="M58.39,349.5s-13,54.67-20.34,58S-3.84,437.17,3.77,454.83s17.28,39.34,40.62,34,21-28.33,30.66-30.33,8,10.67,18.67,9.33,16.33-8,9.33-28.33,10.34-61.67,10.34-61.67Z"/><path id="_路徑_2" data-name="&lt;路徑&gt;" class="cls-1" d="M224.72,196.7s21-81.2,51-77.2,45,20,40.5,30.5-59,99.8-66.5,117.65Z"/><path id="_路徑_3" data-name="&lt;路徑&gt;" class="cls-1" d="M60.22,186s12.5-30.41,11-39.2-44.5-44.3-24.5-72.3,54-49.5,78.5-17.5,33,56.52,33,56.52-4.5-115,46-110.52,61.41,25,56.21,56S231.22,170.5,237.22,204Z"/><circle id="_路徑_4" data-name="&lt;路徑&gt;" class="cls-1" cx="139.57" cy="267.65" r="120.85"/><path id="_路徑_5" data-name="&lt;路徑&gt;" class="cls-2" d="M141.22,285.72s-49.24-12-67.24,8-18.76,80,33.62,80,25.38-13,71.38-19,63-21,61-47-24.83-50-49.42-44S159.18,288.61,141.22,285.72Z"/><path id="_路徑_6" data-name="&lt;路徑&gt;" class="cls-3" d="M80.28,343.63s98.84-39.58,128.32-32.07l5.48-18.69,8.66,10.76"/></g></svg>