<svg xmlns="http://www.w3.org/2000/svg" viewBox="0 0 374.33 217.04"><defs><style>.cls-1{fill:#6ed8e6;}.cls-2{fill:none;stroke:#6ed8e6;stroke-width:4px;}.cls-2,.cls-7{stroke-linecap:round;stroke-linejoin:round;}.cls-3{fill:#ffd557;}.cls-4{fill:#eb6860;}.cls-5,.cls-7{fill:#ffabb7;}.cls-6{fill:#fff;}.cls-7{stroke:#fff;}.cls-8{fill:#b28247;}.cls-9{fill:#114b5f;}.cls-10{fill:#c7423a;}</style></defs><title>footer_icon</title><g id="harvest"><circle id="_路徑_" data-name="&lt;路徑&gt;" class="cls-1" cx="187.33" cy="63.06" r="63.06"/><g id="_群組_" data-name="&lt;群組&gt;"><line id="_路徑_2" data-name="&lt;路徑&gt;" class="cls-2" x1="3.29" y1="172.49" x2="3.29" y2="212.25"/><line id="_路徑_3" data-name="&lt;路徑&gt;" class="cls-2" x1="31.63" y1="172.49" x2="31.63" y2="212.25"/><line id="_路徑_4" data-name="&lt;路徑&gt;" class="cls-2" x1="116.52" y1="212.25" x2="116.52" y2="172.49"/><polyline id="_路徑_5" data-name="&lt;路徑&gt;" class="cls-2" points="258.07 172.49 229.8 172.49 229.8 212.25 258.07 212.25"/><polyline id="_路徑_6" data-name="&lt;路徑&gt;" class="cls-2" points="59.85 212.25 74.08 172.49 88.3 212.25"/><polyline id="_路徑_7" data-name="&lt;路徑&gt;" class="cls-2" points="201.76 172.49 187.53 212.25 173.31 172.49"/><path id="_矩形_" data-name="&lt;矩形&gt;" class="cls-2" d="M116.52,172.49h18.4a9.94,9.94,0,0,1,9.94,9.94v0a9.94,9.94,0,0,1-9.94,9.94h-18.4a0,0,0,0,1,0,0V172.49a0,0,0,0,1,0,0Z"/><line id="_路徑_8" data-name="&lt;路徑&gt;" class="cls-2" x1="144.83" y1="212.25" x2="133.43" y2="192.9"/><path id="_路徑_9" data-name="&lt;路徑&gt;" class="cls-2" d="M314.74,182.43h0a9.94,9.94,0,0,0-9.94-9.94h-8.46a9.94,9.94,0,0,0-9.94,9.94h0a9.94,9.94,0,0,0,9.94,9.94h8.46a9.94,9.94,0,0,1,9.94,9.94h0a9.94,9.94,0,0,1-9.94,9.94h-8.46a9.94,9.94,0,0,1-9.94-9.94h0"/><g id="_群組_2" data-name="&lt;群組&gt;"><line id="_路徑_10" data-name="&lt;路徑&gt;" class="cls-2" x1="371.38" y1="172.49" x2="343.11" y2="172.49"/><line id="_路徑_11" data-name="&lt;路徑&gt;" class="cls-2" x1="357.24" y1="212.25" x2="357.24" y2="172.49"/></g><path id="_矩形_2" data-name="&lt;矩形&gt;" class="cls-1" d="M70.85,192.9h.1a8.62,8.62,0,0,1,8.62,8.62v.1a0,0,0,0,1,0,0h-.1A8.62,8.62,0,0,1,70.85,193v-.1A0,0,0,0,1,70.85,192.9Z"/><path id="_矩形_3" data-name="&lt;矩形&gt;" class="cls-1" d="M12.51,186.91h.6a9.74,9.74,0,0,1,9.74,9.74v.6a0,0,0,0,1,0,0h-.6a9.74,9.74,0,0,1-9.74-9.74v-.6A0,0,0,0,1,12.51,186.91Z"/><path id="_矩形_4" data-name="&lt;矩形&gt;" class="cls-1" d="M240.32,186.91h.6a9.74,9.74,0,0,1,9.74,9.74v.6a0,0,0,0,1,0,0h-.6a9.74,9.74,0,0,1-9.74-9.74v-.6A0,0,0,0,1,240.32,186.91Z"/></g><g id="_群組_3" data-name="&lt;群組&gt;"><g id="_群組_4" data-name="&lt;群組&gt;"><circle id="_路徑_12" data-name="&lt;路徑&gt;" class="cls-3" cx="164.66" cy="70.98" r="20.73"/><g id="_群組_5" data-name="&lt;群組&gt;"><path id="_路徑_13" data-name="&lt;路徑&gt;" class="cls-4" d="M172.87,64.11a8.23,8.23,0,0,0,7.95-6.1,20.68,20.68,0,0,0-14-7.64,8.21,8.21,0,0,0,6.07,13.74Z"/></g><circle id="_路徑_14" data-name="&lt;路徑&gt;" class="cls-4" cx="168.77" cy="73.7" r="4.11"/><circle id="_路徑_15" data-name="&lt;路徑&gt;" class="cls-4" cx="151.79" cy="66.48" r="2.37"/><g id="_群組_6" data-name="&lt;群組&gt;"><path id="_路徑_16" data-name="&lt;路徑&gt;" class="cls-4" d="M157.33,82.23A7.91,7.91,0,0,0,144.54,76a20.8,20.8,0,0,0,9.39,12.71A7.9,7.9,0,0,0,157.33,82.23Z"/></g><g id="_群組_7" data-name="&lt;群組&gt;"><path id="_路徑_17" data-name="&lt;路徑&gt;" class="cls-4" d="M175.12,85.36a6.35,6.35,0,0,0-6.34,5.94,20.74,20.74,0,0,0,9.77-4.93A6.3,6.3,0,0,0,175.12,85.36Z"/></g><circle id="_路徑_18" data-name="&lt;路徑&gt;" class="cls-4" cx="180.66" cy="72.34" r="1.36"/></g><g id="_群組_8" data-name="&lt;群組&gt;"><g id="_群組_9" data-name="&lt;群組&gt;"><path class="cls-5" d="M212.07,92.63a5.82,5.82,0,0,1-1.24-.14l-19.77-4.64a5,5,0,0,1-3.19-2.28,4.45,4.45,0,0,1-.47-3.45,5,5,0,0,1,4.9-3.54,5.82,5.82,0,0,1,1.24.14l19.77,4.64a5,5,0,0,1,3.19,2.28,4.45,4.45,0,0,1,.47,3.45A5,5,0,0,1,212.07,92.63Z"/><path class="cls-6" d="M192.3,79.08a4.76,4.76,0,0,1,1.12.13l19.77,4.63a4.2,4.2,0,0,1,3.3,5.12,4.51,4.51,0,0,1-4.42,3.17A4.76,4.76,0,0,1,211,92l-19.77-4.63a4.2,4.2,0,0,1-3.3-5.12,4.52,4.52,0,0,1,4.42-3.17m0-1h0A5.5,5.5,0,0,0,186.92,82a4.91,4.91,0,0,0,.52,3.83A5.56,5.56,0,0,0,191,88.34L210.72,93a5.6,5.6,0,0,0,1.35.16,5.5,5.5,0,0,0,5.38-3.91,4.91,4.91,0,0,0-.52-3.83,5.56,5.56,0,0,0-3.51-2.52l-19.77-4.63a5.6,5.6,0,0,0-1.35-.16Z"/></g><g id="_矩形_5" data-name="&lt;矩形&gt;"><path class="cls-5" d="M194.08,71.48a4.3,4.3,0,0,1-2.59-7.74l15.3-11.54a4.3,4.3,0,0,1,6.85,4A4.24,4.24,0,0,1,212,59.07l-15.3,11.55A4.31,4.31,0,0,1,194.08,71.48Z"/><path class="cls-6" d="M209.38,51.84a3.8,3.8,0,0,1,2.29,6.84l-15.3,11.54a3.81,3.81,0,0,1-4.58-6.08l15.3-11.54a3.84,3.84,0,0,1,2.29-.76m0-1h0a4.78,4.78,0,0,0-2.89,1l-15.3,11.54a4.81,4.81,0,0,0-.95,6.73A4.81,4.81,0,0,0,197,71l15.3-11.54a4.8,4.8,0,0,0-2.89-8.63Z"/></g><g id="_群組_10" data-name="&lt;群組&gt;"><path class="cls-5" d="M208.52,97a5.15,5.15,0,0,1-1.94-.37l-17.42-6.75a4.78,4.78,0,0,1-3-3.35,9.07,9.07,0,0,1-5.37-7.65l-.46-8.22a8.64,8.64,0,0,1,2.27-6.3,10.14,10.14,0,0,1,7-3.25h.5c5.23,0,9.53,3.79,9.79,8.63l.46,8.21a8.59,8.59,0,0,1-1.61,5.47L210.47,88a4.88,4.88,0,0,1,2.79,2.68,4.42,4.42,0,0,1-.08,3.51A5.07,5.07,0,0,1,208.52,97Z"/><path class="cls-6" d="M190.15,61.63c4.92,0,9,3.56,9.29,8.16l.45,8.21A8.09,8.09,0,0,1,198,83.66l12.31,4.78A4.11,4.11,0,0,1,212.73,94a4.6,4.6,0,0,1-4.21,2.58,4.9,4.9,0,0,1-1.76-.33l-17.42-6.76a4.28,4.28,0,0,1-2.73-3.23,8.62,8.62,0,0,1-5.32-7.33l-.45-8.22c-.26-4.74,3.69-8.78,8.82-9h.49m0-1h-.53a10.68,10.68,0,0,0-7.38,3.41,9.19,9.19,0,0,0-2.4,6.67l.46,8.21a9.55,9.55,0,0,0,5.44,8A5.33,5.33,0,0,0,189,90.37l17.41,6.76a6,6,0,0,0,2.13.4,5.59,5.59,0,0,0,5.12-3.16,4.92,4.92,0,0,0,.08-3.91,5.37,5.37,0,0,0-3.07-2.95l-11.11-4.32A9,9,0,0,0,200.89,78l-.46-8.22c-.28-5.1-4.8-9.1-10.28-9.1Z"/></g><g id="_群組_11" data-name="&lt;群組&gt;"><path class="cls-5" d="M190.83,65a11.4,11.4,0,0,1-.57-22.78l.59,0A11.4,11.4,0,0,1,191.43,65Z"/><path class="cls-6" d="M190.85,42.74a10.9,10.9,0,0,1,.55,21.79h-.57a10.9,10.9,0,0,1-.54-21.78l.56,0m0-1-.61,0a11.9,11.9,0,0,0,.59,23.78h.62a11.9,11.9,0,0,0-.6-23.79Z"/></g><path id="_路徑_19" data-name="&lt;路徑&gt;" class="cls-7" d="M189.11,70.52l-2.82,17.34a4.56,4.56,0,0,1-5.23,3.77h0a4.56,4.56,0,0,1-3.77-5.23l3.05-18.72a4.55,4.55,0,0,1,5.23-3.76h0"/><path id="_路徑_20" data-name="&lt;路徑&gt;" class="cls-6" d="M185,64.3s2.2.52,2.72.6S186,63.67,186,63.67,184.92,63.84,185,64.3Z"/></g><g id="_群組_12" data-name="&lt;群組&gt;"><rect id="_矩形_6" data-name="&lt;矩形&gt;" class="cls-8" x="209.02" y="29.39" width="1.41" height="30.31" rx="0.71" ry="0.71" transform="translate(10.09 -33.65) rotate(9.4)"/><g id="_群組_13" data-name="&lt;群組&gt;"><g id="_群組_14" data-name="&lt;群組&gt;"><path id="_路徑_21" data-name="&lt;路徑&gt;" class="cls-9" d="M213.46,30.34l.12-.05Z"/><path id="_路徑_22" data-name="&lt;路徑&gt;" class="cls-9" d="M214.06,30.17h0Z"/><path id="_路徑_23" data-name="&lt;路徑&gt;" class="cls-9" d="M229.53,32.7l.09,0Z"/><path id="_路徑_24" data-name="&lt;路徑&gt;" class="cls-9" d="M214.24,30.17h0Z"/><path id="_路徑_25" data-name="&lt;路徑&gt;" class="cls-9" d="M213.9,30.19h0Z"/><path id="_路徑_26" data-name="&lt;路徑&gt;" class="cls-9" d="M213.74,30.23l.11,0Z"/><path id="_路徑_27" data-name="&lt;路徑&gt;" class="cls-9" d="M213.6,30.28l.11,0Z"/><path id="_路徑_28" data-name="&lt;路徑&gt;" class="cls-9" d="M228.85,44.78l-.07.09Z"/><path id="_路徑_29" data-name="&lt;路徑&gt;" class="cls-9" d="M230.16,33l.09.09Z"/><path id="_路徑_30" data-name="&lt;路徑&gt;" class="cls-9" d="M230,32.93l.1.08Z"/><path id="_路徑_31" data-name="&lt;路徑&gt;" class="cls-9" d="M229.79,32.79l.12.06Z"/><path id="_路徑_32" data-name="&lt;路徑&gt;" class="cls-9" d="M229.67,32.74l.11,0Z"/><path id="_路徑_33" data-name="&lt;路徑&gt;" class="cls-9" d="M228.39,45.21l-.12.07Z"/><path id="_路徑_34" data-name="&lt;路徑&gt;" class="cls-9" d="M229.91,32.85l.12.08Z"/><path id="_路徑_35" data-name="&lt;路徑&gt;" class="cls-9" d="M212.8,31l.06-.09Z"/><path id="_路徑_36" data-name="&lt;路徑&gt;" class="cls-9" d="M212.19,42.93l-.09,0Z"/><path id="_路徑_37" data-name="&lt;路徑&gt;" class="cls-9" d="M211.68,42.7l-.11-.09Z"/><path id="_路徑_38" data-name="&lt;路徑&gt;" class="cls-9" d="M227.48,45.46h0Z"/><path id="_路徑_39" data-name="&lt;路徑&gt;" class="cls-9" d="M212.05,42.89l-.12,0Z"/><path id="_路徑_40" data-name="&lt;路徑&gt;" class="cls-9" d="M227.66,45.46h0Z"/><path id="_路徑_41" data-name="&lt;路徑&gt;" class="cls-9" d="M228,45.4l-.11,0Z"/><path id="_路徑_42" data-name="&lt;路徑&gt;" class="cls-9" d="M227.82,45.44h0Z"/><path id="_路徑_43" data-name="&lt;路徑&gt;" class="cls-9" d="M228.26,45.29l-.12.05Z"/><path id="_路徑_44" data-name="&lt;路徑&gt;" class="cls-9" d="M230.27,33.12l.08.09Z"/><path id="_路徑_45" data-name="&lt;路徑&gt;" class="cls-9" d="M211.09,42l0-.09Z"/><path id="_路徑_46" data-name="&lt;路徑&gt;" class="cls-9" d="M212.74,31.08a.3.3,0,0,1,0-.08A.3.3,0,0,0,212.74,31.08Z"/><path id="_路徑_47" data-name="&lt;路徑&gt;" class="cls-9" d="M211.15,42.08a.36.36,0,0,1,0-.09A.36.36,0,0,0,211.15,42.08Z"/><path id="_路徑_48" data-name="&lt;路徑&gt;" class="cls-9" d="M211.56,42.61l-.1-.09Z"/><path id="_路徑_49" data-name="&lt;路徑&gt;" class="cls-9" d="M228.12,45.35l-.11,0Z"/><path id="_路徑_50" data-name="&lt;路徑&gt;" class="cls-9" d="M211.21,42.2l0-.09Z"/><path id="_路徑_51" data-name="&lt;路徑&gt;" class="cls-9" d="M229,44.55a.3.3,0,0,1,0,.08A.3.3,0,0,0,229,44.55Z"/><polygon id="_路徑_52" data-name="&lt;路徑&gt;" class="cls-9" points="212.51 42.99 227.14 45.43 220.66 39.05 212.51 42.99"/><path id="_路徑_53" data-name="&lt;路徑&gt;" class="cls-9" d="M228.92,44.67l-.06.09Z"/><path id="_路徑_54" data-name="&lt;路徑&gt;" class="cls-9" d="M219.1,37.53l-6.42-6.32s0,0,0-.06a2.26,2.26,0,0,0-.11.37L211,41.1a1.63,1.63,0,0,0,.05.73,1.51,1.51,0,0,1-.07-.37Z"/><path id="_路徑_55" data-name="&lt;路徑&gt;" class="cls-9" d="M213.33,30.41l.12-.06a1.55,1.55,0,0,0-.58.5l.07-.09A1.63,1.63,0,0,1,213.33,30.41Z"/><polygon id="_路徑_56" data-name="&lt;路徑&gt;" class="cls-9" points="229.2 32.63 214.58 30.2 221.06 36.58 229.2 32.63"/><path id="_路徑_57" data-name="&lt;路徑&gt;" class="cls-9" d="M211.22,42.22a2.09,2.09,0,0,0,.23.29.39.39,0,0,1-.08-.1A1.39,1.39,0,0,1,211.22,42.22Z"/><path id="_路徑_58" data-name="&lt;路徑&gt;" class="cls-9" d="M228.39,45.21a1.41,1.41,0,0,0,.39-.34A1.41,1.41,0,0,1,228.39,45.21Z"/><path id="_路徑_59" data-name="&lt;路徑&gt;" class="cls-9" d="M230.57,33.55l0,.09Z"/><path id="_路徑_60" data-name="&lt;路徑&gt;" class="cls-9" d="M211.68,42.7l.24.14-.12-.07Z"/><path id="_路徑_61" data-name="&lt;路徑&gt;" class="cls-9" d="M230.48,33.4a.83.83,0,0,0-.13-.18A.83.83,0,0,1,230.48,33.4Z"/><path id="_路徑_62" data-name="&lt;路徑&gt;" class="cls-9" d="M230.5,33.43l.05.08Z"/><path id="_路徑_63" data-name="&lt;路徑&gt;" class="cls-9" d="M230.73,34.17l-8.12,3.93L229,44.42l0,.07a1.66,1.66,0,0,0,.11-.38l1.59-9.58a1.5,1.5,0,0,0,0-.73A1.43,1.43,0,0,1,230.73,34.17Z"/><path id="_路徑_64" data-name="&lt;路徑&gt;" class="cls-9" d="M230.62,33.68a.36.36,0,0,1,0,.09A.36.36,0,0,0,230.62,33.68Z"/><path id="_路徑_65" data-name="&lt;路徑&gt;" class="cls-6" d="M211.11,42l0,0Z"/><path id="_路徑_66" data-name="&lt;路徑&gt;" class="cls-6" d="M211.17,42.11l0,0Z"/><path id="_路徑_67" data-name="&lt;路徑&gt;" class="cls-6" d="M211.22,42.22v0Z"/><path id="_路徑_68" data-name="&lt;路徑&gt;" class="cls-6" d="M228.27,45.28h0Z"/><path id="_路徑_69" data-name="&lt;路徑&gt;" class="cls-6" d="M228.94,44.63l0,0Z"/><path id="_路徑_70" data-name="&lt;路徑&gt;" class="cls-6" d="M211.93,42.84h0Z"/><polygon id="_路徑_71" data-name="&lt;路徑&gt;" class="cls-6" points="228.78 44.87 228.78 44.87 228.78 44.87 228.78 44.87"/><path id="_路徑_72" data-name="&lt;路徑&gt;" class="cls-6" d="M227.72,45.45h0Z"/><path id="_路徑_73" data-name="&lt;路徑&gt;" class="cls-6" d="M227.57,45.47h0Z"/><path id="_路徑_74" data-name="&lt;路徑&gt;" class="cls-6" d="M228.14,45.34h0Z"/><path id="_路徑_75" data-name="&lt;路徑&gt;" class="cls-6" d="M228,45.39h0Z"/><path id="_路徑_76" data-name="&lt;路徑&gt;" class="cls-6" d="M230.48,33.4l0,0Z"/><path id="_路徑_77" data-name="&lt;路徑&gt;" class="cls-6" d="M212.34,43l-.15,0Z"/><path id="_路徑_78" data-name="&lt;路徑&gt;" class="cls-6" d="M229,44.49l0,.06Z"/><path id="_路徑_79" data-name="&lt;路徑&gt;" class="cls-6" d="M212.1,42.9h0Z"/><path id="_路徑_80" data-name="&lt;路徑&gt;" class="cls-6" d="M227.42,45.46l-.16,0Z"/><path id="_路徑_81" data-name="&lt;路徑&gt;" class="cls-6" d="M227.87,45.43h0Z"/><path id="_路徑_82" data-name="&lt;路徑&gt;" class="cls-6" d="M229.62,32.72l0,0Z"/><polygon id="_路徑_83" data-name="&lt;路徑&gt;" class="cls-6" points="229.91 32.85 229.91 32.85 229.91 32.85 229.91 32.85"/><path id="_路徑_84" data-name="&lt;路徑&gt;" class="cls-6" d="M211.06,41.86v0Z"/><path id="_路徑_85" data-name="&lt;路徑&gt;" class="cls-6" d="M214.15,30.16h0Z"/><path id="_路徑_86" data-name="&lt;路徑&gt;" class="cls-6" d="M229.53,32.7l-.15,0-.18,0h0l.18,0Z"/><path id="_路徑_87" data-name="&lt;路徑&gt;" class="cls-6" d="M229.78,32.79h0Z"/><path id="_路徑_88" data-name="&lt;路徑&gt;" class="cls-6" d="M214,30.18h0Z"/><path id="_路徑_89" data-name="&lt;路徑&gt;" class="cls-6" d="M228.86,44.76v0Z"/><path id="_路徑_90" data-name="&lt;路徑&gt;" class="cls-6" d="M230.55,33.51l0,0Z"/><path id="_路徑_91" data-name="&lt;路徑&gt;" class="cls-6" d="M230.66,33.77v0Z"/><path id="_路徑_92" data-name="&lt;路徑&gt;" class="cls-6" d="M230.61,33.64v0Z"/><polygon id="_路徑_93" data-name="&lt;路徑&gt;" class="cls-6" points="230.35 33.22 230.35 33.21 230.35 33.21 230.35 33.22"/><path id="_路徑_94" data-name="&lt;路徑&gt;" class="cls-6" d="M213.45,30.35h0Z"/><path id="_路徑_95" data-name="&lt;路徑&gt;" class="cls-6" d="M212.78,31l0,0A.08.08,0,0,0,212.78,31Z"/><path id="_路徑_96" data-name="&lt;路徑&gt;" class="cls-6" d="M212.86,30.87v0Z"/><path id="_路徑_97" data-name="&lt;路徑&gt;" class="cls-6" d="M212.7,31.15a.25.25,0,0,1,0-.07A.25.25,0,0,0,212.7,31.15Z"/><path id="_路徑_98" data-name="&lt;路徑&gt;" class="cls-6" d="M213.71,30.24h0Z"/><path id="_路徑_99" data-name="&lt;路徑&gt;" class="cls-6" d="M213.85,30.2h0Z"/><path id="_路徑_100" data-name="&lt;路徑&gt;" class="cls-6" d="M214.58,30.2h-.12l-.16,0,.16,0Z"/><path id="_路徑_101" data-name="&lt;路徑&gt;" class="cls-6" d="M213.58,30.29h0Z"/><path id="_路徑_102" data-name="&lt;路徑&gt;" class="cls-6" d="M211.37,42.41l8.32-4,.14-.85-6.89-6.77-.07.09v0l-.06.09,0,0a.3.3,0,0,0,0,.08.25.25,0,0,0,0,.07s0,0,0,.06l6.42,6.32L211,41.46a1.51,1.51,0,0,0,.07.37v0l0,.09,0,0a.36.36,0,0,0,0,.09l0,0,0,.09v0A1.39,1.39,0,0,0,211.37,42.41Z"/><path id="_路徑_103" data-name="&lt;路徑&gt;" class="cls-6" d="M221.77,38.71l-.07.43-1.78-.3-8.12,3.93.12.07h0l.12,0h0l.09,0,.15,0,.17,0,8.15-4,6.48,6.38h.12l.16,0h.45l.11,0h0l.11,0h0l.12-.05h0l.12-.07h0Z"/><path id="_路徑_104" data-name="&lt;路徑&gt;" class="cls-6" d="M222.61,38.1l8.12-3.93a1.43,1.43,0,0,0-.06-.37v0a.36.36,0,0,0,0-.09v0l0-.09,0,0-.05-.08,0,0a.83.83,0,0,0-.13-.18h0l-8.34,4-.14.83,6.91,6.78h0l.07-.09v0l.06-.09,0,0a.3.3,0,0,0,0-.08l0-.06,0-.07Z"/><path id="_路徑_105" data-name="&lt;路徑&gt;" class="cls-6" d="M219.93,36.9l.07-.38,1.75.29,8.16-4h0l-.12-.06h0l-.11,0,0,0-.09,0-.15,0-.18,0-8.14,3.95-6.48-6.38h-.12l-.16,0h-.45l-.11,0h0l-.11,0h0l-.12.05h0l-.12.06Z"/><polygon id="_路徑_106" data-name="&lt;路徑&gt;" class="cls-10" points="230.35 33.21 230.35 33.21 230.35 33.21 230.35 33.21"/><path id="_路徑_107" data-name="&lt;路徑&gt;" class="cls-10" d="M211.68,42.7Z"/><polygon id="_路徑_108" data-name="&lt;路徑&gt;" class="cls-10" points="229.91 32.85 229.91 32.85 229.91 32.85 229.91 32.85"/><polygon id="_路徑_109" data-name="&lt;路徑&gt;" class="cls-10" points="228.78 44.87 228.78 44.87 228.78 44.87 228.78 44.87"/><path id="_路徑_110" data-name="&lt;路徑&gt;" class="cls-10" d="M230.25,33.11h0Z"/><path id="_路徑_111" data-name="&lt;路徑&gt;" class="cls-10" d="M211.46,42.52h0Z"/><path id="_路徑_112" data-name="&lt;路徑&gt;" class="cls-10" d="M230.14,33h0Z"/><path id="_路徑_113" data-name="&lt;路徑&gt;" class="cls-10" d="M211.57,42.61h0Z"/><path id="_路徑_114" data-name="&lt;路徑&gt;" class="cls-10" d="M230,32.93h0Z"/><path id="_複合路徑_" data-name="&lt;複合路徑&gt;" class="cls-10" d="M221.87,38.09l.14-.83,8.34-4h0l-.08-.09h0l-.09-.09h0l-.1-.08h0l-.12-.08h0l-8.16,4L220,36.52l-.07.38-6.6-6.49a1.63,1.63,0,0,0-.39.35l6.89,6.77-.14.85-8.32,4a.39.39,0,0,0,.08.1h0l.1.09h0l.11.09h0l.12.07,8.12-3.93,1.78.3.07-.43,6.62,6.5h0a1.41,1.41,0,0,0,.39-.34h0Z"/></g><polygon id="_路徑_115" data-name="&lt;路徑&gt;" class="cls-6" points="230.29 37.1 222.79 35.86 223.48 31.68 220.36 31.16 219.66 35.34 212.17 34.09 211.43 38.53 218.93 39.77 218.23 43.95 221.36 44.47 222.05 40.29 229.55 41.54 230.29 37.1"/><polygon id="_路徑_116" data-name="&lt;路徑&gt;" class="cls-10" points="230.15 37.92 222.07 36.58 222.9 31.59 220.94 31.26 220.11 36.25 212.03 34.91 211.57 37.71 219.64 39.05 218.81 44.04 220.78 44.37 221.61 39.38 229.69 40.72 230.15 37.92"/></g></g></g></g></svg>