<svg xmlns="http://www.w3.org/2000/svg" viewBox="0 0 95.06 97.06"><defs><style>.cls-1{fill:#ffe7e6;}.cls-2{fill:#eb6860;}.cls-3{fill:#c7423a;}.cls-4{fill:#1f5d73;}.cls-5{fill:none;stroke:#1f5d73;stroke-linecap:round;stroke-linejoin:round;}</style></defs><title>bell</title><g id="l_fish1" data-name="l fish1"><g id="_群組_" data-name="&lt;群組&gt;"><path id="_路徑_" data-name="&lt;路徑&gt;" class="cls-1" d="M92.18,24.47a10.88,10.88,0,0,0-13-2.31h0s-.7.27-.57-.51h0A10.9,10.9,0,0,0,59,12.14h0s-.52.65-.62-.16c0-.38,0-.78,0-1.06a10.91,10.91,0,1,0-21.81,0c0,.28,0,.68,0,1.06-.1.81-.62.16-.62.16h0a10.9,10.9,0,0,0-19.6,9.49h0c.13.78-.57.51-.57.51h0A10.9,10.9,0,0,0,3.52,39.88a10.77,10.77,0,0,0,2.1,1.5L7.37,42l11.47,3.81a33.67,33.67,0,0,1,57.37,0L87.68,42l1.76-.58a10.77,10.77,0,0,0,2.1-1.5A10.91,10.91,0,0,0,92.18,24.47Z"/><path id="_路徑_2" data-name="&lt;路徑&gt;" class="cls-2" d="M90.31,34.38v-.15A11.12,11.12,0,0,0,83.88,25a10.19,10.19,0,0,0-6-.91h0a1.26,1.26,0,0,1-1-.89h0c0-.11,0-.21,0-.32a10.9,10.9,0,0,0-18.27-8,.59.59,0,0,1-.95-.21,10.9,10.9,0,0,0-20.14,0,.6.6,0,0,1-1,.21,10.89,10.89,0,0,0-18.26,8c0,.11,0,.21,0,.32h0a1.26,1.26,0,0,1-1,.89h0a10.16,10.16,0,0,0-6,.91,11.1,11.1,0,0,0-6.44,9.23.76.76,0,0,1,0,.15,9,9,0,0,0,6.2,8.78l7.9,2.62a33.67,33.67,0,0,1,57.37,0l7.9-2.62A8.93,8.93,0,0,0,90.31,34.38Z"/><circle id="_路徑_3" data-name="&lt;路徑&gt;" class="cls-3" cx="47.53" cy="63.39" r="33.67"/><path id="_路徑_4" data-name="&lt;路徑&gt;" class="cls-2" d="M92,78.23a3.51,3.51,0,0,0-.33-.34C89.08,75.4,83,74.52,79.41,74.22A33.59,33.59,0,0,1,73.75,84.5a21.77,21.77,0,0,0,4.48,7.14c2.16,2.17,4.22,2.91,5.13,2.09a2.9,2.9,0,0,0,.85-3.5s4,2.33,5.65,0a4.18,4.18,0,0,0,.34-4.5C92.36,86.23,95.53,82.23,92,78.23Z"/><path id="_路徑_5" data-name="&lt;路徑&gt;" class="cls-1" d="M91.72,77.89h0a7.57,7.57,0,0,1-.86,4.44,2.33,2.33,0,0,1-2.1,1.18.63.63,0,0,0-.59.88,3.32,3.32,0,0,1-.56,4c-1.33,1.14-3.15.73-4.37.24a.63.63,0,0,0-.84.75c.23,1,.32,2.14-.48,2.45a7.44,7.44,0,0,1-3.67-.19c2.16,2.17,4.22,2.91,5.13,2.09a3,3,0,0,0,1.11-2.38.64.64,0,0,1,.88-.59c1.31.52,3.42,1,4.51-.53a4.17,4.17,0,0,0,.66-3.73.62.62,0,0,1,.46-.78C93.07,85.28,95.26,81.53,91.72,77.89Z"/><circle id="_路徑_6" data-name="&lt;路徑&gt;" class="cls-1" cx="47.53" cy="17.86" r="2.18"/><circle id="_路徑_7" data-name="&lt;路徑&gt;" class="cls-1" cx="66.56" cy="22.03" r="2.18"/><circle id="_路徑_8" data-name="&lt;路徑&gt;" class="cls-1" cx="81.11" cy="33.77" r="2.18"/><circle id="_路徑_9" data-name="&lt;路徑&gt;" class="cls-1" cx="78.78" cy="88.55" r="0.93"/><circle id="_路徑_10" data-name="&lt;路徑&gt;" class="cls-1" cx="84.47" cy="85.05" r="0.93"/><circle id="_路徑_11" data-name="&lt;路徑&gt;" class="cls-1" cx="87.68" cy="79.44" r="0.93"/><path id="_路徑_12" data-name="&lt;路徑&gt;" class="cls-2" d="M15.65,74.22C12,74.52,6,75.4,3.35,77.89c-.11.11-.22.22-.32.34-3.5,4-.33,8,1.83,7.5a4.18,4.18,0,0,0,.34,4.5c1.66,2.33,5.65,0,5.65,0a2.9,2.9,0,0,0,.85,3.5c.91.82,3,.08,5.12-2.09a21.78,21.78,0,0,0,4.49-7.14A33.59,33.59,0,0,1,15.65,74.22Z"/><path id="_路徑_13" data-name="&lt;路徑&gt;" class="cls-1" d="M3.34,77.89h0a7.57,7.57,0,0,0,.87,4.44,2.33,2.33,0,0,0,2.1,1.18.63.63,0,0,1,.59.88,3.32,3.32,0,0,0,.56,4c1.33,1.14,3.15.73,4.37.24a.63.63,0,0,1,.84.75c-.24,1-.32,2.14.47,2.45a7.43,7.43,0,0,0,3.67-.19c-2.15,2.17-4.21,2.91-5.12,2.09a3,3,0,0,1-1.11-2.38.65.65,0,0,0-.89-.59c-1.31.52-3.41,1-4.5-.53a4.17,4.17,0,0,1-.66-3.73.62.62,0,0,0-.46-.78C2,85.28-.2,81.53,3.34,77.89Z"/><circle id="_路徑_14" data-name="&lt;路徑&gt;" class="cls-1" cx="16.28" cy="88.55" r="0.93"/><circle id="_路徑_15" data-name="&lt;路徑&gt;" class="cls-1" cx="10.59" cy="85.05" r="0.93"/><circle id="_路徑_16" data-name="&lt;路徑&gt;" class="cls-1" cx="7.38" cy="79.44" r="0.93"/><circle id="_路徑_17" data-name="&lt;路徑&gt;" class="cls-1" cx="28.5" cy="22.03" r="2.18"/><circle id="_路徑_18" data-name="&lt;路徑&gt;" class="cls-1" cx="13.95" cy="33.77" r="2.18"/><ellipse id="_路徑_19" data-name="&lt;路徑&gt;" class="cls-1" cx="64.78" cy="58.12" rx="8.95" ry="10.31" transform="translate(-22.24 59.85) rotate(-43.03)"/><ellipse id="_路徑_20" data-name="&lt;路徑&gt;" class="cls-4" cx="64.78" cy="58.12" rx="6.73" ry="7.75" transform="translate(-22.24 59.85) rotate(-43.03)"/><ellipse id="_路徑_21" data-name="&lt;路徑&gt;" class="cls-1" cx="30.28" cy="58.12" rx="10.31" ry="8.95" transform="translate(-32.87 40.59) rotate(-46.97)"/><ellipse id="_路徑_22" data-name="&lt;路徑&gt;" class="cls-4" cx="30.28" cy="58.12" rx="7.75" ry="6.73" transform="translate(-32.87 40.59) rotate(-46.97)"/><g id="_群組_2" data-name="&lt;群組&gt;"><ellipse id="_路徑_23" data-name="&lt;路徑&gt;" class="cls-4" cx="52.62" cy="71.32" rx="2.23" ry="1.21" transform="translate(-33.86 51.92) rotate(-40.94)"/><ellipse id="_路徑_24" data-name="&lt;路徑&gt;" class="cls-4" cx="42.44" cy="71.32" rx="1.21" ry="2.23" transform="translate(-39.25 56.65) rotate(-49.06)"/></g><path id="_路徑_25" data-name="&lt;路徑&gt;" class="cls-5" d="M63,82.66c-1.67,3.06-6.91,2.14-9.1.57A12.26,12.26,0,0,0,47.53,81a12.31,12.31,0,0,0-6.39,2.25c-2.18,1.57-7.43,2.49-9.09-.57"/><g id="_群組_3" data-name="&lt;群組&gt;"><path id="_路徑_26" data-name="&lt;路徑&gt;" class="cls-4" d="M54.07,88.09h0a1.82,1.82,0,0,0-3,1.47c0,1,.62,1.57,1.82,1.72A7.15,7.15,0,0,0,57.14,90a.24.24,0,0,0-.11-.45A6.68,6.68,0,0,1,54.07,88.09Z"/><path id="_路徑_27" data-name="&lt;路徑&gt;" class="cls-4" d="M41,88.09h0a1.8,1.8,0,0,1,1.9-.32A1.84,1.84,0,0,1,44,89.56c0,1-.62,1.57-1.82,1.72A7.15,7.15,0,0,1,37.92,90a.24.24,0,0,1,.11-.45A6.62,6.62,0,0,0,41,88.09Z"/></g><circle id="_路徑_28" data-name="&lt;路徑&gt;" class="cls-1" cx="50.28" cy="35.27" r="1.5"/><circle id="_路徑_29" data-name="&lt;路徑&gt;" class="cls-1" cx="34.82" cy="39.27" r="1.5"/><circle id="_路徑_30" data-name="&lt;路徑&gt;" class="cls-1" cx="47.53" cy="45.02" r="1.5"/><circle id="_路徑_31" data-name="&lt;路徑&gt;" class="cls-1" cx="61.51" cy="41.39" r="1.5"/><circle id="_路徑_32" data-name="&lt;路徑&gt;" class="cls-1" cx="72.89" cy="46.52" r="1.5"/><circle id="_路徑_33" data-name="&lt;路徑&gt;" class="cls-1" cx="24.56" cy="46.52" r="1.5"/></g></g></svg>