<svg id="bg1" xmlns="http://www.w3.org/2000/svg" viewBox="0 0 1920 1080"><defs><style>.cls-1{fill:#6ed8e6;}.cls-2{fill:#ffe491;}.cls-3{fill:#ffd557;}</style></defs><title>holi_index_bg</title><g id="_群組_" data-name="&lt;群組&gt;"><path id="_路徑_" data-name="&lt;路徑&gt;" class="cls-1" d="M1434.85,217.25c.09-2.31.15-4.62.15-6.95A164.75,164.75,0,0,0,1202.16,60.36a164,164,0,0,0-96.5-31.23A166.05,166.05,0,0,0,1080.47,31a165,165,0,0,0-18.75-31H800.08a163.91,163.91,0,0,0-33.71,93.46A164.79,164.79,0,0,0,578,296.26a164.71,164.71,0,0,0-92.14,253.53L410.76,653.4V1080H1545.89V479.44l-19.7-15.84a164.73,164.73,0,0,0-91.34-246.35Z"/></g><g id="_群組_2" data-name="&lt;群組&gt;"><path id="_路徑_2" data-name="&lt;路徑&gt;" class="cls-2" d="M1814.5,193.8c-100.9,0-185.5,69.66-208.39,163.51a186.14,186.14,0,0,0-27.3-2c-96.13,0-175.1,73.45-183.88,167.29a184.88,184.88,0,0,0-138.4,220.55,126.16,126.16,0,0,0-32.1,65.75q-7.44-.6-15-.61A184.74,184.74,0,0,0,1046.47,1080H1920V221.51A213.43,213.43,0,0,0,1814.5,193.8Z"/></g><g id="_群組_3" data-name="&lt;群組&gt;"><path id="_路徑_3" data-name="&lt;路徑&gt;" class="cls-2" d="M1091,1032.61a73.39,73.39,0,0,0-19.51,2.64A73.47,73.47,0,0,0,943.8,1007a117.78,117.78,0,0,0-179.89-37,63.57,63.57,0,0,0-31.72-29,117.83,117.83,0,0,0-74.87-170.47,74.27,74.27,0,0,0,.52-8.61,73.45,73.45,0,0,0-110.65-63.34A118.88,118.88,0,0,0,524,672.1a117.8,117.8,0,0,0-105.14-204,133.18,133.18,0,0,0-190.47-93.93c0-1.51.07-3,.07-4.53A142.8,142.8,0,0,0,0,255.31V1080H1159.68A73.47,73.47,0,0,0,1091,1032.61Z"/></g><circle id="_路徑_4" data-name="&lt;路徑&gt;" class="cls-2" cx="352.62" cy="193.8" r="22.5"/><circle id="_路徑_5" data-name="&lt;路徑&gt;" class="cls-2" cx="768.05" cy="430.84" r="10.55"/><circle id="_路徑_6" data-name="&lt;路徑&gt;" class="cls-3" cx="134.38" cy="844.25" r="18.75"/><circle id="_路徑_7" data-name="&lt;路徑&gt;" class="cls-3" cx="1578.81" cy="517.83" r="12.75"/><circle id="_路徑_8" data-name="&lt;路徑&gt;" class="cls-2" cx="1632.37" cy="210.3" r="16.5"/></svg>