<svg xmlns="http://www.w3.org/2000/svg" viewBox="0 0 1077.66 1110.89"><defs><style>.cls-1{fill:#6ed8e6;}.cls-2{fill:#ffe491;}</style></defs><title>holi_about_front_rcloud</title><g id="圖層_37" data-name="圖層 37"><path class="cls-1" d="M0,0S144.92-4.88,173.39,148.15c0,0,93.95.92,144.21,99.73,0,0,25.33,40.42,10,115.36,0,0,113.66,3.87,110.44,125.66,0,0,115.59,8.44,97.43,131.61,0,0,78.35,34.61,63.85,131.64,0,0,40.17-25,76.5,5,0,0,27.89,16.87,25.61,58.77,0,0,46.6-23,75.49,23.11,0,0,20.51,30.11-2.3,64.18,0,0,56.41,3.93,62.17,60.19,0,0,51.14-47.57,123.91-32.24s110.7,72.82,116.91,127.24c0,0-353.87,80-545.33,42.4,0,0-353.86-32.47-532.33-325.72Z"/><path class="cls-2" d="M413.35,1029.6s-.69-25.64,22.74-43.7,47.64-12.12,51-11c0,0,36.36-52.49,106.38-40.27s89,78.87,89.69,92.88c0,0,27.94,2.9,40.47,25.79,0,0,9.87,15.29,7.53,34.15,0,0,15.29,1,20.81,19,0,0-205.32,25-401.57-52.45C350.44,1054,370.33,1017.53,413.35,1029.6Z"/></g></svg>