<svg xmlns="http://www.w3.org/2000/svg" viewBox="0 0 43.1 41.44"><defs><style>.cls-1{fill:#eb9994;}.cls-2{fill:none;stroke:#fff;stroke-linecap:round;stroke-linejoin:round;}.cls-3{fill:#fff;}</style></defs><title>holi_logo</title><g id="n2"><path id="_路徑_" data-name="&lt;路徑&gt;" class="cls-1" d="M37.69,20.33c-.3-.06-3.48-1.37-4.2,1.24-1.2,4.3,2.81,4.16,5.16,5.67a2.55,2.55,0,0,1,1.3,3l-.06.35c-.53,2.23-2.72,5.58-6,4.71C31.69,34.74,31.18,31,29,29.19a2.75,2.75,0,0,0-3.29-.3,2.3,2.3,0,0,0-1.32,2.18c-.16,2.71,3.1,4.93,2,7.59a4.11,4.11,0,0,1-3,2.5c-1.86.56-6.08.35-8.11-1.16-3-2.28-1.44-5.83.44-7.33,2.19-1.74.77-3.86-.11-4.78-.68-.72-3.22-1.22-4.27,1.52a4.93,4.93,0,0,1-6.06,2.37c-4-1.33-7.15-8.83-4-12.66,2.12-2.56,7.15-.1,10.21-.88a2.83,2.83,0,0,0,1.57-3.81c-1.11-2.09-3.2-1.88-5.12-4S6.74,5,8.94,3.31A20.12,20.12,0,0,1,15.55.37c2.55-.67,6.89-.65,8.17,1.88,1.16,2.31-.81,6.19.66,8.66s3.2,2.5,4.69,1c.81-.81,3.78-4.18,6-4.59,2.79-.53,5.05,1.11,6.39,3.38a15.63,15.63,0,0,1,1.61,4.86,4.28,4.28,0,0,1-5.31,4.77Z"/><path id="_路徑_2" data-name="&lt;路徑&gt;" class="cls-2" d="M9.06,7.41S7.91,5,14.13,2.82"/><circle id="_路徑_3" data-name="&lt;路徑&gt;" class="cls-3" cx="10.22" cy="9.46" r="0.61"/></g></svg>