<svg xmlns="http://www.w3.org/2000/svg" viewBox="0 0 462.46 518.33"><defs><style>.cls-1{fill:#ffd557;}.cls-2{fill:#ffe491;opacity:0.6;}.cls-3,.cls-4,.cls-6{fill:#ffabb7;}.cls-3,.cls-4{stroke:#fff;stroke-miterlimit:10;}.cls-3{stroke-width:4px;}.cls-5{fill:#ffe7e6;}.cls-7{fill:#eb6860;}.cls-8{fill:none;stroke:#ffd557;stroke-linecap:round;stroke-linejoin:round;stroke-width:6px;}.cls-9{fill:#fff;}</style></defs><title>holi_waman</title><g id="work2"><path id="_路徑_" data-name="&lt;路徑&gt;" class="cls-1" d="M71.45,275.24a3.83,3.83,0,0,1,2.43-2.95c10.19-3.78,54.17-23.57,36.65-78.33C99.26,158.75,80.76,144.15,67,138.11a3.82,3.82,0,0,1,1.47-7.31,93.13,93.13,0,0,1,49.52,12.94c34.35,19.85,52.42,52.87,54.87,57.58a3.85,3.85,0,0,0,.78,1L226.93,252a3.83,3.83,0,0,0,3.24,1l78-13.14a3.81,3.81,0,0,0,3.19-3.74c.09-17.13,3.15-98.73,52.16-143.61a3.83,3.83,0,0,1,6.12,4.31c-7.49,17.22-14.8,46.23,2.67,74.17,27.23,43.56,41.16,63.39,39.51,97.15-1.44,29.66,9.19,61.24,11.79,68.45a3.78,3.78,0,0,1-.18,3l-27.16,54.33a3.82,3.82,0,0,1-2.93,2.08L174.17,424.34a3.94,3.94,0,0,1-2.06-.3L88,386.38a3.82,3.82,0,0,1-1.93-1.93L62.43,331.69a3.91,3.91,0,0,1-.28-2.21Z"/><g id="_群組_" data-name="&lt;群組&gt;"><path id="_複合路徑_" data-name="&lt;複合路徑&gt;" class="cls-2" d="M365.19,265.66c-20.85-37.51-52.69-159.51-65.31-202.32S239.51-2.52,209.32.22,145.11,18.33,127,55.65s-14.27,132.27-19.75,182.22-32.93,52.69-32.93,52.69l7.13,70.35S93.52,367.4,127,334.2c9.93-9.84,15.08-25.06,17.8-43.46h138.9c-9.53,62.19-31,112.33-31,112.33l115.26,18.11,8.78-70.25S386.05,303.18,365.19,265.66ZM154.44,135.24c14.82-71.35,48.29-94.41,48.29-94.41s46.66,12.08,68.06,42.81c11.74,16.86,14.4,29.76,15.13,52.74H154.21C154.29,136,154.36,135.62,154.44,135.24Z"/><rect id="_矩形_" data-name="&lt;矩形&gt;" class="cls-3" x="253.16" y="171.2" width="55.14" height="190.76" rx="27.57" ry="27.57" transform="translate(-32.99 39.75) rotate(-7.65)"/><rect id="_矩形_2" data-name="&lt;矩形&gt;" class="cls-4" x="148.65" y="161.44" width="139.71" height="287.18" rx="69.85" ry="69.85"/><path id="_路徑_2" data-name="&lt;路徑&gt;" class="cls-5" d="M166.6,224.44s82.11,31.83,89-56.33c0,0,14.32-2.24,20.9,0,0,0,13.35,43.74,15.93,72.06s26,182.27,26,182.27L260,449.6l-71.92,3.3-67.21-23L160,223.21Z"/><path id="_路徑_3" data-name="&lt;路徑&gt;" class="cls-3" d="M277,310.88h0a12.92,12.92,0,0,0-18.27-.52L236.6,331.23l-11.8-.15a12.93,12.93,0,0,0-13.09,12.76h0a12.92,12.92,0,0,0,12.76,13.09l16.28.2c.14,0,.27,0,.41,0a12.87,12.87,0,0,0,9.39-3.51l25.91-24.46A12.93,12.93,0,0,0,277,310.88Z"/><path id="_路徑_4" data-name="&lt;路徑&gt;" class="cls-3" d="M215,309.53,168.27,308l20.4-103.91a27.56,27.56,0,0,0-21.74-32.36h0a27.57,27.57,0,0,0-32.36,21.74l-25.8,131.4a27.72,27.72,0,0,0-.49,6.38,2.28,2.28,0,0,0,0,.26h0a25.42,25.42,0,0,0,24.6,26.22l80.5,2.58a25.42,25.42,0,0,0,26.22-24.6h0A25.43,25.43,0,0,0,215,309.53Z"/><polygon id="_路徑_5" data-name="&lt;路徑&gt;" class="cls-6" points="173.92 171.8 169.53 198.9 179.68 219.48 187.09 221.4 201.36 212.9 216.59 187.38 214.26 172.69 173.92 171.8"/><path id="_路徑_6" data-name="&lt;路徑&gt;" class="cls-7" d="M176.58,284.5a1.76,1.76,0,0,1-2.57,1.23c-3.08-1.67-10.4-4.68-26.86-8-17.34-3.48-26.59-3.21-30.57-2.74a1.77,1.77,0,0,1-1.94-2.08l6.67-35.32s5.32-2.87,32.13,2.16c28.46,5.34,29.79,9.53,29.79,9.53Z"/><path id="_路徑_7" data-name="&lt;路徑&gt;" class="cls-8" d="M184.52,307.3s-14.54,21.14-6,53.21"/><path id="_路徑_8" data-name="&lt;路徑&gt;" class="cls-8" d="M200.21,307.3s-14.55,21.14-6,53.21"/><circle id="_路徑_9" data-name="&lt;路徑&gt;" class="cls-9" cx="185.42" cy="220.87" r="2.03"/><path id="_路徑_10" data-name="&lt;路徑&gt;" class="cls-8" d="M178.24,174s4.41,67.37,40.64,69.83,37.37-74.34,37.37-74.34"/><circle id="_路徑_11" data-name="&lt;路徑&gt;" class="cls-3" cx="212" cy="98.26" r="85"/><path id="_路徑_12" data-name="&lt;路徑&gt;" class="cls-2" d="M207.45,42.24a8.86,8.86,0,0,0-8.69,1.9c-9.3,8.55-32.63,34.78-44.32,91.1-14.82,71.34,6,165.76-27.45,199s-45.55,26.71-45.55,26.71l-7.13-70.35s27.44-2.75,32.93-52.69S108.88,93,127,55.65,179.13,3,209.32.22s77.94,20.31,90.56,63.12,44.46,164.81,65.31,202.32,11.53,85.27,11.53,85.27l-8.78,70.25L252.68,403.07s39.52-92.2,35.13-181.67,4.39-107-17-137.76C253.53,58.85,219.84,46.2,207.45,42.24Z"/><rect id="_矩形_3" data-name="&lt;矩形&gt;" class="cls-3" x="254.63" y="303.04" width="74.62" height="145.58" rx="37.31" ry="37.31"/><path id="_路徑_13" data-name="&lt;路徑&gt;" class="cls-3" d="M343.6,353.31s0-.09,0-.13a13.11,13.11,0,0,0-.59-3.52,13.3,13.3,0,0,0-1.31-2.83L327.2,316.05A12.92,12.92,0,0,0,310,309.87h0a12.91,12.91,0,0,0-6.19,17.19l8.8,18.7-11.94,3.81a12.92,12.92,0,1,0,7.83,24.62l23.87-7.59a12.77,12.77,0,0,0,3.81-1.12,12.9,12.9,0,0,0,7.4-11.63C343.6,353.67,343.6,353.49,343.6,353.31Z"/><circle id="_路徑_14" data-name="&lt;路徑&gt;" class="cls-7" cx="210.14" cy="70.75" r="5.35"/><polygon id="_路徑_15" data-name="&lt;路徑&gt;" class="cls-6" points="308.35 307.3 312.88 317.18 308.87 330.04 302.63 332.1 294.36 319.7 298.88 307.3 308.35 307.3"/><circle id="_路徑_16" data-name="&lt;路徑&gt;" class="cls-9" cx="305.64" cy="330.83" r="2.06"/><circle id="_路徑_17" data-name="&lt;路徑&gt;" class="cls-3" cx="291.94" cy="274.23" r="39.93"/></g><path id="_路徑_18" data-name="&lt;路徑&gt;" class="cls-7" d="M87.29,481.05a2.66,2.66,0,0,0-.69,0c-3.34.4-31.07,3.08-41.38-16.51-9.95-18.89-17.64-36-42.67-38.63a2.84,2.84,0,0,1-1.16-5.26C9.1,416,22.15,410,36.36,411a2.84,2.84,0,0,0,2.22-4.85c-10.5-10.48-25.52-33-16.55-71.45C34.56,281.09,65,269.17,68.26,224.55a2.84,2.84,0,0,1,5.13-1.44C80.73,233.18,93,256.64,84.6,294c-10.23,45.67,25.9,77.71,44,83.48a2.84,2.84,0,0,0,3.49-3.83c-4.61-10.56-12.65-37.17,8.3-63.19a2.84,2.84,0,0,1,5,2.23c-3.29,19.6-5,61.67,38.7,69,45.82,7.67,49.61-28.44,49.28-43.28a2.84,2.84,0,0,1,4.8-2.12c6.47,6.07,16.12,19.54,11.73,43.63a2.84,2.84,0,0,0,3.23,3.34c8.8-1.37,29.51-8.08,35.4-40.85a2.83,2.83,0,0,1,4.52-1.74c7.16,5.48,21.4,19.65,17,43.25a2.84,2.84,0,0,0,3.29,3.29c13.26-2.3,53.61-14.55,49.74-78.66a2.83,2.83,0,0,1,5-2c6,7.07,14.73,21.51,16.35,46.39a2.84,2.84,0,0,0,5,1.63c8.32-10.07,23.74-36.46,14.7-87-6.58-36.81-5.17-58.28-2.52-70.19a2.84,2.84,0,0,1,5.6.34c1.74,16.9,9.05,48,37,84.67,42.26,55.43-2.2,121.84-2.2,121.84L365.76,517.08a2.85,2.85,0,0,1-2.35,1.25H104.68a2.84,2.84,0,0,1-2.19-4.65C110,504.67,121.53,485.32,87.29,481.05Z"/></g></svg>