<svg xmlns="http://www.w3.org/2000/svg" viewBox="0 0 273.18 282.51"><defs><style>.cls-1{fill:#6ed8e6;}</style></defs><title>holi_flower_blue</title><g id="bg4"><path id="_路徑_" data-name="&lt;路徑&gt;" class="cls-1" d="M273,152.88a35.34,35.34,0,0,0-50.7-28.58,149.71,149.71,0,0,1-17.5,7.26,22.1,22.1,0,0,1-26.25-9.63l-.16-.26a22,22,0,0,1,2.17-25.59,167.84,167.84,0,0,1,21.88-21A42.2,42.2,0,1,0,133.82,41.6a172.75,172.75,0,0,1-5.27,40.7A19.32,19.32,0,0,1,114.84,96l-.52.15a19.44,19.44,0,0,1-22.75-9.7q-1.54-3-2.91-6.16a27.33,27.33,0,0,0-46.78-5.62,27.33,27.33,0,0,0,14.18,42.83A115,115,0,0,1,73.32,124a6,6,0,0,1,3.15,7.5l0,.09a5.82,5.82,0,0,1-5.25,3.85,139.76,139.76,0,0,1-29.77-2.05,35,35,0,0,0-15.51.76,35.33,35.33,0,1,0,32.36,60.92l1.49-1.26c9.67-8.05,25.75-5.87,37.25,1,15,8.94,26.12,26.27,21.92,38.79-.22.65-.44,1.3-.67,2a35.33,35.33,0,1,0,63.61-6.6,148.3,148.3,0,0,1-11.15-22.48,20.21,20.21,0,0,1,3.11-20.12l.26-.32a20.06,20.06,0,0,1,19.66-7.43,139.31,139.31,0,0,1,29.54,9.66A35.34,35.34,0,0,0,273,152.88Z"/></g></svg>