<svg xmlns="http://www.w3.org/2000/svg" viewBox="0 0 1269.62 631.13"><defs><style>.cls-1{fill:#ffccc9;}.cls-2{fill:#eb6860;}.cls-3{fill:#ffe7e6;}.cls-4{fill:#eb9994;}.cls-5{fill:#c6cfc3;}.cls-6{fill:#a6b3b8;}.cls-7{fill:#d4e4e6;}.cls-8{fill:#c7423a;}.cls-9{fill:none;stroke:#eb6860;stroke-linecap:round;stroke-linejoin:round;stroke-width:3px;}</style></defs><title>holi_castle</title><g id="work2"><path id="_路徑_" data-name="&lt;路徑&gt;" class="cls-1" d="M452.26,460.58s-98.78-6.68-103.87,12.58c-4.83,18.31,30.57,8.14,35.09,28,4.58,20.09-127.26,7.12-157.77,17s-26.32,32.8-1.91,36.61c19.6,3.06,231.13-15.44,228.46,6.11-1.95,15.74-44.24,20.4-32.92,33.81,31.31,37.12,420.81-32.78,440.87-11.62,13.13,13.85-35.49,11.34-26.19,28.6,17.58,32.61,399-21.74,435.6,19.45V465.49Z"/><g id="_群組_" data-name="&lt;群組&gt;"><rect id="_矩形_" data-name="&lt;矩形&gt;" class="cls-2" x="659.1" y="236.86" width="6.13" height="26.78"/><rect id="_矩形_2" data-name="&lt;矩形&gt;" class="cls-2" x="1026.45" y="236.86" width="6.13" height="26.78" transform="translate(2059.03 500.5) rotate(180)"/><path id="_路徑_2" data-name="&lt;路徑&gt;" class="cls-1" d="M928.14,212.77S895,208,845.84,208c-49.63,0-82.31,4.82-82.31,4.82v27.54H928.14Z"/><path id="_路徑_3" data-name="&lt;路徑&gt;" class="cls-3" d="M845.84,208c49.2,0,82.3,4.82,82.3,4.82v.29a96.82,96.82,0,0,0,15-51.92c0-38.3-32.95-65-60.51-80.59-19.79-11.21-36.8-33.06-36.8-33.06s-16.91,21.88-36.63,33.08c-27.59,15.67-60.68,42.41-60.68,80.57a96.9,96.9,0,0,0,15,51.92v-.29S796.21,208,845.84,208Z"/><path id="_路徑_4" data-name="&lt;路徑&gt;" class="cls-2" d="M763.32,243.15s-25.2-.57-33.6-.57-33.6.57-33.6.57A3.12,3.12,0,0,1,693,240h0a3.12,3.12,0,0,1,3.12-3.12s25.2-.57,33.6-.57,33.6.57,33.6.57a3.12,3.12,0,0,1,3.12,3.12h0A3.12,3.12,0,0,1,763.32,243.15Z"/><path id="_路徑_5" data-name="&lt;路徑&gt;" class="cls-1" d="M762.61,234.36c0-32.33-32.89-41.69-32.89-41.69s-32.9,9.36-32.9,41.69c0,.86,0,1.71.11,2.55H762.5C762.57,236.07,762.61,235.22,762.61,234.36Z"/><rect id="_矩形_3" data-name="&lt;矩形&gt;" class="cls-4" x="697.23" y="242.58" width="64.98" height="29.26"/><path id="_路徑_6" data-name="&lt;路徑&gt;" class="cls-2" d="M712.09,251.23l-2.72-2.64a2.24,2.24,0,0,0-3.46.25l-2.67,3a6.65,6.65,0,0,0-1.45,4.32V271.6a1,1,0,0,0,1.08.91l9.72-.41a1,1,0,0,0,1-.91V255.41A6,6,0,0,0,712.09,251.23Z"/><path id="_路徑_7" data-name="&lt;路徑&gt;" class="cls-2" d="M747,251.23l3.36-2.64a3.24,3.24,0,0,1,4.3.25l3.3,3a5.88,5.88,0,0,1,1.8,4.32V271.6c0,.52-.62.94-1.35.91l-12-.41c-.69,0-1.23-.42-1.23-.91V255.41A5.31,5.31,0,0,1,747,251.23Z"/><path id="_路徑_8" data-name="&lt;路徑&gt;" class="cls-2" d="M736,251.57l-4.07-2.85a4.55,4.55,0,0,0-5.25,0l-4.07,2.85a5.23,5.23,0,0,0-2.23,4.28v15.74a.91.91,0,0,0,.91.91h16a.91.91,0,0,0,.91-.91V255.85A5.25,5.25,0,0,0,736,251.57Z"/><path id="_路徑_9" data-name="&lt;路徑&gt;" class="cls-2" d="M928.36,243.15s25.2-.57,33.6-.57,33.6.57,33.6.57a3.12,3.12,0,0,0,3.12-3.12h0a3.12,3.12,0,0,0-3.12-3.12s-25.2-.57-33.6-.57-33.6.57-33.6.57a3.12,3.12,0,0,0-3.12,3.12h0A3.12,3.12,0,0,0,928.36,243.15Z"/><path id="_路徑_10" data-name="&lt;路徑&gt;" class="cls-1" d="M929.07,234.36c0-32.33,32.89-41.69,32.89-41.69s32.89,9.36,32.89,41.69c0,.86,0,1.71-.1,2.55H929.17C929.11,236.07,929.07,235.22,929.07,234.36Z"/><rect id="_矩形_4" data-name="&lt;矩形&gt;" class="cls-4" x="929.47" y="242.58" width="64.98" height="29.26" transform="translate(1923.92 514.42) rotate(180)"/><path id="_路徑_11" data-name="&lt;路徑&gt;" class="cls-2" d="M979.59,251.23l2.71-2.64a2.25,2.25,0,0,1,3.47.25l2.67,3a6.65,6.65,0,0,1,1.45,4.32V271.6a1,1,0,0,1-1.09.91l-9.71-.41a1,1,0,0,1-1-.91V255.41A6,6,0,0,1,979.59,251.23Z"/><path id="_路徑_12" data-name="&lt;路徑&gt;" class="cls-2" d="M944.65,251.23l-3.35-2.64a3.24,3.24,0,0,0-4.3.25l-3.3,3a5.88,5.88,0,0,0-1.8,4.32V271.6c0,.52.61.94,1.35.91l12-.41c.69,0,1.23-.42,1.23-.91V255.41A5.32,5.32,0,0,0,944.65,251.23Z"/><path id="_路徑_13" data-name="&lt;路徑&gt;" class="cls-2" d="M955.68,251.57l4.07-2.85a4.55,4.55,0,0,1,5.25,0l4.07,2.85a5.25,5.25,0,0,1,2.23,4.28v15.74a.91.91,0,0,1-.91.91h-16a.91.91,0,0,1-.91-.91V255.85A5.23,5.23,0,0,1,955.68,251.57Z"/><rect id="_矩形_5" data-name="&lt;矩形&gt;" class="cls-5" x="643.09" y="252.79" width="21.27" height="25.95"/><path id="_路徑_14" data-name="&lt;路徑&gt;" class="cls-6" d="M664.36,278.74,675,289.35V265.72a5.57,5.57,0,0,0-1.64-4l-9-9Z"/><rect id="_矩形_6" data-name="&lt;矩形&gt;" class="cls-5" x="1027.32" y="252.79" width="21.27" height="25.95" transform="translate(2075.91 531.53) rotate(180)"/><path id="_路徑_15" data-name="&lt;路徑&gt;" class="cls-6" d="M1027.32,278.74l-10.63,10.61V265.72a5.57,5.57,0,0,1,1.64-4l9-9Z"/><path id="_矩形_7" data-name="&lt;矩形&gt;" class="cls-6" d="M656.75,267.25h2.94a1.18,1.18,0,0,1,1.18,1.18v10.3a0,0,0,0,1,0,0h-5.3a0,0,0,0,1,0,0v-10.3A1.18,1.18,0,0,1,656.75,267.25Z"/><path id="_矩形_8" data-name="&lt;矩形&gt;" class="cls-6" d="M1030.81,267.25h5.3a0,0,0,0,1,0,0v10.3a1.18,1.18,0,0,1-1.18,1.18H1032a1.18,1.18,0,0,1-1.18-1.18v-10.3a0,0,0,0,1,0,0Z" transform="translate(2066.92 545.99) rotate(180)"/><rect id="_矩形_9" data-name="&lt;矩形&gt;" class="cls-4" x="471.26" y="156.53" width="3.93" height="30.97"/><rect id="_矩形_10" data-name="&lt;矩形&gt;" class="cls-4" x="480.15" y="156.53" width="3.93" height="30.97"/><rect id="_矩形_11" data-name="&lt;矩形&gt;" class="cls-4" x="489.04" y="156.53" width="3.93" height="30.97"/><rect id="_矩形_12" data-name="&lt;矩形&gt;" class="cls-4" x="497.93" y="156.53" width="3.93" height="30.97"/><rect id="_矩形_13" data-name="&lt;矩形&gt;" class="cls-3" x="761.2" y="240.31" width="169.28" height="192.3"/><path id="_矩形_14" data-name="&lt;矩形&gt;" class="cls-1" d="M783.83,259h124a5.86,5.86,0,0,1,5.86,5.86V432.61a0,0,0,0,1,0,0H778a0,0,0,0,1,0,0V264.89A5.86,5.86,0,0,1,783.83,259Z"/><rect id="_矩形_15" data-name="&lt;矩形&gt;" class="cls-1" x="930.48" y="271.84" width="75.33" height="160.77"/><rect id="_矩形_16" data-name="&lt;矩形&gt;" class="cls-4" x="939.79" y="290.79" width="56.72" height="76.3" rx="2.06" ry="2.06"/><path id="_矩形_17" data-name="&lt;矩形&gt;" class="cls-4" d="M941.85,371.32h52.6a2.06,2.06,0,0,1,2.06,2.06v59.23a0,0,0,0,1,0,0H939.79a0,0,0,0,1,0,0V373.38A2.06,2.06,0,0,1,941.85,371.32Z"/><rect id="_矩形_18" data-name="&lt;矩形&gt;" class="cls-1" x="685.86" y="271.84" width="75.33" height="160.77"/><polygon id="_路徑_16" data-name="&lt;路徑&gt;" class="cls-4" points="685.86 432.61 638.33 432.61 638.33 276.38 685.86 271.84 685.86 432.61"/><path id="_路徑_17" data-name="&lt;路徑&gt;" class="cls-3" d="M883.16,315.86,860.48,300a25.51,25.51,0,0,0-29.28,0l-22.69,15.9a29.22,29.22,0,0,0-12.43,23.91v92.84H895.6V339.77A29.2,29.2,0,0,0,883.16,315.86Z"/><path id="_路徑_18" data-name="&lt;路徑&gt;" class="cls-1" d="M983.35,385.05l-9.24-6.48a10.43,10.43,0,0,0-11.93,0l-9.24,6.48a11.92,11.92,0,0,0-5.07,9.74v37.82h40.55V394.79A11.89,11.89,0,0,0,983.35,385.05Z"/><path id="_路徑_19" data-name="&lt;路徑&gt;" class="cls-1" d="M983.35,315.29l-9.24-6.48a10.39,10.39,0,0,0-11.93,0l-9.24,6.48a11.9,11.9,0,0,0-5.07,9.74v35.76a2.07,2.07,0,0,0,2.07,2.06h36.42a2.06,2.06,0,0,0,2.06-2.06V325A11.88,11.88,0,0,0,983.35,315.29Z"/><rect id="_矩形_19" data-name="&lt;矩形&gt;" class="cls-4" x="796.08" y="362.85" width="99.53" height="8.47"/><path id="_矩形_20" data-name="&lt;矩形&gt;" class="cls-7" d="M845.84,329.35h0a11.82,11.82,0,0,1,11.82,11.82v21.68a0,0,0,0,1,0,0H834a0,0,0,0,1,0,0V341.17A11.82,11.82,0,0,1,845.84,329.35Z"/><path id="_路徑_20" data-name="&lt;路徑&gt;" class="cls-7" d="M856.37,395.08l-5.85-3.86a8.55,8.55,0,0,0-9.36,0l-5.86,3.86a8.5,8.5,0,0,0-3.83,7.11v30.42h28.74V402.19A8.49,8.49,0,0,0,856.37,395.08Z"/><path id="_矩形_21" data-name="&lt;矩形&gt;" class="cls-5" d="M963.47,342.68h9.36a2.41,2.41,0,0,1,2.41,2.41v17.76a0,0,0,0,1,0,0H961.06a0,0,0,0,1,0,0V345.09A2.41,2.41,0,0,1,963.47,342.68Z"/><path id="_矩形_22" data-name="&lt;矩形&gt;" class="cls-5" d="M963.47,412.45h9.36a2.41,2.41,0,0,1,2.41,2.41v17.76a0,0,0,0,1,0,0H961.06a0,0,0,0,1,0,0V414.86A2.41,2.41,0,0,1,963.47,412.45Z"/><rect id="_矩形_23" data-name="&lt;矩形&gt;" class="cls-4" x="695.17" y="290.79" width="56.72" height="76.3" rx="2.06" ry="2.06"/><path id="_矩形_24" data-name="&lt;矩形&gt;" class="cls-4" d="M697.23,371.32h52.6a2.06,2.06,0,0,1,2.06,2.06v59.23a0,0,0,0,1,0,0H695.17a0,0,0,0,1,0,0V373.38A2.06,2.06,0,0,1,697.23,371.32Z"/><path id="_路徑_21" data-name="&lt;路徑&gt;" class="cls-1" d="M738.74,385.05l-9.25-6.48a10.41,10.41,0,0,0-11.92,0l-9.24,6.48a11.89,11.89,0,0,0-5.07,9.74v37.82H743.8V394.79A11.91,11.91,0,0,0,738.74,385.05Z"/><path id="_路徑_22" data-name="&lt;路徑&gt;" class="cls-1" d="M738.74,315.29l-9.25-6.48a10.38,10.38,0,0,0-11.92,0l-9.24,6.48a11.88,11.88,0,0,0-5.07,9.74v35.76a2.06,2.06,0,0,0,2.06,2.06h36.42a2.06,2.06,0,0,0,2.06-2.06V325A11.89,11.89,0,0,0,738.74,315.29Z"/><path id="_矩形_25" data-name="&lt;矩形&gt;" class="cls-5" d="M718.85,342.68h9.36a2.41,2.41,0,0,1,2.41,2.41v17.76a0,0,0,0,1,0,0H716.44a0,0,0,0,1,0,0V345.09A2.41,2.41,0,0,1,718.85,342.68Z"/><path id="_矩形_26" data-name="&lt;矩形&gt;" class="cls-5" d="M718.85,412.45h9.36a2.41,2.41,0,0,1,2.41,2.41v17.76a0,0,0,0,1,0,0H716.44a0,0,0,0,1,0,0V414.86A2.41,2.41,0,0,1,718.85,412.45Z"/><path id="_路徑_23" data-name="&lt;路徑&gt;" class="cls-2" d="M675.35,367.22l-28.68,2a2.07,2.07,0,0,1-2.21-2.06V295a2.07,2.07,0,0,1,1.92-2.06l28.69-2a2.06,2.06,0,0,1,2.2,2.06v72.16A2.07,2.07,0,0,1,675.35,367.22Z"/><path id="_路徑_24" data-name="&lt;路徑&gt;" class="cls-2" d="M644.46,375.51v57.1h32.81V373.53a2.07,2.07,0,0,0-2.2-2.06l-28.69,2A2.06,2.06,0,0,0,644.46,375.51Z"/><path id="_路徑_25" data-name="&lt;路徑&gt;" class="cls-4" d="M672.59,394.89c0-3.9-1.1-7.47-2.94-9.57l-5.35-6.1c-2.07-2.36-4.83-2.14-6.9.53l-5.34,6.91a16.88,16.88,0,0,0-2.92,10v36h23.45Z"/><path id="_路徑_26" data-name="&lt;路徑&gt;" class="cls-4" d="M669.62,315.52l-5.39-6c-2.08-2.32-4.83-2.08-6.9.58l-5.3,6.83a16.55,16.55,0,0,0-2.89,9.82v35.06a2.06,2.06,0,0,0,2.16,2.06l19.33-.93a2.06,2.06,0,0,0,2-2.06V325C672.59,321.15,671.48,317.6,669.62,315.52Z"/><path id="_路徑_27" data-name="&lt;路徑&gt;" class="cls-5" d="M664.89,363.22l-8.21.4V345.48a2,2,0,0,1,1.83-1.93l4.53-.28a1.71,1.71,0,0,1,1.85,1.71Z"/><path id="_路徑_28" data-name="&lt;路徑&gt;" class="cls-5" d="M665,415a1.69,1.69,0,0,0-1.83-1.71l-4.54.33a2,2,0,0,0-1.83,2v17H665Z"/><polygon id="_路徑_29" data-name="&lt;路徑&gt;" class="cls-4" points="1005.81 432.61 1053.35 432.61 1053.35 276.38 1005.81 271.84 1005.81 432.61"/><path id="_路徑_30" data-name="&lt;路徑&gt;" class="cls-2" d="M1016.33,367.22l28.68,2a2.07,2.07,0,0,0,2.21-2.06V295a2.07,2.07,0,0,0-1.92-2.06l-28.69-2a2.06,2.06,0,0,0-2.2,2.06v72.16A2.07,2.07,0,0,0,1016.33,367.22Z"/><path id="_路徑_31" data-name="&lt;路徑&gt;" class="cls-2" d="M1047.22,375.51v57.1h-32.81V373.53a2.07,2.07,0,0,1,2.2-2.06l28.69,2A2.06,2.06,0,0,1,1047.22,375.51Z"/><path id="_路徑_32" data-name="&lt;路徑&gt;" class="cls-4" d="M1019.09,394.89c0-3.9,1.09-7.47,2.94-9.57l5.35-6.1c2.07-2.36,4.83-2.14,6.9.53l5.33,6.91a16.81,16.81,0,0,1,2.93,10v36h-23.45Z"/><path id="_路徑_33" data-name="&lt;路徑&gt;" class="cls-4" d="M1022.06,315.52l5.39-6c2.07-2.32,4.83-2.08,6.9.58l5.3,6.83a16.55,16.55,0,0,1,2.89,9.82v35.06a2.06,2.06,0,0,1-2.16,2.06l-19.33-.93a2.06,2.06,0,0,1-2-2.06V325C1019.09,321.15,1020.2,317.6,1022.06,315.52Z"/><path id="_路徑_34" data-name="&lt;路徑&gt;" class="cls-5" d="M1026.79,363.22l8.2.4V345.48a2,2,0,0,0-1.82-1.93l-4.54-.28a1.71,1.71,0,0,0-1.84,1.71Z"/><path id="_路徑_35" data-name="&lt;路徑&gt;" class="cls-5" d="M1026.73,415a1.69,1.69,0,0,1,1.83-1.71l4.54.33a2,2,0,0,1,1.83,2v17h-8.2Z"/><polygon id="_路徑_36" data-name="&lt;路徑&gt;" class="cls-2" points="644.46 249.01 638.33 249.6 638.33 276.38 644.46 275.8 644.46 249.01"/><rect id="_矩形_27" data-name="&lt;矩形&gt;" class="cls-2" x="685.86" y="245.06" width="6.13" height="26.78"/><circle id="_路徑_37" data-name="&lt;路徑&gt;" class="cls-2" cx="729.72" cy="190.88" r="3.31"/><circle id="_路徑_38" data-name="&lt;路徑&gt;" class="cls-2" cx="729.72" cy="185.9" r="2.72"/><circle id="_路徑_39" data-name="&lt;路徑&gt;" class="cls-2" cx="729.72" cy="181.37" r="2.17"/><rect id="_矩形_28" data-name="&lt;矩形&gt;" class="cls-2" x="728.87" y="171.48" width="1.7" height="8.86" rx="0.85" ry="0.85"/><path id="_路徑_40" data-name="&lt;路徑&gt;" class="cls-2" d="M504.09,157.1s-13.15-.3-17.53-.3-17.53.3-17.53.3a1.62,1.62,0,0,1-1.62-1.63h0a1.62,1.62,0,0,1,1.62-1.63s13.15-.29,17.53-.29,17.53.29,17.53.29a1.62,1.62,0,0,1,1.62,1.63h0A1.62,1.62,0,0,1,504.09,157.1Z"/><path id="_路徑_41" data-name="&lt;路徑&gt;" class="cls-3" d="M503.72,152.51c0-16.86-17.16-21.74-17.16-21.74s-17.16,4.88-17.16,21.74c0,.45,0,.89.06,1.33h34.2C503.7,153.4,503.72,153,503.72,152.51Z"/><circle id="_路徑_42" data-name="&lt;路徑&gt;" class="cls-2" cx="486.56" cy="129.84" r="1.73"/><circle id="_路徑_43" data-name="&lt;路徑&gt;" class="cls-2" cx="486.56" cy="127.23" r="1.42"/><circle id="_路徑_44" data-name="&lt;路徑&gt;" class="cls-2" cx="486.56" cy="124.87" r="1.13"/><rect id="_矩形_29" data-name="&lt;矩形&gt;" class="cls-2" x="486.12" y="119.71" width="0.89" height="4.62" rx="0.44" ry="0.44"/><circle id="_路徑_45" data-name="&lt;路徑&gt;" class="cls-2" cx="845.84" cy="47.2" r="5.6"/><circle id="_路徑_46" data-name="&lt;路徑&gt;" class="cls-2" cx="845.84" cy="38.77" r="4.6"/><circle id="_路徑_47" data-name="&lt;路徑&gt;" class="cls-2" cx="845.84" cy="31.13" r="3.66"/><rect id="_矩形_30" data-name="&lt;矩形&gt;" class="cls-2" x="844.4" y="14.41" width="2.87" height="14.97" rx="1.44" ry="1.44"/><rect id="_矩形_31" data-name="&lt;矩形&gt;" class="cls-2" x="845.16" y="2.04" width="1.37" height="12.03" rx="0.68" ry="0.68"/><rect id="_矩形_32" data-name="&lt;矩形&gt;" class="cls-8" x="684.78" y="244.87" width="8.29" height="0.7" rx="0.35" ry="0.35"/><path id="_路徑_48" data-name="&lt;路徑&gt;" class="cls-1" d="M692.65,244.58c0-3.65-3.72-4.71-3.72-4.71s-3.71,1.06-3.71,4.71a2.81,2.81,0,0,0,0,.29h7.4A2.83,2.83,0,0,0,692.65,244.58Z"/><circle id="_路徑_49" data-name="&lt;路徑&gt;" class="cls-2" cx="688.93" cy="239.67" r="0.37"/><circle id="_路徑_50" data-name="&lt;路徑&gt;" class="cls-8" cx="688.93" cy="239.11" r="0.31"/><circle id="_路徑_51" data-name="&lt;路徑&gt;" class="cls-2" cx="688.93" cy="238.6" r="0.24"/><rect id="_矩形_33" data-name="&lt;矩形&gt;" class="cls-8" x="688.83" y="237.48" width="0.19" height="1" rx="0.1" ry="0.1"/><rect id="_矩形_34" data-name="&lt;矩形&gt;" class="cls-2" x="643.09" y="226.01" width="6.13" height="26.78"/><rect id="_矩形_35" data-name="&lt;矩形&gt;" class="cls-8" x="641.94" y="225.82" width="8.29" height="0.7" rx="0.35" ry="0.35"/><path id="_路徑_52" data-name="&lt;路徑&gt;" class="cls-1" d="M649.8,225.53c0-3.65-3.71-4.71-3.71-4.71s-3.72,1.06-3.72,4.71a2.83,2.83,0,0,0,0,.29h7.4A2.81,2.81,0,0,0,649.8,225.53Z"/><circle id="_路徑_53" data-name="&lt;路徑&gt;" class="cls-2" cx="646.09" cy="220.62" r="0.37"/><circle id="_路徑_54" data-name="&lt;路徑&gt;" class="cls-8" cx="646.09" cy="220.06" r="0.31"/><circle id="_路徑_55" data-name="&lt;路徑&gt;" class="cls-2" cx="646.09" cy="219.55" r="0.24"/><rect id="_矩形_36" data-name="&lt;矩形&gt;" class="cls-8" x="645.99" y="218.43" width="0.19" height="1" rx="0.1" ry="0.1"/><rect id="_矩形_37" data-name="&lt;矩形&gt;" class="cls-8" x="657.95" y="236.67" width="8.29" height="0.7" rx="0.35" ry="0.35"/><path id="_路徑_56" data-name="&lt;路徑&gt;" class="cls-1" d="M665.81,236.38c0-3.65-3.71-4.71-3.71-4.71s-3.72,1.06-3.72,4.71c0,.1,0,.19,0,.29h7.41A2.81,2.81,0,0,0,665.81,236.38Z"/><circle id="_路徑_57" data-name="&lt;路徑&gt;" class="cls-2" cx="662.1" cy="231.47" r="0.37"/><circle id="_路徑_58" data-name="&lt;路徑&gt;" class="cls-8" cx="662.1" cy="230.91" r="0.31"/><circle id="_路徑_59" data-name="&lt;路徑&gt;" class="cls-2" cx="662.1" cy="230.4" r="0.24"/><rect id="_矩形_38" data-name="&lt;矩形&gt;" class="cls-8" x="662" y="229.28" width="0.19" height="1" rx="0.1" ry="0.1"/><rect id="_矩形_39" data-name="&lt;矩形&gt;" class="cls-4" x="761.2" y="213.53" width="6.13" height="26.78"/><rect id="_矩形_40" data-name="&lt;矩形&gt;" class="cls-2" x="760.12" y="213.34" width="8.29" height="0.7" rx="0.35" ry="0.35"/><g id="_群組_2" data-name="&lt;群組&gt;"><path id="_路徑_60" data-name="&lt;路徑&gt;" class="cls-1" d="M768,213.05c0-3.65-3.71-4.7-3.71-4.7s-3.72,1.05-3.72,4.7c0,.1,0,.2,0,.29H768C768,213.25,768,213.15,768,213.05Z"/></g><circle id="_路徑_61" data-name="&lt;路徑&gt;" class="cls-2" cx="764.27" cy="208.14" r="0.37"/><circle id="_路徑_62" data-name="&lt;路徑&gt;" class="cls-8" cx="764.27" cy="207.58" r="0.31"/><circle id="_路徑_63" data-name="&lt;路徑&gt;" class="cls-2" cx="764.27" cy="207.07" r="0.24"/><rect id="_矩形_41" data-name="&lt;矩形&gt;" class="cls-8" x="764.17" y="205.95" width="0.19" height="1" rx="0.1" ry="0.1"/><path id="_路徑_64" data-name="&lt;路徑&gt;" class="cls-8" d="M645.26,248.94l-7.59.74a.33.33,0,0,1-.37-.34h0a.42.42,0,0,1,.37-.41l7.59-.69a.3.3,0,0,1,.33.32h0A.39.39,0,0,1,645.26,248.94Z"/><path id="_路徑_65" data-name="&lt;路徑&gt;" class="cls-1" d="M645.18,248a4.76,4.76,0,0,0-3.61-4.52s-3.82,1.33-3.82,5.19c0,.1,0,.21,0,.31l7.4-.69A2.71,2.71,0,0,0,645.18,248Z"/><path id="_路徑_66" data-name="&lt;路徑&gt;" class="cls-2" d="M641.94,243.2a.41.41,0,0,1-.37.41.37.37,0,0,1-.38-.37.41.41,0,0,1,.38-.41A.36.36,0,0,1,641.94,243.2Z"/><path id="_路徑_67" data-name="&lt;路徑&gt;" class="cls-8" d="M641.88,242.63a.34.34,0,0,1-.31.33.3.3,0,0,1-.31-.3.34.34,0,0,1,.31-.34A.31.31,0,0,1,641.88,242.63Z"/><path id="_路徑_68" data-name="&lt;路徑&gt;" class="cls-2" d="M641.81,242.1a.27.27,0,0,1-.24.27.25.25,0,0,1-.25-.25.26.26,0,0,1,.25-.26A.24.24,0,0,1,641.81,242.1Z"/><path id="_路徑_69" data-name="&lt;路徑&gt;" class="cls-8" d="M641.57,241h0a.1.1,0,0,1,.1.1v.83a.11.11,0,0,1-.1.1h0a.09.09,0,0,1-.1-.09v-.84A.11.11,0,0,1,641.57,241Z"/><polygon id="_路徑_70" data-name="&lt;路徑&gt;" class="cls-2" points="1047.21 249.01 1053.35 249.6 1053.35 276.38 1047.21 275.8 1047.21 249.01"/><rect id="_矩形_42" data-name="&lt;矩形&gt;" class="cls-2" x="999.68" y="245.06" width="6.13" height="26.78" transform="translate(2005.49 516.9) rotate(180)"/><circle id="_路徑_71" data-name="&lt;路徑&gt;" class="cls-2" cx="961.96" cy="190.88" r="3.31"/><circle id="_路徑_72" data-name="&lt;路徑&gt;" class="cls-2" cx="961.96" cy="185.9" r="2.72"/><circle id="_路徑_73" data-name="&lt;路徑&gt;" class="cls-2" cx="961.96" cy="181.37" r="2.17"/><rect id="_矩形_43" data-name="&lt;矩形&gt;" class="cls-2" x="961.11" y="171.48" width="1.7" height="8.86" rx="0.85" ry="0.85" transform="translate(1923.92 351.82) rotate(-180)"/><rect id="_矩形_44" data-name="&lt;矩形&gt;" class="cls-8" x="998.6" y="244.87" width="8.29" height="0.7" rx="0.35" ry="0.35" transform="translate(2005.49 490.44) rotate(-180)"/><path id="_路徑_74" data-name="&lt;路徑&gt;" class="cls-1" d="M999,244.58c0-3.65,3.72-4.71,3.72-4.71s3.71,1.06,3.71,4.71a2.81,2.81,0,0,1,0,.29h-7.4A2.83,2.83,0,0,1,999,244.58Z"/><circle id="_路徑_75" data-name="&lt;路徑&gt;" class="cls-2" cx="1002.75" cy="239.67" r="0.37"/><circle id="_路徑_76" data-name="&lt;路徑&gt;" class="cls-8" cx="1002.75" cy="239.11" r="0.31"/><circle id="_路徑_77" data-name="&lt;路徑&gt;" class="cls-2" cx="1002.75" cy="238.6" r="0.24"/><rect id="_矩形_45" data-name="&lt;矩形&gt;" class="cls-8" x="1002.65" y="237.48" width="0.19" height="1" rx="0.1" ry="0.1" transform="translate(2005.49 475.96) rotate(-180)"/><rect id="_矩形_46" data-name="&lt;矩形&gt;" class="cls-2" x="1042.46" y="226.01" width="6.13" height="26.78" transform="translate(2091.05 478.8) rotate(180)"/><rect id="_矩形_47" data-name="&lt;矩形&gt;" class="cls-8" x="1041.44" y="225.82" width="8.29" height="0.7" rx="0.35" ry="0.35" transform="translate(2091.18 452.34) rotate(-180)"/><path id="_路徑_78" data-name="&lt;路徑&gt;" class="cls-1" d="M1041.87,225.53c0-3.65,3.72-4.71,3.72-4.71s3.71,1.06,3.71,4.71a2.81,2.81,0,0,1,0,.29h-7.4A2.83,2.83,0,0,1,1041.87,225.53Z"/><circle id="_路徑_79" data-name="&lt;路徑&gt;" class="cls-2" cx="1045.59" cy="220.62" r="0.37"/><circle id="_路徑_80" data-name="&lt;路徑&gt;" class="cls-8" cx="1045.59" cy="220.06" r="0.31"/><circle id="_路徑_81" data-name="&lt;路徑&gt;" class="cls-2" cx="1045.59" cy="219.55" r="0.24"/><rect id="_矩形_48" data-name="&lt;矩形&gt;" class="cls-8" x="1045.49" y="218.43" width="0.19" height="1" rx="0.1" ry="0.1" transform="translate(2091.18 437.86) rotate(-180)"/><rect id="_矩形_49" data-name="&lt;矩形&gt;" class="cls-8" x="1025.43" y="236.67" width="8.29" height="0.7" rx="0.35" ry="0.35" transform="translate(2059.16 474.04) rotate(180)"/><path id="_路徑_82" data-name="&lt;路徑&gt;" class="cls-1" d="M1025.87,236.38c0-3.65,3.71-4.71,3.71-4.71s3.72,1.06,3.72,4.71a2.83,2.83,0,0,1,0,.29h-7.4A2.81,2.81,0,0,1,1025.87,236.38Z"/><circle id="_路徑_83" data-name="&lt;路徑&gt;" class="cls-2" cx="1029.58" cy="231.47" r="0.37"/><circle id="_路徑_84" data-name="&lt;路徑&gt;" class="cls-8" cx="1029.58" cy="230.91" r="0.31"/><circle id="_路徑_85" data-name="&lt;路徑&gt;" class="cls-2" cx="1029.58" cy="230.4" r="0.24"/><rect id="_矩形_50" data-name="&lt;矩形&gt;" class="cls-8" x="1029.48" y="229.28" width="0.19" height="1" rx="0.1" ry="0.1" transform="translate(2059.16 459.56) rotate(180)"/><rect id="_矩形_51" data-name="&lt;矩形&gt;" class="cls-4" x="924.35" y="213.53" width="6.13" height="26.78" transform="translate(1854.83 453.85) rotate(180)"/><rect id="_矩形_52" data-name="&lt;矩形&gt;" class="cls-2" x="923.27" y="213.34" width="8.29" height="0.7" rx="0.35" ry="0.35" transform="translate(1854.83 427.39) rotate(180)"/><g id="_群組_3" data-name="&lt;群組&gt;"><path id="_路徑_86" data-name="&lt;路徑&gt;" class="cls-1" d="M923.7,213.05c0-3.65,3.71-4.7,3.71-4.7s3.72,1.05,3.72,4.7c0,.1,0,.2,0,.29h-7.41A2.71,2.71,0,0,1,923.7,213.05Z"/></g><circle id="_路徑_87" data-name="&lt;路徑&gt;" class="cls-2" cx="927.41" cy="208.14" r="0.37"/><circle id="_路徑_88" data-name="&lt;路徑&gt;" class="cls-8" cx="927.41" cy="207.58" r="0.31"/><circle id="_路徑_89" data-name="&lt;路徑&gt;" class="cls-2" cx="927.41" cy="207.07" r="0.24"/><rect id="_矩形_53" data-name="&lt;矩形&gt;" class="cls-8" x="927.32" y="205.95" width="0.19" height="1" rx="0.1" ry="0.1" transform="translate(1854.83 412.91) rotate(180)"/><path id="_路徑_90" data-name="&lt;路徑&gt;" class="cls-8" d="M1046.42,248.94l7.59.74a.33.33,0,0,0,.37-.34h0a.43.43,0,0,0-.37-.41l-7.59-.69a.3.3,0,0,0-.33.32h0A.39.39,0,0,0,1046.42,248.94Z"/><path id="_路徑_91" data-name="&lt;路徑&gt;" class="cls-1" d="M1046.5,248a4.76,4.76,0,0,1,3.61-4.52s3.81,1.33,3.81,5.19c0,.1,0,.21,0,.31l-7.4-.69A2.71,2.71,0,0,1,1046.5,248Z"/><path id="_路徑_92" data-name="&lt;路徑&gt;" class="cls-2" d="M1049.74,243.2a.41.41,0,0,0,.37.41.36.36,0,0,0,.37-.37.41.41,0,0,0-.37-.41A.36.36,0,0,0,1049.74,243.2Z"/><path id="_路徑_93" data-name="&lt;路徑&gt;" class="cls-8" d="M1049.8,242.63a.34.34,0,0,0,.31.33.3.3,0,0,0,.31-.3.34.34,0,0,0-.31-.34A.31.31,0,0,0,1049.8,242.63Z"/><path id="_路徑_94" data-name="&lt;路徑&gt;" class="cls-2" d="M1049.86,242.1a.27.27,0,0,0,.25.27.25.25,0,0,0,.24-.25.26.26,0,0,0-.24-.26A.24.24,0,0,0,1049.86,242.1Z"/><path id="_路徑_95" data-name="&lt;路徑&gt;" class="cls-8" d="M1050.11,241h0a.1.1,0,0,0-.1.1v.83a.11.11,0,0,0,.1.1h0c.05,0,.09,0,.09-.09v-.84A.1.1,0,0,0,1050.11,241Z"/><circle id="_路徑_96" data-name="&lt;路徑&gt;" class="cls-2" cx="845.84" cy="15.11" r="3.26"/><circle id="_路徑_97" data-name="&lt;路徑&gt;" class="cls-2" cx="845.84" cy="2.04" r="2.04"/><path id="_路徑_98" data-name="&lt;路徑&gt;" class="cls-9" d="M851.71,2.6A5.87,5.87,0,0,1,840,2.6"/><polygon id="_路徑_99" data-name="&lt;路徑&gt;" class="cls-3" points="510.1 432.61 463.02 432.61 472.1 187.5 501.02 187.5 510.1 432.61"/><path id="_路徑_100" data-name="&lt;路徑&gt;" class="cls-1" d="M507.92,358.84s-14.34-.75-21.36-.75-21.36.75-21.36.75a3.31,3.31,0,0,1-3.31-3.3h0a3.31,3.31,0,0,1,3.31-3.31s14.34-.76,21.36-.76,21.36.76,21.36.76a3.31,3.31,0,0,1,3.31,3.31h0A3.31,3.31,0,0,1,507.92,358.84Z"/><path id="_路徑_101" data-name="&lt;路徑&gt;" class="cls-1" d="M504.33,276.3s-13.1-.27-17.77-.27-17.77.27-17.77.27a3.31,3.31,0,0,1-3.31-3.31h0a3.31,3.31,0,0,1,3.31-3.3s13.11-.28,17.77-.28,17.77.28,17.77.28a3.31,3.31,0,0,1,3.31,3.3h0A3.31,3.31,0,0,1,504.33,276.3Z"/><path id="_路徑_102" data-name="&lt;路徑&gt;" class="cls-1" d="M501.87,193.76s-11.14-.35-15.31-.35-15.31.35-15.31.35a3.31,3.31,0,0,1-3.31-3.31h0a3.31,3.31,0,0,1,3.31-3.3s11.14-.36,15.31-.36,15.31.36,15.31.36a3.31,3.31,0,0,1,3.31,3.3h0A3.31,3.31,0,0,1,501.87,193.76Z"/><rect id="_矩形_54" data-name="&lt;矩形&gt;" class="cls-4" x="557.12" y="227.62" width="3.21" height="23.84"/><rect id="_矩形_55" data-name="&lt;矩形&gt;" class="cls-4" x="564.38" y="227.62" width="3.21" height="23.84"/><rect id="_矩形_56" data-name="&lt;矩形&gt;" class="cls-4" x="571.64" y="227.62" width="3.21" height="23.84"/><rect id="_矩形_57" data-name="&lt;矩形&gt;" class="cls-4" x="578.9" y="227.62" width="3.21" height="23.84"/><path id="_路徑_103" data-name="&lt;路徑&gt;" class="cls-2" d="M583.93,228.19s-10.74-.23-14.32-.23-14.31.23-14.31.23a1.29,1.29,0,0,1-1.33-1.26h0a1.29,1.29,0,0,1,1.33-1.25s10.73-.23,14.31-.23,14.32.23,14.32.23a1.29,1.29,0,0,1,1.32,1.25h0A1.29,1.29,0,0,1,583.93,228.19Z"/><path id="_路徑_104" data-name="&lt;路徑&gt;" class="cls-3" d="M583.62,224.66c0-13-14-16.74-14-16.74s-14,3.76-14,16.74c0,.34,0,.68,0,1h27.94C583.61,225.34,583.62,225,583.62,224.66Z"/><ellipse id="_路徑_105" data-name="&lt;路徑&gt;" class="cls-2" cx="569.61" cy="207.2" rx="1.41" ry="1.33"/><ellipse id="_路徑_106" data-name="&lt;路徑&gt;" class="cls-2" cx="569.61" cy="205.2" rx="1.16" ry="1.09"/><ellipse id="_路徑_107" data-name="&lt;路徑&gt;" class="cls-2" cx="569.61" cy="203.38" rx="0.92" ry="0.87"/><rect id="_矩形_58" data-name="&lt;矩形&gt;" class="cls-2" x="569.25" y="199.41" width="0.72" height="3.56" rx="0.35" ry="0.35"/><polygon id="_路徑_108" data-name="&lt;路徑&gt;" class="cls-3" points="588.83 440.15 550.39 440.15 557.8 251.46 581.42 251.46 588.83 440.15"/><path id="_路徑_109" data-name="&lt;路徑&gt;" class="cls-1" d="M587.06,383.36s-11.71-.58-17.45-.58-17.45.58-17.45.58a2.63,2.63,0,0,1-2.7-2.54h0a2.63,2.63,0,0,1,2.7-2.55s11.72-.58,17.45-.58,17.45.58,17.45.58a2.63,2.63,0,0,1,2.7,2.55h0A2.63,2.63,0,0,1,587.06,383.36Z"/><path id="_路徑_110" data-name="&lt;路徑&gt;" class="cls-1" d="M584.12,319.82s-10.7-.21-14.51-.21-14.51.21-14.51.21a2.63,2.63,0,0,1-2.7-2.54h0a2.63,2.63,0,0,1,2.7-2.55s10.7-.21,14.51-.21,14.51.21,14.51.21a2.63,2.63,0,0,1,2.71,2.55h0A2.63,2.63,0,0,1,584.12,319.82Z"/><path id="_路徑_111" data-name="&lt;路徑&gt;" class="cls-1" d="M582.12,256.28S573,256,569.61,256s-12.5.27-12.5.27a2.63,2.63,0,0,1-2.71-2.55h0a2.63,2.63,0,0,1,2.71-2.54s9.09-.28,12.5-.28,12.51.28,12.51.28a2.63,2.63,0,0,1,2.7,2.54h0A2.63,2.63,0,0,1,582.12,256.28Z"/><rect id="_矩形_59" data-name="&lt;矩形&gt;" class="cls-4" x="1216.49" y="156.53" width="3.93" height="30.97" transform="translate(2436.9 344.03) rotate(180)"/><rect id="_矩形_60" data-name="&lt;矩形&gt;" class="cls-4" x="1207.6" y="156.53" width="3.93" height="30.97" transform="translate(2419.12 344.03) rotate(180)"/><rect id="_矩形_61" data-name="&lt;矩形&gt;" class="cls-4" x="1198.71" y="156.53" width="3.93" height="30.97" transform="translate(2401.35 344.03) rotate(180)"/><rect id="_矩形_62" data-name="&lt;矩形&gt;" class="cls-4" x="1189.82" y="156.53" width="3.93" height="30.97" transform="translate(2383.57 344.03) rotate(180)"/><path id="_路徑_112" data-name="&lt;路徑&gt;" class="cls-2" d="M1187.59,157.1s13.15-.3,17.53-.3,17.53.3,17.53.3a1.63,1.63,0,0,0,1.62-1.63h0a1.63,1.63,0,0,0-1.62-1.63s-13.15-.29-17.53-.29-17.53.29-17.53.29a1.63,1.63,0,0,0-1.63,1.63h0A1.63,1.63,0,0,0,1187.59,157.1Z"/><path id="_路徑_113" data-name="&lt;路徑&gt;" class="cls-3" d="M1188,152.51c0-16.86,17.16-21.74,17.16-21.74s17.16,4.88,17.16,21.74c0,.45,0,.89-.06,1.33H1188C1188,153.4,1188,153,1188,152.51Z"/><circle id="_路徑_114" data-name="&lt;路徑&gt;" class="cls-2" cx="1205.12" cy="129.84" r="1.73"/><circle id="_路徑_115" data-name="&lt;路徑&gt;" class="cls-2" cx="1205.12" cy="127.23" r="1.42"/><circle id="_路徑_116" data-name="&lt;路徑&gt;" class="cls-2" cx="1205.12" cy="124.87" r="1.13"/><rect id="_矩形_63" data-name="&lt;矩形&gt;" class="cls-2" x="1204.67" y="119.71" width="0.89" height="4.62" rx="0.44" ry="0.44" transform="translate(2410.24 244.05) rotate(180)"/><polygon id="_路徑_117" data-name="&lt;路徑&gt;" class="cls-3" points="1181.58 432.61 1228.65 432.61 1219.58 187.5 1190.66 187.5 1181.58 432.61"/><path id="_路徑_118" data-name="&lt;路徑&gt;" class="cls-1" d="M1183.76,358.84s14.34-.75,21.36-.75,21.36.75,21.36.75a3.31,3.31,0,0,0,3.31-3.3h0a3.31,3.31,0,0,0-3.31-3.31s-14.34-.76-21.36-.76-21.36.76-21.36.76a3.31,3.31,0,0,0-3.31,3.31h0A3.31,3.31,0,0,0,1183.76,358.84Z"/><path id="_路徑_119" data-name="&lt;路徑&gt;" class="cls-1" d="M1187.35,276.3s13.1-.27,17.77-.27,17.77.27,17.77.27a3.31,3.31,0,0,0,3.31-3.31h0a3.31,3.31,0,0,0-3.31-3.3s-13.11-.28-17.77-.28-17.77.28-17.77.28A3.31,3.31,0,0,0,1184,273h0A3.31,3.31,0,0,0,1187.35,276.3Z"/><path id="_路徑_120" data-name="&lt;路徑&gt;" class="cls-1" d="M1189.81,193.76s11.14-.35,15.31-.35,15.31.35,15.31.35a3.31,3.31,0,0,0,3.31-3.31h0a3.31,3.31,0,0,0-3.31-3.3s-11.14-.36-15.31-.36-15.31.36-15.31.36a3.31,3.31,0,0,0-3.31,3.3h0A3.31,3.31,0,0,0,1189.81,193.76Z"/><rect id="_矩形_64" data-name="&lt;矩形&gt;" class="cls-4" x="1131.35" y="227.62" width="3.21" height="23.84" transform="translate(2265.91 479.08) rotate(180)"/><rect id="_矩形_65" data-name="&lt;矩形&gt;" class="cls-4" x="1124.09" y="227.62" width="3.21" height="23.84" transform="translate(2251.39 479.08) rotate(180)"/><rect id="_矩形_66" data-name="&lt;矩形&gt;" class="cls-4" x="1116.83" y="227.62" width="3.21" height="23.84" transform="translate(2236.87 479.08) rotate(180)"/><rect id="_矩形_67" data-name="&lt;矩形&gt;" class="cls-4" x="1109.57" y="227.62" width="3.21" height="23.84" transform="translate(2222.36 479.08) rotate(180)"/><path id="_路徑_121" data-name="&lt;路徑&gt;" class="cls-2" d="M1107.75,228.19s10.74-.23,14.32-.23,14.31.23,14.31.23a1.29,1.29,0,0,0,1.33-1.26h0a1.29,1.29,0,0,0-1.33-1.25s-10.73-.23-14.31-.23-14.32.23-14.32.23a1.29,1.29,0,0,0-1.33,1.25h0A1.3,1.3,0,0,0,1107.75,228.19Z"/><path id="_路徑_122" data-name="&lt;路徑&gt;" class="cls-3" d="M1108.05,224.66c0-13,14-16.74,14-16.74s14,3.76,14,16.74c0,.34,0,.68,0,1H1108.1C1108.07,225.34,1108.05,225,1108.05,224.66Z"/><ellipse id="_路徑_123" data-name="&lt;路徑&gt;" class="cls-2" cx="1122.07" cy="207.2" rx="1.41" ry="1.33"/><ellipse id="_路徑_124" data-name="&lt;路徑&gt;" class="cls-2" cx="1122.07" cy="205.2" rx="1.16" ry="1.09"/><ellipse id="_路徑_125" data-name="&lt;路徑&gt;" class="cls-2" cx="1122.07" cy="203.38" rx="0.92" ry="0.87"/><rect id="_矩形_68" data-name="&lt;矩形&gt;" class="cls-2" x="1121.7" y="199.41" width="0.72" height="3.56" rx="0.35" ry="0.35" transform="translate(2244.13 402.37) rotate(180)"/><polygon id="_路徑_126" data-name="&lt;路徑&gt;" class="cls-3" points="1102.85 440.15 1141.29 440.15 1133.88 251.46 1110.26 251.46 1102.85 440.15"/><path id="_路徑_127" data-name="&lt;路徑&gt;" class="cls-1" d="M1104.62,383.36s11.71-.58,17.45-.58,17.44.58,17.44.58a2.63,2.63,0,0,0,2.71-2.54h0a2.63,2.63,0,0,0-2.71-2.55s-11.71-.58-17.44-.58-17.45.58-17.45.58a2.63,2.63,0,0,0-2.7,2.55h0A2.63,2.63,0,0,0,1104.62,383.36Z"/><path id="_路徑_128" data-name="&lt;路徑&gt;" class="cls-1" d="M1107.55,319.82s10.71-.21,14.52-.21,14.51.21,14.51.21a2.63,2.63,0,0,0,2.7-2.54h0a2.63,2.63,0,0,0-2.7-2.55s-10.7-.21-14.51-.21-14.52.21-14.52.21a2.63,2.63,0,0,0-2.7,2.55h0A2.63,2.63,0,0,0,1107.55,319.82Z"/><path id="_路徑_129" data-name="&lt;路徑&gt;" class="cls-1" d="M1109.56,256.28s9.1-.27,12.51-.27,12.5.27,12.5.27a2.63,2.63,0,0,0,2.71-2.55h0a2.63,2.63,0,0,0-2.71-2.54s-9.1-.28-12.5-.28-12.51.28-12.51.28a2.63,2.63,0,0,0-2.7,2.54h0A2.63,2.63,0,0,0,1109.56,256.28Z"/><path id="_矩形_69" data-name="&lt;矩形&gt;" class="cls-7" d="M456.06,432.61h779.56a7.78,7.78,0,0,1,7.78,7.78v53.94a4,4,0,0,1-4,4H452.3a4,4,0,0,1-4-4V440.4A7.78,7.78,0,0,1,456.06,432.61Z"/></g><ellipse id="_路徑_130" data-name="&lt;路徑&gt;" class="cls-1" cx="294.62" cy="464.54" rx="15" ry="9.5"/><ellipse id="_路徑_131" data-name="&lt;路徑&gt;" class="cls-1" cx="370.62" cy="595.54" rx="7" ry="4.5"/><ellipse id="_路徑_132" data-name="&lt;路徑&gt;" class="cls-1" cx="34.18" cy="537.17" rx="34.18" ry="18.63"/></g></svg>