<svg xmlns="http://www.w3.org/2000/svg" viewBox="0 0 175.23 222.32"><defs><style>.cls-1{fill:#6ed8e6;}.cls-2{fill:#ffabb7;}.cls-3{fill:#fff;}</style></defs><title>holi_man2</title><g id="work2"><path id="_路徑_" data-name="&lt;路徑&gt;" class="cls-1" d="M87.56,96.27s0-36.17,13.67-60.84,36.33-39,44.33-34.66-.66,11.66,1.67,15,28.33-4.34,28,8-81.67,56-87.67,79.66Z"/><g id="_群組_" data-name="&lt;群組&gt;"><path class="cls-2" d="M60.59,221.7A7.57,7.57,0,0,1,54.7,219c-1.93-2.67-2.14-9.28-2.28-13.66a23.94,23.94,0,0,0-.22-3.4c-.27-.74-.44-.93-1.32-.93a18.77,18.77,0,0,0-2.15.19c-1.59.2-2.66,9.67-2.75,18.32a.5.5,0,0,1-.25.43,12.68,12.68,0,0,1-5.95,1.55c-3.29,0-7.87-1.51-11-8.72-4.47-10.26-1.44-33.57.07-43.12a1.1,1.1,0,0,0-.25-.92,1.17,1.17,0,0,0-.91-.42,1.08,1.08,0,0,0-.78.33C22.19,173.21,13.35,180.86,7,180.86H7c-2.75,0-4.77-1.39-6-4.14-6.11-13.5,34-36.66,35.71-37.64.4-.14,30.86-10.59,33.76-22.43,2.1-8.55,9.28-18.1,15.76-18.1,1.83,0,4.44.81,6.42,4.66,5.12,9.94-15.53,39.39-22,48.18a3.88,3.88,0,0,0-.72,2.82c.85,6.22,3.51,28,2.13,47.84C70.87,219.78,63.64,221.7,60.59,221.7Z"/><path class="cls-3" d="M86.25,99.05c2.28,0,4.39,1.3,6,4.38,5.08,9.88-16.8,40.66-21.94,47.66a4.33,4.33,0,0,0-.81,3.19c.85,6.24,3.5,28,2.12,47.74-1,15.12-6.54,19.18-11,19.18a7.05,7.05,0,0,1-5.49-2.49c-2.62-3.63-1.93-15.57-2.43-16.94a1.55,1.55,0,0,0-1.79-1.26,17.87,17.87,0,0,0-2.21.2c-3,.37-3.19,18.81-3.19,18.81a12.29,12.29,0,0,1-5.7,1.48c-3.4,0-7.6-1.65-10.55-8.42-4.38-10-1.52-32.61.1-42.84a1.65,1.65,0,0,0-1.65-1.92,1.6,1.6,0,0,0-1.13.47C21.71,173,13.13,180.36,7,180.36c-2.34,0-4.31-1.09-5.56-3.84-6-13.25,35.5-37,35.5-37S68,129,71,116.77c2.17-8.86,9.31-17.72,15.27-17.72m0-1c-6.91,0-14.1,9.74-16.24,18.48-2.84,11.58-33.05,21.94-33.35,22l-.18.08a189,189,0,0,0-20.12,13.61C3.18,162.66-2.13,171,.57,176.93A6.82,6.82,0,0,0,7,181.36c6.16,0,14.39-6.72,20.2-12.35a.61.61,0,0,1,.44-.19.71.71,0,0,1,.53.24.6.6,0,0,1,.13.52C26.46,181.49,24,203,28.31,213c3.25,7.45,8,9,11.47,9A13.31,13.31,0,0,0,46,220.38a1,1,0,0,0,.49-.85c.09-8.92,1.17-17.05,2.35-17.84a19.56,19.56,0,0,1,2.05-.18c.63,0,.63,0,.85.6.09.32.14,1.88.19,3.25.14,4.44.35,11.14,2.37,13.93a8,8,0,0,0,6.3,2.91c3.19,0,10.75-2,12-20.11,1.38-19.86-1.28-41.72-2.13-48a3.34,3.34,0,0,1,.63-2.46c6.49-8.84,27.27-38.5,22-48.7-2.1-4.08-4.9-4.93-6.87-4.93Z"/></g><g id="_群組_2" data-name="&lt;群組&gt;"><g id="_群組_3" data-name="&lt;群組&gt;"><path class="cls-1" d="M56.23,177.77c-3.5,4.75,5.5,14.75,0,17.5a10.66,10.66,0,0,0-5,5.26c.83.07,1.13.42,1.43,1.24.5,1.37-.19,13.31,2.43,16.94S70,225.39,71.6,202a224.26,224.26,0,0,0-.46-32.16C65.78,169.41,59,174,56.23,177.77Z"/></g><g id="_群組_4" data-name="&lt;群組&gt;"><path class="cls-1" d="M22.35,157.39c4-2.72,3.83-7.75,3.31-10.69a144.72,144.72,0,0,0-11.86,9C15.81,157.73,18.93,159.72,22.35,157.39Z"/></g><g id="_群組_5" data-name="&lt;群組&gt;"><path class="cls-1" d="M92.23,103.43c-3.3-6.41-8.83-5.09-13.5-.5a4.67,4.67,0,0,0,2.58,3.92c5,2.83,4.5,5.08,3.75,9.17a4.57,4.57,0,0,0,3.66,5.3C92.19,114,94.16,107.19,92.23,103.43Z"/></g></g><g id="_群組_6" data-name="&lt;群組&gt;"><circle class="cls-2" cx="48.86" cy="120.06" r="26.5"/><path class="cls-3" d="M48.86,94.06a26,26,0,1,1-26,26,26,26,0,0,1,26-26m0-1a27,27,0,1,0,27,27,27,27,0,0,0-27-27Z"/></g><g id="_群組_7" data-name="&lt;群組&gt;"><g id="_群組_8" data-name="&lt;群組&gt;"><path class="cls-1" d="M50.24,94.1c3,1.78,5.5,4.94,3.61,10.54-3.87,11.5-4.25,17.13,4.88,20.75,8.21,3.26,12.35,5.12,10.28,11.1A26,26,0,0,0,50.24,94.1Z"/></g><g id="_群組_9" data-name="&lt;群組&gt;"><path class="cls-1" d="M34.48,126.39c-2.93-3.71-7.9-2.73-11.16-1.5a25.93,25.93,0,0,0,7.84,14.21C33.53,136.58,38,130.84,34.48,126.39Z"/></g></g></g></svg>