<svg id="bg1" xmlns="http://www.w3.org/2000/svg" viewBox="0 0 1535.83 566.83"><defs><style>.cls-1{fill:#ffabb7;}.cls-2{fill:#fff;}.cls-3{fill:#6ed8e6;}.cls-4{fill:#ffd557;}</style></defs><title>holi_index_bg</title><g id="_群組_" data-name="&lt;群組&gt;"><path class="cls-1" d="M70.89,564.68a2,2,0,0,1-2-1.78c-5.57-50.13,11.3-119.81,13.76-129.58-24.25-23.16-45.83-53.13-60.82-84.53-12.71-26.62-19.58-52-17.93-66.34,2.07-18,24.2-32,41.85-32,10.38,0,17.33,5.05,19.09,13.84,4.57,22.83,26.29,80.2,29.51,88.64l102.22,19.33c24.26-12.87,30.76-48.69,36.5-80.33,2.81-15.46,5.46-30.06,10-40.29,5.74-13,16.47-20.71,28.7-20.71,18.09,0,34.21,16.32,41.06,41.57,12.34,45.44-57.89,136.64-65.76,146.66,15.62,65.33,11.87,142.85,11.83,143.63a2,2,0,0,1-2,1.9Z"/><path class="cls-2" d="M271.76,232.92c15.22,0,31.76,12.93,39.13,40.09,12.67,46.67-66,145.67-66,145.67,16,66,12,144,12,144h-186c-6-54,14-130,14-130-55-52-82-124-79-150,2-17.06,23.72-30.24,39.87-30.24,8.48,0,15.41,3.63,17.13,12.24,5,25,30,90,30,90l104,19.66c38-19.33,34.4-91.15,48-121.9,5.69-12.85,15.94-19.52,26.87-19.52m0-4h0c-13.05,0-24.46,8.19-30.53,21.9-4.62,10.44-7.29,25.16-10.11,40.75-5.61,30.91-12,65.88-34.86,78.58l-100.43-19c-4.29-11.29-24.64-65.38-29-87.27-2-9.82-9.63-15.45-21.05-15.45-18.47,0-41.65,14.76-43.84,33.78C.23,296.87,7.17,322.71,20,349.65,35,380.9,56.35,410.75,80.44,434c-3.35,13.35-19,79.66-13.52,129.17a4,4,0,0,0,4,3.56h186a4,4,0,0,0,4-3.8c0-.78,3.77-77.85-11.66-143.26a564.21,564.21,0,0,0,36.85-54.24c24.57-41.55,34.22-73,28.67-93.42-3.64-13.41-9.77-24.5-17.72-32.07-7.42-7.07-16.4-11-25.27-11Z"/></g><path id="_路徑_" data-name="&lt;路徑&gt;" class="cls-3" d="M5.67,202.68c-15.13-29.34,61.89-57,70.22-43s-8.33,24-5.66,36,20.66,16,13.33,22.34S25.77,241.68,5.67,202.68Z"/><path id="_路徑_2" data-name="&lt;路徑&gt;" class="cls-4" d="M248.89,140.68c.42-12.5-42.5-73-22.5-118s30-11,32.5,0,10,53.28,22,54,.64-22.59,12.57-16,46.93,69.54,37.43,82.54-21.5.51-21,12.75,13.5,26.25,13,32.25-9.87,6.87-19.75,6-10,3.25-11.87,5-13.88-5.63-15.75-4.13,1.37,4-3,4.4-43-29.15-42.25-45.52S248.52,151.93,248.89,140.68Z"/><g id="_群組_2" data-name="&lt;群組&gt;"><g id="_群組_3" data-name="&lt;群組&gt;"><path class="cls-4" d="M275.39,268.18c-5.5,29-8.5,42,4.5,51,7.07,4.89,16.93,3.13,24.47.51,6.65-17.4,10-34,6.53-46.68-9.8-36.13-35.83-47.07-53.4-35.9C267.27,241.74,278.66,250.94,275.39,268.18Z"/></g><g id="_群組_4" data-name="&lt;群組&gt;"><path class="cls-3" d="M38.39,361.18c2-14.5-1-38,9.5-39.5,9.46-1.36,21.77,10.28,33.26,1.25C73.93,302.76,65.56,278,62.89,264.68c-5-25-54-8-57,18-1.86,16.15,7.86,50.06,28.68,85.9A11.94,11.94,0,0,0,38.39,361.18Z"/></g></g><g id="_群組_5" data-name="&lt;群組&gt;"><circle class="cls-1" cx="160.39" cy="329.18" r="86.5"/><path class="cls-2" d="M160.39,244.68a84.5,84.5,0,1,1-84.5,84.5,84.5,84.5,0,0,1,84.5-84.5m0-4a88.5,88.5,0,1,0,88.5,88.5,88.6,88.6,0,0,0-88.5-88.5Z"/></g><g id="_群組_6" data-name="&lt;群組&gt;"><g id="_群組_7" data-name="&lt;群組&gt;"><path class="cls-4" d="M160.39,244.68a84,84,0,0,0-40,10.06c-2.55,12.38-3.69,29.13,6.51,35.44,17,10.5,36.69,4.5,37.09,17.5s-9.59,30,5.91,41,53.5-1.5,61,10c1.85,2.83,3.52,5.73,5,8.48a84.49,84.49,0,0,0-75.48-122.48Z"/></g><g id="_群組_8" data-name="&lt;群組&gt;"><path class="cls-4" d="M132.55,362.18c-10.57-2-10.83,12.75-8.16,16.5,2.07,2.9,9,4.5,14.27,0S143.13,364.18,132.55,362.18Z"/></g></g><g id="_群組_9" data-name="&lt;群組&gt;"><path id="_路徑_3" data-name="&lt;路徑&gt;" class="cls-1" d="M418,564.68a2,2,0,0,1-2-1.76c-.05-.42-5.2-42.64-1.91-87.07,1.94-26.19,6.38-48,13.21-65,8.67-21.46,21.25-35,37.38-40.36a77.9,77.9,0,0,1,24.38-4.18c27.92,0,50.61,17.41,67.46,51.75,16.58,33.8,26.66,82.41,30,144.46a2,2,0,0,1-.54,1.48,2,2,0,0,1-1.45.63Z"/><path id="_複合路徑_" data-name="&lt;複合路徑&gt;" class="cls-2" d="M489.07,368.36c54.47,0,88.83,70.24,95.42,194.32H418s-20.85-167.74,47.32-190.24a75.6,75.6,0,0,1,23.75-4.08m0-4v0a80.05,80.05,0,0,0-25,4.28c-16.72,5.52-29.71,19.49-38.61,41.52-6.91,17.09-11.4,39.14-13.35,65.54-3.31,44.62,1.86,87.05,1.92,87.47a4,4,0,0,0,4,3.51H584.49a4,4,0,0,0,2.9-1.25,4,4,0,0,0,1.09-3c-3.31-62.32-13.45-111.18-30.16-145.23-8.38-17.1-18.42-30.26-29.84-39.12a63,63,0,0,0-39.41-13.75Z"/></g><g id="_群組_10" data-name="&lt;群組&gt;"><circle id="_路徑_4" data-name="&lt;路徑&gt;" class="cls-1" cx="485.39" cy="319.18" r="89.5"/><path id="_複合路徑_2" data-name="&lt;複合路徑&gt;" class="cls-2" d="M485.39,231.68a87.5,87.5,0,1,1-87.5,87.5,87.49,87.49,0,0,1,87.5-87.5m0-4a91.5,91.5,0,1,0,91.5,91.5,91.6,91.6,0,0,0-91.5-91.5Z"/></g><g id="_群組_11" data-name="&lt;群組&gt;"><path id="_路徑_5" data-name="&lt;路徑&gt;" class="cls-1" d="M498.18,451.52c-8.9,0-19.22-6.48-30.68-19.25a1.87,1.87,0,0,1-.27-.4c-3.49-6.58-85-161.53-49.2-200.3,9.26-10,21-15.55,33.1-15.55,19.48,0,41.05,14.89,45.35,48.17,5.84,45.32,21.65,147.15,25.41,158.62a2,2,0,0,1,.07,1C521.75,424.93,516.6,451.52,498.18,451.52Z"/><path id="_複合路徑_3" data-name="&lt;複合路徑&gt;" class="cls-2" d="M451.13,218c20.24,0,39.48,16.31,43.36,46.42,6,46.5,21.78,147.63,25.5,159,0,0-4.84,26.08-21.81,26.08-7.3,0-16.83-4.82-29.19-18.59,0,0-84.75-159.83-49.49-198,9.3-10.07,20.62-14.9,31.63-14.9m0-4v0h0c-12.65,0-24.93,5.75-34.57,16.19-15.73,17-12.13,56.55,10.72,117.44a831.85,831.85,0,0,0,38.18,85.16,4,4,0,0,0,.56.8c12,13.4,22.54,19.91,32.16,19.91,20.07,0,25.52-28.16,25.74-29.35a3.92,3.92,0,0,0-.13-2c-3.42-10.44-19.09-109.92-25.33-158.26-1.95-15.1-7.72-27.83-16.68-36.82A43.24,43.24,0,0,0,451.13,214Z"/></g><g id="_群組_12" data-name="&lt;群組&gt;"><g id="_群組_13" data-name="&lt;群組&gt;"><path id="_路徑_6" data-name="&lt;路徑&gt;" class="cls-3" d="M445.89,229c2.34,14-4.33,27-1.66,35.67s29.33,10,30.66,27c.93,11.87,16.16,13.5,25.27,13.4-2.25-15.35-4.24-29.55-5.67-40.64-4.68-36.29-31.67-52.55-55.84-44.33C442.23,221.76,445.14,224.5,445.89,229Z"/></g></g><g id="_群組_14" data-name="&lt;群組&gt;"><g id="_群組_15" data-name="&lt;群組&gt;"><path id="_路徑_7" data-name="&lt;路徑&gt;" class="cls-3" d="M501.23,536.5c-2-17.17-38.67-24.16-47-31.49s5.66-21.67-3-33.1c-5.78-7.62-23.68-2.23-35,2.22-3.6,45.44,1.76,88.55,1.76,88.55h76.51C498.34,555.69,502.32,545.88,501.23,536.5Z"/></g><g id="_群組_16" data-name="&lt;群組&gt;"><path id="_路徑_8" data-name="&lt;路徑&gt;" class="cls-3" d="M547.64,461.93c-8.25-3.5-25.88,4.42-27.65,24-1.15,12.75,13.65,7.75,27.65,0S555.89,465.43,547.64,461.93Z"/></g></g><polygon id="_路徑_9" data-name="&lt;路徑&gt;" class="cls-1" points="463.56 434.01 470.84 430.33 515.65 423.81 525.23 422.3 519.99 456.34 490.89 465.52 463.56 434.01"/><g id="_群組_17" data-name="&lt;群組&gt;"><path id="_路徑_10" data-name="&lt;路徑&gt;" class="cls-1" d="M1255.89,564.68a2,2,0,0,1-1.92-1.43c-10.39-35,12-111.87,15.57-123.73-38.8-26-86.19-79.12-99.34-99.77-8-12.58-9.76-26.41-4.7-37,3.54-7.42,12-16.76,32.16-19.06a19.8,19.8,0,0,1,2.32-.13c34,0,75,84.55,80.24,95.54l89.86,8.59a1.06,1.06,0,0,1,.31.05c30.26,7.78,69.18,18.67,78.82,21.38,1.43-10.36,8.12-51.62,25.31-67.9,6.17-5.84,13.3-8.8,21.21-8.8,14.49,0,28.28,10.44,33.9,20.26,4.87,8.52-.19,35.6-7,57.15-9.14,29.12-21.4,50.43-32.79,57-5,2.86-11.56,4.31-19.65,4.31-23.63,0-54-12.07-65-16.81,10,32.6,14.47,105,14.67,108.21a2,2,0,0,1-2,2.13Z"/><path id="_複合路徑_4" data-name="&lt;複合路徑&gt;" class="cls-2" d="M1200,285.56c34.71,0,78.91,95.42,78.91,95.42l91,8.7c35,9,81,22,81,22s6-51,25-69c6.24-5.91,13.12-8.27,19.84-8.27,13.74,0,26.79,9.86,32.16,19.27,8,14-14,97-39,111.43-5,2.88-11.48,4-18.65,4-28.67,0-68.35-18.47-68.35-18.47,11,30,16,112,16,112h-162c-11-37,16-124,16-124-38-25-86-78-100-100s-9-49,26-53a18.18,18.18,0,0,1,2.09-.12m0-4a23.73,23.73,0,0,0-2.54.14c-21.09,2.41-30,12.31-33.75,20.19-5.35,11.22-3.55,25.77,4.83,38.93,7.46,11.73,23.75,31.17,41.5,49.51,20.29,21,40.48,38.63,57.19,50-4.66,15.67-25.36,89.13-15.15,123.47a4,4,0,0,0,3.83,2.86h162a4,4,0,0,0,4-4.25c-.18-3.09-4.37-70.21-13.59-104.63,13.29,5.46,40.34,15.35,62,15.35,8.44,0,15.39-1.54,20.65-4.58,17-9.83,29.24-43.94,33.69-58.14,7.12-22.69,12-49.65,6.78-58.74-6-10.57-20.22-21.27-35.63-21.27a32.44,32.44,0,0,0-22.59,9.35c-16.56,15.69-23.58,53.54-25.58,66.81-12.39-3.47-48.33-13.49-76.67-20.78a4.23,4.23,0,0,0-.62-.11l-88.74-8.48a455.47,455.47,0,0,0-25.72-46.11c-21.2-32.87-40-49.54-55.83-49.54Z"/></g><path id="_路徑_11" data-name="&lt;路徑&gt;" class="cls-4" d="M1425.39,144.18c15.07-3.77-22.5-44.5-11.5-62s31,14.79,40.5,37.39,16.5,16.61,20,8.61,25.5,6.5,46.5,69.5,15.84,77.5,8.67,80-12.33,29.5-23.17,29.5c-31.1,0-43.5-83.5-63.5-107C1425.58,179.84,1401.39,150.18,1425.39,144.18Z"/><g id="_群組_18" data-name="&lt;群組&gt;"><g id="_群組_19" data-name="&lt;群組&gt;"><path id="_路徑_12" data-name="&lt;路徑&gt;" class="cls-4" d="M1406.89,529.68c-6.67,15.89-13.33,17.33-37.33,20-9.32,1-14.2,6.59-16.7,13h65s-1.14-18.75-3.54-41.59A19,19,0,0,0,1406.89,529.68Z"/></g><g id="_群組_20" data-name="&lt;群組&gt;"><path id="_路徑_13" data-name="&lt;路徑&gt;" class="cls-4" d="M1206.39,355.68c23.92,9.39,42.35.54,51.27-14.07-16.52-27.23-39.91-58.2-59.77-55.93-35,4-40,31-26,53a220.38,220.38,0,0,0,15.76,20.86C1190.69,354.44,1196.3,351.71,1206.39,355.68Z"/></g><g id="_群組_21" data-name="&lt;群組&gt;"><path id="_路徑_14" data-name="&lt;路徑&gt;" class="cls-4" d="M1527.89,353.68c-8-14-33-29-52-11-6.56,6.21-11.57,16.36-15.31,27,6.13-3,13.4-4.14,16.81,4.52,6.5,16.5,1.5,23,16,23,12.77,0,21.27-4.64,28.24,9.25C1528.65,383.09,1531.74,360.41,1527.89,353.68Z"/></g><g id="_群組_22" data-name="&lt;群組&gt;"><path id="_路徑_15" data-name="&lt;路徑&gt;" class="cls-4" d="M1304.89,497.18c0,16.5,16.5,25.5,27,18.11s11-13.61,5.5-24.5S1304.89,479,1304.89,497.18Z"/></g></g><g id="_群組_23" data-name="&lt;群組&gt;"><circle id="_路徑_16" data-name="&lt;路徑&gt;" class="cls-1" cx="1343.76" cy="331.41" r="89.5"/><path id="_複合路徑_5" data-name="&lt;複合路徑&gt;" class="cls-2" d="M1343.76,243.91a87.5,87.5,0,1,1-87.5,87.5,87.49,87.49,0,0,1,87.5-87.5m0-4a91.5,91.5,0,1,0,91.5,91.5,91.61,91.61,0,0,0-91.5-91.5Z"/></g><g id="_群組_24" data-name="&lt;群組&gt;"><g id="_群組_25" data-name="&lt;群組&gt;"><path id="_路徑_17" data-name="&lt;路徑&gt;" class="cls-3" d="M1343.76,243.91a87.27,87.27,0,0,0-30.74,5.56c-2.62,9.59-2.79,21.09,7.37,28.21,20,14,30.5-9,48,22.5,16.41,29.54,42.06,29.18,62.09,19.53A87.51,87.51,0,0,0,1343.76,243.91Z"/></g></g><g id="_群組_26" data-name="&lt;群組&gt;"><path class="cls-1" d="M988.89,447.68l-.29,0c-7.21-1.06-176.67-26.52-191.25-72.28-8-25.16-.66-40.62,4.43-47.59,6.18-8.45,15.37-13.5,24.57-13.5a21.86,21.86,0,0,1,11.6,3.2c61.73,38.29,140.29,83,158.54,83a6.59,6.59,0,0,0,1.34-.11,2.58,2.58,0,0,1,.39,0,2,2,0,0,1,1.43.6,2,2,0,0,1,.53,1.82l-9.33,43.34A2,2,0,0,1,988.89,447.68Z"/><path class="cls-2" d="M826.36,316.28a19.81,19.81,0,0,1,10.53,2.9c17.54,10.88,135.08,83.31,159.6,83.31a8.42,8.42,0,0,0,1.74-.15l-9.34,43.34s-175.27-25.82-189.63-70.91c-11.86-37.23,9.24-58.49,27.1-58.49m0-4c-9.85,0-19.64,5.35-26.19,14.32-5.32,7.28-13,23.37-4.72,49.38,3.67,11.54,16,22.17,37.78,32.5,16.55,7.86,38.49,15.43,65.21,22.52,45.3,12,89.43,18.57,89.87,18.63a3.92,3.92,0,0,0,.59.05,4,4,0,0,0,3.9-3.16l9.34-43.34a4,4,0,0,0-1.07-3.64,3.93,3.93,0,0,0-2.84-1.2,4.15,4.15,0,0,0-.79.08,5.42,5.42,0,0,1-1,.07c-5.42,0-23.07-4.81-80.46-37.06-34-19.11-67.55-39.77-77-45.65a23.91,23.91,0,0,0-12.64-3.5Z"/></g><g id="_群組_27" data-name="&lt;群組&gt;"><g id="_群組_28" data-name="&lt;群組&gt;"><path class="cls-4" d="M845.56,347.23c1-8.26,4.81-13.64,9.13-17.14-8.38-5.08-14.68-9-17.8-10.91-18-11.17-52,10.5-37.63,55.59,1.73,5.43,5.8,10.58,11.62,15.45C826.86,385.87,843.28,365.86,845.56,347.23Z"/></g></g><g id="_群組_29" data-name="&lt;群組&gt;"><path class="cls-1" d="M950.47,564.68a2,2,0,0,1-2-2c.12-6.17,3.33-151.36,30.52-181.31,9.51-10.48,22.88-15.8,39.73-15.8,20.62,0,39.09,8,40.88,8.77,1.69.55,15.72,5.67,31.9,30.28,15.34,23.33,35.76,69.66,45.88,157.87a2,2,0,0,1-.5,1.56,2,2,0,0,1-1.49.67Z"/><path class="cls-2" d="M1018.72,367.53c21,0,40.17,8.65,40.17,8.65s57,16.5,76.5,186.5H950.47s3-150.27,30-180c10.53-11.61,24.79-15.14,38.25-15.15m0-4v0c-17.45,0-31.31,5.54-41.22,16.46-11.79,13-20.59,47.78-26.15,103.44-4.09,41-4.88,78.79-4.89,79.17a4,4,0,0,0,4,4.08h184.92a4,4,0,0,0,4-4.46c-19.06-166.15-73.92-188.09-79.06-189.79-2.36-1-20.92-8.9-41.58-8.9Z"/></g><g id="_群組_30" data-name="&lt;群組&gt;"><path id="_路徑_18" data-name="&lt;路徑&gt;" class="cls-1" d="M1007.89,564.68a2,2,0,0,1-2-2c0-4.28.82-105.14,16.22-135.39,2.62-5.15,9.14-10.36,16.52-10.36,5.53,0,13.66,2.92,21,16.83,13.57,25.64,14.69,124.71,14.73,128.92a2,2,0,0,1-.58,1.42,2,2,0,0,1-1.42.6Z"/><path id="_複合路徑_6" data-name="&lt;複合路徑&gt;" class="cls-2" d="M1038.63,418.91c6,0,13,3.9,19.26,15.77,13.5,25.5,14.5,128,14.5,128h-64.5s.64-104.33,16-134.5c2.1-4.13,7.81-9.27,14.74-9.27m0-4c-8.19,0-15.41,5.76-18.3,11.45-15.62,30.67-16.41,132-16.44,136.29a4,4,0,0,0,4,4h64.5a4,4,0,0,0,4-4c0-4.23-1.17-103.78-15-129.84-7.83-14.79-16.72-17.89-22.8-17.89Z"/></g><g id="_群組_31" data-name="&lt;群組&gt;"><g id="_群組_32" data-name="&lt;群組&gt;"><path class="cls-3" d="M980.89,533.68c-11.33-11.34-4-19.34-12-39.34-2.62-6.55-7.82-9.17-13.62-9.76-4.06,41-4.8,78.1-4.8,78.1h47.76C1003.56,553,992.23,545,980.89,533.68Z"/></g><g id="_群組_33" data-name="&lt;群組&gt;"><path class="cls-3" d="M1109.44,445.24c-9.79,7.73-26.08,23.53-19.88,39.19,8.67,21.91,31.33,31,22,45.13-7.75,11.71-23.31,16-16.58,33.12h40.41C1129.38,510.28,1119.81,472.48,1109.44,445.24Z"/></g></g><g id="_群組_34" data-name="&lt;群組&gt;"><circle class="cls-1" cx="1007.89" cy="308.18" r="100.5"/><path class="cls-2" d="M1007.89,209.68a98.5,98.5,0,1,1-98.5,98.5,98.5,98.5,0,0,1,98.5-98.5m0-4a102.5,102.5,0,1,0,102.5,102.5,102.61,102.61,0,0,0-102.5-102.5Z"/></g><g id="_群組_35" data-name="&lt;群組&gt;"><g id="_群組_36" data-name="&lt;群組&gt;"><path class="cls-4" d="M1007.89,347.23c.34-17.77-17.66-20.89-31-22.89s-12.66-10-34.62-25.38c-11.8-8.28-24-2.64-32.76,4.34-.08,1.62-.12,3.24-.12,4.88A98.53,98.53,0,0,0,984.81,404C1005.23,394.12,1007.6,362.9,1007.89,347.23Z"/></g><g id="_群組_37" data-name="&lt;群組&gt;"><path class="cls-4" d="M1007.89,209.68a98.49,98.49,0,0,0-13.82,1c-1,10.09,1,23.17,13.82,33.26,24.34,19.1,43,9.43,54.34,63.27,5.5,26.16,21.56,35.83,36.62,38.85a98.55,98.55,0,0,0-91-136.35Z"/></g></g><polygon id="_路徑_19" data-name="&lt;路徑&gt;" class="cls-1" points="1009.89 447.68 1056.38 447.68 1058.63 447.86 1070.22 447.68 1068.56 410.01 1044.89 410.01 1017.23 417.34 1009.89 447.68"/><g id="_群組_38" data-name="&lt;群組&gt;"><path id="_路徑_20" data-name="&lt;路徑&gt;" class="cls-1" d="M658.93,570.63a2,2,0,0,1-1.37-.54,2,2,0,0,1-.63-1.41c-2.48-111.19,28.84-177.87,29.16-178.54A2,2,0,0,1,687.7,389l85-8.33h.19a2,2,0,0,1,1.64.85c38.88,55.33,46.07,175.93,46.36,181a2,2,0,0,1-1.92,2.11Z"/><path id="_複合路徑_7" data-name="&lt;複合路徑&gt;" class="cls-2" d="M772.89,382.68c39,55.5,46,180,46,180l-160,6c-2.5-112,29-177.62,29-177.62l85-8.33m0-4a2.55,2.55,0,0,0-.39,0l-85,8.33a4,4,0,0,0-3.22,2.25c-.32.69-8.12,17.13-15.69,47.58-7,28-15,73.57-13.66,131.86a4.06,4.06,0,0,0,1.26,2.83,4,4,0,0,0,2.74,1.08h.15l160-6a4,4,0,0,0,3.85-4.22,681.46,681.46,0,0,0-8.43-69.65c-8.9-51.1-21.78-88.92-38.3-112.42a4,4,0,0,0-3.27-1.7Z"/></g><g id="_群組_39" data-name="&lt;群組&gt;"><circle id="_路徑_21" data-name="&lt;路徑&gt;" class="cls-1" cx="722.39" cy="313.18" r="100.5"/><path id="_複合路徑_8" data-name="&lt;複合路徑&gt;" class="cls-2" d="M722.39,214.68a98.5,98.5,0,1,1-98.5,98.5,98.5,98.5,0,0,1,98.5-98.5m0-4a102.5,102.5,0,1,0,102.5,102.5,102.61,102.61,0,0,0-102.5-102.5Z"/></g><g id="_群組_40" data-name="&lt;群組&gt;"><g id="_群組_41" data-name="&lt;群組&gt;"><path id="_路徑_22" data-name="&lt;路徑&gt;" class="cls-4" d="M820.89,313.18a98.5,98.5,0,0,0-183.43-49.9,12,12,0,0,1,10.93,6.4c6.5,11.5,13.5,43.7,34.5,46.6s41.5-19.6,50.5-11.6,13,17.5,25,17.5,15,14.5,12,19-16,21.5-3,34.5c6.54,6.54,16.25,7.84,24.27,7.51A98.15,98.15,0,0,0,820.89,313.18Z"/></g></g><g id="_群組_42" data-name="&lt;群組&gt;"><path id="_路徑_23" data-name="&lt;路徑&gt;" class="cls-1" d="M776.69,473.91a100.82,100.82,0,0,1-14.08-.94C729,468.18,726,453.14,726.31,446.9c.71-15.82,21.46-31.29,43.61-32.54,4-1.05,71.09-18.7,98.38-40.9,7.11-5.79,14-12.21,20.66-18.42,16.53-15.41,32.14-30,46.67-30a21.2,21.2,0,0,1,9.48,2.23c13.25,6.57,28,24.57,29.87,43.32,1.28,13.13-3.86,24.53-14.87,33-13.68,10.49-43.37,27.91-78.83,43.2C852.58,459.16,811.14,473.91,776.69,473.91Z"/><path id="_複合路徑_9" data-name="&lt;複合路徑&gt;" class="cls-2" d="M935.63,327.08a19.1,19.1,0,0,1,8.6,2C965.56,339.68,988.89,379,958.89,402c-27.83,21.34-120.51,69.9-182.2,69.9a98.8,98.8,0,0,1-13.8-.92c-60.66-8.65-30.66-52.65,7.34-54.65,0,0,70.66-18,99.33-41.33,24.89-20.27,46.77-47.93,66.07-47.93m0-4h0c-15.31,0-30.48,14.13-48,30.49-6.64,6.19-13.5,12.59-20.57,18.34-26.6,21.65-91.91,39-97.43,40.46a57.57,57.57,0,0,0-30.73,11.17c-8.89,6.66-14.19,15.14-14.55,23.27-.22,4.81,1.18,11.81,9.07,17.89,6.48,5,16.21,8.44,28.94,10.25a101.79,101.79,0,0,0,14.36,1c34.79,0,76.51-14.83,105.38-27.28,35.62-15.35,65.47-32.88,79.26-43.45,11.58-8.88,17-20.89,15.64-34.74-2-20.18-17.42-38.21-31-44.92a23.14,23.14,0,0,0-10.37-2.44Z"/></g><polygon id="_路徑_24" data-name="&lt;路徑&gt;" class="cls-1" points="769.64 411.68 775.39 464.93 775.39 480.13 745.64 493.68 709.3 462.68 706.39 438.43 713.14 423.93 748.14 415.93 769.64 411.68"/></svg>