<svg xmlns="http://www.w3.org/2000/svg" viewBox="0 0 478.14 475.71"><defs><style>.cls-1{fill:#ffd557;}.cls-2{fill:#ffabb7;}.cls-3{fill:#fff;}</style></defs><title>holi_man1-10</title><g id="work2"><path id="_路徑_" data-name="&lt;路徑&gt;" class="cls-1" d="M143,121.78s-48-74.92-74.93-96S6.11-12.36,1.18,11.87,27.2,28.47,27.65,46,5.94,51.29.65,66.35,24.06,88.13,37.07,94.42s1.34,17.49-14.81,18.84-22.43,39.93,56.08,35c21.35-1.34,37.75-1.29,50.32-.5a16.4,16.4,0,0,0,14.29-26Z"/><g id="_群組_" data-name="&lt;群組&gt;"><path class="cls-2" d="M315.3,475c-5.14,0-12.55-2.88-18.64-16.6-13.87-31.2,11.22-181.8,19.25-227.21a9.35,9.35,0,0,0-6.79-10.69c-23.2-6.29-78.71-21.87-93.07-30.65C205.45,183.38,193,171,193,157.4c-.05-8.53,4.8-15.92,14.42-22,4.17-2.61,10-3.94,17.24-3.94,35.29,0,97.1,31.17,100.43,32.87L418.91,181a1,1,0,0,1,.73.55c43.6,89.83,43.93,199.34,43.93,200.44a1,1,0,0,1-.49.86l-63.5,37a1,1,0,0,1-.51.14,1,1,0,0,1-1-.92c-1.52-17.23-7.7-63.06-17.95-68.19a6.1,6.1,0,0,0-2.7-.72c-7,0-11,17.69-16.44,42.18-1.87,8.39-4,17.89-6.5,27.89C346.52,452,330,475,315.3,475Z"/><path class="cls-3" d="M224.63,132.51c36.27,0,100.11,32.83,100.11,32.83l94,16.67c44,90.66,43.83,200,43.83,200l-63.5,37s-5.5-62.5-18.5-69a7,7,0,0,0-3.14-.83c-10.43,0-13.81,30.61-23.91,70.83-7.61,30.32-23.71,54-38.22,54-6.54,0-12.76-4.82-17.73-16-13.91-31.32,12.27-186.7,19.32-226.63a10.4,10.4,0,0,0-7.51-11.84c-22.3-6-78.48-21.78-92.81-30.53-18-11-35.83-35.67-8.65-52.72,4.25-2.66,10-3.78,16.71-3.78m0-2c-7.46,0-13.44,1.38-17.77,4.09-9.93,6.23-14.94,13.9-14.89,22.81.08,14,12.74,26.69,23.56,33.3,14.47,8.85,70.09,24.46,93.32,30.77a8.34,8.34,0,0,1,6.07,9.55c-8,45.48-33.16,196.32-19.18,227.79C302.06,473,309.87,476,315.3,476c7.73,0,15.8-5.7,23.34-16.48,7.06-10.11,13-24,16.82-39,2.52-10,4.64-19.52,6.51-27.91,5.15-23.13,9.22-41.4,15.46-41.4a5.12,5.12,0,0,1,2.25.61c2.7,1.36,8,7.76,13.05,35.51,2.95,16.16,4.34,31.73,4.35,31.88a2,2,0,0,0,1.07,1.6,2,2,0,0,0,.92.23,1.93,1.93,0,0,0,1-.28l63.5-37a2,2,0,0,0,1-1.72c0-.28,0-27.92-5.43-66.28-5-35.42-15.76-87.53-38.6-134.6a2,2,0,0,0-1.45-1.09l-93.71-16.62c-5.16-2.63-65.24-32.91-100.75-32.91Z"/></g><g id="_群組_2" data-name="&lt;群組&gt;"><path class="cls-2" d="M439.74,278.24c-20.85,0-45.43-6.94-53.19-11.72-5.54-3.4-9.05-9.17-9.88-16.23a29.3,29.3,0,0,1,8-23.66c3.56-3.56,9.17-5.36,16.67-5.36a63.19,63.19,0,0,1,12,1.26,2.72,2.72,0,0,0,.39,0,1.82,1.82,0,0,0,1.6-1,1.9,1.9,0,0,0,0-2c-6.65-11.12-9.43-28.76-9.55-29.5a11.25,11.25,0,0,1,2.28-9.9c4.14-5.16,13.17-8.36,23.56-8.36,1.08,0,2.16,0,3.22.11,5,.33,12.11,6.92,19.54,18.08,14.28,21.44,26.14,53.94,20,71.91-3.63,10.62-15.6,16.24-34.61,16.24Z"/><path class="cls-3" d="M431.6,172.9c1,0,2.1,0,3.14.11,14.6,1,48,61.33,38.67,88.66-4,11.68-18,15.57-33.67,15.57-21.05,0-45.22-7-52.67-11.57-13-8-12-28-1.66-38.33,3.86-3.86,9.9-5.07,16-5.07a63.37,63.37,0,0,1,11.78,1.24,2.88,2.88,0,0,0,3-4.36c-6.63-11.09-9.42-29.14-9.42-29.14-2.48-11.21,11.2-17.11,24.86-17.11m0-2c-10.7,0-20,3.35-24.35,8.73a12.42,12.42,0,0,0-2.48,10.74c.22,1.38,3.06,18.73,9.67,29.8a.91.91,0,0,1,0,1,.84.84,0,0,1-.73.45l-.2,0a64.29,64.29,0,0,0-12.16-1.28c-7.78,0-13.63,1.9-17.38,5.66a30.28,30.28,0,0,0-8.31,24.47c.87,7.38,4.54,13.4,10.34,17,7.87,4.83,32.7,11.86,53.72,11.86,19.48,0,31.78-5.85,35.56-16.92,6.24-18.27-5.71-51.14-20.12-72.79-4.46-6.71-13-18-20.31-18.52-1.08-.07-2.18-.11-3.27-.11Z"/></g><g id="_群組_3" data-name="&lt;群組&gt;"><g id="_群組_4" data-name="&lt;群組&gt;"><path class="cls-1" d="M401.74,253.51c-7.44,2.6-10.34,8.95-11.46,13.82,8.45,3.84,25.39,8.46,41.89,9.63a31.46,31.46,0,0,1-5.1-8.95C423.41,258.17,414.57,249,401.74,253.51Z"/></g></g><g id="_群組_5" data-name="&lt;群組&gt;"><g id="_群組_6" data-name="&lt;群組&gt;"><path class="cls-1" d="M223.41,159.34c19.05,2,41.74-1.83,38.86-19.73-21.62-6.69-43.22-10.29-54.35-3.32-25.73,16.14-11.12,39.11,5.78,50.84C211.34,174.9,210.36,158,223.41,159.34Z"/></g><g id="_群組_7" data-name="&lt;群組&gt;"><path class="cls-1" d="M332.57,413.26c4-10,10-10.25,14.75-20.5S343.57,383,329.57,367c-8.28-9.47-22.51-2.94-32.73,4-2.37,23.79-3.74,46-3.14,62.75C310.53,441.25,329,422.32,332.57,413.26Z"/></g><g id="_群組_8" data-name="&lt;群組&gt;"><path class="cls-1" d="M353.52,294.51c-4.64,11.1,5.3,18.25,14.55,18.25s11-6.75,8-15.25S358.22,283.26,353.52,294.51Z"/></g></g><g id="_群組_9" data-name="&lt;群組&gt;"><circle class="cls-2" cx="381.16" cy="122.63" r="77.61"/><path class="cls-3" d="M381.16,46a76.61,76.61,0,1,1-76.61,76.61A76.61,76.61,0,0,1,381.16,46m0-2a78.61,78.61,0,1,0,78.61,78.61A78.69,78.69,0,0,0,381.16,44Z"/></g><g id="_群組_10" data-name="&lt;群組&gt;"><g id="_群組_11" data-name="&lt;群組&gt;"><path class="cls-1" d="M381.16,46a76.44,76.44,0,0,0-32,7c10.58,2.79,21.6,9,23.59,23,4,28,18,30,29.33,25.33S420.41,92,428.74,105c6.09,9.5,19.31,20.77,28.84,22.77.11-1.7.19-3.42.19-5.15A76.61,76.61,0,0,0,381.16,46Z"/></g></g></g></svg>