<svg xmlns="http://www.w3.org/2000/svg" viewBox="0 0 362.48 356.42"><defs><style>.cls-1{fill:#ffe491;}</style></defs><title>holi_flower_yellow</title><g id="bg4"><path id="_路徑_" data-name="&lt;路徑&gt;" class="cls-1" d="M362.13,160.43C358.85,134,333.26,115.51,305,119a53.94,53.94,0,0,0-27.17,11.37,157.27,157.27,0,0,1-36.55,21.9A14.66,14.66,0,0,1,224.05,148l-.13-.16a14.68,14.68,0,0,1-1.49-16.22A294.09,294.09,0,0,1,246.21,94.8a62.76,62.76,0,0,0,10.25-20.73C265.38,42.58,248.79,10.3,219.4,2s-60.46,10.46-69.38,42a62.1,62.1,0,0,0-.12,33.85A180.93,180.93,0,0,1,156.63,121a10.26,10.26,0,0,1-6,9.63l-.11,0a10.19,10.19,0,0,1-10.09-.91A248.33,248.33,0,0,1,89.87,82.92,54.58,54.58,0,0,0,74.44,70C49.62,56,18.91,63.44,5.85,86.6s-3.53,53.28,21.29,67.27a54,54,0,0,0,28.61,7,158.07,158.07,0,0,1,52.12,6.78,15,15,0,0,1,10.68,13.88,1.48,1.48,0,0,1,0,.21,15,15,0,0,1-11,15,223.55,223.55,0,0,1-35.19,6.65,47.79,47.79,0,0,0-16.86,5.13C33.41,220,24.14,246.05,34.86,266.72s37.36,28.12,59.5,16.64a47.38,47.38,0,0,0,18.86-17.6,137.31,137.31,0,0,1,15.37-20.86,32.74,32.74,0,0,1,33.52-9.49h0a11.87,11.87,0,0,1,7.62,6.69,247.88,247.88,0,0,1,18.41,67.38,54.8,54.8,0,0,0,6.24,19.14c13.63,25,43.61,35,67,22.27s31.23-43.32,17.6-68.34a54,54,0,0,0-20.54-21.12,157.3,157.3,0,0,1-29.2-21.56,19.47,19.47,0,0,1-2.66-25.56l.15-.21a19.72,19.72,0,0,1,16.68-8.31,251.89,251.89,0,0,1,53.42,7.59,54.4,54.4,0,0,0,20.09,1.2C345.16,211.06,365.42,186.82,362.13,160.43Z"/></g></svg>