<svg xmlns="http://www.w3.org/2000/svg" viewBox="0 0 490 703.76"><defs><style>.cls-1{fill:#ffd557;}.cls-2{fill:#ffabb7;}.cls-3{fill:#fff;}</style></defs><title>holi_man3</title><g id="work2"><path id="_路徑_" data-name="&lt;路徑&gt;" class="cls-1" d="M304.31,138.73s-10.39-24.67-34.65-39-8.41-35.64,10.89-28.95S268.14,36.85,274.35,19s24.51-29.69,44.81-5,30.68,81.79,17.32,119.35S309.15,147.74,304.31,138.73Z"/><g id="_群組_" data-name="&lt;群組&gt;"><path class="cls-2" d="M263.25,701.16c-23.33,0-55.89-4.54-77.3-17.29-39.23-23.35-37.69-58.41-36.33-89.34.13-3,.26-6,.35-8.94.54-17.54-2.5-38.42-5.15-52.86a5.92,5.92,0,0,0-6-5,5.82,5.82,0,0,0-5.31,3.27c-12.11,23.41-29.34,54-42.66,67-15.38,15-33.47,24-48.39,24h0c-12.51,0-22.83-5.81-30.66-17.28C-8.34,575.28,9.39,557.24,25,541.33c1-1,2-2.05,3-3.07,15.09-15.56,83.88-112,91.67-122.94A9.6,9.6,0,0,1,121,413.8c8.71-8.11,85.93-79.55,113.52-87.89,26.66-8.06,29.15-29.08,31.25-65.54,1-18.09,3.15-38.83,10.9-55.56,9.25-19.95,25-30.38,46.82-31l1.2,0c9.37,0,17,3.2,22.58,9.49,17.9,20.11,12.38,67.45,7.95,105.5-.62,5.39-1.22,10.47-1.71,15.24-4,38.78-40.42,83.74-55.88,101.27a6,6,0,0,0-.22,7.73c6.16,7.77,16.31,22,28.07,38.38,16.13,22.53,34.41,48.07,46,62,9,10.85,28.82,25.36,49.77,40.73,30.85,22.62,62.74,46,66.15,62.14,1.17,5.54-.18,10.74-4,15.46-10,12.29-36.88,20.24-68.55,20.24a176.36,176.36,0,0,1-31.77-2.82c-29.49-5.42-63.8-30.5-88.85-48.81-14.63-10.7-27.26-19.93-31.9-19.93a1.39,1.39,0,0,0-.53.08c-8.1,3.86-4.76,25.53,2.5,44,2.64,6.68,11.78,13.34,21.46,20.38,12.92,9.41,27.57,20.07,31.12,34.13a10.36,10.36,0,0,1-2,9.2C308.54,696.29,289.23,701.16,263.25,701.16Z"/><path class="cls-3" d="M324.73,175.8c46.39,0,31.7,81.07,26.83,128-4,38.86-41.95,84.91-55.39,100.15a8,8,0,0,0-.29,10.3c14.74,18.6,54.19,76.5,74.09,100.38,22.5,27,110,76,115.5,102,4.35,20.55-31.27,33.29-70.58,33.29a175.22,175.22,0,0,1-31.42-2.79c-47.18-8.66-107.33-68.77-121.11-68.77a3.31,3.31,0,0,0-1.39.27c-10.5,5-5,30,1.5,46.5s46.5,30.5,52.5,54.27c3.21,12.69-21.55,19.74-51.72,19.74-26.3,0-56.72-5.36-76.28-17-42-25-36-64-35-96.5.54-17.39-2.37-37.94-5.18-53.28a7.94,7.94,0,0,0-7.95-6.59,7.85,7.85,0,0,0-7.09,4.35c-11,21.32-28.81,53.38-42.28,66.52-12.74,12.44-30.45,23.41-47,23.41-10.72,0-20.95-4.61-29-16.41-20.5-30,0-47.5,16-64,15.27-15.74,85.47-114.19,91.87-123.17a7.6,7.6,0,0,1,1.06-1.21c7.56-7,85.48-79.21,112.74-87.45,28.67-8.67,30.67-32.67,32.67-67.33s8-83.34,55.77-84.67l1.15,0m0-4-1.26,0c-22.64.63-39,11.45-48.57,32.15-7.89,17-10,38-11.09,56.29-2.05,35.56-4.45,56.06-29.83,63.73-28,8.47-105.56,80.2-114.31,88.35a12,12,0,0,0-1.59,1.82C89.83,453.83,38.76,524.33,26.6,536.87l-3,3.06c-15.38,15.65-34.53,35.12-13.44,66,8.11,11.87,19.28,18.15,32.31,18.15,15.43,0,34-9.18,49.79-24.54,13.5-13.19,30.86-44,43-67.55a3.86,3.86,0,0,1,3.54-2.19,4,4,0,0,1,4,3.31c2.63,14.34,5.65,35.07,5.11,52.44-.09,2.92-.21,5.83-.35,8.92-.69,15.76-1.41,32.07,3,47.91,5.11,18.39,16.34,32.53,34.32,43.23,21.75,12.95,54.72,17.57,78.32,17.57,10,0,43.25-1,53.22-13.8a12.33,12.33,0,0,0,2.38-10.92c-3.73-14.76-18.69-25.65-31.88-35.25-9.44-6.87-18.36-13.36-20.78-19.5-7.78-19.75-9.41-38.11-3.72-41.31,4.18.22,18.21,10.48,30.61,19.54,25.21,18.43,59.73,43.67,89.67,49.17a178.57,178.57,0,0,0,32.14,2.85c15.18,0,29.68-1.83,41.92-5.29C469.92,645,479.66,639.52,485,633a20,20,0,0,0,4.41-17.13C485.82,599,455,576.39,422.46,552.49c-20.84-15.29-40.53-29.74-49.41-40.4-11.54-13.84-29.8-39.35-45.91-61.85-11.77-16.45-21.94-30.65-28.12-38.46a4,4,0,0,1,.15-5.16c15.59-17.67,52.29-63,56.37-102.39.49-4.75,1.08-9.83,1.71-15.21,4.48-38.44,10.05-86.28-8.45-107.06-6-6.74-14.1-10.16-24.07-10.16Z"/></g><g id="_群組_2" data-name="&lt;群組&gt;"><g id="_群組_3" data-name="&lt;群組&gt;"><path class="cls-1" d="M183.47,629.15c-11.94-5-22.73-1.13-30.76,4.29,3.16,18.14,11.91,35.41,34.26,48.71,8.5,5.06,19,8.93,30.41,11.69C210,673.9,202.6,637.19,183.47,629.15Z"/></g><g id="_群組_4" data-name="&lt;群組&gt;"><path class="cls-1" d="M295,223.15c14.5,10-3,39.5,11.5,48.5s22-14,33-14.5c5.53-.25,11.57,4.72,16.2,9.72,4.34-43.86,4.64-92.07-32.09-91.05-32.2.9-45.42,23.3-51.23,48.42C279.23,220.58,287.83,218.23,295,223.15Z"/></g><g id="_群組_5" data-name="&lt;群組&gt;"><path class="cls-1" d="M126,513.65c-8.5,3-19,19-37.5,9.5s-20-6-35,11c-8.42,9.55-17.59,8.37-24,5.51-16,16.49-36.5,34-16,64s55,13.5,76-7c15.19-14.82,35.86-53.69,46.15-74.09C133.56,517.24,130.37,512.1,126,513.65Z"/></g><g id="_群組_6" data-name="&lt;群組&gt;"><path class="cls-1" d="M229.72,505.66c-1.17,3.6,3,12,9.25,12,12,0,13.5-15,11-17.75S233,495.65,229.72,505.66Z"/></g></g><g id="_群組_7" data-name="&lt;群組&gt;"><circle class="cls-2" cx="133.8" cy="309.78" r="118.24"/><path class="cls-3" d="M133.8,193.54A116.25,116.25,0,1,1,17.55,309.78,116.24,116.24,0,0,1,133.8,193.54m0-4a120.25,120.25,0,1,0,85,35.22,119.47,119.47,0,0,0-85-35.22Z"/></g><g id="_群組_8" data-name="&lt;群組&gt;"><path id="_路徑_2" data-name="&lt;路徑&gt;" class="cls-1" d="M113.14,246.49c32,22.66,50.67-7.34,61.33,19.33s-10.66,40,15.34,49.33c19.83,7.12,41.73-31.92,51-50.84a116.42,116.42,0,0,0-136.1-67.1C98.14,211.12,93.14,232.32,113.14,246.49Z"/><path id="_路徑_3" data-name="&lt;路徑&gt;" class="cls-1" d="M118.22,390.4c-12.75,2.75-15.75,16.75-38.41,2.75s0-27.33-20.28-36.29c-10.2-4.5-19.85,2.29-26.93,10.15a116.19,116.19,0,0,0,101.2,59c2.63,0,5.23-.1,7.82-.27C152.11,409.79,129.5,388,118.22,390.4Z"/></g></g></svg>