<svg xmlns="http://www.w3.org/2000/svg" viewBox="0 0 1920 188.17"><defs><style>.cls-1{fill:#6ed8e6;}.cls-2{fill:#39bbcc;}</style></defs><title>holi_feature_bottom</title><g id="work2"><circle id="_路徑_" data-name="&lt;路徑&gt;" class="cls-1" cx="1339.5" cy="167.67" r="20.5"/><path id="_路徑_2" data-name="&lt;路徑&gt;" class="cls-2" d="M1801,0c-55-.61-109,52.05-173.41,92.15C1568,129.27,1499.52,155.62,1413,119c-180-76.14-240,56.14-324,20.14-29.93-12.83-47.16-30-60.48-47-24-30.76-35.31-61.14-85.52-65-63.94-4.92-67.42,41.9-144.82,65-17,5.08-37.59,9-63.18,11-38.36,3-67.66-2-91.55-11C578.91,67.7,553.93,13,497,1.79,419-13.58,393,77.16,251,17.16s-251,75-251,75v1080H1920V71.66S1907,1.16,1801,0Z"/></g></svg>