<svg xmlns="http://www.w3.org/2000/svg" viewBox="0 0 1920 257.07"><defs><style>.cls-1{fill:#ffe7e6;}</style></defs><title>holi_origin_bottom</title><g id="work2"><path id="_路徑_" data-name="&lt;路徑&gt;" class="cls-1" d="M1919,51.14C1881.53,13.06,1834.13,3.4,1814,1a3.42,3.42,0,0,0-2.81,5.83c56.6,56.25,75.18,117.7,77.1,160,2,44-34.66,66.67-38.66,22.34-2.74-30.33-17.33-45.06-26.28-51.34a3.43,3.43,0,0,0-5.37,3.31c4.28,30.85-20.1,79.18-49,65-31.33-15.34,1.33-28.67-18-76.67-13.7-34-43.12-52.28-59.11-60a3.42,3.42,0,0,0-4.41,4.87c39.63,64.86,12.83,164.79-67.15,143.85-65.22-17.09-57.69-64.32-51.07-84.58a3.43,3.43,0,0,0-5.22-3.87c-25.15,17.56-31.7,40.82-37.71,62.45-6.66,24-45.33,48-52-28-5.08-58-43.17-84.16-60.93-93.3a3.42,3.42,0,0,0-4.69,4.46c27,59.72-15,135.78-70.38,113.84-45.49-18-29-64.58-19.85-83.82a3.42,3.42,0,0,0-4.73-4.48c-24.43,13.7-43,48.32-51.28,66.21a3.43,3.43,0,0,1-6.49-.9c-5.24-31.14-15.06-46-22.24-52.87a3.43,3.43,0,0,0-5.78,2.88c.68,5.84.4,15.38-3,30.64-7.33,33.34-92,70-103.33-13-8.92-65.34,37.92-94.94,58.26-104.58a3.42,3.42,0,0,0-.63-6.41C1016.08-18,942.1,163.6,930.33,203.48c-12,40.67-63.33,66-85.33,30s10.67-60,16-95.33c4.15-27.48-16.7-52.14-26.18-61.74a3.42,3.42,0,0,0-5.76,1.6C809.92,158.3,731.71,170.6,710,172.48a3.42,3.42,0,0,1-3.52-4.56,38.61,38.61,0,0,0,.11-24.31,3.42,3.42,0,0,0-5.81-1.24c-34.79,39-76.56,27.28-88,23a3.45,3.45,0,0,1-2.06-4.33c15.19-45.22,52.53-61.7,75.21-67.64a3.43,3.43,0,0,0-.4-6.71c-91.05-13.08-143.18,31.75-165,57.4a3.43,3.43,0,0,1-6-3c8.18-34,1.53-60.71-3-73.21a3.42,3.42,0,0,0-6.36-.21c-42.68,98-137.16,111.64-159.9,113.51a3.43,3.43,0,0,1-3.55-4.4c11.2-38.31,3.87-62.28-2.06-73.79a3.42,3.42,0,0,0-6.44,1C329.75,126,315,179.73,255,175.48c-55.72-3.94-69.13-46.55-72.34-68.47a3.43,3.43,0,0,0-6.59-.76c-10.75,27.31-7.2,49.67-5,58.57a3.42,3.42,0,0,1-3.36,4.27c-27.51-.41-40.14-19.69-45.78-34.33a3.43,3.43,0,0,0-6.55.5c-4.06,19-15.25,45.26-45.74,28.22-36-20.13-30.8-65.09-27.13-82.71a3.43,3.43,0,0,0-5.19-3.59C7.52,95.64.6,136.27,0,139.89a2.92,2.92,0,0,0,0,.51V1589.78a3.43,3.43,0,0,0,3.43,3.43H1916.57a3.43,3.43,0,0,0,3.43-3.43V53.56A3.41,3.41,0,0,0,1919,51.14Z"/></g></svg>