<svg xmlns="http://www.w3.org/2000/svg" viewBox="0 0 404.98 775.35"><defs><style>.cls-1{fill:#ffe491;}.cls-2{fill:#ffd557;}</style></defs><title>holi_about_front_rcloud</title><g id="圖層_37" data-name="圖層 37"><path class="cls-1" d="M405,9.57s-81-31.44-143.4,19.65-62.19,99.94-62.19,99.94S112,162,111.19,263.47c0,0-4.26,73,58.45,117,0,0-52.41,18.12-63.6,75.31,0,0-11.14,38,8,76,0,0-97.25,24.17-111.87,133,0,0-13.76,48.6,28.64,110.56,0,0,204-54.38,374.21-176.38Z"/><path class="cls-2" d="M85.5,728S71.74,667.26,136,662c0,0,13.6-30,47.12-32.62,0,0,27.28-3.8,47.8,21.21,0,0,16.79-7.73,31.42,4.83,0,0,10.31,7.94,9.6,23.44,0,0-122.77,64.36-225.79,90.57C46.19,769.42,43.33,729.42,85.5,728Z"/></g></svg>