<svg xmlns="http://www.w3.org/2000/svg" viewBox="0 0 506.78 593.37"><defs><style>.cls-1{fill:#ffe491;}.cls-2{fill:#ffabb7;}.cls-3{fill:#fff;}.cls-4{fill:#ffd557;}</style></defs><title>holi_man4</title><g id="work2"><path id="_路徑_" data-name="&lt;路徑&gt;" class="cls-1" d="M308,181s-5.25-47.18,11.46-79.6S349.94,64.87,355.34,72c3.42,4.48-7.68,17.73,2.75,22.4s47.16-65.29,68.17-81.55c31.82-24.63,65.29-8.56,64.41,5.14s-41.75,35.9-33.41,50.55,28.3-2.51,42.15,14.28,8.63,46.46-19.48,48-96,17.6-128.41,47S308.7,202.29,308,181Z"/><g id="_群組_" data-name="&lt;群組&gt;"><path class="cls-2" d="M235,592.15c-29.47,0-71.26-16.17-124.2-48A830.55,830.55,0,0,1,40,496.16a1.48,1.48,0,0,1-.57-1.06c-2.25-27.4,14.41-82,21.67-104.19a12.09,12.09,0,0,0-1.52-10.66c-9.35-13.67-32.39-48.18-44.27-73.13C5.05,285.53-1.35,253.66,8.88,234.69c4.61-8.54,12-13.57,22.1-14.95a32,32,0,0,1,4.44-.31c31.17,0,41.75,46.12,42.68,50.48,26.64,43.55,53.32,65.63,79.29,65.63,41.29,0,69.34-57.09,73.17-72.43C236.34,240,251.24,213,274.21,213a31.81,31.81,0,0,1,4.73.37,33.67,33.67,0,0,1,23.84,15.43c9.37,14.61,10.23,37.74,2.44,65.12-10.5,36.88-42.25,80.16-55.41,97.05a12.26,12.26,0,0,0-2.37,9.74c9.74,52.72-1.15,188.06-1.26,189.42a1.51,1.51,0,0,1-1.28,1.36A67.75,67.75,0,0,1,235,592.15Z"/><path class="cls-3" d="M274.21,214.47a30.47,30.47,0,0,1,4.5.35c26,4,38,33.32,25.07,78.65-10.61,37.27-43.72,81.86-55.16,96.55A13.69,13.69,0,0,0,246,401c9.81,53.13-1.29,189-1.29,189a65.72,65.72,0,0,1-9.67.68C164.62,590.65,40.94,495,40.94,495c-2.26-27.63,15.36-84.52,21.61-103.6a13.65,13.65,0,0,0-1.71-12c-9.14-13.37-32.28-48-44.16-72.94-15-31.5-20-80.5,14.5-85.25a31.16,31.16,0,0,1,4.24-.29c31.17,0,41.26,49.54,41.26,49.54C107,320.15,134.38,337,157.39,337c43.24,0,71.15-59.64,74.63-73.57,5-20.07,18.89-49,42.19-49m0-3c-23.83,0-39.19,27.62-45.1,51.28-1.51,6-8.84,24-21.87,40.9-10.67,13.86-28,30.39-49.85,30.39-25.37,0-51.58-21.77-77.88-64.7a110.43,110.43,0,0,0-9.11-25c-9-17.26-21-26.39-35-26.39a35.18,35.18,0,0,0-4.65.32C20.22,219.71,12.41,225,7.56,234c-10.48,19.43-4,51.87,6.42,73.78,11.92,25,35,59.63,44.38,73.34a10.58,10.58,0,0,1,1.33,9.34c-7.29,22.29-24,77.11-21.74,104.78a3,3,0,0,0,1.15,2.13,834.43,834.43,0,0,0,70.93,48c53.19,32,95.24,48.27,125,48.27a69.35,69.35,0,0,0,10.11-.71,3,3,0,0,0,2.55-2.72c.46-5.57,11-136.9,1.25-189.82a10.71,10.71,0,0,1,2.07-8.54c13.22-17,45.1-60.43,55.67-97.56,7.92-27.8,7-51.36-2.62-66.34a35.12,35.12,0,0,0-24.88-16.1,32,32,0,0,0-5-.39Z"/></g><g id="_群組_2" data-name="&lt;群組&gt;"><path id="_路徑_2" data-name="&lt;路徑&gt;" class="cls-4" d="M64.68,345.14c-12-5-9-16-19-24.67-5.52-4.79-14.11-1.73-20.68,2,10.4,18.65,23.64,38.89,31.89,51.15C72.93,369.12,75.16,349.51,64.68,345.14Z"/><path id="_路徑_3" data-name="&lt;路徑&gt;" class="cls-4" d="M227.68,445.47c-6.66,20-33,6-44.33,24s-2.67,74.34,36.17,75.67c12.1.42,21.34-1.4,28.32-4.1,1.95-37.4,3.53-88.2.4-122.67C241.42,423.79,231.78,433.18,227.68,445.47Z"/><path id="_路徑_4" data-name="&lt;路徑&gt;" class="cls-4" d="M278.71,214.82c-22.41-3.45-36.88,19.29-43.88,39.29,5.2,2.59,14.17,5.62,22.85,1.71,13.34-6,25-2.68,25.34,17,.29,17.39,2.67,25.72,18.91,26.58q1-3,1.85-5.92C316.68,248.14,304.73,218.84,278.71,214.82Z"/></g><g id="_群組_3" data-name="&lt;群組&gt;"><circle class="cls-2" cx="158.68" cy="270.47" r="91.5"/><path class="cls-3" d="M158.68,180.47a90,90,0,1,1-90,90,90,90,0,0,1,90-90m0-3a93,93,0,1,0,93,93,93.11,93.11,0,0,0-93-93Z"/></g><g id="_群組_4" data-name="&lt;群組&gt;"><path id="_路徑_5" data-name="&lt;路徑&gt;" class="cls-4" d="M107.35,320.14c6-22,.67-27.67,26-38.67S160,249.72,150.68,235.6c-8-12.14-27.89-31.57-7.91-53.72A90,90,0,0,0,97.25,336.24C101.25,333.24,105.13,328.3,107.35,320.14Z"/><path id="_路徑_6" data-name="&lt;路徑&gt;" class="cls-4" d="M239.43,289.72c-1.25-5.25-5-7.75-11-7.5s-20.9,6.2-23.5,18.75c-.75,3.63-1.37,11.79,6.75,15s10-9.5,18.25-13S240.68,295,239.43,289.72Z"/></g></g></svg>