<svg xmlns="http://www.w3.org/2000/svg" viewBox="0 0 1920 1299.07"><defs><style>.cls-1{fill:#ffabb7;}.cls-2,.cls-9{fill:#fff;}.cls-3{fill:#ffd557;}.cls-4{fill:#6ed8e6;}.cls-5{fill:#ffe491;}.cls-6{fill:#ffccc9;}.cls-7{fill:#14a5b8;}.cls-8{fill:#028090;}.cls-9{font-size:45px;font-family:GenJyuuGothicX-Bold, Gen Jyuu GothicX;font-weight:700;}</style></defs><title>holi_about_bg1</title><g id="work2"><g id="_群組_" data-name="&lt;群組&gt;"><path class="cls-1" d="M365.54,1074.72c-29.46,0-71.25-16.17-124.2-48a829.36,829.36,0,0,1-70.78-47.94,1.44,1.44,0,0,1-.58-1.06c-2.25-27.4,14.41-82,21.67-104.19a12,12,0,0,0-1.52-10.65c-9.35-13.68-32.39-48.19-44.27-73.14-10.28-21.59-16.68-53.46-6.45-72.42,4.61-8.54,12.05-13.57,22.1-15A32.09,32.09,0,0,1,166,702c31.18,0,41.75,46.13,42.68,50.49,26.64,43.54,53.32,65.62,79.3,65.62,41.29,0,69.33-57.09,73.17-72.43,5.78-23.13,20.68-50.13,43.64-50.13a31.79,31.79,0,0,1,4.73.36,33.67,33.67,0,0,1,23.84,15.43c9.37,14.61,10.24,37.74,2.44,65.12-10.5,36.88-42.25,80.16-55.41,97a12.27,12.27,0,0,0-2.37,9.74c9.74,52.72-1.15,188.06-1.26,189.42a1.5,1.5,0,0,1-1.28,1.36A67.75,67.75,0,0,1,365.54,1074.72Z"/><path class="cls-2" d="M404.74,697.05a29.17,29.17,0,0,1,4.5.35c26,4,38,33.31,25.07,78.65-10.61,37.26-43.71,81.85-55.16,96.54a13.73,13.73,0,0,0-2.65,10.93c9.81,53.13-1.28,189-1.28,189a67.29,67.29,0,0,1-9.68.67c-70.38,0-194.07-95.67-194.07-95.67-2.26-27.64,15.37-84.53,21.61-103.61a13.65,13.65,0,0,0-1.71-12c-9.14-13.37-32.28-48-44.15-72.93-15-31.5-20-80.5,14.5-85.25a31,31,0,0,1,4.23-.3c31.17,0,41.27,49.55,41.27,49.55,30.33,49.67,57.69,66.56,80.71,66.56,43.24,0,71.14-59.64,74.62-73.56,5-20.08,18.89-49,42.19-49m0-3c-23.83,0-39.19,27.62-45.1,51.27-1.51,6-8.84,24-21.87,40.9-10.67,13.86-28,30.39-49.84,30.39-25.38,0-51.58-21.76-77.89-64.69a109.86,109.86,0,0,0-9.1-25c-8.95-17.27-21.05-26.4-35-26.4a34.91,34.91,0,0,0-4.64.32c-10.56,1.46-18.37,6.75-23.22,15.73-10.48,19.43-4,51.87,6.42,73.79,11.92,25,35,59.62,44.39,73.33a10.61,10.61,0,0,1,1.33,9.34c-7.3,22.29-24,77.11-21.75,104.78a3,3,0,0,0,1.16,2.13,830.55,830.55,0,0,0,70.93,48c53.18,32,95.23,48.27,125,48.27a69.25,69.25,0,0,0,10.11-.71,3,3,0,0,0,2.56-2.72c.45-5.56,11-136.9,1.24-189.81a10.76,10.76,0,0,1,2.07-8.55c13.22-17,45.1-60.43,55.67-97.56,7.92-27.8,7-51.36-2.62-66.34a35.1,35.1,0,0,0-24.87-16.1,33.44,33.44,0,0,0-5-.38Z"/></g><g id="_群組_2" data-name="&lt;群組&gt;"><path id="_路徑_" data-name="&lt;路徑&gt;" class="cls-3" d="M195.22,827.71c-12-5-9-16-19-24.66-5.53-4.79-14.11-1.74-20.69,2,10.41,18.65,23.64,38.9,31.89,51.15C203.46,851.69,205.69,832.08,195.22,827.71Z"/><path id="_路徑_2" data-name="&lt;路徑&gt;" class="cls-3" d="M358.22,928.05c-6.67,20-33,6-44.34,24s-2.66,74.33,36.17,75.66c12.11.42,21.34-1.4,28.33-4.1,1.94-37.39,3.53-88.19.39-122.67C372,906.36,362.32,915.75,358.22,928.05Z"/><path id="_路徑_3" data-name="&lt;路徑&gt;" class="cls-3" d="M409.24,697.4c-22.4-3.46-36.88,19.28-43.88,39.29,5.2,2.58,14.17,5.61,22.86,1.7,13.33-6,25-2.68,25.33,17,.29,17.4,2.67,25.72,18.91,26.58q1-3,1.85-5.91C447.22,730.71,435.26,701.41,409.24,697.4Z"/></g><g id="_群組_3" data-name="&lt;群組&gt;"><circle class="cls-1" cx="289.22" cy="753.05" r="91.5"/><path class="cls-2" d="M289.22,663.05a90,90,0,1,1-90,90,90,90,0,0,1,90-90m0-3a93,93,0,1,0,93,93,93.11,93.11,0,0,0-93-93Z"/></g><g id="_群組_4" data-name="&lt;群組&gt;"><path id="_路徑_4" data-name="&lt;路徑&gt;" class="cls-3" d="M237.88,802.71c6-22,.67-27.66,26-38.66s26.67-31.76,17.34-45.88c-8-12.14-27.9-31.57-7.92-53.72a90,90,0,0,0-45.51,154.36C231.78,815.82,235.66,810.87,237.88,802.71Z"/><path id="_路徑_5" data-name="&lt;路徑&gt;" class="cls-3" d="M370,772.3c-1.25-5.25-5-7.75-11-7.5s-20.91,6.2-23.5,18.75c-.75,3.62-1.38,11.78,6.75,15s10-9.5,18.25-13S371.22,777.55,370,772.3Z"/></g><circle id="_路徑_6" data-name="&lt;路徑&gt;" class="cls-4" cx="983.5" cy="617.07" r="9.5"/><circle id="_路徑_7" data-name="&lt;路徑&gt;" class="cls-4" cx="1264.66" cy="163.01" r="7.99"/><path id="_路徑_8" data-name="&lt;路徑&gt;" class="cls-4" d="M1439.67,107.07c-15.67-22.37-.67-40,14-34s8.33,20.67,11.66,31.33-2,17.16-6.66,17.67C1452.65,122.72,1446.67,117.07,1439.67,107.07Z"/><path id="_複合路徑_" data-name="&lt;複合路徑&gt;" class="cls-5" d="M688.8,334.81a23.94,23.94,0,0,0-23.94-23.95l-.71,0v0a27.8,27.8,0,0,0-55-5.56,23.94,23.94,0,0,0-26.41,38.79,28,28,0,0,0,48.66,26,23.94,23.94,0,0,0,43.81-13.37c0-.11,0-.21,0-.32A23.94,23.94,0,0,0,688.8,334.81Zm-55.11,3.71c.62.06,1.25.1,1.89.11-.42.37-.83.74-1.22,1.13C634.15,339.34,633.92,338.93,633.69,338.52Z"/><path id="_路徑_9" data-name="&lt;路徑&gt;" class="cls-6" d="M518.32,59.85a33.64,33.64,0,0,0-33.38-33.64A40.9,40.9,0,0,0,405.87,40.9c0,1.17.07,2.32.16,3.47a37.64,37.64,0,1,0,4.41,74.1,30,30,0,0,0,59.21-6.69v0A17.89,17.89,0,0,0,497,91.14,33.63,33.63,0,0,0,518.32,59.85Z"/><circle id="_路徑_10" data-name="&lt;路徑&gt;" class="cls-4" cx="722.19" cy="551.07" r="13"/><path id="_路徑_11" data-name="&lt;路徑&gt;" class="cls-5" d="M111.17,739.42a14.75,14.75,0,1,0-28.67-4.85c0,.31,0,.61,0,.92a12.49,12.49,0,1,0-8,23.61,12.58,12.58,0,0,0,22.43,6,14.75,14.75,0,0,0,14.21-25.69Z"/><path id="_路徑_12" data-name="&lt;路徑&gt;" class="cls-7" d="M0,778s206.74,400.78,821.8,325.77,842.54-280.83,842.54-280.83H1920v454.85H0Z"/><path id="_路徑_13" data-name="&lt;路徑&gt;" class="cls-8" d="M0,816.7s143.11,287.37,615,359.37c499.79,76.26,974,20,1305-214V1499.8H0Z"/><path id="_路徑_14" data-name="&lt;路徑&gt;" class="cls-4" d="M0,3568.07V1133.75s299.17,358.93,1182.09,176.62c366.73-75.72,595.62-196.82,737.92-312.54V3568.07Z"/><path id="_路徑_15" data-name="&lt;路徑&gt;" class="cls-3" d="M261,528.16a31,31,0,0,0-36.76-30.56,28.58,28.58,0,0,0-52.37,1.31,36.15,36.15,0,1,0-17.35,70,30.91,30.91,0,0,0,56.35,12.28A26,26,0,0,0,249.82,552,31,31,0,0,0,261,528.16Z"/><text class="cls-9" transform="translate(67.69 1138.74) rotate(37.03)">印</text><text class="cls-9" transform="matrix(0.84, 0.54, -0.54, 0.84, 112.35, 1171.84)">度</text><text class="cls-9" transform="matrix(0.88, 0.47, -0.47, 0.88, 159.35, 1201.26)">荷</text><text class="cls-9" transform="matrix(0.91, 0.41, -0.41, 0.91, 206.81, 1226.45)">麗</text><text class="cls-9" transform="translate(255.64 1248.29) rotate(20.65)">節</text></g><g id="圖層_37" data-name="圖層 37"><path id="_路徑_16" data-name="&lt;路徑&gt;" class="cls-5" d="M109.38,707.4a14.74,14.74,0,1,0-28.66-4.85c0,.31,0,.61,0,.92a12.49,12.49,0,1,0-8,23.61,12.57,12.57,0,0,0,22.43,6A14.55,14.55,0,0,0,101,734.3a14.74,14.74,0,0,0,8.34-26.9Z"/><path id="_路徑_17" data-name="&lt;路徑&gt;" class="cls-5" d="M438.49,647.52s-5.25-47.18,11.46-79.6,30.52-36.48,35.92-29.39c3.42,4.48-7.68,17.73,2.75,22.4s47.16-65.29,68.18-81.55c31.82-24.62,65.28-8.56,64.4,5.14s-41.75,35.91-33.41,50.55,28.31-2.5,42.15,14.29,8.63,46.45-19.48,48-96,17.61-128.4,47S439.23,668.86,438.49,647.52Z"/><path id="_路徑_18" data-name="&lt;路徑&gt;" class="cls-3" d="M259.22,496.13a31.11,31.11,0,0,0-36.77-30.56,28.57,28.57,0,0,0-52.36,1.32,36.15,36.15,0,1,0-17.35,70,30.91,30.91,0,0,0,56.35,12.27A26,26,0,0,0,248,520,31,31,0,0,0,259.22,496.13Z"/></g></svg>