<svg xmlns="http://www.w3.org/2000/svg" viewBox="0 0 174.25 178.71"><defs><style>.cls-1,.cls-2{fill:#fff;}.cls-1,.cls-5{stroke:#efefef;stroke-linecap:round;stroke-linejoin:round;stroke-width:4px;}.cls-3{fill:#efefef;}.cls-4{fill:#6ed8e6;}.cls-5{fill:none;}</style></defs><title>index_aptinet</title><g id="a5"><g id="_群組_" data-name="&lt;群組&gt;"><path id="_矩形_" data-name="&lt;矩形&gt;" class="cls-1" d="M60.6,12.71h9.75a47.8,47.8,0,0,1,47.8,47.8V75.27a0,0,0,0,1,0,0H103.39a47.8,47.8,0,0,1-47.8-47.8V17.73a5,5,0,0,1,5-5Z" transform="translate(56.55 -48.54) rotate(45)"/><path id="_矩形_2" data-name="&lt;矩形&gt;" class="cls-1" d="M95.36,24.26H98.5a47.8,47.8,0,0,1,47.8,47.8v8.15a0,0,0,0,1,0,0h-8.15a47.8,47.8,0,0,1-47.8-47.8V29.28a5,5,0,0,1,5-5Z" transform="translate(130.06 -76.57) rotate(71.39)"/><path id="_矩形_3" data-name="&lt;矩形&gt;" class="cls-1" d="M118.67,48.85h0a47.8,47.8,0,0,1,47.8,47.8v5a0,0,0,0,1,0,0h-5a47.8,47.8,0,0,1-47.8-47.8v0A5,5,0,0,1,118.67,48.85Z" transform="translate(233.56 -53.35) rotate(97.77)"/><path id="_矩形_4" data-name="&lt;矩形&gt;" class="cls-1" d="M125.4,132.23h0a40,40,0,0,1,40,40v5.69a0,0,0,0,1,0,0H159.7a40,40,0,0,1-40-40v0a5.69,5.69,0,0,1,5.69-5.69Z" transform="translate(342.94 220) rotate(150.54)"/><path id="_矩形_5" data-name="&lt;矩形&gt;" class="cls-1" d="M75.24,24.26h8.15a0,0,0,0,1,0,0v8.15a47.8,47.8,0,0,1-47.8,47.8H32.46a5,5,0,0,1-5-5V72.06a47.8,47.8,0,0,1,47.8-47.8Z" transform="translate(122.61 16.39) rotate(108.61)"/><path id="_矩形_6" data-name="&lt;矩形&gt;" class="cls-1" d="M55.07,48.85h5a0,0,0,0,1,0,0v5a47.8,47.8,0,0,1-47.8,47.8h0a5,5,0,0,1-5-5v0a47.8,47.8,0,0,1,47.8-47.8Z" transform="translate(103.68 31.71) rotate(82.23)"/><path id="_矩形_7" data-name="&lt;矩形&gt;" class="cls-1" d="M48.34,132.23H54a0,0,0,0,1,0,0v5.69a40,40,0,0,1-40,40h0a5.69,5.69,0,0,1-5.69-5.69v0a40,40,0,0,1,40-40Z" transform="translate(80.3 4.71) rotate(29.46)"/><circle id="_路徑_" data-name="&lt;路徑&gt;" class="cls-2" cx="86.87" cy="123.13" r="55.4"/><ellipse id="_路徑_2" data-name="&lt;路徑&gt;" class="cls-3" cx="55.42" cy="109.1" rx="15.83" ry="13.96" transform="translate(-53.27 52.87) rotate(-35.72)"/><ellipse id="_路徑_3" data-name="&lt;路徑&gt;" class="cls-4" cx="55.42" cy="109.1" rx="12.41" ry="10.94" transform="translate(-53.27 52.87) rotate(-35.72)"/><ellipse id="_路徑_4" data-name="&lt;路徑&gt;" class="cls-3" cx="118.32" cy="109.1" rx="13.96" ry="15.83" transform="translate(-39.33 141.48) rotate(-54.28)"/><ellipse id="_路徑_5" data-name="&lt;路徑&gt;" class="cls-4" cx="118.32" cy="109.1" rx="10.94" ry="12.41" transform="translate(-39.33 141.48) rotate(-54.28)"/><g id="_群組_2" data-name="&lt;群組&gt;"><ellipse id="_路徑_6" data-name="&lt;路徑&gt;" class="cls-4" cx="93.41" cy="124.06" rx="4.38" ry="2.92" transform="translate(-54.58 77) rotate(-35.38)"/><ellipse id="_路徑_7" data-name="&lt;路徑&gt;" class="cls-4" cx="80.32" cy="124.06" rx="2.92" ry="4.38" transform="translate(-67.33 117.72) rotate(-54.62)"/></g><path id="_路徑_8" data-name="&lt;路徑&gt;" class="cls-5" d="M114.88,148s-4.23,3.89-13-.45-13.09-4.64-13.09-4.64h-3.9s-4.35.3-13.09,4.64-13,.45-13,.45"/></g></g></svg>