<svg xmlns="http://www.w3.org/2000/svg" viewBox="0 0 129.43 205.67"><defs><style>.cls-1{fill:#1f5d73;}.cls-2{fill:#fff;}.cls-3{fill:#114b5f;}.cls-4{fill:#ffabb7;stroke:#fff;stroke-miterlimit:10;stroke-width:4px;}.cls-5{fill:none;stroke:#ffe7e6;stroke-linecap:round;stroke-linejoin:round;stroke-width:12px;}</style></defs><title>introduce_kuang</title><g id="k"><g id="_群組_" data-name="&lt;群組&gt;"><g id="_群組_2" data-name="&lt;群組&gt;"><g id="_群組_3" data-name="&lt;群組&gt;"><g id="_群組_4" data-name="&lt;群組&gt;"><path id="_路徑_" data-name="&lt;路徑&gt;" class="cls-1" d="M31.82,103.67h5.39l1.34-9.33C35.5,97.83,33,101.19,31.82,103.67Z"/><path id="_路徑_2" data-name="&lt;路徑&gt;" class="cls-1" d="M9.25,168.62c.09,5.59.27,11.06.48,16.23H25.59l.23-1.65c-.19-4.67-.34-9.58-.44-14.58Z"/><path id="_路徑_3" data-name="&lt;路徑&gt;" class="cls-2" d="M25.82,183.2l2.09-14.58H25.38C25.48,173.62,25.63,178.53,25.82,183.2Z"/><path id="_路徑_4" data-name="&lt;路徑&gt;" class="cls-1" d="M25.38,168.62h2.53l2.33-16.24H25.33C25.25,157.79,25.28,163.26,25.38,168.62Z"/><path id="_路徑_5" data-name="&lt;路徑&gt;" class="cls-1" d="M25.92,136.15h6.64l2.33-16.24h-7.3C26.83,124.87,26.29,130.36,25.92,136.15Z"/><path id="_路徑_6" data-name="&lt;路徑&gt;" class="cls-2" d="M27.59,119.91h7.3l2.32-16.24H31.82A64.94,64.94,0,0,0,27.59,119.91Z"/><path id="_路徑_7" data-name="&lt;路徑&gt;" class="cls-2" d="M25.33,152.38h4.91l2.32-16.23H25.92C25.59,141.38,25.41,146.85,25.33,152.38Z"/><path id="_路徑_8" data-name="&lt;路徑&gt;" class="cls-3" d="M9.84,136.15H25.92c.37-5.79.91-11.28,1.67-16.24h-16C10.77,124.85,10.22,130.35,9.84,136.15Z"/><path id="_路徑_9" data-name="&lt;路徑&gt;" class="cls-2" d="M.75,152.38H9.22c.09-5.54.29-11,.62-16.23H2.16C1.66,141.18,1.15,146.74.75,152.38Z"/><path id="_路徑_10" data-name="&lt;路徑&gt;" class="cls-3" d="M16,103.67H31.82c1.13-2.48,3.68-5.84,6.73-9.33l.6-4.17H26.49C22.06,95,17.8,100.06,16,103.67Z"/><path id="_路徑_11" data-name="&lt;路徑&gt;" class="cls-1" d="M16,103.67c1.85-3.61,6.11-8.71,10.54-13.5h-9a54.23,54.23,0,0,0-8.71,13.5Z"/><path id="_路徑_12" data-name="&lt;路徑&gt;" class="cls-1" d="M15.59,104.43a63.9,63.9,0,0,0-4,15.48h16a64.94,64.94,0,0,1,4.23-16.24H16C15.82,103.93,15.7,104.18,15.59,104.43Z"/><path id="_路徑_13" data-name="&lt;路徑&gt;" class="cls-2" d="M37,79.45l-2.5-1.87s-8.75,3.21-17,12.59h9C30.37,86,34.37,82,37,79.45Z"/><path id="_路徑_14" data-name="&lt;路徑&gt;" class="cls-1" d="M26.49,90.17H39.15L40.32,82,37,79.45C34.37,82,30.37,86,26.49,90.17Z"/><path id="_路徑_15" data-name="&lt;路徑&gt;" class="cls-1" d="M9.22,152.38H25.33c.08-5.53.26-11,.59-16.23H9.84C9.51,141.37,9.31,146.84,9.22,152.38Z"/><path id="_路徑_16" data-name="&lt;路徑&gt;" class="cls-2" d="M11.55,119.91a63.9,63.9,0,0,1,4-15.48c.11-.25.23-.5.36-.76H8.74A63.33,63.33,0,0,0,4,119.91Z"/><path id="_路徑_17" data-name="&lt;路徑&gt;" class="cls-3" d="M9.25,168.62H25.38c-.1-5.36-.13-10.83-.05-16.24H9.22C9.14,157.79,9.16,163.25,9.25,168.62Z"/><path id="_路徑_18" data-name="&lt;路徑&gt;" class="cls-1" d="M3.45,123.82c-.36,3.41-.82,7.64-1.29,12.33H9.84c.38-5.8.93-11.3,1.71-16.24H4C3.76,121.18,3.59,122.48,3.45,123.82Z"/><path id="_路徑_19" data-name="&lt;路徑&gt;" class="cls-1" d="M9.22,152.38H.75c-.39,5.48-.67,11-.74,16.24H9.25C9.16,163.25,9.14,157.79,9.22,152.38Z"/><path id="_路徑_20" data-name="&lt;路徑&gt;" class="cls-2" d="M.86,184.85H9.73c-.21-5.17-.39-10.64-.48-16.23H0A102.89,102.89,0,0,0,.86,184.85Z"/></g></g><g id="_群組_5" data-name="&lt;群組&gt;"><g id="_群組_6" data-name="&lt;群組&gt;"><path id="_路徑_21" data-name="&lt;路徑&gt;" class="cls-1" d="M124.58,115.29H113.31c.78,4.95,1.33,10.44,1.71,16.24H126.8c-.3-2.86-.58-5.46-.81-7.71A72.62,72.62,0,0,0,124.58,115.29Z"/><path id="_路徑_22" data-name="&lt;路徑&gt;" class="cls-1" d="M100.86,164l2.32,16.23h11.95c.21-5.17.39-10.64.48-16.23Z"/><path id="_路徑_23" data-name="&lt;路徑&gt;" class="cls-2" d="M108.91,99.06c-1.85-3.61-6.11-8.71-10.54-13.51H89.62l1.46,10.18a22.59,22.59,0,0,1,2,3.33Z"/><path id="_路徑_24" data-name="&lt;路徑&gt;" class="cls-2" d="M115.61,164c.09-5.36.11-10.83,0-16.24H99.53c0,2.42,0,4.84,0,7.26l1.29,9Z"/><path id="_路徑_25" data-name="&lt;路徑&gt;" class="cls-1" d="M99.53,147.76h-1l1,7.26C99.58,152.6,99.56,150.18,99.53,147.76Z"/><path id="_路徑_26" data-name="&lt;路徑&gt;" class="cls-3" d="M98.94,131.53H96.21l2.32,16.23h1C99.45,142.23,99.27,136.76,98.94,131.53Z"/><path id="_路徑_27" data-name="&lt;路徑&gt;" class="cls-1" d="M97.27,115.29H93.88l2.33,16.24h2.73C98.57,125.74,98,120.25,97.27,115.29Z"/><path id="_路徑_28" data-name="&lt;路徑&gt;" class="cls-3" d="M93,99.06H91.56l2.32,16.23h3.39C96.28,108.79,94.9,103.19,93,99.06Z"/><path id="_路徑_29" data-name="&lt;路徑&gt;" class="cls-3" d="M113.31,115.29h11.27a59.22,59.22,0,0,0-6.25-16.23h-9.42c.13.25.25.51.36.75A63.9,63.9,0,0,1,113.31,115.29Z"/><path id="_路徑_30" data-name="&lt;路徑&gt;" class="cls-1" d="M91.08,95.73l.48,3.33H93A22.59,22.59,0,0,0,91.08,95.73Z"/><path id="_路徑_31" data-name="&lt;路徑&gt;" class="cls-2" d="M113.31,115.29h-16c.76,5,1.3,10.45,1.67,16.24H115C114.64,125.73,114.09,120.24,113.31,115.29Z"/><path id="_路徑_32" data-name="&lt;路徑&gt;" class="cls-1" d="M98.94,131.53c.33,5.23.51,10.7.59,16.23h16.11c-.09-5.53-.29-11-.62-16.23Z"/><path id="_路徑_33" data-name="&lt;路徑&gt;" class="cls-3" d="M126.8,131.53H115c.33,5.22.53,10.7.62,16.23h12.69C127.86,142,127.3,136.38,126.8,131.53Z"/><path id="_路徑_34" data-name="&lt;路徑&gt;" class="cls-1" d="M92.51,79.42,89.11,82l.51,3.59h8.75C96.38,83.39,94.36,81.29,92.51,79.42Z"/><path id="_路徑_35" data-name="&lt;路徑&gt;" class="cls-1" d="M109.27,99.81c-.11-.24-.23-.5-.36-.75H93c1.86,4.13,3.24,9.73,4.23,16.23h16A63.9,63.9,0,0,0,109.27,99.81Z"/><path id="_路徑_36" data-name="&lt;路徑&gt;" class="cls-1" d="M108.91,99.06h9.42a53.25,53.25,0,0,0-11-13.51h-9C102.8,90.35,107.06,95.45,108.91,99.06Z"/><path id="_路徑_37" data-name="&lt;路徑&gt;" class="cls-1" d="M128.33,147.76H115.64c.08,5.41.06,10.88,0,16.24h13.7C129.13,158.67,128.77,153.12,128.33,147.76Z"/><path id="_路徑_38" data-name="&lt;路徑&gt;" class="cls-3" d="M107.37,85.55a43.94,43.94,0,0,0-12.41-8l-2.45,1.84c1.85,1.87,3.87,4,5.86,6.13Z"/><path id="_路徑_39" data-name="&lt;路徑&gt;" class="cls-3" d="M129.31,164h-13.7c-.09,5.59-.27,11.06-.48,16.23h14A147.69,147.69,0,0,0,129.31,164Z"/></g></g></g><rect id="_矩形_" data-name="&lt;矩形&gt;" class="cls-4" x="27.41" y="79.77" width="74.62" height="120.25" rx="35.29" ry="35.29"/><g id="_群組_7" data-name="&lt;群組&gt;"><g id="_群組_8" data-name="&lt;群組&gt;"><path id="_路徑_40" data-name="&lt;路徑&gt;" class="cls-1" d="M98.33,140.74h12.25c-.35-5.35-.82-10.7-1.46-15.9H98Z"/><polygon id="_路徑_41" data-name="&lt;路徑&gt;" class="cls-3" points="64.31 140.74 64.28 157.02 81.5 157.02 81.32 140.74 64.31 140.74"/><path id="_路徑_42" data-name="&lt;路徑&gt;" class="cls-3" d="M98.72,157h12.53c-.11-5.31-.32-10.8-.67-16.28H98.33Z"/><path id="_路徑_43" data-name="&lt;路徑&gt;" class="cls-3" d="M98,124.84h11.17c-.67-5.39-1.52-10.62-2.59-15.52h-9Z"/><polygon id="_路徑_44" data-name="&lt;路徑&gt;" class="cls-1" points="81.32 140.74 81.5 157.02 98.72 157.02 98.33 140.74 81.32 140.74"/><polygon id="_路徑_45" data-name="&lt;路徑&gt;" class="cls-3" points="80.69 85.59 65.36 94.16 80.78 94.16 80.69 85.59"/><path id="_路徑_46" data-name="&lt;路徑&gt;" class="cls-3" d="M102,94.16A43.5,43.5,0,0,0,97,85l.23,9.18Z"/><path id="_路徑_47" data-name="&lt;路徑&gt;" class="cls-1" d="M97.21,94.16,97,85a24,24,0,0,0-5.39-5.48l-10.9,6.09.09,8.57Z"/><path id="_路徑_48" data-name="&lt;路徑&gt;" class="cls-1" d="M97.57,109.32h9A91.66,91.66,0,0,0,102,94.16H97.21Z"/><polygon id="_路徑_49" data-name="&lt;路徑&gt;" class="cls-1" points="64.27 173.71 81.7 173.71 81.5 157.02 64.28 157.02 64.27 173.71"/><polygon id="_路徑_50" data-name="&lt;路徑&gt;" class="cls-3" points="47.73 109.32 31.12 109.32 30.7 124.84 47.51 124.84 47.73 109.32"/><polygon id="_路徑_51" data-name="&lt;路徑&gt;" class="cls-2" points="47.51 124.84 47.29 140.74 64.31 140.74 64.33 124.84 47.51 124.84"/><polygon id="_路徑_52" data-name="&lt;路徑&gt;" class="cls-1" points="64.33 124.84 64.31 140.74 81.32 140.74 81.14 124.84 64.33 124.84"/><polygon id="_路徑_53" data-name="&lt;路徑&gt;" class="cls-1" points="97.95 124.84 97.57 109.32 80.96 109.32 81.14 124.84 97.95 124.84"/><polygon id="_路徑_54" data-name="&lt;路徑&gt;" class="cls-1" points="47.94 94.16 31.52 94.16 31.12 109.32 47.73 109.32 47.94 94.16"/><polygon id="_路徑_55" data-name="&lt;路徑&gt;" class="cls-2" points="97.2 94.16 80.78 94.16 80.96 109.32 97.57 109.32 97.2 94.16"/><polygon id="_路徑_56" data-name="&lt;路徑&gt;" class="cls-3" points="81.14 124.84 80.96 109.32 64.34 109.32 64.33 124.84 81.14 124.84"/><polygon id="_路徑_57" data-name="&lt;路徑&gt;" class="cls-1" points="47.51 124.84 30.7 124.84 30.28 140.74 47.29 140.74 47.51 124.84"/><polygon id="_路徑_58" data-name="&lt;路徑&gt;" class="cls-3" points="30.28 140.74 29.85 157.02 47.07 157.02 47.29 140.74 30.28 140.74"/><polygon id="_路徑_59" data-name="&lt;路徑&gt;" class="cls-1" points="64.31 140.74 47.29 140.74 47.07 157.02 64.28 157.02 64.31 140.74"/><polygon id="_路徑_60" data-name="&lt;路徑&gt;" class="cls-1" points="64.33 124.84 64.34 109.32 47.73 109.32 47.51 124.84 64.33 124.84"/><polygon id="_路徑_61" data-name="&lt;路徑&gt;" class="cls-1" points="64.36 94.33 64.34 109.32 80.96 109.32 80.78 94.16 65.36 94.16 64.7 94.52 64.36 94.33"/><polygon id="_路徑_62" data-name="&lt;路徑&gt;" class="cls-2" points="47.07 157.02 46.83 173.71 64.27 173.71 64.28 157.02 47.07 157.02"/><polygon id="_路徑_63" data-name="&lt;路徑&gt;" class="cls-2" points="81.32 140.74 98.33 140.74 97.95 124.84 81.14 124.84 81.32 140.74"/><path id="_路徑_64" data-name="&lt;路徑&gt;" class="cls-1" d="M98.72,157l.41,16.69H111.3c.07-5.21.07-10.84,0-16.69Z"/><path id="_路徑_65" data-name="&lt;路徑&gt;" class="cls-3" d="M99.13,173.71l.41,17.1h11.25c.21-4.69.41-10.55.51-17.1Z"/><polygon id="_路徑_66" data-name="&lt;路徑&gt;" class="cls-1" points="81.89 190.81 99.54 190.81 99.13 173.71 81.7 173.71 81.89 190.81"/><polygon id="_路徑_67" data-name="&lt;路徑&gt;" class="cls-2" points="81.5 157.02 81.7 173.71 99.13 173.71 98.72 157.02 81.5 157.02"/><polygon id="_路徑_68" data-name="&lt;路徑&gt;" class="cls-3" points="64.27 173.71 64.24 190.81 81.89 190.81 81.7 173.71 64.27 173.71"/><path id="_路徑_69" data-name="&lt;路徑&gt;" class="cls-1" d="M29.4,173.71H18c.08,6.55.27,12.41.48,17.1H29Z"/><polygon id="_路徑_70" data-name="&lt;路徑&gt;" class="cls-2" points="47.73 109.32 64.34 109.32 64.36 94.33 64.04 94.16 47.94 94.16 47.73 109.32"/><path id="_路徑_71" data-name="&lt;路徑&gt;" class="cls-1" d="M31.12,109.32H22.85c-1.08,4.9-1.94,10.13-2.62,15.52H30.7Z"/><path id="_路徑_72" data-name="&lt;路徑&gt;" class="cls-2" d="M31.52,94.16H27.44a90.68,90.68,0,0,0-4.59,15.16h8.27Z"/><polygon id="_路徑_73" data-name="&lt;路徑&gt;" class="cls-1" points="46.83 173.71 46.6 190.81 64.24 190.81 64.27 173.71 46.83 173.71"/><polygon id="_路徑_74" data-name="&lt;路徑&gt;" class="cls-1" points="64.04 94.16 48.07 85.22 47.94 94.16 64.04 94.16"/><path id="_路徑_75" data-name="&lt;路徑&gt;" class="cls-3" d="M47.94,94.16l.13-8.94L37.84,79.5A25.12,25.12,0,0,0,31.74,86l-.22,8.19Z"/><path id="_路徑_76" data-name="&lt;路徑&gt;" class="cls-1" d="M31.74,86a45.62,45.62,0,0,0-4.3,8.19h4.08Z"/><path id="_路徑_77" data-name="&lt;路徑&gt;" class="cls-2" d="M30.7,124.84H20.23c-.66,5.2-1.14,10.55-1.49,15.9H30.28Z"/><polygon id="_路徑_78" data-name="&lt;路徑&gt;" class="cls-3" points="29.4 173.71 28.95 190.81 46.6 190.81 46.83 173.71 29.4 173.71"/><polygon id="_路徑_79" data-name="&lt;路徑&gt;" class="cls-1" points="47.07 157.02 29.85 157.02 29.4 173.71 46.83 173.71 47.07 157.02"/><path id="_路徑_80" data-name="&lt;路徑&gt;" class="cls-2" d="M18,157c-.13,5.85-.14,11.48-.08,16.69H29.4L29.85,157Z"/><path id="_路徑_81" data-name="&lt;路徑&gt;" class="cls-1" d="M30.28,140.74H18.74c-.36,5.48-.59,11-.71,16.28H29.85Z"/></g></g><path id="_路徑_82" data-name="&lt;路徑&gt;" class="cls-3" d="M34.89,72s-4.46,3.47-4.61,5.61S24.72,77,24,82.48c-.25,2,14.62,13,40.66,12C64.7,94.52,40.06,81.11,34.89,72Z"/><path id="_路徑_83" data-name="&lt;路徑&gt;" class="cls-3" d="M94.54,72s4.46,3.47,4.61,5.61,5.56-.62,6.24,4.9c.25,2-14.62,13-40.66,12C64.73,94.52,89.37,81.11,94.54,72Z"/><circle id="_路徑_84" data-name="&lt;路徑&gt;" class="cls-4" cx="64.72" cy="46.55" r="44.28"/><line id="_路徑_85" data-name="&lt;路徑&gt;" class="cls-5" x1="64.72" y1="95.96" x2="64.72" y2="200.02"/></g></g></svg>