<svg xmlns="http://www.w3.org/2000/svg" viewBox="0 0 124.28 199.61"><defs><style>.cls-1{fill:#eb6860;}.cls-2{fill:#c7423a;}.cls-3{fill:#ffabb7;stroke:#fff;stroke-miterlimit:10;stroke-width:4px;}.cls-4{fill:#118cb8;}.cls-5{fill:#ffd557;}.cls-6{fill:#ffe7e6;}.cls-7{fill:#1f5d73;}.cls-8{fill:#1a7291;}.cls-9{fill:none;stroke:#ffe491;stroke-linecap:round;stroke-linejoin:round;stroke-width:8px;}.cls-10{fill:#ffe491;}</style></defs><title>introduce_poyun</title><g id="po"><g id="_群組_" data-name="&lt;群組&gt;"><path id="_路徑_" data-name="&lt;路徑&gt;" class="cls-1" d="M37.07,74.81c1.9-1.28,4.64-1.25,7.36-.7-.36-.39-.54-.61-.54-.61s-5.46-2.14-9,1.31a16.82,16.82,0,0,0-1.43,1.57l2.06.28A3.49,3.49,0,0,1,37.07,74.81Z"/><path id="_路徑_2" data-name="&lt;路徑&gt;" class="cls-2" d="M37.07,74.81c-7.24,4.9,11.21,12,29.58,12C55.91,86,46.7,76.62,44.43,74.11,41.71,73.56,39,73.53,37.07,74.81Z"/><circle id="_路徑_3" data-name="&lt;路徑&gt;" class="cls-3" cx="78.75" cy="46.9" r="43.85"/><path id="_路徑_4" data-name="&lt;路徑&gt;" class="cls-4" d="M36.17,56.41s-22.79,7-18.41-2.4,39-25.76,39-25.76S38.25,41.81,36.17,56.41Z"/><g id="_群組_2" data-name="&lt;群組&gt;"><path id="_路徑_5" data-name="&lt;路徑&gt;" class="cls-5" d="M81.66,0A48.94,48.94,0,0,0,30.77,44.81a49.74,49.74,0,0,0,0,8.28,4,4,0,0,0,5.38,3.32l80-31.77a3.93,3.93,0,0,0,1.66-6.07A48.71,48.71,0,0,0,81.66,0Z"/></g><path id="_路徑_6" data-name="&lt;路徑&gt;" class="cls-6" d="M48.19,99.2s-2.41-8.92-6,24.41-9.31,66.12-2.1,71.35,63.78,7.08,76.34,0,8.59-57-1.56-90.67c-2.35-7.77-8.58-16.88-13.6-16.5S47.59,90.1,48.19,99.2Z"/><path id="_路徑_7" data-name="&lt;路徑&gt;" class="cls-4" d="M46,101.22s-4.62-5.38-16.77,0-32.06,46.92-28.31,68,39.4,30.11,43,20.56S50.24,108.73,46,101.22Z"/><path id="_路徑_8" data-name="&lt;路徑&gt;" class="cls-7" d="M8.76,139.46s-2.54,15.69-3,18.69-5.52,6-5.7,4.43-.63-9.13,5.32-25.75Z"/><path id="_路徑_9" data-name="&lt;路徑&gt;" class="cls-8" d="M6.81,131.15A60.66,60.66,0,0,0,5,137c0,.8,6.69,5.1,16,4.3s15.81-35.53,14.57-39.59-3.84-4.5-10.65-1S8.66,125.32,6.81,131.15Z"/><path id="_路徑_10" data-name="&lt;路徑&gt;" class="cls-5" d="M4.44,141.38c1.08.17,3.61.49,4.52,2.26s-.45,11.85-2.12,11.63C4.45,155,.36,154,.57,152.38s3.43.15,4.5.59c2.11.86,3.09-2.66,3-6.27S5.3,142.9,4,142.87,3.17,141.18,4.44,141.38Z"/><path id="_路徑_11" data-name="&lt;路徑&gt;" class="cls-5" d="M2.49,147.45h0a.77.77,0,0,1-.33-.93l1.23-3.74a.57.57,0,0,1,.78-.4h0a.79.79,0,0,1,.33.94l-1.23,3.73A.57.57,0,0,1,2.49,147.45Z"/><path id="_路徑_12" data-name="&lt;路徑&gt;" class="cls-8" d="M35.24,191.22,30.51,191c-4-.69-6.77-4.84-6.14-9.26l2.18-15.2c.63-4.42,4.4-7.44,8.42-6.74l3.67.55c4,.7,6.77,4.85,6.14,9.27l-1.11,15.45A7.06,7.06,0,0,1,35.24,191.22Z"/><path id="_路徑_13" data-name="&lt;路徑&gt;" class="cls-7" d="M36.75,97.08s-4.36-5.87-6.12-2.72-1.3,5.45.71,8,10.43-1.28,10.43-1.28l-.94-1.24s-6.81,3.05-8,.54-.76-2.73-.53-3.6S37.33,99,37.33,99,39.18,98.48,36.75,97.08Z"/><path id="_路徑_14" data-name="&lt;路徑&gt;" class="cls-7" d="M45.5,103.37a62.11,62.11,0,0,1,1.14,9.36.54.54,0,0,0,1,.27c2.18-3.39,9-10.67,14.14-13.38,6.91-3.64,17.19-6.52,23.35,6S71.5,168,46.36,172.1c0,0-.65,6.51-.88,8.17,0,0,34.67-5.2,41.51-38.89s3.61-42.09-7.47-48.27c-14.79-8.26-30.15,5-33.92,9.79A.53.53,0,0,0,45.5,103.37Z"/><g id="_群組_3" data-name="&lt;群組&gt;"><path id="_路徑_15" data-name="&lt;路徑&gt;" class="cls-2" d="M37.22,97.34a7.42,7.42,0,0,0,.68,4.13c1.05,2.62,8.16,1.18,10.44-.76s9.76-5.25,15.54-5.18a66,66,0,0,0,12.46-1.35S44.66,90.28,37.22,97.34Z"/><path id="_路徑_16" data-name="&lt;路徑&gt;" class="cls-1" d="M70,86.82a18.32,18.32,0,0,1-3.31,0c-16.17,0-32.39-5.53-31.12-10.19l-2.06-.28c-2.27,2.92-2.55,6.32-.9,15.89,2,11.3,16.52,5.82,19.71,4s7-2.35,18.13-1.6c9.28.63,28-3.62,33.26-5.18a1.34,1.34,0,0,0,.66-2.16C99.72,82,82.62,85.59,70,86.82Z"/><circle id="_路徑_17" data-name="&lt;路徑&gt;" class="cls-2" cx="99.82" cy="88.16" r="1.68"/><path id="_路徑_18" data-name="&lt;路徑&gt;" class="cls-9" d="M100,88.39a58.34,58.34,0,0,1,7.41,20.71c2,12.41,1.9,13.81,1.9,13.81"/><path id="_路徑_19" data-name="&lt;路徑&gt;" class="cls-10" d="M108.25,123.22a14.19,14.19,0,0,0-.43,3c.11.64,3.39.14,3.62-.16s-.56-2.64-1.16-3.13Z"/><rect id="_矩形_" data-name="&lt;矩形&gt;" class="cls-5" x="107.89" y="122.91" width="3.01" height="0.7" rx="0.33" ry="0.33" transform="translate(-7.57 7.16) rotate(-3.62)"/></g><path id="_路徑_20" data-name="&lt;路徑&gt;" class="cls-1" d="M52,122.3c-4.81,31-.62,63.1,3.26,70.28s30,1,34.38-3.8-2.8-24-3.4-34.24,6-45.25-3.61-54.35C74.68,92.68,56.8,91.27,52,122.3Z"/></g></g></svg>