<svg xmlns="http://www.w3.org/2000/svg" viewBox="0 0 163.58 197.08"><defs><style>.cls-1,.cls-2{fill:#ffabb7;}.cls-1{stroke:#fff;stroke-miterlimit:10;stroke-width:4px;}.cls-3{fill:#fff;}.cls-4{fill:#114b5f;}.cls-5{fill:#39bbcc;}</style></defs><title>introduce_wei</title><g id="wei"><g id="_群組_" data-name="&lt;群組&gt;"><path id="_路徑_" data-name="&lt;路徑&gt;" class="cls-1" d="M62,87.71h0a16.63,16.63,0,0,0-23.5,1.06S12.67,115.1,5.39,125c-5,6.78-4.19,14.54-.5,21.86,5,9.84,25.38,40.7,25.38,40.7a16.64,16.64,0,0,0,22.92,5.31h0a16.64,16.64,0,0,0,5.31-22.92L38.57,138,63,111.21A16.63,16.63,0,0,0,62,87.71Z"/><path id="_路徑_2" data-name="&lt;路徑&gt;" class="cls-1" d="M77.07,186.87h0c-22.77,0-41.22,3.3-41.22-19.46V118A41.21,41.21,0,0,1,77.07,76.78h0A41.21,41.21,0,0,1,118.28,118v49.42C118.28,190.17,99.83,186.87,77.07,186.87Z"/><g id="_群組_2" data-name="&lt;群組&gt;"><circle id="_路徑_3" data-name="&lt;路徑&gt;" class="cls-2" cx="77.07" cy="48.54" r="43.96" transform="translate(12.12 112.39) rotate(-76.72)"/><path id="_複合路徑_" data-name="&lt;複合路徑&gt;" class="cls-3" d="M77.07,6.58a42,42,0,1,1-42,42,42,42,0,0,1,42-42m0-4a46,46,0,1,0,46,46,46,46,0,0,0-46-46Z"/></g><g id="_群組_3" data-name="&lt;群組&gt;"><path id="_路徑_4" data-name="&lt;路徑&gt;" class="cls-1" d="M160.47,59.32l-16.6-46.16a16.63,16.63,0,0,0-31.31,11.25L124.7,58.18a5.5,5.5,0,0,1-1,5.48L105.24,84.8a47.21,47.21,0,0,1,15.5,31.66,16.41,16.41,0,0,0,3.9-3.29s22.77-27.32,31.14-35.71C160.46,72.76,162.85,66,160.47,59.32Z"/></g><g id="_群組_4" data-name="&lt;群組&gt;"><path id="_路徑_5" data-name="&lt;路徑&gt;" class="cls-4" d="M107.07,83.35a45.89,45.89,0,0,1-7.6,5.33,24.36,24.36,0,0,1,.33,3.94c0,13-10.18,23.5-22.73,23.5S54.34,105.6,54.34,92.62a24.36,24.36,0,0,1,.32-3.94,46.31,46.31,0,0,1-7.6-5.33C36.49,92,32.57,105.2,32.57,119.94L29.74,191s3.6,2.83,47.06,2.83c46.23,0,47.59-2.83,47.59-2.83l-2.83-71.09C121.56,105.2,117.64,92,107.07,83.35Z"/></g><g id="_群組_5" data-name="&lt;群組&gt;"><path id="_路徑_6" data-name="&lt;路徑&gt;" class="cls-5" d="M123.71,114.15C123.46,100.46,108,82.57,108,82.57h0a47.3,47.3,0,0,1-4.5,3.6h0c15.33,14.49,16,46.15,18.49,46.39S124,127.84,123.71,114.15Z"/></g><g id="_群組_6" data-name="&lt;群組&gt;"><path id="_路徑_7" data-name="&lt;路徑&gt;" class="cls-5" d="M30.42,114.15c-.26,13.69-.69,18.66,1.77,18.42s3.16-31.9,18.5-46.39h0a44.39,44.39,0,0,1-4.42-3.53C45.16,83.94,30.66,101,30.42,114.15Z"/></g></g></g></svg>