<svg xmlns="http://www.w3.org/2000/svg" viewBox="0 0 120.33 199"><defs><style>.cls-1,.cls-3{fill:#ffabb7;}.cls-1{stroke:#fff;stroke-miterlimit:10;stroke-width:4px;}.cls-2{fill:#ffbf00;}.cls-4{fill:#fff;}.cls-5{fill:#ffd557;}</style></defs><title>introduce_kfw</title><g id="g"><g id="_群組_" data-name="&lt;群組&gt;"><rect id="_矩形_" data-name="&lt;矩形&gt;" class="cls-1" x="4.67" y="123.18" width="25.42" height="67.9" rx="10.8" ry="10.8" transform="translate(13.13 -0.9) rotate(4.77)"/><rect id="_矩形_2" data-name="&lt;矩形&gt;" class="cls-1" x="90.12" y="123.19" width="25.42" height="64.94" rx="10.57" ry="10.57" transform="translate(218.25 302.22) rotate(175.23)"/><path id="_路徑_" data-name="&lt;路徑&gt;" class="cls-2" d="M36.63,79.93s-8.36,0-19.86,8.34C-.47,100.77.24,134.45,0,140.2c0,0,7.91,6,25.88,4.13Z"/><path id="_路徑_2" data-name="&lt;路徑&gt;" class="cls-2" d="M83.7,79.93s8.36,0,19.86,8.34c17.25,12.5,16.53,46.18,16.77,51.93,0,0-7.9,6-25.87,4.13Z"/><rect id="_矩形_3" data-name="&lt;矩形&gt;" class="cls-1" x="18.31" y="75.35" width="83.7" height="120.49" rx="39.7" ry="39.7"/><g id="_群組_2" data-name="&lt;群組&gt;"><circle class="cls-3" cx="60.17" cy="46.67" r="44.67"/><path class="cls-4" d="M60.17,4A42.68,42.68,0,1,1,17.49,46.67,42.72,42.72,0,0,1,60.17,4m0-4a46.68,46.68,0,1,0,46.67,46.67A46.68,46.68,0,0,0,60.17,0Z"/></g><path id="_路徑_3" data-name="&lt;路徑&gt;" class="cls-5" d="M90.64,82a46.66,46.66,0,0,1-7.72,5.4,25.23,25.23,0,0,1,.33,4c0,13.18-10.34,23.86-23.08,23.86S37.09,104.62,37.09,91.44a24.11,24.11,0,0,1,.33-4A46.74,46.74,0,0,1,29.69,82C19,90.84,15,104.21,15,119.18L12.11,193s3.66,2.88,47.78,2.88c47,0,48.33-2.88,48.33-2.88l-2.87-73.78C105.35,104.21,101.38,90.84,90.64,82Z"/></g></g></svg>