<svg xmlns="http://www.w3.org/2000/svg" viewBox="0 0 274.54 271.9"><defs><style>.cls-1{fill:#968756;}.cls-2{fill:#c6cfc3;}.cls-3{fill:#231815;opacity:0.04;}.cls-4{opacity:0.25;}.cls-5,.cls-6{fill:#fff;}.cls-6{opacity:0.15;}</style></defs><title>introduce_mask</title><g id="po"><g id="_群組_" data-name="&lt;群組&gt;"><path id="_複合路徑_" data-name="&lt;複合路徑&gt;" class="cls-1" d="M136,0a136,136,0,1,0,136,136A136,136,0,0,0,136,0Zm107.1,177.9a115.07,115.07,0,1,1,7.89-42A115.35,115.35,0,0,1,243.05,177.9Z"/><g id="_群組_2" data-name="&lt;群組&gt;"><circle id="_路徑_" data-name="&lt;路徑&gt;" class="cls-2" cx="135.95" cy="10.61" r="7.02"/><circle id="_路徑_2" data-name="&lt;路徑&gt;" class="cls-2" cx="135.95" cy="261.29" r="7.02"/><circle id="_路徑_3" data-name="&lt;路徑&gt;" class="cls-2" cx="224.58" cy="46.9" r="7.02"/><circle id="_路徑_4" data-name="&lt;路徑&gt;" class="cls-2" cx="47.32" cy="224.16" r="7.02"/><circle id="_路徑_5" data-name="&lt;路徑&gt;" class="cls-2" cx="261.59" cy="135.23" r="7.02"/><circle id="_路徑_6" data-name="&lt;路徑&gt;" class="cls-2" cx="10.91" cy="135.23" r="7.02"/><circle id="_路徑_7" data-name="&lt;路徑&gt;" class="cls-2" cx="225.3" cy="223.86" r="7.02"/><circle id="_路徑_8" data-name="&lt;路徑&gt;" class="cls-2" cx="48.04" cy="46.6" r="7.02"/></g><circle id="_路徑_9" data-name="&lt;路徑&gt;" class="cls-2" cx="88.01" cy="20.27" r="3.51"/><circle id="_路徑_10" data-name="&lt;路徑&gt;" class="cls-2" cx="183.94" cy="251.86" r="3.51"/><circle id="_路徑_11" data-name="&lt;路徑&gt;" class="cls-2" cx="183.78" cy="19.88" r="3.51"/><circle id="_路徑_12" data-name="&lt;路徑&gt;" class="cls-2" cx="87.85" cy="251.47" r="3.51"/><circle id="_路徑_13" data-name="&lt;路徑&gt;" class="cls-2" cx="251.78" cy="87.32" r="3.51"/><circle id="_路徑_14" data-name="&lt;路徑&gt;" class="cls-2" cx="20.18" cy="183.25" r="3.51"/><circle id="_路徑_15" data-name="&lt;路徑&gt;" class="cls-2" cx="252.17" cy="183.09" r="3.51"/><circle id="_路徑_16" data-name="&lt;路徑&gt;" class="cls-2" cx="20.57" cy="87.16" r="3.51"/></g><g id="_群組_3" data-name="&lt;群組&gt;"><path id="_路徑_17" data-name="&lt;路徑&gt;" class="cls-3" d="M136,21a115,115,0,1,0,115,115A114.78,114.78,0,0,0,136,21Z"/><g id="_群組_4" data-name="&lt;群組&gt;" class="cls-4"><path id="_路徑_18" data-name="&lt;路徑&gt;" class="cls-5" d="M141,21.08C139.34,21,137.65,21,136,21a115.86,115.86,0,0,0-18.57,1.51L247.66,163.29a114.83,114.83,0,0,0,3.21-23.48Z"/></g><path id="_路徑_19" data-name="&lt;路徑&gt;" class="cls-6" d="M243,177.9l-140.6-152A115.32,115.32,0,0,0,31.9,87L176.73,243.49A115.31,115.31,0,0,0,243,177.9Z"/></g></g></svg>