<svg xmlns="http://www.w3.org/2000/svg" viewBox="0 0 372.11 43.75"><defs><style>.cls-1{fill:none;stroke:#6ed8e6;stroke-linecap:round;stroke-linejoin:round;stroke-width:4px;}.cls-2{fill:#6ed8e6;}</style></defs><title>light_blue_logo</title><g id="harvest"><g id="_群組_" data-name="&lt;群組&gt;"><line id="_路徑_" data-name="&lt;路徑&gt;" class="cls-1" x1="2.02" y1="2.01" x2="2.02" y2="41.77"/><line id="_路徑_2" data-name="&lt;路徑&gt;" class="cls-1" x1="30.35" y1="2.01" x2="30.35" y2="41.77"/><line id="_路徑_3" data-name="&lt;路徑&gt;" class="cls-1" x1="115.25" y1="41.77" x2="115.25" y2="2.01"/><polyline id="_路徑_4" data-name="&lt;路徑&gt;" class="cls-1" points="256.79 2.01 228.53 2.01 228.53 41.77 256.79 41.77"/><polyline id="_路徑_5" data-name="&lt;路徑&gt;" class="cls-1" points="58.58 41.77 72.8 2.01 87.03 41.77"/><polyline id="_路徑_6" data-name="&lt;路徑&gt;" class="cls-1" points="200.49 2.01 186.26 41.77 172.04 2.01"/><path id="_矩形_" data-name="&lt;矩形&gt;" class="cls-1" d="M115.25,2h18.4A9.94,9.94,0,0,1,143.59,12v0a9.94,9.94,0,0,1-9.94,9.94h-18.4a0,0,0,0,1,0,0V2a0,0,0,0,1,0,0Z"/><line id="_路徑_7" data-name="&lt;路徑&gt;" class="cls-1" x1="143.56" y1="41.77" x2="132.15" y2="22.42"/><path id="_路徑_8" data-name="&lt;路徑&gt;" class="cls-1" d="M313.47,12h0A9.94,9.94,0,0,0,303.53,2h-8.46A9.94,9.94,0,0,0,285.13,12h0a9.94,9.94,0,0,0,9.94,9.94h8.46a9.94,9.94,0,0,1,9.94,9.94h0a9.94,9.94,0,0,1-9.94,9.94h-8.46a9.94,9.94,0,0,1-9.94-9.94h0"/><g id="_群組_2" data-name="&lt;群組&gt;"><line id="_路徑_9" data-name="&lt;路徑&gt;" class="cls-1" x1="370.1" y1="2.01" x2="341.84" y2="2.01"/><line id="_路徑_10" data-name="&lt;路徑&gt;" class="cls-1" x1="355.97" y1="41.77" x2="355.97" y2="2.01"/></g><path id="_矩形_2" data-name="&lt;矩形&gt;" class="cls-2" d="M69.58,22.42h.1A8.62,8.62,0,0,1,78.29,31v.1a0,0,0,0,1,0,0h-.1a8.62,8.62,0,0,1-8.62-8.62v-.1A0,0,0,0,1,69.58,22.42Z"/><path id="_矩形_3" data-name="&lt;矩形&gt;" class="cls-2" d="M11.24,16.44h.6a9.74,9.74,0,0,1,9.74,9.74v.6a0,0,0,0,1,0,0H21A9.74,9.74,0,0,1,11.24,17v-.6A0,0,0,0,1,11.24,16.44Z"/><path id="_矩形_4" data-name="&lt;矩形&gt;" class="cls-2" d="M239,16.44h.6a9.74,9.74,0,0,1,9.74,9.74v.6a0,0,0,0,1,0,0h-.6A9.74,9.74,0,0,1,239,17v-.6A0,0,0,0,1,239,16.44Z"/></g></g></svg>