<svg xmlns="http://www.w3.org/2000/svg" viewBox="0 0 267.75 35"><defs><style>.cls-1{fill:none;stroke:#fff;stroke-linecap:round;stroke-linejoin:round;stroke-width:4px;}.cls-2{fill:#fff;}</style></defs><title>logo</title><g id="n1"><g id="_群組_" data-name="&lt;群組&gt;"><line id="_路徑_" data-name="&lt;路徑&gt;" class="cls-1" x1="2.17" y1="3.18" x2="2.17" y2="31.61"/><line id="_路徑_2" data-name="&lt;路徑&gt;" class="cls-1" x1="22.43" y1="3.18" x2="22.43" y2="31.61"/><line id="_路徑_3" data-name="&lt;路徑&gt;" class="cls-1" x1="83.13" y1="31.61" x2="83.13" y2="3.18"/><polyline id="_路徑_4" data-name="&lt;路徑&gt;" class="cls-1" points="184.33 3.18 164.13 3.18 164.13 31.61 184.33 31.61"/><polyline id="_路徑_5" data-name="&lt;路徑&gt;" class="cls-1" points="42.61 31.61 52.78 3.18 62.95 31.61"/><polyline id="_路徑_6" data-name="&lt;路徑&gt;" class="cls-1" points="144.07 3.18 133.9 31.61 123.73 3.18"/><path id="_矩形_" data-name="&lt;矩形&gt;" class="cls-1" d="M83.13,3.18h13.8a6.46,6.46,0,0,1,6.46,6.46v1.29a6.46,6.46,0,0,1-6.46,6.46H83.13a0,0,0,0,1,0,0V3.18a0,0,0,0,1,0,0Z"/><line id="_路徑_7" data-name="&lt;路徑&gt;" class="cls-1" x1="103.37" y1="31.61" x2="95.22" y2="17.77"/><path id="_路徑_8" data-name="&lt;路徑&gt;" class="cls-1" d="M224.86,10.29h0a7.11,7.11,0,0,0-7.11-7.11H211.7a7.11,7.11,0,0,0-7.11,7.11h0a7.11,7.11,0,0,0,7.11,7.1h6.05a7.11,7.11,0,0,1,7.11,7.11h0a7.11,7.11,0,0,1-7.11,7.11H211.7a7.11,7.11,0,0,1-7.11-7.11h0"/><g id="_群組_2" data-name="&lt;群組&gt;"><line id="_路徑_9" data-name="&lt;路徑&gt;" class="cls-1" x1="265.35" y1="3.18" x2="245.14" y2="3.18"/><line id="_路徑_10" data-name="&lt;路徑&gt;" class="cls-1" x1="255.25" y1="31.61" x2="255.25" y2="3.18"/></g><path id="_矩形_2" data-name="&lt;矩形&gt;" class="cls-2" d="M50.47,17.77H51a5.66,5.66,0,0,1,5.66,5.66V24a0,0,0,0,1,0,0h-.57a5.66,5.66,0,0,1-5.66-5.66v-.57A0,0,0,0,1,50.47,17.77Z"/><path id="_矩形_3" data-name="&lt;矩形&gt;" class="cls-2" d="M8.76,13.49h.67a6.72,6.72,0,0,1,6.72,6.72v.67a0,0,0,0,1,0,0h-.67a6.72,6.72,0,0,1-6.72-6.72v-.67A0,0,0,0,1,8.76,13.49Z"/><path id="_矩形_4" data-name="&lt;矩形&gt;" class="cls-2" d="M171.64,13.49h.67A6.72,6.72,0,0,1,179,20.22v.67a0,0,0,0,1,0,0h-.67a6.72,6.72,0,0,1-6.72-6.72v-.67A0,0,0,0,1,171.64,13.49Z"/></g></g></svg>