<svg xmlns="http://www.w3.org/2000/svg" viewBox="0 0 1920 546.62"><defs><style>.cls-1{fill:#39bbcc;}.cls-2{fill:#6ed8e6;}.cls-3{font-size:45px;fill:#fff;font-family:GenJyuuGothicX-Bold, Gen Jyuu GothicX;font-weight:700;}</style></defs><title>mala_about_bg2</title><g id="work2"><path id="_路徑_" data-name="&lt;路徑&gt;" class="cls-1" d="M0,80.6s36.33-5.33,40.33,46S9.67,233.94,59.67,246.6s52.66-33.33,52.66-52.66,8.17-74.5,39.34-69.34c40.63,6.74,18,71.34,4.66,92.67s-7.33,55.33,41.34,58,62.66-37.33,62.66-68,31.85-56.78,56-41.33c14.67,9.38,20.67,34,11.34,56s-5.34,46.25,12,53.46,48.66-2.8,56.66-30.8,35.92-38.7,50.67-31.33,24,24,7.33,52.67c-18.4,31.65.67,74,34,74.66s58-16,58.67-49.33,28.67-57.33,53.33-48,24,34,8.67,76,8,56.67,28,58,36.67-14,38.67-74c1.33-40,29.33-56.66,58.66-50.67,14.27,2.92,33.34,22.67,16.67,60.34s14,74.33,39.33,76.33,64-12,57.34-58,42.66-62.67,64-43.33,5.81,120.42,78.33,102c25.31-6.43,36-27,24.09-58.86-17.78-47.54,6-60,21-61.5s42,10.5,42,52.5c0,20,11,55.43,49.92,61.19,36,5.33,54.41-28.16,45.33-46.67-23.47-47.85-35.33-90,.75-109,40.7-21.47,66.59,19,70.5,54,4.33,38.79,34.09,96.36,87,73.5,42.73-18.46,22.5-60,0-88.5s-15.44-64.64,15-72c44.1-10.65,58.5,43.5,58.5,84S1445,338.94,1495,325.94s40-49.2,15-81.6-41.42-80-3-97.4c43-19.5,71,21,78,52s38,85,80,63,14-79,0-104-3.46-50.74,22.18-57c35.49-8.67,44.82,28,55.82,72s35,70,65,63,49-78,0-134c-41.5-47.5-44.5-76.5-18-95,19.56-13.66,66-10,87,37s31.33,80,43,83.33V711.69H0Z"/><path id="_路徑_2" data-name="&lt;路徑&gt;" class="cls-2" d="M0,546.37V340S381,537.77,999.14,513.77C1553.53,492.24,1920,324.31,1920,324.31V546.37"/><text class="cls-3" transform="translate(105.96 443.66) rotate(16.87)">布</text><text class="cls-3" transform="translate(148.97 456.7) rotate(16.29)">農</text><text class="cls-3" transform="translate(192.07 469.3) rotate(15.69)">族</text><text class="cls-3" transform="matrix(0.97, 0.26, -0.26, 0.97, 235.31, 481.46)">打</text><text class="cls-3" transform="matrix(0.97, 0.24, -0.24, 0.97, 278.66, 493.09)">耳</text><text class="cls-3" transform="matrix(0.97, 0.22, -0.22, 0.97, 322.15, 504.08)">祭</text></g><g id="圖層_53" data-name="圖層 53"><path class="cls-1" d="M0,457.11s204.24,73.51,302.49,89.26H1464S1722.51,493.16,1920,404.89V340s-359.06,180.14-662.1,205.76l-772.74.59S233.51,511.93,0,423.77Z"/></g></svg>