<svg xmlns="http://www.w3.org/2000/svg" viewBox="0 0 1920 146.89"><defs><style>.cls-1{fill:#39bbcc;}.cls-2{fill:#6ed8e6;}</style></defs><title>mala_intro_bottom</title><g id="bg6"><path class="cls-1" d="M1908.43,0h0a11.57,11.57,0,0,0-11.56,11.57V30.93A11.57,11.57,0,0,1,1885.3,42.5h0a11.57,11.57,0,0,1-11.57-11.57V11.57a11.57,11.57,0,1,0-23.13,0V30.93a11.57,11.57,0,1,1-23.13,0V11.57A11.57,11.57,0,0,0,1815.9,0h0a11.57,11.57,0,0,0-11.56,11.57V30.93a11.57,11.57,0,0,1-11.57,11.57h0a11.57,11.57,0,0,1-11.57-11.57V11.57A11.56,11.56,0,0,0,1769.64,0h0a11.57,11.57,0,0,0-11.57,11.57V30.93a11.57,11.57,0,0,1-11.56,11.57h0a11.57,11.57,0,0,1-11.57-11.57V11.57a11.57,11.57,0,1,0-23.13,0V30.93a11.57,11.57,0,0,1-11.57,11.57h0a11.57,11.57,0,0,1-11.57-11.57V11.57a11.57,11.57,0,1,0-23.13,0V30.93A11.57,11.57,0,0,1,1654,42.5h0a11.57,11.57,0,0,1-11.57-11.57V11.57A11.57,11.57,0,0,0,1630.84,0h0a11.57,11.57,0,0,0-11.56,11.57V30.93a11.57,11.57,0,0,1-11.57,11.57h0a11.57,11.57,0,0,1-11.57-11.57V11.57A11.56,11.56,0,0,0,1584.58,0h0A11.57,11.57,0,0,0,1573,11.57V30.93a11.57,11.57,0,1,1-23.13,0V11.57a11.57,11.57,0,1,0-23.13,0V30.93a11.57,11.57,0,0,1-11.57,11.57h0a11.57,11.57,0,0,1-11.57-11.57V11.57A11.56,11.56,0,0,0,1492.05,0h0a11.57,11.57,0,0,0-11.57,11.57V30.93a11.57,11.57,0,0,1-11.56,11.57h0a11.57,11.57,0,0,1-11.57-11.57V11.57A11.57,11.57,0,0,0,1445.78,0h0a11.57,11.57,0,0,0-11.56,11.57V30.93a11.57,11.57,0,1,1-23.14,0V11.57A11.56,11.56,0,0,0,1399.52,0h0A11.57,11.57,0,0,0,1388,11.57V30.93a11.57,11.57,0,1,1-23.13,0V11.57A11.57,11.57,0,0,0,1353.25,0h0a11.57,11.57,0,0,0-11.56,11.57V30.93a11.57,11.57,0,0,1-11.57,11.57h0a11.57,11.57,0,0,1-11.57-11.57V11.57A11.56,11.56,0,0,0,1307,0h0a11.57,11.57,0,0,0-11.57,11.57V30.93a11.57,11.57,0,1,1-23.13,0V11.57A11.57,11.57,0,0,0,1260.72,0h0a11.56,11.56,0,0,0-11.56,11.57V30.93a11.57,11.57,0,0,1-23.14,0V11.57A11.56,11.56,0,0,0,1214.46,0h0a11.57,11.57,0,0,0-11.57,11.57V30.93a11.57,11.57,0,0,1-11.56,11.57h0a11.57,11.57,0,0,1-11.57-11.57V11.57A11.57,11.57,0,0,0,1168.19,0h0a11.56,11.56,0,0,0-11.56,11.57V30.93a11.57,11.57,0,0,1-11.57,11.57h0a11.57,11.57,0,0,1-11.57-11.57V11.57a11.57,11.57,0,1,0-23.13,0V30.93a11.57,11.57,0,1,1-23.13,0V11.57A11.57,11.57,0,0,0,1075.66,0h0a11.56,11.56,0,0,0-11.56,11.57V30.93a11.57,11.57,0,0,1-11.57,11.57h0A11.57,11.57,0,0,1,1041,30.93V11.57A11.56,11.56,0,0,0,1029.4,0h0a11.57,11.57,0,0,0-11.57,11.57V30.93a11.57,11.57,0,0,1-11.56,11.57h0A11.57,11.57,0,0,1,994.7,30.93V11.57A11.57,11.57,0,0,0,983.13,0h0a11.56,11.56,0,0,0-11.56,11.57V30.93A11.57,11.57,0,0,1,960,42.5h0a11.57,11.57,0,0,1-11.57-11.57V11.57A11.56,11.56,0,0,0,936.87,0h0A11.57,11.57,0,0,0,925.3,11.57V30.93A11.57,11.57,0,0,1,913.73,42.5h0a11.57,11.57,0,0,1-11.56-11.57V11.57A11.57,11.57,0,0,0,890.6,0h0A11.56,11.56,0,0,0,879,11.57V30.93A11.57,11.57,0,0,1,867.47,42.5h0A11.57,11.57,0,0,1,855.9,30.93V11.57A11.56,11.56,0,0,0,844.34,0h0a11.57,11.57,0,0,0-11.57,11.57V30.93A11.57,11.57,0,0,1,821.2,42.5h0a11.57,11.57,0,0,1-11.56-11.57V11.57A11.57,11.57,0,0,0,798.07,0h0a11.56,11.56,0,0,0-11.56,11.57V30.93A11.57,11.57,0,0,1,774.94,42.5h0a11.57,11.57,0,0,1-11.57-11.57V11.57A11.56,11.56,0,0,0,751.81,0h0a11.57,11.57,0,0,0-11.57,11.57V30.93A11.57,11.57,0,0,1,728.67,42.5h0a11.57,11.57,0,0,1-11.56-11.57V11.57A11.57,11.57,0,0,0,705.54,0h0A11.56,11.56,0,0,0,694,11.57V30.93A11.57,11.57,0,0,1,682.41,42.5h0a11.57,11.57,0,0,1-11.57-11.57V11.57A11.56,11.56,0,0,0,659.28,0h0a11.57,11.57,0,0,0-11.57,11.57V30.93A11.57,11.57,0,0,1,636.14,42.5h0a11.57,11.57,0,0,1-11.56-11.57V11.57A11.57,11.57,0,0,0,613,0h0a11.56,11.56,0,0,0-11.56,11.57V30.93A11.57,11.57,0,0,1,589.88,42.5h0a11.57,11.57,0,0,1-11.57-11.57V11.57A11.57,11.57,0,0,0,566.75,0h0a11.57,11.57,0,0,0-11.57,11.57V30.93A11.57,11.57,0,0,1,543.61,42.5h0a11.57,11.57,0,0,1-11.56-11.57V11.57A11.57,11.57,0,0,0,520.48,0h0a11.56,11.56,0,0,0-11.56,11.57V30.93A11.57,11.57,0,0,1,497.35,42.5h0a11.57,11.57,0,0,1-11.57-11.57V11.57A11.57,11.57,0,0,0,474.22,0h0a11.57,11.57,0,0,0-11.57,11.57V30.93A11.57,11.57,0,0,1,451.08,42.5h0a11.57,11.57,0,0,1-11.56-11.57V11.57A11.57,11.57,0,0,0,428,0h0a11.56,11.56,0,0,0-11.56,11.57V30.93A11.57,11.57,0,0,1,404.82,42.5h0a11.57,11.57,0,0,1-11.57-11.57V11.57A11.57,11.57,0,0,0,381.69,0h0a11.57,11.57,0,0,0-11.57,11.57V30.93A11.57,11.57,0,0,1,358.55,42.5h0A11.57,11.57,0,0,1,347,30.93V11.57A11.57,11.57,0,0,0,335.42,0h0a11.56,11.56,0,0,0-11.56,11.57V30.93A11.57,11.57,0,0,1,312.29,42.5h0a11.57,11.57,0,0,1-11.57-11.57V11.57A11.57,11.57,0,0,0,289.16,0h0a11.57,11.57,0,0,0-11.57,11.57V30.93A11.57,11.57,0,0,1,266,42.5h0a11.57,11.57,0,0,1-11.56-11.57V11.57A11.57,11.57,0,0,0,242.89,0h0a11.56,11.56,0,0,0-11.56,11.57V30.93A11.57,11.57,0,0,1,219.76,42.5h0a11.57,11.57,0,0,1-11.57-11.57V11.57A11.57,11.57,0,0,0,196.63,0h0a11.57,11.57,0,0,0-11.57,11.57V30.93A11.57,11.57,0,0,1,173.49,42.5h0a11.57,11.57,0,0,1-11.56-11.57V11.57A11.57,11.57,0,0,0,150.36,0h0A11.56,11.56,0,0,0,138.8,11.57V30.93A11.57,11.57,0,0,1,127.23,42.5h0a11.57,11.57,0,0,1-11.57-11.57V11.57A11.57,11.57,0,0,0,104.1,0h0A11.57,11.57,0,0,0,92.53,11.57V30.93A11.57,11.57,0,0,1,81,42.5h0A11.57,11.57,0,0,1,69.4,30.93V11.57A11.57,11.57,0,0,0,57.83,0h0A11.56,11.56,0,0,0,46.27,11.57V30.93A11.57,11.57,0,0,1,34.7,42.5h0A11.57,11.57,0,0,1,23.13,30.93V11.57A11.57,11.57,0,0,0,11.57,0h0A11.57,11.57,0,0,0,0,11.57v137.9c231,.21,462,1.53,693-.82,409-5,818,2.43,1227,4v-141A11.57,11.57,0,0,0,1908.43,0Z"/><g id="_群組_" data-name="&lt;群組&gt;"><path class="cls-2" d="M1909.3,122.25h0a11.56,11.56,0,0,1-11.3-9.12V91.31a11.57,11.57,0,0,0-11.57-11.56h-.26a11.57,11.57,0,0,0-11.57,11.56v19.37a11.44,11.44,0,1,1-22.87,0V91.31a11.56,11.56,0,0,0-11.56-11.56h-.27a11.57,11.57,0,0,0-11.56,11.56v19.37a11.44,11.44,0,1,1-22.87,0V91.31a11.57,11.57,0,0,0-11.57-11.56h-.26a11.57,11.57,0,0,0-11.57,11.56v19.37a11.44,11.44,0,1,1-22.87,0V91.31a11.56,11.56,0,0,0-11.56-11.56h-.27a11.57,11.57,0,0,0-11.56,11.56v19.37a11.44,11.44,0,1,1-22.87,0V91.31a11.57,11.57,0,0,0-11.57-11.56h-.26a11.57,11.57,0,0,0-11.57,11.56v19.37a11.44,11.44,0,1,1-22.87,0V91.31a11.56,11.56,0,0,0-11.56-11.56h-.27a11.57,11.57,0,0,0-11.56,11.56v19.37a11.44,11.44,0,1,1-22.87,0V91.31a11.57,11.57,0,0,0-11.57-11.56h-.26A11.57,11.57,0,0,0,1597,91.31v19.37a11.44,11.44,0,1,1-22.87,0V91.31a11.56,11.56,0,0,0-11.56-11.56h-.27a11.57,11.57,0,0,0-11.56,11.56v19.37a11.44,11.44,0,1,1-22.87,0V91.31a11.57,11.57,0,0,0-11.57-11.56h-.26a11.57,11.57,0,0,0-11.57,11.56v19.37a11.44,11.44,0,1,1-22.87,0V91.31a11.56,11.56,0,0,0-11.56-11.56h-.27a11.57,11.57,0,0,0-11.56,11.56v19.37a11.44,11.44,0,1,1-22.87,0V91.31a11.57,11.57,0,0,0-11.57-11.56h-.26A11.57,11.57,0,0,0,1412,91.31v19.37a11.44,11.44,0,1,1-22.87,0V91.31a11.56,11.56,0,0,0-11.56-11.56h-.27a11.56,11.56,0,0,0-11.56,11.56v19.37a11.44,11.44,0,1,1-22.87,0V91.31a11.57,11.57,0,0,0-11.57-11.56H1331a11.57,11.57,0,0,0-11.57,11.56v19.37a11.44,11.44,0,1,1-22.87,0V91.31A11.56,11.56,0,0,0,1285,79.75h-.27a11.56,11.56,0,0,0-11.56,11.56v19.37a11.44,11.44,0,1,1-22.87,0V91.31a11.57,11.57,0,0,0-11.57-11.56h-.26a11.57,11.57,0,0,0-11.57,11.56v19.37a11.44,11.44,0,1,1-22.87,0V91.31a11.56,11.56,0,0,0-11.56-11.56h-.27a11.56,11.56,0,0,0-11.56,11.56v19.37a11.44,11.44,0,1,1-22.87,0V91.31a11.57,11.57,0,0,0-11.57-11.56h-.26a11.57,11.57,0,0,0-11.57,11.56v19.37a11.44,11.44,0,1,1-22.87,0V91.31a11.56,11.56,0,0,0-11.56-11.56h-.27a11.56,11.56,0,0,0-11.56,11.56v19.37a11.44,11.44,0,1,1-22.87,0V91.31a11.57,11.57,0,0,0-11.57-11.56h-.26a11.57,11.57,0,0,0-11.57,11.56v19.37a11.44,11.44,0,1,1-22.87,0V91.31a11.56,11.56,0,0,0-11.56-11.56h-.27a11.56,11.56,0,0,0-11.56,11.56v19.37a11.44,11.44,0,1,1-22.87,0V91.31a11.57,11.57,0,0,0-11.57-11.56h-.26A11.57,11.57,0,0,0,949.3,91.31v19.37a11.44,11.44,0,1,1-22.87,0V91.31a11.56,11.56,0,0,0-11.56-11.56h-.27A11.56,11.56,0,0,0,903,91.31v19.37a11.44,11.44,0,1,1-22.87,0V91.31A11.57,11.57,0,0,0,868.6,79.75h-.26a11.57,11.57,0,0,0-11.57,11.56v19.37a11.44,11.44,0,1,1-22.87,0V91.31a11.56,11.56,0,0,0-11.56-11.56h-.27a11.56,11.56,0,0,0-11.56,11.56v19.37a11.44,11.44,0,1,1-22.87,0V91.31a11.57,11.57,0,0,0-11.57-11.56h-.26a11.57,11.57,0,0,0-11.57,11.56v19.37a11.44,11.44,0,1,1-22.87,0V91.31a11.56,11.56,0,0,0-11.56-11.56h-.27A11.56,11.56,0,0,0,718,91.31v19.37a11.44,11.44,0,1,1-22.87,0V91.31a11.57,11.57,0,0,0-11.57-11.56h-.26a11.57,11.57,0,0,0-11.57,11.56v19.37a11.44,11.44,0,1,1-22.87,0V91.31a11.57,11.57,0,0,0-11.56-11.56H637a11.56,11.56,0,0,0-11.56,11.56v19.37a11.44,11.44,0,1,1-22.87,0V91.31A11.57,11.57,0,0,0,591,79.75h-.26a11.57,11.57,0,0,0-11.57,11.56v19.37a11.44,11.44,0,1,1-22.87,0V91.31a11.57,11.57,0,0,0-11.56-11.56h-.27a11.56,11.56,0,0,0-11.56,11.56v19.37a11.44,11.44,0,1,1-22.87,0V91.31a11.57,11.57,0,0,0-11.57-11.56h-.26a11.57,11.57,0,0,0-11.57,11.56v19.37a11.44,11.44,0,1,1-22.87,0V91.31a11.57,11.57,0,0,0-11.56-11.56H452a11.56,11.56,0,0,0-11.56,11.56v19.37a11.44,11.44,0,1,1-22.87,0V91.31A11.57,11.57,0,0,0,406,79.75h-.26a11.57,11.57,0,0,0-11.57,11.56v19.37a11.44,11.44,0,1,1-22.87,0V91.31a11.57,11.57,0,0,0-11.56-11.56h-.27a11.56,11.56,0,0,0-11.56,11.56v19.37a11.44,11.44,0,1,1-22.87,0V91.31a11.57,11.57,0,0,0-11.57-11.56h-.26a11.57,11.57,0,0,0-11.57,11.56v19.37a11.44,11.44,0,1,1-22.87,0V91.31a11.57,11.57,0,0,0-11.56-11.56h-.27a11.56,11.56,0,0,0-11.56,11.56v19.37a11.44,11.44,0,1,1-22.87,0V91.31a11.57,11.57,0,0,0-11.57-11.56h-.26a11.57,11.57,0,0,0-11.57,11.56v19.37a11.44,11.44,0,1,1-22.87,0V91.31a11.57,11.57,0,0,0-11.56-11.56h-.27A11.56,11.56,0,0,0,162.8,91.31v19.37a11.44,11.44,0,1,1-22.87,0V91.31a11.57,11.57,0,0,0-11.57-11.56h-.26a11.57,11.57,0,0,0-11.57,11.56v19.37a11.44,11.44,0,1,1-22.87,0V91.31A11.57,11.57,0,0,0,82.1,79.75h-.27A11.56,11.56,0,0,0,70.27,91.31v19.37a11.44,11.44,0,1,1-22.87,0V91.31A11.57,11.57,0,0,0,35.83,79.75h-.26A11.57,11.57,0,0,0,24,91.31v21.82a11.56,11.56,0,0,1-11.3,9.12h0A11.57,11.57,0,0,1,1.13,110.68V91.31a11.43,11.43,0,0,0-1.13-5v63.88c231,.21,462,1.53,693-.81,409-5,818,2.42,1227,4v-38.3A11.57,11.57,0,0,1,1909.3,122.25Z"/></g></g></svg>