<svg xmlns="http://www.w3.org/2000/svg" viewBox="0 0 167.89 67.01"><defs><style>.cls-1{fill:#ffe7e6;}.cls-2{fill:#968756;}</style></defs><title>mala_meat</title><g id="work2"><g id="_群組_" data-name="&lt;群組&gt;"><path id="_路徑_" data-name="&lt;路徑&gt;" class="cls-1" d="M45.79,24.8H20.13a.62.62,0,0,1-.61-.57,9.79,9.79,0,1,0-16.2,8.45.64.64,0,0,1,0,1,9.79,9.79,0,1,0,16.2,8.45.61.61,0,0,1,.61-.56H45.79Z"/><path id="_路徑_2" data-name="&lt;路徑&gt;" class="cls-1" d="M122.1,24.8h25.65a.63.63,0,0,0,.62-.57,9.79,9.79,0,1,1,16.2,8.45.64.64,0,0,0,0,1,9.79,9.79,0,1,1-16.2,8.45.62.62,0,0,0-.62-.56H122.1Z"/><path id="_路徑_3" data-name="&lt;路徑&gt;" class="cls-2" d="M119.77,0C108.06,0,106.7,6.88,83.94,6.88S59.82,0,48.12,0C35.48,0,27.44,14.85,27.44,33.16S37.85,66.32,48.12,66.32c11.7,0,13.07-6.88,35.82-6.88s24.12,6.88,35.83,6.88c12.9,0,20.67-14.84,20.67-33.16S131.56,0,119.77,0Z"/></g></g></svg>