<svg xmlns="http://www.w3.org/2000/svg" viewBox="0 0 1920 1080"><defs><style>.cls-1{fill:#968756;}.cls-2{fill:#14a5b8;}.cls-3{fill:#39bbcc;}.cls-4{fill:#028090;}</style></defs><title>mala_video_bottom</title><g id="work2"><g id="_群組_" data-name="&lt;群組&gt;"><rect id="_矩形_" data-name="&lt;矩形&gt;" class="cls-1" x="1538.31" y="-667.71" width="50.67" height="670.25" rx="23.61" ry="23.61"/></g><g id="_群組_2" data-name="&lt;群組&gt;"><rect id="_矩形_2" data-name="&lt;矩形&gt;" class="cls-1" x="404.56" y="-667.71" width="50.67" height="670.25" rx="23.61" ry="23.61"/></g><g id="_群組_3" data-name="&lt;群組&gt;"><path id="_路徑_" data-name="&lt;路徑&gt;" class="cls-2" d="M1919.94-398.44a14.48,14.48,0,0,0-13.53,14.61v34.32a17.31,17.31,0,0,1-17.31,17.3,17.3,17.3,0,0,1-17.3-17.3v-34.73a14.22,14.22,0,0,0-14.22-14.22,14.23,14.23,0,0,0-14.23,14.22v34.73a17.3,17.3,0,0,1-17.3,17.3,17.31,17.31,0,0,1-17.31-17.3v-9.87A14.49,14.49,0,0,0,1795.21-374a14.23,14.23,0,0,0-14.91,14.21v10.27a17.31,17.31,0,0,1-17.3,17.3,17.31,17.31,0,0,1-17.31-17.3v-52.16a14.48,14.48,0,0,0-13.53-14.6,14.21,14.21,0,0,0-14.91,14.2v52.56a17.31,17.31,0,0,1-17.3,17.3,17.31,17.31,0,0,1-17.31-17.3v-23.73a14.22,14.22,0,0,0-14.22-14.22,14.22,14.22,0,0,0-14.22,14.22v23.73a17.31,17.31,0,0,1-17.31,17.3,17.31,17.31,0,0,1-17.3-17.3v-9.87A14.5,14.5,0,0,0,1606.06-374a14.23,14.23,0,0,0-14.91,14.21v10.27a17.31,17.31,0,0,1-17.31,17.3,17.3,17.3,0,0,1-17.3-17.3v-34.73a14.22,14.22,0,0,0-14.22-14.22,14.23,14.23,0,0,0-14.23,14.22v34.73a17.3,17.3,0,0,1-17.3,17.3,17.31,17.31,0,0,1-17.31-17.3v-52.16a14.48,14.48,0,0,0-13.53-14.6,14.21,14.21,0,0,0-14.91,14.2v52.56a17.31,17.31,0,0,1-17.3,17.3,17.31,17.31,0,0,1-17.31-17.3v-9.87A14.49,14.49,0,0,0,1416.9-374,14.23,14.23,0,0,0,1402-359.78v10.27a17.31,17.31,0,0,1-17.3,17.3,17.31,17.31,0,0,1-17.31-17.3v-23.73a14.22,14.22,0,0,0-14.22-14.22,14.22,14.22,0,0,0-14.22,14.22v23.73a17.31,17.31,0,0,1-17.31,17.3,17.31,17.31,0,0,1-17.3-17.3v-34.32a14.49,14.49,0,0,0-13.53-14.61,14.21,14.21,0,0,0-14.91,14.2v34.73a17.31,17.31,0,0,1-17.31,17.3,17.3,17.3,0,0,1-17.3-17.3v-52.56a14.22,14.22,0,0,0-14.22-14.22h0a14.23,14.23,0,0,0-14.23,14.22v52.56a17.3,17.3,0,0,1-17.3,17.3,17.3,17.3,0,0,1-17.3-17.3v-9.87A14.49,14.49,0,0,0,1164.69-374a14.23,14.23,0,0,0-14.91,14.21v10.27a17.3,17.3,0,0,1-17.3,17.3,17.31,17.31,0,0,1-17.31-17.3v-34.32a14.48,14.48,0,0,0-13.53-14.61,14.21,14.21,0,0,0-14.91,14.2v34.73a17.31,17.31,0,0,1-17.3,17.3,17.31,17.31,0,0,1-17.31-17.3v-34.73a14.22,14.22,0,0,0-14.22-14.22h0a14.22,14.22,0,0,0-14.22,14.22v34.73a17.31,17.31,0,0,1-17.31,17.3h0a17.31,17.31,0,0,1-17.3-17.3v-23.32a14.49,14.49,0,0,0-13.53-14.61,14.21,14.21,0,0,0-14.91,14.2v23.73a17.31,17.31,0,0,1-17.31,17.3h0a17.31,17.31,0,0,1-17.3-17.3v-10.27A14.22,14.22,0,0,0,911.8-374h0a14.22,14.22,0,0,0-14.22,14.22v10.27a17.31,17.31,0,0,1-17.31,17.3,17.3,17.3,0,0,1-17.3-17.3v-52.16a14.49,14.49,0,0,0-13.54-14.6,14.22,14.22,0,0,0-14.91,14.2v52.56a17.3,17.3,0,0,1-17.3,17.3h0a17.31,17.31,0,0,1-17.31-17.3v-23.32a14.48,14.48,0,0,0-13.53-14.61,14.21,14.21,0,0,0-14.91,14.2v23.73a17.31,17.31,0,0,1-17.3,17.3,17.31,17.31,0,0,1-17.31-17.3v-34.73a14.22,14.22,0,0,0-14.22-14.22h0a14.22,14.22,0,0,0-14.22,14.22v34.73a17.31,17.31,0,0,1-17.31,17.3h0a17.31,17.31,0,0,1-17.3-17.3v-9.87A14.48,14.48,0,0,0,660.28-374a14.23,14.23,0,0,0-14.91,14.21v10.27a17.31,17.31,0,0,1-17.31,17.3h0a17.31,17.31,0,0,1-17.3-17.3v-34.73a14.22,14.22,0,0,0-14.22-14.22h0a14.22,14.22,0,0,0-14.22,14.22v34.73A17.31,17.31,0,0,1,565-332.21a17.3,17.3,0,0,1-17.3-17.3v-52.16a14.49,14.49,0,0,0-13.54-14.6,14.22,14.22,0,0,0-14.91,14.2v52.56a17.3,17.3,0,0,1-17.3,17.3h0a17.31,17.31,0,0,1-17.31-17.3v-34.32a14.48,14.48,0,0,0-13.53-14.61,14.21,14.21,0,0,0-14.91,14.2v34.73a17.31,17.31,0,0,1-17.3,17.3,17.31,17.31,0,0,1-17.31-17.3v-34.73a14.22,14.22,0,0,0-14.22-14.22h0a14.22,14.22,0,0,0-14.22,14.22v34.73a17.31,17.31,0,0,1-17.3,17.3h0a17.31,17.31,0,0,1-17.31-17.3v-23.32A14.48,14.48,0,0,0,345-387.44a14.21,14.21,0,0,0-14.91,14.2v23.73a17.31,17.31,0,0,1-17.31,17.3h0a17.31,17.31,0,0,1-17.3-17.3v-52.56a14.22,14.22,0,0,0-14.22-14.22h0a14.22,14.22,0,0,0-14.22,14.22v52.56a17.31,17.31,0,0,1-17.31,17.3,17.3,17.3,0,0,1-17.3-17.3v-34.32a14.49,14.49,0,0,0-13.54-14.61A14.22,14.22,0,0,0,204-384.24v34.73a17.3,17.3,0,0,1-17.3,17.3h0a17.31,17.31,0,0,1-17.31-17.3v-23.32a14.48,14.48,0,0,0-13.53-14.61A14.21,14.21,0,0,0,141-373.24v23.73a17.31,17.31,0,0,1-17.3,17.3,17.31,17.31,0,0,1-17.31-17.3v-10.27A14.22,14.22,0,0,0,92.12-374h0A14.22,14.22,0,0,0,77.9-359.78v10.27a17.31,17.31,0,0,1-17.3,17.3h0a17.31,17.31,0,0,1-17.31-17.3v-34.32a14.48,14.48,0,0,0-13.53-14.61,14.21,14.21,0,0,0-14.91,14.2V0H1920.51V-398.44Z"/></g><g id="_群組_4" data-name="&lt;群組&gt;"><ellipse id="_路徑_2" data-name="&lt;路徑&gt;" class="cls-3" cx="161.44" cy="480.54" rx="79.5" ry="46" transform="translate(-339.44 402.47) rotate(-62.57)"/><path id="_路徑_3" data-name="&lt;路徑&gt;" class="cls-1" d="M107.51,568c19.22-59.05,36-85.33,50-78s-12.82,36.63-26.64,78c-13.36,40-8.69,73.11-28.69,72C82.79,638.89,97.94,597.35,107.51,568Z"/></g><g id="_群組_5" data-name="&lt;群組&gt;"><ellipse id="_路徑_4" data-name="&lt;路徑&gt;" class="cls-3" cx="315.82" cy="460.28" rx="84.84" ry="49.09" transform="translate(-237.73 532.21) rotate(-62.95)"/><path id="_路徑_5" data-name="&lt;路徑&gt;" class="cls-1" d="M261.81,550.56c19.23-63.41,36.57-91.82,51.66-84.29s-12.89,39.35-26.74,83.79c-13.39,43-7.7,78.19-29.06,77.43C237,626.76,252.23,582.12,261.81,550.56Z"/></g><g id="_群組_6" data-name="&lt;群組&gt;"><ellipse id="_路徑_6" data-name="&lt;路徑&gt;" class="cls-3" cx="433" cy="538.9" rx="71.66" ry="41.47" transform="matrix(0.6, -0.8, 0.8, 0.6, -257.86, 563.56)"/><path id="_路徑_7" data-name="&lt;路徑&gt;" class="cls-1" d="M374.45,605.83c25.77-49.7,44.55-70.61,55.92-62s-16.78,30.69-35.14,65.46c-17.76,33.61-18.47,63.75-36.09,59.82C342.06,665.28,361.63,630.56,374.45,605.83Z"/></g><g id="_群組_7" data-name="&lt;群組&gt;"><ellipse id="_路徑_8" data-name="&lt;路徑&gt;" class="cls-3" cx="1493.65" cy="463.4" rx="46.49" ry="80.34" transform="translate(-29.15 819.5) rotate(-30.4)"/><path id="_路徑_9" data-name="&lt;路徑&gt;" class="cls-1" d="M1551.21,543.17c-24.57-57.75-43.78-82.73-57.23-74.1s16.15,35.74,33.72,76.17c17,39.08,15.21,72.83,35.25,69.94C1582.36,612.38,1563.44,571.91,1551.21,543.17Z"/></g><g id="_群組_8" data-name="&lt;群組&gt;"><ellipse id="_路徑_10" data-name="&lt;路徑&gt;" class="cls-3" cx="1667.81" cy="496.13" rx="46.49" ry="80.34" transform="translate(-66.29 639.74) rotate(-21.3)"/><path id="_路徑_11" data-name="&lt;路徑&gt;" class="cls-1" d="M1713.75,587.91c-14.68-61-29.5-88.83-44.18-82.56s10,37.93,20.64,80.71c10.28,41.35,3,74.34,23.19,74.81C1733,661.32,1721.05,618.27,1713.75,587.91Z"/></g><g id="_群組_9" data-name="&lt;群組&gt;"><ellipse id="_路徑_12" data-name="&lt;路徑&gt;" class="cls-3" cx="1839.79" cy="611.95" rx="38.1" ry="65.84" transform="translate(-92.03 446.52) rotate(-13.5)"/><path id="_路徑_13" data-name="&lt;路徑&gt;" class="cls-1" d="M1869.61,690.64c-5.74-51.11-15-75.23-27.54-71.62s4.29,31.85,8.59,67.72c4.17,34.67-5.15,60.76,11.26,63.19C1877.83,752.29,1872.47,716.07,1869.61,690.64Z"/></g><path id="_路徑_14" data-name="&lt;路徑&gt;" class="cls-4" d="M.51,739.64s76.63-175.7,229-173c198.08,3.5,229.81,253,340.32,610,70.59,228.06,128.76,663.5,390.68,674.75,217,9.33,297.1-413.63,377.56-741.68,93.61-381.61,103.44-535.07,243.44-537.07s339,219,339,219v1260H.51Z"/><g id="_群組_10" data-name="&lt;群組&gt;"><ellipse id="_路徑_15" data-name="&lt;路徑&gt;" class="cls-3" cx="310.74" cy="1084.16" rx="365.9" ry="211.71" transform="translate(-783.4 810.6) rotate(-59.97)"/></g><g id="_群組_11" data-name="&lt;群組&gt;"><ellipse id="_路徑_16" data-name="&lt;路徑&gt;" class="cls-2" cx="1302.13" cy="1334.24" rx="173.79" ry="300.36" transform="translate(-546.69 1094.23) rotate(-38.3)"/></g><g id="_群組_12" data-name="&lt;群組&gt;"><ellipse id="_路徑_17" data-name="&lt;路徑&gt;" class="cls-3" cx="1585.94" cy="1094.98" rx="212.76" ry="367.71" transform="translate(-336.23 1234.41) rotate(-38.77)"/></g></g></svg>