<svg xmlns="http://www.w3.org/2000/svg" viewBox="0 0 121.63 199.83"><defs><style>.cls-1,.cls-2{fill:#ffabb7;stroke:#fff;stroke-width:4px;}.cls-1{stroke-linecap:round;stroke-linejoin:round;}.cls-2{stroke-miterlimit:10;}</style></defs><title>mala_catcher</title><g id="work2"><path id="_路徑_" data-name="&lt;路徑&gt;" class="cls-1" d="M110.76,2.71h0a12.51,12.51,0,0,0-15.58,8.35L80.8,58.62a29.05,29.05,0,0,0-12.26-2.7H53.15a29.06,29.06,0,0,0-12.27,2.7L26.51,11.06A12.52,12.52,0,0,0,10.92,2.71h0A12.52,12.52,0,0,0,2.57,18.3L24,89.15v78.94a29.15,29.15,0,0,0,29.16,29.16H68.54a29.15,29.15,0,0,0,29.15-29.16V89.15L119.11,18.3A12.51,12.51,0,0,0,110.76,2.71Z"/><circle id="_路徑_2" data-name="&lt;路徑&gt;" class="cls-2" cx="60.84" cy="42.58" r="35.5"/><path id="_路徑_3" data-name="&lt;路徑&gt;" class="cls-1" d="M39.66,59.08c-6-4.69-5.06-18.32-2.85-22.57,2.33-4.46,12.2-5.32,16.56-5.87,7.23-.9,23.86-3.6,29.15-.54,6.2,3.6,9.64,22.4-.88,28S50.64,67.67,39.66,59.08Z"/><path id="_路徑_4" data-name="&lt;路徑&gt;" class="cls-1" d="M44.89,50.42a37.93,37.93,0,0,1,16-6.5,31.39,31.39,0,0,1,16.55,2.46"/></g></svg>