<svg xmlns="http://www.w3.org/2000/svg" viewBox="0 0 243.64 566.55"><defs><style>.cls-1{fill:#ffd557;}.cls-2{fill:#ffe491;}.cls-3{fill:#968756;}</style></defs><title>mala_deer_lookback</title><g id="deer1"><g id="_群組_" data-name="&lt;群組&gt;"><path id="_路徑_" data-name="&lt;路徑&gt;" class="cls-1" d="M130.12,457.37c-1,25.4,9.11,101.18,10.23,109.18H159s-11.68-49.74,13.74-90.11C190,449,131.5,422.66,130.12,457.37Z"/><g id="_群組_2" data-name="&lt;群組&gt;"><g id="_群組_3" data-name="&lt;群組&gt;"><g id="_群組_4" data-name="&lt;群組&gt;"><path id="_路徑_2" data-name="&lt;路徑&gt;" class="cls-2" d="M106.41,441.9s4.09,50.63-5.3,77.58c-3,8.54-2.06,26.51.58,47.07H80C72.89,511.49,68,432.1,68,432.1,15,362.18,41.86,280.64,47.23,259c4.05-16.27,2.52-64.46,2.52-64.46-31.62-1.66-39.26-18.57-41-28.82a4.16,4.16,0,0,1,4-4.83c4.23-.16,11-2,17.34.11a77.32,77.32,0,0,1,24.5,13.88l6.54-9c4.44-14.24-9-29.4-33.49-32.66C9.54,130.85,3.1,117.75,1,111.06a.56.56,0,0,1,1-.49c9.65,13.37,35,11.26,35,11.26C-14.2,74.56.7,17.53,6.82.37a.57.57,0,0,1,1.09.3C.25,48.43,16.2,60.59,16.2,60.59,13.75,42.78,20.52,36.05,24,33.81a.56.56,0,0,1,.77.78c-14.63,24.06,11.44,81.65,29,86.43,18,4.9,20.41,38,20.41,38,15.88-7.15,25.32-6.23,25.32-6.23s10-.46,25.38,5.52c0,0,2.38-32.36,20.35-37.26,17.52-4.78,43.58-62.37,29-86.43a.56.56,0,0,1,.77-.78c3.51,2.24,10.29,9,7.84,26.78,0,0,15.95-12.16,8.29-59.93a.56.56,0,0,1,1.08-.29c6.13,17.15,21,74.19-30.1,121.46,0,0,25.32,2.11,35-11.26a.56.56,0,0,1,1,.49c-2.13,6.69-8.57,19.79-26.67,22.21-24.5,3.26-37.51,18-33.48,32.66l6.53,9A77.32,77.32,0,0,1,168.91,161c6.36-2.08,13.11-.27,17.35-.11a4.16,4.16,0,0,1,4,4.83c-1.71,10.25-9.34,27.16-41,28.82,0,0,1.68,21.66,14.21,62.46,9.36,30.5,42.61,33.33,64.77,73.54s18,68,2.58,105.66,11.85,35.83-8.51,64.69-32,65.63-32,65.63H140.35s9.53-32.38,20.87-50.16c0,0-36.28-33.77-39.4-80.41C121.82,436,107.79,436.49,106.41,441.9Z"/></g></g></g><circle id="_路徑_3" data-name="&lt;路徑&gt;" class="cls-3" cx="81.13" cy="291.06" r="13.47"/><circle id="_路徑_4" data-name="&lt;路徑&gt;" class="cls-3" cx="100.73" cy="340.47" r="6.12"/><circle id="_路徑_5" data-name="&lt;路徑&gt;" class="cls-3" cx="133.55" cy="307.4" r="6.53"/><circle id="_路徑_6" data-name="&lt;路徑&gt;" class="cls-3" cx="177.07" cy="300.88" r="5.07"/><circle id="_路徑_7" data-name="&lt;路徑&gt;" class="cls-3" cx="147.23" cy="261.76" r="6.5"/><circle id="_路徑_8" data-name="&lt;路徑&gt;" class="cls-3" cx="153.77" cy="328.22" r="6.53"/><circle id="_路徑_9" data-name="&lt;路徑&gt;" class="cls-3" cx="168.47" cy="354.93" r="8.17"/><circle id="_路徑_10" data-name="&lt;路徑&gt;" class="cls-3" cx="216.91" cy="333.93" r="9.31"/><circle id="_路徑_11" data-name="&lt;路徑&gt;" class="cls-3" cx="136.81" cy="346.76" r="3.27"/><circle id="_路徑_12" data-name="&lt;路徑&gt;" class="cls-3" cx="192.46" cy="358.61" r="3.67"/><path id="_路徑_13" data-name="&lt;路徑&gt;" class="cls-1" d="M201.26,439.84s-5.85,19.59-3.78,30.93,13.4,22.68,3.78,39.17-32,47.24-30.24,56.61h13.27s6.14-36.25,17.48-47.2,18.21-20.23,13.92-28.48S199,464.93,201.26,439.84Z"/><path id="_路徑_14" data-name="&lt;路徑&gt;" class="cls-1" d="M226.22,372.84c21.46,29.66.42,94,6.13,107.91,5.42,13.2,18,19.58,1.78,41.91a3.55,3.55,0,0,1-5.79,0c-4-5.73-10-17.54-4.93-31.75,7.13-20.16-.06-83.83-11.55-96.54C206.54,388.43,218.06,361.56,226.22,372.84Z"/></g></g></svg>