<svg xmlns="http://www.w3.org/2000/svg" viewBox="0 0 1920 1080"><defs><style>.cls-1{fill:#028090;}.cls-2{fill:#14a5b8;}.cls-3{fill:#968756;}.cls-4{fill:#ffabb7;stroke:#fff;stroke-miterlimit:10;stroke-width:4px;}.cls-5{fill:#39bbcc;}.cls-6{fill:#6ed8e6;}</style></defs><title>mala_about_bg1</title><g id="work2"><path id="_路徑_" data-name="&lt;路徑&gt;" class="cls-1" d="M541,.52C452-304.4,409.29-510.18,229.51-513.36c-152.37-2.7-229,173-229,173V0"/><g id="_群組_" data-name="&lt;群組&gt;"><ellipse id="_路徑_2" data-name="&lt;路徑&gt;" class="cls-2" cx="503.81" cy="604.36" rx="75.25" ry="43.54" transform="translate(-276.63 704.25) rotate(-57.48)"/><path id="_路徑_3" data-name="&lt;路徑&gt;" class="cls-3" d="M439.13,678.83c27.05-52.17,46.78-74.13,58.72-65.13s-17.62,32.23-36.9,68.74c-18.64,35.29-19.39,66.93-37.9,62.81C405.12,741.26,425.67,704.8,439.13,678.83Z"/></g><rect id="_矩形_" data-name="&lt;矩形&gt;" class="cls-4" x="272.2" y="576.66" width="25.63" height="59.25" rx="12.81" ry="12.81" transform="translate(-329.42 339.3) rotate(-41.34)"/><g id="_群組_2" data-name="&lt;群組&gt;"><ellipse id="_路徑_4" data-name="&lt;路徑&gt;" class="cls-2" cx="466.89" cy="320.8" rx="277.17" ry="160.37" transform="matrix(0.54, -0.84, 0.84, 0.54, -54.62, 542.01)"/><path id="_路徑_5" data-name="&lt;路徑&gt;" class="cls-3" d="M228.64,595.14c99.64-192.2,172.29-273.09,216.28-239.92S380,474,309,608.42c-68.66,130-71.41,246.54-139.58,231.36C103.35,825.06,179.05,690.79,228.64,595.14Z"/></g><g id="_群組_3" data-name="&lt;群組&gt;"><ellipse id="_路徑_6" data-name="&lt;路徑&gt;" class="cls-5" cx="310.74" cy="4.16" rx="365.9" ry="211.71" transform="translate(151.62 271.1) rotate(-59.97)"/><g id="_群組_4" data-name="&lt;群組&gt;"><path id="_路徑_7" data-name="&lt;路徑&gt;" class="cls-3" d="M279.35,45.87c-60-34.12-137.23,78.13-230,333.06-15.65,43-34.31,92-48.85,138.33V798.43a45,45,0,0,0,14.79,3.75c87.15,7.84,36.93-181.12,136-419.73C224.45,206.47,339.37,80,279.35,45.87Z"/></g></g><g id="_群組_5" data-name="&lt;群組&gt;"><ellipse id="_路徑_8" data-name="&lt;路徑&gt;" class="cls-2" cx="1302.13" cy="254.24" rx="173.79" ry="300.36" transform="translate(122.69 861.78) rotate(-38.3)"/><path id="_路徑_9" data-name="&lt;路徑&gt;" class="cls-3" d="M1566.9,537.49c-120.18-201.49-204-284.32-249.43-245.59S1395.33,416.15,1480.84,557c82.66,136.19,93.14,262.09,165.9,241.27C1717.26,778.14,1626.71,637.76,1566.9,537.49Z"/></g><g id="_群組_6" data-name="&lt;群組&gt;"><ellipse id="_路徑_10" data-name="&lt;路徑&gt;" class="cls-5" cx="1585.94" cy="14.98" rx="212.76" ry="367.71" transform="translate(340.07 996.44) rotate(-38.77)"/><g id="_群組_7" data-name="&lt;群組&gt;"><path id="_路徑_11" data-name="&lt;路徑&gt;" class="cls-3" d="M1881.67,338.15C1744.55,108.26,1648.94,13.76,1597.08,57.94s88.84,141.76,186.39,302.51c70.23,115.7,94.8,224.89,137,263.31V403.07C1907.28,380.66,1893.91,358.67,1881.67,338.15Z"/></g></g><path id="_路徑_12" data-name="&lt;路徑&gt;" class="cls-2" d="M.51,356.81s13-11.67,38.5,3.33S85.51,438,61.51,493.3,3.56,757.29,76.84,732c41.48-14.33,19.34-95.33,47.34-162s61.33-66,82.66-61.33,40.74,46.07-6.66,124c-48.67,80-30,110,0,112s48-25.34,52-61.34,42-99.33,79.41-81.29c40.3,19.42,7.92,68.63-5.41,91.29s-23.34,77.34,14,82,59.51-28.77,64.85-56.1,22-41.33,44.66-38.67,27.34,29.34,16,53.34-8.18,47.77,17.15,57.77c23.54,9.29,40.67-5.67,42.67-39.67s18.67-35.33,30-31.33,30,26.66,8.67,62.66-.5,46.67,9.75,49.34,34.91-8,38.91-41,21-41.35,32-37.67c22,7.33,16,32.67,10,50.67s-4,46.66,24.67,52.66S712,815.89,712,800.64s11-20,19.5-20.25,16.5,10.5,13.25,22.5-7.5,51.5,11,53,19.25-18.5,19-27.25,9-26,25-22.25,14.25,19.5,12.75,27,5,23.61,25.67,24.76,34-14.85,31.33-32.18,9.33-24,18-23.33,19.33,6.66,16,32.66,19.33,27.34,31.33,26,28.67-14,25.67-36.66S958.84,788,976.84,786s22,19.33,20,30-.33,56.67,31.67,56.67,45.13-27,28.46-50.34-17.71-48.66,6.81-57.33,41.86,19.33,42.53,54.67,18,47.33,47.33,43.33,48.54-55.67,32.54-90.33-12.19-57.19-4.67-65.6c17.93-20.07,46.67-8.4,49.33,40.26s3.34,80.67,38.67,76,43.67-54.66,27.33-86.66-29.33-86.67,12-99.34S1371.51,674,1371.51,706s16.67,106,83.33,85.67,30-93,9.34-119-62.67-100.67-24-130,86,32,110,116.66,73.33,95.34,104.66,83.34,66.67-60.67,6-148.67-44.66-138-13.33-154,98.67,12.67,112.67,115.33S1816.84,658,1844.84,648s35.34-89.33-6-147.33-80.66-147.34-10-168,91.67,88,91.67,88v703.72H.51Z"/><path id="_路徑_13" data-name="&lt;路徑&gt;" class="cls-5" d="M1920.51,873.4V2126.67H.51V957.15s381,170.24,999.14,146.23C1554,1081.86,1920.51,873.4,1920.51,873.4Z"/><path id="_路徑_14" data-name="&lt;路徑&gt;" class="cls-6" d="M1920.51,938.27V2160H.51V990.49s381,170.23,999.14,146.23C1554,1115.19,1920.51,938.27,1920.51,938.27Z"/></g></svg>