<svg xmlns="http://www.w3.org/2000/svg" viewBox="0 0 42.69 49.28"><defs><style>.cls-1{fill:#ffe491;}.cls-2,.cls-3{fill:none;stroke:#ffe7e6;}.cls-2{stroke-linecap:round;stroke-linejoin:round;}.cls-3{stroke-miterlimit:10;}.cls-4{fill:#968756;}.cls-5{fill:#eb6860;}</style></defs><title>mala_logo</title><g id="n2"><g id="_群組_" data-name="&lt;群組&gt;"><g id="_群組_2" data-name="&lt;群組&gt;"><path id="_路徑_" data-name="&lt;路徑&gt;" class="cls-1" d="M40.6,33.54l-4.71-3.43a.24.24,0,0,0-.2,0l-2.37.8a.22.22,0,0,0,0,.38L38,34.69a.21.21,0,0,0,.19,0l2.37-.8A.22.22,0,0,0,40.6,33.54Z"/><path id="_路徑_2" data-name="&lt;路徑&gt;" class="cls-1" d="M37.69,37.53,33,34.11a.24.24,0,0,1-.09-.18l0-2.5a.22.22,0,0,1,.35-.17L38,34.69a.22.22,0,0,1,.09.17l0,2.5A.22.22,0,0,1,37.69,37.53Z"/><line id="_路徑_3" data-name="&lt;路徑&gt;" class="cls-2" x1="37.92" y1="34.64" x2="2.62" y2="9"/><path id="_路徑_4" data-name="&lt;路徑&gt;" class="cls-1" d="M3.58,11.9,0,7.35a.19.19,0,0,1,.21-.29L5.68,9a.19.19,0,0,1,.09.29L3.89,11.9A.2.2,0,0,1,3.58,11.9Z"/></g><g id="_群組_3" data-name="&lt;群組&gt;"><line id="_路徑_5" data-name="&lt;路徑&gt;" class="cls-3" x1="39.22" y1="2.51" x2="8.19" y2="45.22"/><path id="_路徑_6" data-name="&lt;路徑&gt;" class="cls-4" d="M10.16,46.43c-.87-6.21-1.19-16,6.81-27S34.55,5.65,40.72,4.58A2.3,2.3,0,1,0,39.87.06L39,.2A40.24,40.24,0,0,0,13.17,16.67,40.28,40.28,0,0,0,5.48,46.3c0,.22.14.88.14.88a2.31,2.31,0,1,0,4.54-.75Z"/><path id="_路徑_7" data-name="&lt;路徑&gt;" class="cls-5" d="M21.17,13.9a.53.53,0,0,1,0,.81,42.71,42.71,0,0,0-3.73,4.6,42.6,42.6,0,0,0-3.22,5,.53.53,0,0,1-.78.2L10.09,22a.59.59,0,0,1-.18-.75,39.74,39.74,0,0,1,3.17-5.16A40.44,40.44,0,0,1,17,11.49a.59.59,0,0,1,.77-.06Z"/></g></g></g></svg>