<svg xmlns="http://www.w3.org/2000/svg" viewBox="0 0 1905.66 416.29"><defs><style>.cls-1{fill:#14a5b8;}</style></defs><title>mala_header_bottom2</title><g id="bg1"><g id="_群組_" data-name="&lt;群組&gt;"><path id="_路徑_" data-name="&lt;路徑&gt;" class="cls-1" d="M1905.09,17.85a14.48,14.48,0,0,0-13.53,14.6V66.77a17.31,17.31,0,1,1-34.61,0V32.05a14.22,14.22,0,0,0-28.44,0V66.77a17.31,17.31,0,1,1-34.61,0V56.91a14.49,14.49,0,0,0-13.54-14.61,14.23,14.23,0,0,0-14.91,14.21V66.77a17.31,17.31,0,1,1-34.61,0V14.62A14.48,14.48,0,0,0,1717.31,0a14.21,14.21,0,0,0-14.91,14.2V66.77a17.31,17.31,0,1,1-34.61,0V43.05a14.22,14.22,0,0,0-28.44,0V66.77a17.31,17.31,0,1,1-34.61,0V56.91a14.48,14.48,0,0,0-13.53-14.61,14.23,14.23,0,0,0-14.91,14.21V66.77a17.31,17.31,0,1,1-34.61,0V32.05a14.22,14.22,0,1,0-28.44,0V66.77a17.31,17.31,0,1,1-34.61,0V14.62A14.49,14.49,0,0,0,1465.1,0a14.22,14.22,0,0,0-14.91,14.2V66.77a17.31,17.31,0,1,1-34.61,0V56.91a14.48,14.48,0,0,0-13.53-14.61,14.23,14.23,0,0,0-14.91,14.21V66.77a17.31,17.31,0,1,1-34.61,0V43.05a14.22,14.22,0,0,0-28.44,0V66.77a17.31,17.31,0,1,1-34.61,0V32.45A14.48,14.48,0,0,0,1276,17.85,14.21,14.21,0,0,0,1261,32.05V66.77a17.31,17.31,0,1,1-34.61,0V14.22A14.22,14.22,0,0,0,1212.21,0h0A14.22,14.22,0,0,0,1198,14.22V66.77a17.31,17.31,0,1,1-34.61,0V56.91a14.49,14.49,0,0,0-13.54-14.61,14.23,14.23,0,0,0-14.91,14.21V66.77a17.3,17.3,0,1,1-34.6,0V32.45a14.49,14.49,0,0,0-13.54-14.6,14.21,14.21,0,0,0-14.91,14.2V66.77a17.31,17.31,0,1,1-34.61,0V32.05a14.22,14.22,0,0,0-14.22-14.22h0a14.22,14.22,0,0,0-14.22,14.22V66.77a17.31,17.31,0,0,1-17.3,17.31h0a17.31,17.31,0,0,1-17.31-17.31V43.45a14.48,14.48,0,0,0-13.53-14.6,14.21,14.21,0,0,0-14.91,14.2V66.77a17.31,17.31,0,0,1-17.31,17.31h0a17.31,17.31,0,0,1-17.3-17.31V56.51A14.22,14.22,0,0,0,897,42.29h0a14.21,14.21,0,0,0-14.22,14.22V66.77a17.31,17.31,0,1,1-34.61,0V14.62A14.49,14.49,0,0,0,834.58,0a14.22,14.22,0,0,0-14.91,14.2V66.77a17.3,17.3,0,0,1-17.3,17.31h0a17.3,17.3,0,0,1-17.3-17.31V43.45a14.49,14.49,0,0,0-13.54-14.6,14.21,14.21,0,0,0-14.91,14.2V66.77a17.31,17.31,0,1,1-34.61,0V32.05a14.22,14.22,0,0,0-14.22-14.22h0a14.22,14.22,0,0,0-14.22,14.22V66.77a17.31,17.31,0,0,1-17.3,17.31h0A17.31,17.31,0,0,1,659,66.77V56.91A14.48,14.48,0,0,0,645.43,42.3a14.23,14.23,0,0,0-14.91,14.21V66.77a17.31,17.31,0,0,1-17.31,17.31h0a17.31,17.31,0,0,1-17.3-17.31V32.05a14.22,14.22,0,0,0-14.22-14.22h0a14.22,14.22,0,0,0-14.22,14.22V66.77a17.31,17.31,0,1,1-34.61,0V14.62A14.49,14.49,0,0,0,519.32,0a14.21,14.21,0,0,0-14.9,14.2V66.77a17.31,17.31,0,0,1-17.31,17.31h0a17.3,17.3,0,0,1-17.3-17.31V32.45a14.49,14.49,0,0,0-13.54-14.6,14.22,14.22,0,0,0-14.91,14.2V66.77a17.31,17.31,0,1,1-34.61,0V32.05a14.22,14.22,0,0,0-14.22-14.22h0a14.22,14.22,0,0,0-14.22,14.22V66.77A17.31,17.31,0,0,1,361,84.08h0A17.31,17.31,0,0,1,343.7,66.77V43.45a14.48,14.48,0,0,0-13.53-14.6,14.21,14.21,0,0,0-14.91,14.2V66.77A17.31,17.31,0,0,1,298,84.08h0a17.31,17.31,0,0,1-17.3-17.31V14.22A14.22,14.22,0,0,0,266.43,0h0a14.22,14.22,0,0,0-14.22,14.22V66.77a17.31,17.31,0,1,1-34.61,0V32.45a14.49,14.49,0,0,0-13.54-14.6,14.21,14.21,0,0,0-14.9,14.2V66.77a17.31,17.31,0,0,1-17.31,17.31h0a17.3,17.3,0,0,1-17.3-17.31V43.45A14.49,14.49,0,0,0,141,28.85a14.22,14.22,0,0,0-14.91,14.2V66.77a17.31,17.31,0,1,1-34.61,0V56.51A14.21,14.21,0,0,0,77.27,42.29h0A14.22,14.22,0,0,0,63.05,56.51V66.77a17.31,17.31,0,0,1-17.3,17.31h0A17.31,17.31,0,0,1,28.44,66.77V32.45a14.48,14.48,0,0,0-13.53-14.6A14.21,14.21,0,0,0,0,32.05V416.29H1905.66V17.85C1905.47,17.85,1905.28,17.84,1905.09,17.85Z"/></g></g></svg>