<svg xmlns="http://www.w3.org/2000/svg" viewBox="0 0 1920 375.92"><defs><style>.cls-1{fill:#39bbcc;}</style></defs><title>mala_header_bottom1</title><g id="bg1"><path id="_路徑_" data-name="&lt;路徑&gt;" class="cls-1" d="M1891.5,59.25V82.72A17.27,17.27,0,0,1,1874.22,100h0A17.27,17.27,0,0,1,1857,82.72V30.25A14.25,14.25,0,0,0,1842.7,16h0a14.25,14.25,0,0,0-14.25,14.25V82.73A17.27,17.27,0,0,1,1811.18,100h0a17.27,17.27,0,0,1-17.27-17.27V59.25A14.25,14.25,0,0,0,1779.65,45h0a14.25,14.25,0,0,0-14.25,14.25V82.72A17.27,17.27,0,0,1,1748.13,100h0a17.27,17.27,0,0,1-17.27-17.28V14.25A14.25,14.25,0,0,0,1716.6,0h0a14.25,14.25,0,0,0-14.25,14.25V82.73A17.27,17.27,0,0,1,1685.08,100h0a17.27,17.27,0,0,1-17.27-17.27V59.25A14.25,14.25,0,0,0,1653.55,45h0a14.25,14.25,0,0,0-14.25,14.25V82.72A17.27,17.27,0,0,1,1622,100h0a17.27,17.27,0,0,1-17.28-17.28V14.25A14.25,14.25,0,0,0,1590.5,0h0a14.25,14.25,0,0,0-14.25,14.25V82.72A17.27,17.27,0,0,1,1559,100h0a17.27,17.27,0,0,1-17.27-17.28V59.25A14.25,14.25,0,0,0,1527.45,45h0a14.25,14.25,0,0,0-14.25,14.25V82.73A17.27,17.27,0,0,1,1495.93,100h0a17.27,17.27,0,0,1-17.27-17.27V45.25A14.25,14.25,0,0,0,1464.4,31h0a14.25,14.25,0,0,0-14.25,14.25V82.72A17.27,17.27,0,0,1,1432.88,100h0a17.27,17.27,0,0,1-17.27-17.28V30.25A14.25,14.25,0,0,0,1401.35,16h0a14.25,14.25,0,0,0-14.25,14.25V82.73A17.27,17.27,0,0,1,1369.83,100h0a17.27,17.27,0,0,1-17.27-17.27V59.25A14.25,14.25,0,0,0,1338.3,45h0a14.25,14.25,0,0,0-14.25,14.25V82.72A17.27,17.27,0,0,1,1306.78,100h0a17.27,17.27,0,0,1-17.28-17.28V14.25A14.25,14.25,0,0,0,1275.25,0h0A14.25,14.25,0,0,0,1261,14.25V82.72A17.27,17.27,0,0,1,1243.72,100h0a17.27,17.27,0,0,1-17.27-17.28V59.25A14.25,14.25,0,0,0,1212.2,45h0A14.25,14.25,0,0,0,1198,59.25V82.73A17.27,17.27,0,0,1,1180.68,100h0a17.27,17.27,0,0,1-17.27-17.27V30.25A14.25,14.25,0,0,0,1149.15,16h0a14.25,14.25,0,0,0-14.25,14.25V82.72A17.27,17.27,0,0,1,1117.63,100h0a17.27,17.27,0,0,1-17.27-17.28V59.25A14.25,14.25,0,0,0,1086.1,45h0a14.25,14.25,0,0,0-14.25,14.25V82.73A17.27,17.27,0,0,1,1054.58,100h0a17.27,17.27,0,0,1-17.27-17.27V30.25A14.25,14.25,0,0,0,1023.05,16h0a14.25,14.25,0,0,0-14.25,14.25V82.73A17.27,17.27,0,0,1,991.53,100h0a17.27,17.27,0,0,1-17.27-17.27V45.25A14.25,14.25,0,0,0,960,31h0a14.25,14.25,0,0,0-14.25,14.25V82.73A17.27,17.27,0,0,1,928.48,100h0A17.27,17.27,0,0,1,911.2,82.73V14.25A14.25,14.25,0,0,0,897,0h0A14.25,14.25,0,0,0,882.7,14.25V82.73A17.27,17.27,0,0,1,865.43,100h0a17.27,17.27,0,0,1-17.28-17.27V59.25A14.25,14.25,0,0,0,833.9,45h0a14.25,14.25,0,0,0-14.25,14.25V82.72A17.27,17.27,0,0,1,802.38,100h0A17.27,17.27,0,0,1,785.1,82.72V45.25A14.25,14.25,0,0,0,770.85,31h0A14.25,14.25,0,0,0,756.6,45.25V82.73A17.27,17.27,0,0,1,739.32,100h0a17.27,17.27,0,0,1-17.27-17.27V59.25A14.25,14.25,0,0,0,707.8,45h0a14.25,14.25,0,0,0-14.25,14.25V82.73A17.27,17.27,0,0,1,676.28,100h0A17.27,17.27,0,0,1,659,82.73V30.25A14.25,14.25,0,0,0,644.75,16h0A14.25,14.25,0,0,0,630.5,30.25V82.73A17.27,17.27,0,0,1,613.23,100h0A17.27,17.27,0,0,1,596,82.73V67.25A14.25,14.25,0,0,0,581.7,53h0a14.25,14.25,0,0,0-14.25,14.25V82.73A17.27,17.27,0,0,1,550.18,100h0A17.27,17.27,0,0,1,532.9,82.73V59.25A14.25,14.25,0,0,0,518.65,45h0A14.25,14.25,0,0,0,504.4,59.25V82.72A17.27,17.27,0,0,1,487.13,100h0a17.27,17.27,0,0,1-17.27-17.28V14.25A14.25,14.25,0,0,0,455.6,0h0a14.25,14.25,0,0,0-14.25,14.25V82.73A17.27,17.27,0,0,1,424.07,100h0A17.27,17.27,0,0,1,406.8,82.73V67.25A14.25,14.25,0,0,0,392.55,53h0A14.25,14.25,0,0,0,378.3,67.25V82.73A17.27,17.27,0,0,1,361,100h0a17.27,17.27,0,0,1-17.27-17.27V30.25A14.25,14.25,0,0,0,329.5,16h0a14.25,14.25,0,0,0-14.25,14.25V82.73A17.27,17.27,0,0,1,298,100h0A17.27,17.27,0,0,1,280.7,82.73V59.25A14.25,14.25,0,0,0,266.45,45h0A14.25,14.25,0,0,0,252.2,59.25V82.73A17.27,17.27,0,0,1,234.93,100h0a17.27,17.27,0,0,1-17.28-17.27V14.25A14.25,14.25,0,0,0,203.4,0h0a14.25,14.25,0,0,0-14.25,14.25V82.72A17.27,17.27,0,0,1,171.88,100h0A17.27,17.27,0,0,1,154.6,82.72V45.25A14.25,14.25,0,0,0,140.35,31h0A14.25,14.25,0,0,0,126.1,45.25V82.73A17.27,17.27,0,0,1,108.82,100h0A17.27,17.27,0,0,1,91.55,82.73V30.25A14.25,14.25,0,0,0,77.3,16h0A14.25,14.25,0,0,0,63.05,30.25V82.73A17.27,17.27,0,0,1,45.78,100h0A17.27,17.27,0,0,1,28.5,82.73V59.25A14.25,14.25,0,0,0,14.25,45h0A14.25,14.25,0,0,0,0,59.25V375.92H1920V59.25A14.25,14.25,0,0,0,1905.75,45h0A14.25,14.25,0,0,0,1891.5,59.25Z"/></g></svg>