<svg xmlns="http://www.w3.org/2000/svg" viewBox="0 0 344.91 475.2"><defs><style>.cls-1{fill:#ffd557;}.cls-2{fill:#ffe491;}.cls-3{fill:#968756;}</style></defs><title>mala_deer</title><g id="bg1"><g id="_群組_" data-name="&lt;群組&gt;"><g id="_群組_2" data-name="&lt;群組&gt;"><path id="_路徑_" data-name="&lt;路徑&gt;" class="cls-1" d="M328.55,434.78c-15.35-12-16-66-16-66l-24.67,13.34,20,62.67L293.17,475.2h20.64C325.53,457,341.47,444.89,328.55,434.78Z"/></g><g id="_群組_3" data-name="&lt;群組&gt;"><path id="_路徑_2" data-name="&lt;路徑&gt;" class="cls-1" d="M69.23,426.78c0-34,32.66-74.34,32.66-74.34l-59.33-29s7.33,73.34,0,88.67c-4.31,9,.81,35.26,2.13,63.09H62.43C66.32,456.05,69.23,438,69.23,426.78Z"/></g><path id="_路徑_3" data-name="&lt;路徑&gt;" class="cls-1" d="M305.93,279.18s17.06-9.34,25.77,4c15.5,23.75,1.22,70,5.64,80.74,4.2,10.23,13.93,15.17,1.38,32.47a2.75,2.75,0,0,1-4.49,0c-3.07-4.44-7.71-13.59-3.82-24.6,5.53-15.62,3.59-81.93-8-86.86-5.65-2.41-14.19,9.35-14.19,9.35Z"/><g id="_群組_4" data-name="&lt;群組&gt;"><path id="_路徑_4" data-name="&lt;路徑&gt;" class="cls-2" d="M320.39,456.94c15.34-8.66-25.16-39.5-25.16-44.83s61.33-76.67,30.66-124.67-72-49.33-133.33-41.33-70-22-70-34.67c-2.6-34.74-.72-52.62-.72-52.62,25.81-1.35,32-15.15,33.44-23.51a3.4,3.4,0,0,0-3.25-4c-3.46-.13-9-1.6-14.14.09a63.22,63.22,0,0,0-20,11.34l-5.33-7.34c-3.29-12,7.33-24,27.33-26.66,14.76-2,20-12.65,21.77-18.11a.46.46,0,0,0-.82-.4c-7.88,10.89-28.53,9.17-28.53,9.17C174,60.87,161.9,14.33,156.89.31a.46.46,0,0,0-.89.24c6.25,39-6.77,48.89-6.77,48.89,2-14.53-3.53-20-6.4-21.85a.46.46,0,0,0-.63.63c11.94,19.64-9.34,66.66-23.64,70.56-14.67,4-16.61,30.42-16.61,30.42-12.56-4.88-20.72-4.51-20.72-4.51s-7.71-.75-20.67,5.09c0,0-2-27-16.67-31-14.3-3.9-35.58-50.92-23.64-70.56a.46.46,0,0,0-.63-.63c-2.87,1.83-8.4,7.32-6.39,21.85,0,0-13-9.92-6.78-48.89A.46.46,0,0,0,5.56.31c-5,14-17.13,60.56,24.58,99.13,0,0-20.65,1.72-28.53-9.17a.46.46,0,0,0-.81.4c1.74,5.46,7,16.14,21.76,18.11,20,2.66,31,15,27.33,26.66l-5.33,7.34a63.07,63.07,0,0,0-20-11.34c-5.18-1.69-10.67-.22-14.13-.09a3.4,3.4,0,0,0-3.25,4c1.39,8.36,7.63,22.16,33.43,23.51a168.71,168.71,0,0,1-2,52.62s-34,116,34.67,154c0,0,4,64.81,9.79,109.76h17.69c-2.16-16.78-2.91-31.45-.48-38.42,7.66-22,4.33-63.34,4.33-63.34s40,15.34,68.67,11,94.66-15,98-8.33c0,0-17.34,25.33-12.67,36s36.67,34,36.67,40c0,2.25-5.24,11.7-12,23.09h21.23C311,465.93,316.71,459,320.39,456.94Z"/></g><path id="_路徑_5" data-name="&lt;路徑&gt;" class="cls-3" d="M92.56,174.44c0,1.81-3.1,3.44-6.11,4.59a15.56,15.56,0,0,1-11.12,0c-3-1.15-6.1-2.78-6.1-4.59,0-3.49,5.22-6.33,11.66-6.33S92.56,171,92.56,174.44Z"/><circle id="_路徑_6" data-name="&lt;路徑&gt;" class="cls-3" cx="149.56" cy="256.44" r="11"/><circle id="_路徑_7" data-name="&lt;路徑&gt;" class="cls-3" cx="204.23" cy="291.78" r="5"/><circle id="_路徑_8" data-name="&lt;路徑&gt;" class="cls-3" cx="193.89" cy="256.11" r="5.33"/><circle id="_路徑_9" data-name="&lt;路徑&gt;" class="cls-3" cx="239.89" cy="256.11" r="5.33"/><circle id="_路徑_10" data-name="&lt;路徑&gt;" class="cls-3" cx="281.23" cy="274.11" r="6.67"/><circle id="_路徑_11" data-name="&lt;路徑&gt;" class="cls-3" cx="237.23" cy="279.44" r="2.67"/><circle id="_路徑_12" data-name="&lt;路徑&gt;" class="cls-3" cx="298.89" cy="264.44" r="3"/></g></g></svg>