<svg xmlns="http://www.w3.org/2000/svg" viewBox="0 0 93.02 164.25"><defs><style>.cls-1,.cls-2{fill:#ffabb7;}.cls-1{stroke:#fff;stroke-miterlimit:10;stroke-width:4px;}.cls-3{fill:#fff;}.cls-4{fill:#eb6860;}.cls-5{fill:#ffe491;}.cls-6{fill:none;stroke:#ffe7e6;stroke-linecap:round;stroke-linejoin:round;}.cls-7{fill:#968756;}</style></defs><title>mala_about_hunter2</title><g id="work2"><path id="_路徑_" data-name="&lt;路徑&gt;" class="cls-1" d="M21,83.94l13.61-6.87A23.12,23.12,0,0,1,45.35,64.74h0c5.06-2.71,5.08-.85,10.27.28l22-15.59a9,9,0,0,1,12,4.07h0a9,9,0,0,1-4.07,12L77,74.73,87.67,94.54a23.17,23.17,0,0,1-9.45,31.38h0a23.17,23.17,0,0,1-31.38-9.44L36,96.34l-7.21,3.78a9,9,0,0,1-12-4.18h0A9,9,0,0,1,21,83.94Z"/><g id="_群組_" data-name="&lt;群組&gt;"><g id="_群組_2" data-name="&lt;群組&gt;"><path id="_路徑_2" data-name="&lt;路徑&gt;" class="cls-2" d="M32.84,78.09a31,31,0,1,1,17.49-5.42,31,31,0,0,1-17.49,5.42Z"/><path id="_複合路徑_" data-name="&lt;複合路徑&gt;" class="cls-3" d="M32.78,18a29,29,0,1,1-16.36,5.08A29,29,0,0,1,32.78,18m0-4A33,33,0,1,0,60.06,28.42,32.83,32.83,0,0,0,32.78,14Z"/></g><g id="_群組_3" data-name="&lt;群組&gt;"><g id="_群組_4" data-name="&lt;群組&gt;"><path id="_路徑_3" data-name="&lt;路徑&gt;" class="cls-4" d="M.06,51.43a32,32,0,0,1-.18-3.66,1.67,1.67,0,0,1,1-1.51A175.89,175.89,0,0,0,22.54,33.48h0A170.47,170.47,0,0,0,43.57,17a1.7,1.7,0,0,1,1.77-.36,34,34,0,0,1,4,1.86A33.17,33.17,0,0,1,54.65,22a1.69,1.69,0,0,1,.19,2.42C50,29.83,41.06,37.31,30.17,44.7,20.11,51.53,10.58,56.81,3.84,59.53a1.7,1.7,0,0,1-2.24-1A33.38,33.38,0,0,1,.06,51.43Z"/></g></g></g><g id="_群組_5" data-name="&lt;群組&gt;"><g id="_群組_6" data-name="&lt;群組&gt;"><path id="_路徑_4" data-name="&lt;路徑&gt;" class="cls-5" d="M53.37,73l7.22-3.55a.09.09,0,0,1,.12.12l-1.09,4.29a.1.1,0,0,1,0,.06l-7.22,3.55a.09.09,0,0,1-.12-.12L53.32,73A.1.1,0,0,1,53.37,73Z"/><line id="_路徑_5" data-name="&lt;路徑&gt;" class="cls-6" x1="55.81" y1="71.75" x2="54.65" y2="76.29"/><line id="_路徑_6" data-name="&lt;路徑&gt;" class="cls-6" x1="58.29" y1="70.53" x2="57.13" y2="75.07"/><path id="_路徑_7" data-name="&lt;路徑&gt;" class="cls-5" d="M56,79.61l7.23-3.55a.11.11,0,0,0,0-.18l-3.56-2a.06.06,0,0,0-.07,0l-7.22,3.55a.11.11,0,0,0,0,.18l3.56,2A.09.09,0,0,0,56,79.61Z"/><line id="_路徑_8" data-name="&lt;路徑&gt;" class="cls-6" x1="58.41" y1="78.41" x2="54.65" y2="76.29"/><line id="_路徑_9" data-name="&lt;路徑&gt;" class="cls-6" x1="60.89" y1="77.19" x2="57.13" y2="75.07"/><line id="_路徑_10" data-name="&lt;路徑&gt;" class="cls-6" x1="16.21" y1="95.16" x2="59.61" y2="73.85"/><path id="_路徑_11" data-name="&lt;路徑&gt;" class="cls-5" d="M18.51,91.1l-3.76,4.31a.47.47,0,0,0,.31.79L20.43,96a.48.48,0,0,0,.37-.66l-1.62-4.13A.39.39,0,0,0,18.51,91.1Z"/></g><g id="_群組_7" data-name="&lt;群組&gt;"><polyline id="_路徑_12" data-name="&lt;路徑&gt;" class="cls-6" points="74.35 155.47 57.94 74.99 8.92 9.75"/><path id="_路徑_13" data-name="&lt;路徑&gt;" class="cls-7" d="M10.44,9.26c-.28,15.1,1.2,40.05,18.08,77.64,17.05,38,34.88,55.56,46.33,65.32a11.54,11.54,0,0,1,3,4.12c1.58,3.51,1.47,7-.25,7.76-.94.42-2.16-.06-3.33-1.14l-1.64-1.38c-11.32-9.42-32.42-31.78-50.41-71.84S1.49,19,2,4.31c0-.53-.09-2.77,1.49-4C4.67-.6,7.78.4,9.36,3.92A11.11,11.11,0,0,1,10.44,9.26Z"/><path id="_路徑_14" data-name="&lt;路徑&gt;" class="cls-4" d="M37.33,106c.44-.2.4-1.17-.08-2-1.55-2.78-4.52-8.92-7.76-16.13s-5.85-13.5-6.9-16.5c-.32-.94-1-1.62-1.47-1.42l-5.66,2.54c-.4.18-.47.92-.17,1.75,1,2.81,3.48,9.43,6.85,16.94s6.68,13.75,8.11,16.38c.42.77,1,1.2,1.42,1Z"/></g></g><rect id="_矩形_" data-name="&lt;矩形&gt;" class="cls-1" x="63.95" y="44.55" width="17.97" height="41.55" rx="8.98" ry="8.98" transform="translate(74.13 163.23) rotate(-132.55)"/></g></svg>