<svg xmlns="http://www.w3.org/2000/svg" viewBox="0 0 91.6 117.98"><defs><style>.cls-1,.cls-2{fill:#ffabb7;}.cls-1{stroke:#fff;stroke-miterlimit:10;stroke-width:4px;}.cls-3{fill:#fff;}.cls-4{fill:#eb6860;}</style></defs><title>mala_about_hunter1</title><g id="work2"><rect id="_矩形_" data-name="&lt;矩形&gt;" class="cls-1" x="-4.17" y="58.71" width="69.45" height="46.35" rx="23.18" ry="23.18" transform="translate(117.38 91.88) rotate(117.02)"/><g id="_群組_" data-name="&lt;群組&gt;"><g id="_群組_2" data-name="&lt;群組&gt;"><path id="_路徑_" data-name="&lt;路徑&gt;" class="cls-2" d="M58.46,64A31,31,0,1,1,84.46,50,31,31,0,0,1,58.46,64Z"/><path id="_複合路徑_" data-name="&lt;複合路徑&gt;" class="cls-3" d="M58.51,4A29,29,0,1,1,34.19,17.14,28.89,28.89,0,0,1,58.51,4m0-4h0a33,33,0,1,0,18,5.38A33,33,0,0,0,58.51,0Z"/></g><g id="_群組_3" data-name="&lt;群組&gt;"><g id="_群組_4" data-name="&lt;群組&gt;"><path id="_路徑_2" data-name="&lt;路徑&gt;" class="cls-4" d="M91.48,36.75a35,35,0,0,0,.11-3.69,1.71,1.71,0,0,0-1-1.5A177.9,177.9,0,0,1,68.48,19.19h0A171.49,171.49,0,0,1,47,3,1.71,1.71,0,0,0,45.2,2.7,33.32,33.32,0,0,0,36,8.36a1.69,1.69,0,0,0-.14,2.44c4.95,5.31,14.13,12.63,25.24,19.83C71.32,37.28,81,42.39,87.85,45a1.7,1.7,0,0,0,2.23-1.08A34,34,0,0,0,91.48,36.75Z"/></g></g></g></g></svg>