<svg xmlns="http://www.w3.org/2000/svg" viewBox="0 0 262.85 467.1"><defs><style>.cls-1{fill:#39bbcc;}.cls-2,.cls-5{fill:none;}.cls-2{stroke:#ffe7e6;}.cls-2,.cls-5,.cls-8{stroke-linecap:round;stroke-linejoin:round;}.cls-2,.cls-3,.cls-5,.cls-8{stroke-width:4px;}.cls-3,.cls-8,.cls-9{fill:#ffabb7;}.cls-3,.cls-8{stroke:#fff;}.cls-3{stroke-miterlimit:10;}.cls-4{fill:#ffe7e6;}.cls-5{stroke:#ffd557;}.cls-6{fill:#968756;}.cls-7{fill:#eb6860;}.cls-10{fill:#ffd557;}.cls-11{fill:#1f5d73;}.cls-12{fill:#fff;}</style></defs><title>mala_origin_hunter</title><g id="work2"><ellipse id="_路徑_" data-name="&lt;路徑&gt;" class="cls-1" cx="140.46" cy="446.1" rx="113.84" ry="21"/><g id="_群組_" data-name="&lt;群組&gt;"><line id="_路徑_2" data-name="&lt;路徑&gt;" class="cls-2" x1="13.97" y1="177.55" x2="111.58" y2="356.86"/><g id="_群組_2" data-name="&lt;群組&gt;"><g id="_群組_3" data-name="&lt;群組&gt;"><rect id="_矩形_" data-name="&lt;矩形&gt;" class="cls-3" x="51" y="156.58" width="48.66" height="148.26" rx="24.33" ry="24.33" transform="translate(16.18 466.08) rotate(-147.81)"/></g><g id="_群組_4" data-name="&lt;群組&gt;"><rect id="_矩形_2" data-name="&lt;矩形&gt;" class="cls-3" x="184.83" y="156.58" width="48.66" height="148.26" rx="24.33" ry="24.33" transform="translate(-90.75 146.9) rotate(-32.19)"/></g></g><g id="_群組_5" data-name="&lt;群組&gt;"><g id="_群組_6" data-name="&lt;群組&gt;"><polygon id="_路徑_3" data-name="&lt;路徑&gt;" class="cls-4" points="61.09 117.52 37.88 113.97 14.64 73.08 37.85 76.63 61.09 117.52"/><line id="_路徑_4" data-name="&lt;路徑&gt;" class="cls-5" x1="30.14" y1="100.34" x2="53.35" y2="103.89"/><line id="_路徑_5" data-name="&lt;路徑&gt;" class="cls-5" x1="22.39" y1="86.71" x2="45.6" y2="90.26"/><polygon id="_路徑_6" data-name="&lt;路徑&gt;" class="cls-4" points="61.09 117.52 69.91 95.76 46.67 54.87 37.85 76.63 61.09 117.52"/><line id="_路徑_7" data-name="&lt;路徑&gt;" class="cls-5" x1="62.17" y1="82.13" x2="53.35" y2="103.89"/><line id="_路徑_8" data-name="&lt;路徑&gt;" class="cls-5" x1="54.42" y1="68.5" x2="45.6" y2="90.26"/><line id="_路徑_9" data-name="&lt;路徑&gt;" class="cls-5" x1="37.85" y1="76.63" x2="93.41" y2="174.38"/></g><g id="_群組_7" data-name="&lt;群組&gt;"><polygon id="_路徑_10" data-name="&lt;路徑&gt;" class="cls-4" points="57.53 152.56 34.06 153.32 3.71 117.39 27.18 116.63 57.53 152.56"/><line id="_路徑_11" data-name="&lt;路徑&gt;" class="cls-5" x1="23.95" y1="141.35" x2="47.42" y2="140.58"/><line id="_路徑_12" data-name="&lt;路徑&gt;" class="cls-5" x1="13.83" y1="129.37" x2="37.3" y2="128.6"/><polygon id="_路徑_13" data-name="&lt;路徑&gt;" class="cls-4" points="57.53 152.56 62.21 129.55 31.86 93.62 27.18 116.63 57.53 152.56"/><line id="_路徑_14" data-name="&lt;路徑&gt;" class="cls-5" x1="52.09" y1="117.57" x2="47.42" y2="140.58"/><line id="_路徑_15" data-name="&lt;路徑&gt;" class="cls-5" x1="41.97" y1="105.59" x2="37.3" y2="128.6"/><line id="_路徑_16" data-name="&lt;路徑&gt;" class="cls-5" x1="27.18" y1="116.63" x2="99.74" y2="202.51"/></g><g id="_群組_8" data-name="&lt;群組&gt;"><polygon id="_路徑_17" data-name="&lt;路徑&gt;" class="cls-4" points="97.81 136.12 75.31 129.42 57.89 85.73 80.39 92.43 97.81 136.12"/><line id="_路徑_18" data-name="&lt;路徑&gt;" class="cls-5" x1="69.5" y1="114.86" x2="92.01" y2="121.56"/><line id="_路徑_19" data-name="&lt;路徑&gt;" class="cls-5" x1="63.69" y1="100.3" x2="86.2" y2="107"/><polygon id="_路徑_20" data-name="&lt;路徑&gt;" class="cls-4" points="97.81 136.12 109.53 115.77 92.11 72.09 80.39 92.43 97.81 136.12"/><line id="_路徑_21" data-name="&lt;路徑&gt;" class="cls-5" x1="103.72" y1="101.21" x2="92.01" y2="121.56"/><line id="_路徑_22" data-name="&lt;路徑&gt;" class="cls-5" x1="97.92" y1="86.65" x2="86.2" y2="107"/><line id="_路徑_23" data-name="&lt;路徑&gt;" class="cls-5" x1="80.39" y1="92.43" x2="122.04" y2="196.87"/></g></g><path id="_路徑_24" data-name="&lt;路徑&gt;" class="cls-6" d="M119.09,352c-23.13-7.29-57.81-22.42-83-68.67-25.43-46.72-18.89-84.27-12.38-107.6a8.91,8.91,0,1,0-17.22-4.52l-1,3.35C-1.24,197.5-6.67,242.72,20.16,292S88,361.33,110.88,368.1l3.29,1A8.9,8.9,0,1,0,119.09,352Z"/><path id="_路徑_25" data-name="&lt;路徑&gt;" class="cls-7" d="M23.78,259.49a2,2,0,0,1,2.92,1.17c1.31,3.9,5,11.79,9.86,20.66s9.43,16.28,12,19.5a2,2,0,0,1-.6,3.08L33.7,311.66a2.29,2.29,0,0,1-2.93-.61A151.45,151.45,0,0,1,8.45,270a2.31,2.31,0,0,1,1.07-2.79Z"/><g id="_群組_9" data-name="&lt;群組&gt;"><path id="_路徑_26" data-name="&lt;路徑&gt;" class="cls-8" d="M94.89,211.31s-5.22,45.43-6.75,75.94c-.68,13.37-1.87,26.71-3.69,40L72,418.21c-2.06,15.07,8.85,29.2,24,30.16A26,26,0,0,0,123.34,426l14.52-106.09A4.15,4.15,0,0,1,142,316.3h0a4.15,4.15,0,0,1,4.11,3.58l14.48,105.85a26,26,0,0,0,25.72,22.44h0A26,26,0,0,0,212,418.69L199.54,327.6q-2.73-19.91-3.72-40l-6.77-76.31"/><rect id="_矩形_3" data-name="&lt;矩形&gt;" class="cls-9" x="108.07" y="164.23" width="68.36" height="79.72"/></g><g id="_群組_10" data-name="&lt;群組&gt;"><g id="_群組_11" data-name="&lt;群組&gt;"><path id="_路徑_27" data-name="&lt;路徑&gt;" class="cls-7" d="M158.84,194.48c7.65-2.67,14.06-5.17,17.87-6.71-.07-.62-.15-1.25-.23-1.89-4.51,1.82-12.4,4.89-21.64,8C156.19,194.13,157.53,194.33,158.84,194.48Z"/><path id="_路徑_28" data-name="&lt;路徑&gt;" class="cls-4" d="M174.87,176.26c-3.12,2.8-34.41,12.47-34.41,12.47.66.38,1.33.74,2,1.08,13.44-3.92,26-8.7,32.81-11.41C175,177.09,174.87,176.26,174.87,176.26Z"/><path id="_路徑_29" data-name="&lt;路徑&gt;" class="cls-4" d="M176.88,194.17a23.33,23.33,0,0,0-.17-6.4c-3.81,1.54-10.22,4-17.87,6.71A68.08,68.08,0,0,0,176.88,194.17Z"/><path id="_路徑_30" data-name="&lt;路徑&gt;" class="cls-10" d="M145.25,191.09a48.85,48.85,0,0,0,9.59,2.78c9.24-3.1,17.13-6.17,21.64-8-.27-1.93-.58-3.88-.86-5.51C169.38,182.86,157.85,187.27,145.25,191.09Z"/><path id="_路徑_31" data-name="&lt;路徑&gt;" class="cls-7" d="M175.27,178.4c-6.78,2.71-19.37,7.49-32.81,11.41.92.46,1.85.89,2.79,1.28,12.6-3.82,24.13-8.23,30.37-10.72C175.5,179.64,175.38,179,175.27,178.4Z"/></g><g id="_群組_12" data-name="&lt;群組&gt;"><path id="_路徑_32" data-name="&lt;路徑&gt;" class="cls-4" d="M106,233.89s47.14,20.14,73.2,19.88l-.06-9.94C153.11,244.06,106,224,106,224Z"/><path id="_路徑_33" data-name="&lt;路徑&gt;" class="cls-4" d="M106,243.83v22.88s48,7.09,73.27,0v-3C153.25,264,106,243.83,106,243.83Z"/><path id="_路徑_34" data-name="&lt;路徑&gt;" class="cls-4" d="M106.94,186.58v3.93L106.11,214c2,.85,47.5,20.05,73,19.86l-.17-27.8C155,206.19,113.54,189.34,106.94,186.58Z"/><path id="_路徑_35" data-name="&lt;路徑&gt;" class="cls-7" d="M178.89,196.15c-24,.07-65.35-16.76-71.95-19.51v2.53c9.11,3.64,48.19,18.73,72,19.09Z"/><path id="_路徑_36" data-name="&lt;路徑&gt;" class="cls-7" d="M106.94,186.58c6.6,2.76,48,19.61,72,19.51v-2c-23.77-.34-62.89-15.44-72-19.08Z"/><path id="_路徑_37" data-name="&lt;路徑&gt;" class="cls-10" d="M106.94,179.17V185c9.11,3.64,48.23,18.74,72,19.08l0-5.85C155.13,197.9,116.05,182.81,106.94,179.17Z"/><path id="_路徑_38" data-name="&lt;路徑&gt;" class="cls-7" d="M179.24,253.77c-26.06.26-73.2-19.88-73.2-19.88v2.28c7.07,2.86,48.58,19.23,73.21,19.45Z"/><path id="_路徑_39" data-name="&lt;路徑&gt;" class="cls-7" d="M106,243.83S153.25,264,179.3,263.71l0-2.23c-24.62-.21-66.17-16.59-73.24-19.45Z"/><path id="_路徑_40" data-name="&lt;路徑&gt;" class="cls-10" d="M106,236.17V242c7.07,2.86,48.62,19.24,73.24,19.45l0-5.86C154.62,255.4,113.11,239,106,236.17Z"/><path id="_路徑_41" data-name="&lt;路徑&gt;" class="cls-4" d="M178.87,193.31c-24.81,1.63-71.93-19.4-71.93-19.4v2.73c6.6,2.75,48,19.58,71.95,19.51Z"/><path id="_路徑_42" data-name="&lt;路徑&gt;" class="cls-7" d="M106,224s47.07,20.11,73.14,19.88V242c-24.64-.26-66.07-16.59-73.13-19.45Z"/><path id="_路徑_43" data-name="&lt;路徑&gt;" class="cls-7" d="M179.12,233.89c-25.51.19-71-19-73-19.86l-.07,2.14v.54c7.06,2.86,48.45,19.18,73.09,19.45Z"/><path id="_路徑_44" data-name="&lt;路徑&gt;" class="cls-10" d="M106,216.71v5.86c7.06,2.86,48.49,19.19,73.13,19.45l0-5.86C154.49,235.89,113.1,219.57,106,216.71Z"/></g></g><g id="_群組_13" data-name="&lt;群組&gt;"><path id="_路徑_45" data-name="&lt;路徑&gt;" class="cls-11" d="M84.29,291.11S73,324.24,69.19,337.26a6.17,6.17,0,0,0,2.08,6.59,35.74,35.74,0,0,0,23.52,7.7c16.77-.66,10-3.29,15.46-3.29s8.55,10.52,28.12,4.77,20.06-6.25,28.12-2.47c7.43,3.49,33.51,5.58,45.35-5.73a6.26,6.26,0,0,0,1.67-6.36l-15.23-49.12Z"/><path id="_路徑_46" data-name="&lt;路徑&gt;" class="cls-7" d="M198.28,289.35c-49.11,21.93-114,1.76-114,1.76V271.62s64.88,20.17,114-1.76Z"/></g><g id="_群組_14" data-name="&lt;群組&gt;"><g id="_群組_15" data-name="&lt;群組&gt;"><path id="_路徑_47" data-name="&lt;路徑&gt;" class="cls-7" d="M61.64,191.57l-2.4,3.55a4,4,0,0,0,1,5.46c7.86,5.56,27.72,20.06,28.42,25l1.7-9.48S77.41,196.3,61.64,191.57Z"/><path id="_路徑_48" data-name="&lt;路徑&gt;" class="cls-4" d="M106.94,166l-10.18-5.81s-10.33-4.69-35.12,31.35c15.77,4.73,28.71,24.51,28.71,24.51l-1.7,9.48s-10.12,66.6-12.83,84.15a5.85,5.85,0,0,0,2.16,5.5,34.61,34.61,0,0,0,17.23,7.32C88.14,275,102.67,189.37,106.94,166Z"/><path id="_路徑_49" data-name="&lt;路徑&gt;" class="cls-7" d="M112.77,168.55,106.94,166c-4.27,23.34-18.8,109-11.73,156.5a33.37,33.37,0,0,0,7.43.06,5.9,5.9,0,0,0,5.25-6.07C107.1,292.28,104.26,188.66,112.77,168.55Z"/></g><g id="_群組_16" data-name="&lt;群組&gt;"><path id="_路徑_50" data-name="&lt;路徑&gt;" class="cls-7" d="M222.18,191.57l2.4,3.55a4,4,0,0,1-1,5.46c-7.86,5.56-27.72,20.06-28.42,25l-1.7-9.48S206.41,196.3,222.18,191.57Z"/><path id="_路徑_51" data-name="&lt;路徑&gt;" class="cls-4" d="M176.88,166l10.18-5.81s10.33-4.69,35.12,31.35c-15.77,4.73-28.71,24.51-28.71,24.51l1.7,9.48s10.12,66.6,12.83,84.15a5.85,5.85,0,0,1-2.16,5.5,34.61,34.61,0,0,1-17.23,7.32C195.68,275,181.15,189.37,176.88,166Z"/><path id="_路徑_52" data-name="&lt;路徑&gt;" class="cls-7" d="M171.05,168.55l5.83-2.52c4.27,23.34,18.8,109,11.73,156.5a33.37,33.37,0,0,1-7.43.06,5.9,5.9,0,0,1-5.25-6.07C176.72,292.28,179.56,188.66,171.05,168.55Z"/></g></g><g id="_群組_17" data-name="&lt;群組&gt;"><g id="_群組_18" data-name="&lt;群組&gt;"><path class="cls-9" d="M141.9,184a90.75,90.75,0,0,1,.34-181.5h.35a90.75,90.75,0,0,1-.33,181.5Z"/><path class="cls-12" d="M142.24,4.47h.35a88.75,88.75,0,0,1-.34,177.5h-.34a88.75,88.75,0,0,1,.33-177.5m0-4h0a92.75,92.75,0,0,0-.35,185.5h.36A92.74,92.74,0,0,0,208.08,27.89,92.11,92.11,0,0,0,142.6.47Z"/></g><g id="_群組_19" data-name="&lt;群組&gt;"><g id="_群組_20" data-name="&lt;群組&gt;"><path class="cls-7" d="M225.41,48.9a95.17,95.17,0,0,0-5.36-8.83,4.71,4.71,0,0,0-4.61-2c-19,2.85-43.74,4.57-70.75,4.57h-.07c-29.07,0-55.48-2-75-5.24a4.74,4.74,0,0,0-4.67,2A93.69,93.69,0,0,0,58.5,50,92.69,92.69,0,0,0,51.82,66.7a4.73,4.73,0,0,0,3.39,5.93c19.7,4.94,52.41,8.18,89.44,8.18,34.23,0,64.77-2.77,84.76-7.09A4.76,4.76,0,0,0,233,67.78,93.84,93.84,0,0,0,225.41,48.9Z"/></g></g></g></g></g></svg>