<svg xmlns="http://www.w3.org/2000/svg" viewBox="0 0 600.11 961.51"><defs><style>.cls-1,.cls-2{fill:#ffabb7;}.cls-1{stroke:#fff;stroke-miterlimit:10;}.cls-1,.cls-5{stroke-width:4px;}.cls-3{fill:#fff;}.cls-4{fill:#eb6860;}.cls-5{fill:none;stroke:#ffe7e6;stroke-linecap:round;stroke-linejoin:round;}.cls-6{fill:#968756;}.cls-7{fill:#ffe491;}</style></defs><title>mala_man</title><g id="bg1"><g id="_群組_" data-name="&lt;群組&gt;"><path id="_路徑_" data-name="&lt;路徑&gt;" class="cls-1" d="M499.67,475.62h0a46.59,46.59,0,0,0-52.84-39.36L232,467.63c-1.28-2-2-3.11-2-3.11l-161,0V741.91H311A614.13,614.13,0,0,0,273.82,555.7L460.3,528.46A46.59,46.59,0,0,0,499.67,475.62Z"/><g id="_群組_2" data-name="&lt;群組&gt;"><g id="_群組_3" data-name="&lt;群組&gt;"><path class="cls-2" d="M150.73,500.2a145.48,145.48,0,1,1,22.89-1.81A145.22,145.22,0,0,1,150.73,500.2Z"/><path class="cls-3" d="M151.08,211.82a143.33,143.33,0,1,1-22.57,1.79,143.21,143.21,0,0,1,22.57-1.79m0-4h0a148.29,148.29,0,0,0-23.2,1.84A147.18,147.18,0,0,0,150.73,502.2a148.41,148.41,0,0,0,23.21-1.83A147.18,147.18,0,0,0,151.1,207.82Z"/></g><g id="_群組_4" data-name="&lt;群組&gt;"><g id="_群組_5" data-name="&lt;群組&gt;"><path class="cls-4" d="M271.87,263a154.14,154.14,0,0,0-10.81-12.68,7.66,7.66,0,0,0-7.86-2c-29.58,9.46-68.47,18.59-111.48,25.57h-.11c-46.29,7.51-88.85,11.16-120.8,11a7.62,7.62,0,0,0-6.92,4.32A151.77,151.77,0,0,0,.06,336.15,7.65,7.65,0,0,0,7,344.73c32.65,2.77,85.57-.54,144.53-10.11C206,325.78,254,313.49,284.66,301.44a7.69,7.69,0,0,0,4.17-10.39A151.26,151.26,0,0,0,271.87,263Z"/></g></g></g><g id="_群組_6" data-name="&lt;群組&gt;"><polyline id="_路徑_2" data-name="&lt;路徑&gt;" class="cls-5" points="421.77 912.75 195.7 513.08 322.18 58.79"/><path id="_路徑_3" data-name="&lt;路徑&gt;" class="cls-6" d="M311.79,61C362.88,129,436.18,247.13,461.86,467.37c25.95,222.48-19.41,354.36-53.61,432-3.37,7.25-4.87,17-3.65,27.38,2.4,20.59,14.44,36.11,26.89,34.65,6.79-.79,12.28-6.49,15.5-14.82l5-11C486.51,859.82,535.14,696.8,507.76,462S395.51,79.62,344.5,13.85C342.67,11.5,335.92,1,322.81,0c-10-.73-24.71,12.86-22.3,33.45C301.83,44.87,306.12,54.7,311.79,61Z"/><path id="_路徑_4" data-name="&lt;路徑&gt;" class="cls-4" d="M473.49,579.82c-3.23.37-6.21-4.2-6.26-9.54-.14-17.17-3.13-53.76-8.05-96S448.73,395.76,444.93,379c-1.19-5.21.66-10.34,3.9-10.72l41-4.79c2.87-.33,5.72,2.82,6.71,7.46,3.37,15.77,10.83,53.12,16,97.09s6.46,82.05,6.81,98.17c.1,4.74-1.94,8.47-4.81,8.8Z"/></g><g id="_群組_7" data-name="&lt;群組&gt;"><path id="_路徑_5" data-name="&lt;路徑&gt;" class="cls-7" d="M236.76,480.76l-65,8.2a.73.73,0,0,0-.41,1.26l24.11,22.63a.72.72,0,0,0,.59.19l65-8.2a.73.73,0,0,0,.41-1.26L237.35,481A.72.72,0,0,0,236.76,480.76Z"/><line id="_路徑_6" data-name="&lt;路徑&gt;" class="cls-5" x1="214.8" y1="483.53" x2="240.3" y2="507.46"/><line id="_路徑_7" data-name="&lt;路徑&gt;" class="cls-5" x1="192.51" y1="486.34" x2="218" y2="510.27"/><path id="_路徑_8" data-name="&lt;路徑&gt;" class="cls-7" d="M243.5,534.2l-65,8.2a.74.74,0,0,1-.71-1.12l17.74-27.91A.76.76,0,0,1,196,513l65-8.2a.73.73,0,0,1,.71,1.12L244,533.87A.74.74,0,0,1,243.5,534.2Z"/><line id="_路徑_9" data-name="&lt;路徑&gt;" class="cls-5" x1="221.54" y1="536.97" x2="240.3" y2="507.46"/><line id="_路徑_10" data-name="&lt;路徑&gt;" class="cls-5" x1="199.24" y1="539.78" x2="218" y2="510.27"/><line id="_路徑_11" data-name="&lt;路徑&gt;" class="cls-5" x1="586.23" y1="463.83" x2="195.7" y2="513.08"/><path id="_路徑_12" data-name="&lt;路徑&gt;" class="cls-7" d="M554.43,447.78l43.11,11.4a3.45,3.45,0,0,1,.8,6.35l-38.93,21.75a3.45,3.45,0,0,1-5.11-2.58l-4.18-33.15A3.45,3.45,0,0,1,554.43,447.78Z"/></g><path id="_矩形_" data-name="&lt;矩形&gt;" class="cls-1" d="M24,473.22H171.41A46.59,46.59,0,0,1,218,519.81v0a46.59,46.59,0,0,1-46.59,46.59H24a0,0,0,0,1,0,0V473.22a0,0,0,0,1,0,0Z" transform="translate(-87.74 28.62) rotate(-9.92)"/></g></g></svg>