<svg xmlns="http://www.w3.org/2000/svg" viewBox="0 0 112.5 115.23"><defs><style>.cls-1,.cls-2{fill:#ffe491;}.cls-1{stroke:#fff;stroke-linecap:round;stroke-linejoin:round;stroke-width:4px;}.cls-3{fill:#fff;}.cls-4{fill:#6ed8e6;}</style></defs><title>menu_aptinet</title><g id="icon3"><path id="_矩形_" data-name="&lt;矩形&gt;" class="cls-1" d="M39.13,9.11h6.24A30.59,30.59,0,0,1,76,39.7v9.45a0,0,0,0,1,0,0H66.51A30.59,30.59,0,0,1,35.92,18.56V12.32A3.21,3.21,0,0,1,39.13,9.11Z" transform="translate(36.98 -31.03) rotate(45)"/><path id="_矩形_2" data-name="&lt;矩形&gt;" class="cls-1" d="M61.38,16.5h2A30.59,30.59,0,0,1,94,47.09v5.22a0,0,0,0,1,0,0H88.76A30.59,30.59,0,0,1,58.17,21.72v-2a3.21,3.21,0,0,1,3.21-3.21Z" transform="matrix(0.32, 0.95, -0.95, 0.32, 84.39, -48.67)"/><path id="_矩形_3" data-name="&lt;矩形&gt;" class="cls-1" d="M76.3,32.23h0a30.59,30.59,0,0,1,30.59,30.59V66a0,0,0,0,1,0,0h-3.21A30.59,30.59,0,0,1,73.09,35.44v0a3.21,3.21,0,0,1,3.21-3.21Z" transform="translate(150.84 -33.39) rotate(97.77)"/><path id="_矩形_4" data-name="&lt;矩形&gt;" class="cls-1" d="M80.61,85.6h0a25.6,25.6,0,0,1,25.6,25.6v3.64a0,0,0,0,1,0,0h-3.64A25.6,25.6,0,0,1,77,89.25v0a3.64,3.64,0,0,1,3.64-3.64Z" transform="translate(220.61 142.45) rotate(150.54)"/><path id="_矩形_5" data-name="&lt;矩形&gt;" class="cls-1" d="M48.5,16.5h5.22a0,0,0,0,1,0,0v5.22A30.59,30.59,0,0,1,23.13,52.31h-2a3.21,3.21,0,0,1-3.21-3.21v-2A30.59,30.59,0,0,1,48.5,16.5Z" transform="matrix(-0.32, 0.95, -0.95, -0.32, 79.85, 11.45)"/><path id="_矩形_6" data-name="&lt;矩形&gt;" class="cls-1" d="M35.59,32.23H38.8a0,0,0,0,1,0,0v3.21A30.59,30.59,0,0,1,8.21,66h0A3.21,3.21,0,0,1,5,62.82v0A30.59,30.59,0,0,1,35.59,32.23Z" transform="translate(67.62 20.79) rotate(82.23)"/><path id="_矩形_7" data-name="&lt;矩形&gt;" class="cls-1" d="M31.28,85.6h3.64a0,0,0,0,1,0,0v3.64a25.6,25.6,0,0,1-25.6,25.6h0a3.64,3.64,0,0,1-3.64-3.64v0a25.6,25.6,0,0,1,25.6-25.6Z" transform="translate(51.92 2.97) rotate(29.46)"/><circle id="_路徑_" data-name="&lt;路徑&gt;" class="cls-2" cx="55.94" cy="79.78" r="35.46"/><g id="_群組_" data-name="&lt;群組&gt;"><g id="_群組_2" data-name="&lt;群組&gt;"><ellipse id="_路徑_2" data-name="&lt;路徑&gt;" class="cls-3" cx="35.81" cy="70.8" rx="10.13" ry="8.93" transform="translate(-34.59 34.22) rotate(-35.72)"/><ellipse id="_路徑_3" data-name="&lt;路徑&gt;" class="cls-4" cx="35.81" cy="70.8" rx="7.94" ry="7" transform="matrix(0.81, -0.58, 0.58, 0.81, -34.59, 34.22)"/></g><g id="_群組_3" data-name="&lt;群組&gt;"><ellipse id="_路徑_4" data-name="&lt;路徑&gt;" class="cls-3" cx="76.07" cy="70.8" rx="8.93" ry="10.13" transform="translate(-25.82 91.23) rotate(-54.28)"/><ellipse id="_路徑_5" data-name="&lt;路徑&gt;" class="cls-4" cx="76.07" cy="70.8" rx="7" ry="7.94" transform="translate(-25.82 91.23) rotate(-54.28)"/></g></g><g id="_群組_4" data-name="&lt;群組&gt;"><ellipse id="_路徑_6" data-name="&lt;路徑&gt;" class="cls-4" cx="60.13" cy="80.37" rx="2.8" ry="1.87" transform="translate(-35.43 49.66) rotate(-35.38)"/><ellipse id="_路徑_7" data-name="&lt;路徑&gt;" class="cls-4" cx="51.76" cy="80.37" rx="1.87" ry="2.8" transform="translate(-43.74 76.03) rotate(-54.62)"/></g></g></svg>