<svg xmlns="http://www.w3.org/2000/svg" viewBox="0 0 118.99 119.73"><defs><style>.cls-1{fill:#ffe491;}.cls-2{fill:#fff;}</style></defs><title>menu_cheese</title><g id="icon2"><g id="_群組_" data-name="&lt;群組&gt;"><path id="_複合路徑_" data-name="&lt;複合路徑&gt;" class="cls-1" d="M41.34,2.42A56.76,56.76,0,0,0,2.22,42.05C-6.18,73,10.15,101.53,35.8,112.31a17.18,17.18,0,0,1,34.36.55,16.81,16.81,0,0,1-.24,2.86,59.36,59.36,0,0,0,8.22-2.27,1.62,1.62,0,0,0,1-2.11l-10-25.53a7.47,7.47,0,0,1-4.9-12.52l-5-12.8a.93.93,0,0,1,1.23-1.19L110.7,80.68a1.59,1.59,0,0,0,2.12-.87,58.36,58.36,0,0,0,4-21.38C116.86,20.61,80.93-8.82,41.34,2.42Zm-19,81a6.18,6.18,0,1,1,5.05-5A6.18,6.18,0,0,1,22.32,83.42Zm20-25a4.8,4.8,0,1,1,4.8-4.8A4.8,4.8,0,0,1,42.36,58.43ZM38.81,37.9A15.42,15.42,0,1,1,52.93,23.78,15.42,15.42,0,0,1,38.81,37.9ZM88,62.24A11.58,11.58,0,1,1,98.35,51.9,11.58,11.58,0,0,1,88,62.24Z"/><circle id="_路徑_" data-name="&lt;路徑&gt;" class="cls-2" cx="37.56" cy="22.53" r="15.42"/><circle id="_路徑_2" data-name="&lt;路徑&gt;" class="cls-2" cx="42.36" cy="53.63" r="4.8"/><circle id="_路徑_3" data-name="&lt;路徑&gt;" class="cls-2" cx="86.83" cy="50.72" r="11.57" transform="translate(-10.43 76.25) rotate(-45)"/><path id="_路徑_4" data-name="&lt;路徑&gt;" class="cls-2" d="M53,95.68A17.19,17.19,0,0,0,35.8,112.31a58.2,58.2,0,0,0,22.63,4.55,58.83,58.83,0,0,0,11.49-1.14,16.81,16.81,0,0,0,.24-2.86A17.18,17.18,0,0,0,53,95.68Z"/><circle id="_路徑_5" data-name="&lt;路徑&gt;" class="cls-2" cx="21.27" cy="77.33" r="6.18" transform="translate(-58.31 67.39) rotate(-67.5)"/><path id="_路徑_6" data-name="&lt;路徑&gt;" class="cls-2" d="M62.24,78.36a7.49,7.49,0,0,0,6.89,7.45l-4.9-12.52A7.45,7.45,0,0,0,62.24,78.36Z"/></g><g id="_群組_2" data-name="&lt;群組&gt;"><path id="_複合路徑_2" data-name="&lt;複合路徑&gt;" class="cls-1" d="M71.43,80.54a7.48,7.48,0,1,1,5.49,12.55c-.2,0-.4,0-.59,0l10.1,25.85a1.28,1.28,0,0,0,1.67.72,58.6,58.6,0,0,0,30.78-29.87,1.28,1.28,0,0,0-.67-1.69L67,66.28a.64.64,0,0,0-.85.83Zm31.42,19.21a4.39,4.39,0,1,1-4.39,4.39A4.38,4.38,0,0,1,102.85,99.75Z"/><circle id="_路徑_7" data-name="&lt;路徑&gt;" class="cls-2" cx="102.85" cy="104.14" r="4.39"/><path id="_路徑_8" data-name="&lt;路徑&gt;" class="cls-2" d="M84.4,85.61a7.47,7.47,0,0,0-13-5.07l4.9,12.52c.19,0,.39,0,.59,0A7.48,7.48,0,0,0,84.4,85.61Z"/></g></g></svg>