<svg xmlns="http://www.w3.org/2000/svg" viewBox="0 0 121.15 135.66"><defs><style>.cls-1,.cls-4{fill:#6ed8e6;}.cls-2{fill:#39bbcc;}.cls-13,.cls-14,.cls-3{fill:none;}.cls-3,.cls-4,.cls-7{stroke:#fff;}.cls-14,.cls-3,.cls-4,.cls-7{stroke-linecap:round;stroke-linejoin:round;}.cls-5,.cls-7{fill:#ffabb7;}.cls-6{fill:#fff;}.cls-8{fill:#eb6860;}.cls-9{fill:#c7423a;}.cls-10{fill:#ffe7e6;}.cls-11{fill:#1f5d73;}.cls-12{fill:#ffd557;}.cls-13,.cls-14{stroke:#ffd557;}.cls-13{stroke-miterlimit:10;}</style></defs><title>menu_aptinet_hover</title><g id="s"><g id="_群組_" data-name="&lt;群組&gt;"><g id="_群組_2" data-name="&lt;群組&gt;"><path id="_路徑_" data-name="&lt;路徑&gt;" class="cls-1" d="M83.53,45S84.81,40.8,89,41.6s3.84,5,3.2,6.4-1.38,6-6.56,6.08c-4.32.08-8.31-5.26-8.8-9.76-.64-5.81,2.08-14.13,12.8-13.14s9.6,10.42,14.56,12.18,6.32-.73,6.32-.73-1.52,6-6.48,7.45S92.17,48,92.17,48"/><path id="_路徑_2" data-name="&lt;路徑&gt;" class="cls-2" d="M57.58,125.85s-11.1,5.66-15.47,8.7-9.23-.8-6.72-3.68c0,0-3.15,3.89-7,2.82s-1.28-7.52-1.28-7.52,11-16,32.91-9.38Z"/><path id="_路徑_3" data-name="&lt;路徑&gt;" class="cls-1" d="M26.43,127.88c-1.3,1.3-1.92,4.8-6.93,5.12s-6.94-4.59-6.83-6.4c0,0-6.83,4.37-10.88-2.13S5,113.05,5,113.05s-5.23-2-3.41-7.36,7.89-2.88,7.89-2.88a5.52,5.52,0,0,1,6.19-4.37c5.33.43,6.08,4.8,6.08,4.8s.85-2.45,2.88-1.49c0,0,33.7-10,55.14-6.62S90,101,89.47,103.35s18.67,3,20.69,6.61-6,3.31-7.25,5.65.69,5.67-12,6.51-12.72.33-12.72.33-.85,12.79-13.32,11.67c0,0-5.73.21-8.62-6.38,0,0-2.65-4.95,3-9.23C59.19,118.51,39.92,114.39,26.43,127.88Z"/><path id="_路徑_4" data-name="&lt;路徑&gt;" class="cls-3" d="M17.74,111s-.8-3.2-3.84-2.24-2.83,4.22-1.76,5.92,2.93,3,6.08,2.46,28.21-19.15,47.84-10,11,25,4.24,26.48-12.24.24-14.48-7,8.16-12.8,12.8-7.28-.32,9.2-2.48,8.8a3.64,3.64,0,0,1-2.8-4.88"/><path id="_路徑_5" data-name="&lt;路徑&gt;" class="cls-3" d="M27,112.61a4.12,4.12,0,0,0,1.83-3.8c-.24-2.56-3-3.36-3-3.36s.64-3-1.12-3.7-2.88,1.49-2.88,1.49-1.2-4.69-6.08-4.8a6.31,6.31,0,0,0-6.19,4.37s-6-2.4-7.89,2.88S5,113.05,5,113.05-2.44,118,2,124.79s10.66,1.81,10.66,1.81.19,6.43,6.83,6.4,11.62-19.2,39.69-14.49"/><path id="_路徑_6" data-name="&lt;路徑&gt;" class="cls-1" d="M118.92,119.37h-8.2a2.16,2.16,0,0,0-2.16,2.16h0a1.23,1.23,0,0,1-1.22,1.23h-.22a1.76,1.76,0,0,0-1.76,1.76h0a1.76,1.76,0,0,0,1.76,1.76h6.51a1.23,1.23,0,0,0,1.23-1.23h0a1.21,1.21,0,0,1,1.22-1.22h2.84a2.23,2.23,0,0,0,2.23-2.23h0A2.23,2.23,0,0,0,118.92,119.37Z"/><path id="_路徑_7" data-name="&lt;路徑&gt;" class="cls-4" d="M83.53,45S84.81,40.59,89,41.6c3.29.8,3.57,4.56,3.2,6.4-.32,1.54-1.38,6-6.56,6.08-4.85.08-7.84-4.86-8.8-9.76-.87-4.44,2.08-14.13,12.8-13.14s9.6,10.42,14.56,12.18,6.32-.73,6.32-.73-1.52,6-6.48,7.45S92.17,48,92.17,48"/></g><g id="_群組_3" data-name="&lt;群組&gt;"><g id="_矩形_" data-name="&lt;矩形&gt;"><path id="_路徑_8" data-name="&lt;路徑&gt;" class="cls-5" d="M47.07,111.28A7.11,7.11,0,0,1,40,104.77L37.53,78A7.16,7.16,0,0,1,44,70.18l.65,0a7.12,7.12,0,0,1,7.12,6.51l2.42,26.83a7.15,7.15,0,0,1-6.48,7.76C47.5,111.27,47.29,111.28,47.07,111.28Z"/><path id="_複合路徑_" data-name="&lt;複合路徑&gt;" class="cls-6" d="M44.66,70.65a6.65,6.65,0,0,1,6.62,6.06l2.43,26.82a6.66,6.66,0,0,1-6,7.23h0l-.61,0a6.66,6.66,0,0,1-6.62-6L38,77.91a6.66,6.66,0,0,1,6-7.23q.3,0,.6,0m0-1a5.32,5.32,0,0,0-.69,0A7.66,7.66,0,0,0,37,78l2.43,26.82a7.61,7.61,0,0,0,7.61,7l.7,0a7.64,7.64,0,0,0,6.93-8.31L52.28,76.62a7.62,7.62,0,0,0-7.62-7Z"/></g><g id="_矩形_2" data-name="&lt;矩形&gt;"><path id="_路徑_9" data-name="&lt;路徑&gt;" class="cls-5" d="M72.71,82.54a5.83,5.83,0,0,1-4.66-2.35l-15-20.34a5.78,5.78,0,0,1,1.23-8.08,5.7,5.7,0,0,1,3.42-1.13A5.81,5.81,0,0,1,62.37,53l15,20.34a5.78,5.78,0,0,1-4.65,9.21Z"/><path id="_複合路徑_2" data-name="&lt;複合路徑&gt;" class="cls-6" d="M57.71,51.14A5.3,5.3,0,0,1,62,53.29L77,73.62a5.28,5.28,0,1,1-8.5,6.27l-15-20.34a5.27,5.27,0,0,1,4.24-8.41m0-1h0a6.29,6.29,0,0,0-5.05,10l15,20.33A6.31,6.31,0,0,0,72.71,83a6.28,6.28,0,0,0,5.05-10l-15-20.33a6.31,6.31,0,0,0-5.06-2.56Z"/></g><path id="_路徑_10" data-name="&lt;路徑&gt;" class="cls-7" d="M50.88,48.71a13.33,13.33,0,0,0-9.16,2.53L28.84,33.57A5.66,5.66,0,0,0,21.31,32a5.52,5.52,0,0,0-1.51,7.92L36.21,62.44V72.53A13.38,13.38,0,0,0,47.13,85.67l-3.31,26.27a7.12,7.12,0,0,0,5.88,8,7,7,0,0,0,7.9-6s4-29.69,4-30.7c0,0,1.56-7.62-.2-21"/><g id="_群組_4" data-name="&lt;群組&gt;"><path id="_路徑_11" data-name="&lt;路徑&gt;" class="cls-5" d="M49,53.17a16.63,16.63,0,1,1,.08,0Z"/><path id="_複合路徑_3" data-name="&lt;複合路徑&gt;" class="cls-6" d="M49.12,20.48h.07a16.1,16.1,0,0,1-.07,32.19H49a16.1,16.1,0,0,1,.08-32.19m0-1h0A17.1,17.1,0,0,0,49,53.67h.08a17.12,17.12,0,0,0,17.09-17,17.11,17.11,0,0,0-17-17.18Z"/></g></g><g id="_群組_5" data-name="&lt;群組&gt;"><path id="_矩形_3" data-name="&lt;矩形&gt;" class="cls-8" d="M44.69,2h1.69a7.16,7.16,0,0,1,7.16,7.16v1.69a0,0,0,0,1,0,0H51.85a7.16,7.16,0,0,1-7.16-7.16V2a0,0,0,0,1,0,0Z" transform="translate(18.95 -32.84) rotate(45)"/><path id="_矩形_4" data-name="&lt;矩形&gt;" class="cls-8" d="M49.61,3.66h.76a7.16,7.16,0,0,1,7.16,7.16v.76a0,0,0,0,1,0,0h-.76a7.16,7.16,0,0,1-7.16-7.16V3.66A0,0,0,0,1,49.61,3.66Z" transform="translate(43.69 -45.58) rotate(71.39)"/><path id="_矩形_5" data-name="&lt;矩形&gt;" class="cls-8" d="M52.91,7.14h.31a7.16,7.16,0,0,1,7.16,7.16v.31a0,0,0,0,1,0,0h-.31a7.16,7.16,0,0,1-7.16-7.16V7.14a0,0,0,0,1,0,0Z" transform="translate(75.08 -43.78) rotate(97.77)"/><path id="_矩形_6" data-name="&lt;矩形&gt;" class="cls-8" d="M53.76,18.94h0a6.47,6.47,0,0,1,6.47,6.47v0a0,0,0,0,1,0,0h0a6.47,6.47,0,0,1-6.47-6.47v0A0,0,0,0,1,53.76,18.94Z" transform="translate(117.53 13.45) rotate(150.54)"/><path id="_矩形_7" data-name="&lt;矩形&gt;" class="cls-8" d="M47.87,3.66h.76a0,0,0,0,1,0,0v.76a7.16,7.16,0,0,1-7.16,7.16h-.76a0,0,0,0,1,0,0v-.76a7.16,7.16,0,0,1,7.16-7.16Z" transform="translate(66.14 -32.28) rotate(108.61)"/><path id="_矩形_8" data-name="&lt;矩形&gt;" class="cls-8" d="M45,7.14h.31a0,0,0,0,1,0,0v.31a7.16,7.16,0,0,1-7.16,7.16h-.31a0,0,0,0,1,0,0V14.3A7.16,7.16,0,0,1,45,7.14Z" transform="translate(46.74 -31.8) rotate(82.23)"/><path id="_矩形_9" data-name="&lt;矩形&gt;" class="cls-8" d="M44.47,18.94h0a0,0,0,0,1,0,0v0A6.47,6.47,0,0,1,38,25.41h0a0,0,0,0,1,0,0v0a6.47,6.47,0,0,1,6.47-6.47Z" transform="translate(16.24 -17.41) rotate(29.46)"/><circle id="_路徑_12" data-name="&lt;路徑&gt;" class="cls-9" cx="49.12" cy="17.65" r="7.84"/><g id="_群組_6" data-name="&lt;群組&gt;"><ellipse id="_路徑_13" data-name="&lt;路徑&gt;" class="cls-10" cx="44.67" cy="15.67" rx="2.24" ry="1.98" transform="translate(-0.74 29.02) rotate(-35.72)"/><ellipse id="_路徑_14" data-name="&lt;路徑&gt;" class="cls-11" cx="44.67" cy="15.67" rx="1.76" ry="1.55" transform="translate(-0.74 29.02) rotate(-35.72)"/></g><g id="_群組_7" data-name="&lt;群組&gt;"><ellipse id="_路徑_15" data-name="&lt;路徑&gt;" class="cls-10" cx="53.57" cy="15.67" rx="1.98" ry="2.24" transform="translate(9.58 50.01) rotate(-54.28)"/><ellipse id="_路徑_16" data-name="&lt;路徑&gt;" class="cls-11" cx="53.57" cy="15.67" rx="1.55" ry="1.76" transform="translate(9.58 50.01) rotate(-54.28)"/></g></g><g id="_群組_8" data-name="&lt;群組&gt;"><path id="_路徑_17" data-name="&lt;路徑&gt;" class="cls-9" d="M15.17,20.51A11.52,11.52,0,0,1,24,19.08a10.63,10.63,0,1,0-14.2,8.6A11.45,11.45,0,0,1,15.17,20.51Z"/><g id="_群組_9" data-name="&lt;群組&gt;"><path id="_複合路徑_4" data-name="&lt;複合路徑&gt;" class="cls-12" d="M21.34,19.74a9.29,9.29,0,0,1,1.5.12,9.61,9.61,0,0,1-9.36,7.47A9.71,9.71,0,0,1,11,27a10.68,10.68,0,0,1,4.66-5.64,11,11,0,0,1,5.66-1.63m0-1a12,12,0,0,0-6.17,1.77A11.45,11.45,0,0,0,9.8,27.68a10.73,10.73,0,0,0,3.68.65A10.63,10.63,0,0,0,24,19.08a10.6,10.6,0,0,0-2.66-.34Z"/></g><line id="_路徑_18" data-name="&lt;路徑&gt;" class="cls-13" x1="15.17" y1="20.51" x2="18.97" y2="26.79"/><line id="_路徑_19" data-name="&lt;路徑&gt;" class="cls-14" x1="19.47" y1="19.24" x2="19" y2="26.33"/><line id="_路徑_20" data-name="&lt;路徑&gt;" class="cls-14" x1="12.12" y1="23.69" x2="18.62" y2="26.56"/><path id="_矩形_10" data-name="&lt;矩形&gt;" class="cls-12" d="M21.4,25.57h1.21a.22.22,0,0,1,.22.22V37.28a.78.78,0,0,1-.78.78H22a.78.78,0,0,1-.78-.78V25.79a.22.22,0,0,1,.22-.22Z" transform="matrix(0.86, -0.52, 0.52, 0.86, -13.29, 15.99)"/></g></g></g></svg>