<svg xmlns="http://www.w3.org/2000/svg" viewBox="0 0 173.62 95.44"><defs><style>.cls-1{fill:#ffd557;}.cls-2{fill:#6ed8e6;}.cls-3,.cls-5{fill:#ffabb7;}.cls-4{fill:#fff;}.cls-5{stroke:#fff;stroke-linecap:round;stroke-linejoin:round;}</style></defs><title>menu_holi_hover</title><g id="h"><g id="_群組_" data-name="&lt;群組&gt;"><path id="_路徑_" data-name="&lt;路徑&gt;" class="cls-1" d="M70.57,41.46s-37.76-5.12-47.14,3.77S31.82,54.11,28.86,59s-29.6,7.15-23.93,17S43.36,80.5,45.49,84s-10.71,6.42-4.3,10.36,48.35-3.94,56-1.48,19.73.74,22.45-1.72,25.65-2,27.13-4.94-8.88-8.38-1.23-10.11,24.91.25,27.87-5.92S147.26,62.25,147,57.07s7.64-5.18,7.4-10.61-29.9-6.92-47.49-5.31A197.75,197.75,0,0,1,70.57,41.46Z"/><ellipse id="_路徑_2" data-name="&lt;路徑&gt;" class="cls-1" cx="4.93" cy="57.93" rx="4.93" ry="2.34"/><ellipse id="_路徑_3" data-name="&lt;路徑&gt;" class="cls-2" cx="68.49" cy="82.9" rx="7.46" ry="3.54"/><ellipse id="_路徑_4" data-name="&lt;路徑&gt;" class="cls-2" cx="87.59" cy="75.81" rx="4.44" ry="2.11"/><g id="_群組_2" data-name="&lt;群組&gt;"><g id="_群組_3" data-name="&lt;群組&gt;"><g id="_矩形_" data-name="&lt;矩形&gt;"><path class="cls-3" d="M58.66,42.37A7.12,7.12,0,0,1,54,40.63L35,24.24a7.13,7.13,0,0,1,9.32-10.79l19,16.4a7.13,7.13,0,0,1-4.66,12.52Z"/><path class="cls-4" d="M39.69,12.22A6.6,6.6,0,0,1,44,13.83l19,16.4a6.63,6.63,0,0,1-8.66,10l-19-16.4a6.63,6.63,0,0,1,4.33-11.64m0-1h0a7.63,7.63,0,0,0-5,13.4L53.67,41a7.63,7.63,0,1,0,10-11.54l-19-16.39a7.64,7.64,0,0,0-5-1.86Z"/></g><g id="_群組_4" data-name="&lt;群組&gt;"><path id="_路徑_5" data-name="&lt;路徑&gt;" class="cls-2" d="M38.46,21.6c4.22,1.94,3.3-5.32,3.78-8.87a6.63,6.63,0,0,0-7.4,10.63C35.2,21.7,36.16,20.54,38.46,21.6Z"/></g></g><rect id="_矩形_2" data-name="&lt;矩形&gt;" class="cls-5" x="112.52" y="36.04" width="15.21" height="45.37" rx="7.6" ry="7.6" transform="translate(170.86 -64.99) rotate(86.25)"/><g id="_群組_5" data-name="&lt;群組&gt;"><g id="_群組_6" data-name="&lt;群組&gt;"><path class="cls-3" d="M134.78,78a8.51,8.51,0,0,1-1.42-.12l-29.7-5.26a8.1,8.1,0,0,1-6.56-9.4,6.52,6.52,0,0,1,.24-1,13.65,13.65,0,0,1-2.69-7l-1-10.92a13.77,13.77,0,0,1,12.43-15c.43,0,.86-.06,1.28-.06A13.69,13.69,0,0,1,121,41.8l1,10.92a13.88,13.88,0,0,1-1,6.49l15.13,2.68A8.1,8.1,0,0,1,134.78,78Z"/><path class="cls-4" d="M107.35,29.81a13.25,13.25,0,0,1,13.18,12l1,10.91a13.1,13.1,0,0,1-1.2,6.83l15.76,2.79a7.6,7.6,0,1,1-2.65,15l-29.7-5.26a7.55,7.55,0,0,1-5.85-10,13.15,13.15,0,0,1-2.75-6.92l-1-10.92a13.25,13.25,0,0,1,12-14.41q.61-.06,1.23-.06m0-1c-.44,0-.88,0-1.33.06A14.26,14.26,0,0,0,93.14,44.38l1,10.91a14.06,14.06,0,0,0,2.64,7,6.47,6.47,0,0,0-.18.8,8.6,8.6,0,0,0,7,10l29.69,5.26a8.61,8.61,0,1,0,3-17l-14.53-2.57a14.16,14.16,0,0,0,.8-6.15l-1-10.92a14.18,14.18,0,0,0-14.18-12.94Z"/></g><g id="_群組_7" data-name="&lt;群組&gt;"><path id="_路徑_6" data-name="&lt;路徑&gt;" class="cls-1" d="M113.71,53.64c1.6,4.12,2.6,6.36,2.53,8.49s10.05,11.63,13.47,7c1.85-2.49,1.72-5.5,1.47-7.66l-10.84-1.92a13.1,13.1,0,0,0,1.2-6.83L120.73,44C117.71,46.27,112.56,50.7,113.71,53.64Z"/></g></g><rect id="_矩形_3" data-name="&lt;矩形&gt;" class="cls-5" x="45.27" y="37.5" width="15.21" height="45.37" rx="7.6" ry="7.6" transform="translate(103.68 -1.76) rotate(80.66)"/><g id="_群組_8" data-name="&lt;群組&gt;"><path id="_路徑_7" data-name="&lt;路徑&gt;" class="cls-5" d="M107,41,101.58,65.5a6.62,6.62,0,0,1-7.89,5h0a6.63,6.63,0,0,1-5-7.9L94,38.16a6.64,6.64,0,0,1,7.9-5h0"/><g id="_群組_9" data-name="&lt;群組&gt;"><path id="_路徑_8" data-name="&lt;路徑&gt;" class="cls-2" d="M94.88,57.48a4,4,0,0,0-4.06-2.38l-1.69,7.68a6.14,6.14,0,1,0,12,2.64l.45-2.06-.69.12C97.55,64,97.43,62.15,94.88,57.48Z"/></g></g><g id="_群組_10" data-name="&lt;群組&gt;"><g id="_群組_11" data-name="&lt;群組&gt;"><path class="cls-3" d="M41.45,79.76a8.11,8.11,0,0,1-2.1-15.94l17.77-4.77a13.34,13.34,0,0,1-.91-3.67l-1.12-10.9a13.75,13.75,0,0,1,27.36-2.82l1.12,10.91a13.68,13.68,0,0,1-4.93,12,8.09,8.09,0,0,1-6,7.08L43.55,79.48a8.36,8.36,0,0,1-2.1.28Z"/><path class="cls-4" d="M68.79,29.81A13.27,13.27,0,0,1,82,41.71l1.12,10.91a13.22,13.22,0,0,1-4.92,11.7,7.6,7.6,0,0,1-5.61,6.86L43.42,79a7.9,7.9,0,0,1-2,.26,7.61,7.61,0,0,1-2-15L57.8,59.39a13.39,13.39,0,0,1-1.09-4.06l-1.12-10.9A13.24,13.24,0,0,1,67.41,29.89h0a12.59,12.59,0,0,1,1.37-.08m0-1a14.68,14.68,0,0,0-1.48.08A14.27,14.27,0,0,0,54.59,44.53l1.12,10.9a14.71,14.71,0,0,0,.74,3.28L39.22,63.34a8.61,8.61,0,0,0,2.23,16.92,8.44,8.44,0,0,0,2.23-.3l29.13-7.82a8.6,8.6,0,0,0,6.31-7.31,14.17,14.17,0,0,0,4.95-12.31L83,41.61a14.22,14.22,0,0,0-14.16-12.8Z"/></g><g id="_群組_12" data-name="&lt;群組&gt;"><path id="_路徑_9" data-name="&lt;路徑&gt;" class="cls-1" d="M57.49,68.85c-1.49,3.63-3.94,2.46-7.78,2.78-2.44.2-2.26,3.65-1.8,6.16l22-5.89A63.57,63.57,0,0,1,63,66.83C60.8,64.59,59,65.23,57.49,68.85Z"/></g></g><g id="_群組_13" data-name="&lt;群組&gt;"><g id="_群組_14" data-name="&lt;群組&gt;"><path class="cls-3" d="M106.7,33.84A16.6,16.6,0,0,1,105.86.67c.29,0,.58,0,.87,0a16.59,16.59,0,0,1,.83,33.16Z"/><path class="cls-4" d="M106.72,1.15a16.09,16.09,0,0,1,.81,32.16l-.83,0a16.1,16.1,0,0,1-.81-32.17c.28,0,.56,0,.83,0m0-1c-.29,0-.58,0-.88,0a17.1,17.1,0,0,0,.86,34.17c.29,0,.59,0,.88,0A17.09,17.09,0,0,0,106.72.15Z"/></g><g id="_群組_15" data-name="&lt;群組&gt;"><g id="_群組_16" data-name="&lt;群組&gt;"><path class="cls-2" d="M99.63,12.22c3.84,2.55,2.13-6.83,5.12-6.41,2.48.36,5,.12,6.47-4a16.12,16.12,0,0,0-19.44,9.43C94.6,10.94,97.79,11,99.63,12.22Z"/></g><g id="_群組_17" data-name="&lt;群組&gt;"><path class="cls-2" d="M110.29,26.29c-2.11.73-1.83,4.09-1.19,6.87a16.12,16.12,0,0,0,12.29-9.32c-2,.39-3.1,2.57-4.59,3.2C114.77,27.9,114,25,110.29,26.29Z"/></g><g id="_群組_18" data-name="&lt;群組&gt;"><path class="cls-1" d="M101.31,17.24a2.13,2.13,0,1,0,2.26,2.13A2.19,2.19,0,0,0,101.31,17.24Z"/></g></g></g><g id="_群組_19" data-name="&lt;群組&gt;"><path id="_路徑_10" data-name="&lt;路徑&gt;" class="cls-5" d="M74.71,32h0a6.62,6.62,0,0,1,7.7,5.34L86.87,62a6.62,6.62,0,0,1-5.35,7.7h0a6.62,6.62,0,0,1-7.69-5.34L69.37,39.69"/><g id="_群組_20" data-name="&lt;群組&gt;"><path id="_路徑_11" data-name="&lt;路徑&gt;" class="cls-2" d="M82.68,43.69l.43.11L82,37.52a6.13,6.13,0,0,0-1.82-3.42,6.35,6.35,0,0,0-5.53-1.68l-2.35.42c.84,1.13,3.3,4,3.41,6.33C75.83,42.15,80.1,42.92,82.68,43.69Z"/></g></g><g id="_群組_21" data-name="&lt;群組&gt;"><g id="_群組_22" data-name="&lt;群組&gt;"><path class="cls-3" d="M67,33.84A16.6,16.6,0,0,1,66.21.67c.29,0,.57,0,.86,0a16.59,16.59,0,0,1,.83,33.16C67.61,33.83,67.33,33.84,67,33.84Z"/><path class="cls-4" d="M67.07,1.15a16.09,16.09,0,0,1,.81,32.16l-.84,0a16.1,16.1,0,0,1-.81-32.17c.28,0,.56,0,.84,0m0-1c-.3,0-.59,0-.89,0A17.1,17.1,0,0,0,67,34.34l.89,0A17.09,17.09,0,0,0,67.07.15Z"/></g><g id="_群組_23" data-name="&lt;群組&gt;"><g id="_群組_24" data-name="&lt;群組&gt;"><path class="cls-1" d="M83.13,16.42A16.1,16.1,0,0,0,60.28,2.64c2.28,1.52,4.55,3.47,5,5.41,1,4.16,3.41,5.87,6.29,5.87s2.67,7.15,5.23,9.39a14.83,14.83,0,0,0,4.08,2.17A16,16,0,0,0,83.13,16.42Z"/></g><g id="_群組_25" data-name="&lt;群組&gt;"><ellipse class="cls-1" cx="57.49" cy="21.6" rx="2.45" ry="2.67"/></g></g></g></g></g></g></svg>