<svg xmlns="http://www.w3.org/2000/svg" viewBox="0 0 128.19 100.01"><defs><style>.cls-1{fill:#ffd557;}.cls-2{fill:#eb6860;}.cls-3,.cls-5{fill:#ffabb7;}.cls-4{fill:#fff;}.cls-5{stroke:#fff;stroke-linecap:round;stroke-linejoin:round;}.cls-6{fill:#b28247;}.cls-7{fill:#114b5f;}.cls-8{fill:#c7423a;}</style></defs><title>menu_cheese_hover</title><g id="c"><g id="_群組_" data-name="&lt;群組&gt;"><g id="_群組_2" data-name="&lt;群組&gt;"><circle id="_路徑_" data-name="&lt;路徑&gt;" class="cls-1" cx="30.61" cy="61.17" r="30.61"/><g id="_群組_3" data-name="&lt;群組&gt;"><path id="_路徑_2" data-name="&lt;路徑&gt;" class="cls-2" d="M42.74,51a12.15,12.15,0,0,0,11.73-9,30.6,30.6,0,0,0-20.7-11.28,12.13,12.13,0,0,0,9,20.3Z"/></g><circle id="_路徑_3" data-name="&lt;路徑&gt;" class="cls-2" cx="36.67" cy="65.18" r="6.07"/><circle id="_路徑_4" data-name="&lt;路徑&gt;" class="cls-2" cx="11.6" cy="54.52" r="3.49"/><g id="_群組_4" data-name="&lt;群組&gt;"><path id="_路徑_5" data-name="&lt;路徑&gt;" class="cls-2" d="M19.78,77.77A11.68,11.68,0,0,0,.91,68.58,30.63,30.63,0,0,0,14.76,87.36,11.65,11.65,0,0,0,19.78,77.77Z"/></g><g id="_群組_5" data-name="&lt;群組&gt;"><path id="_路徑_6" data-name="&lt;路徑&gt;" class="cls-2" d="M46.05,82.4a9.37,9.37,0,0,0-9.35,8.77,30.68,30.68,0,0,0,14.42-7.28A9.36,9.36,0,0,0,46.05,82.4Z"/></g><circle id="_路徑_7" data-name="&lt;路徑&gt;" class="cls-2" cx="54.24" cy="63.17" r="2.01"/></g><g id="_群組_6" data-name="&lt;群組&gt;"><g id="_群組_7" data-name="&lt;群組&gt;"><path id="_路徑_8" data-name="&lt;路徑&gt;" class="cls-3" d="M100.63,92.9a7.6,7.6,0,0,1-1.78-.21L69.66,85.85a7.19,7.19,0,0,1-4.57-3.27,6.25,6.25,0,0,1-.67-4.9,7.15,7.15,0,0,1,7-5.06,7.6,7.6,0,0,1,1.78.21l29.19,6.84A7.15,7.15,0,0,1,107,82.94a6.21,6.21,0,0,1,.68,4.9A7.15,7.15,0,0,1,100.63,92.9Z"/><path id="_複合路徑_" data-name="&lt;複合路徑&gt;" class="cls-4" d="M71.42,73.12a6.87,6.87,0,0,1,1.67.2l29.19,6.84a6.2,6.2,0,0,1,4.87,7.55,6.68,6.68,0,0,1-6.52,4.69A7.38,7.38,0,0,1,99,92.21L69.77,85.36a6.2,6.2,0,0,1-4.87-7.55,6.68,6.68,0,0,1,6.52-4.69m0-1h0a7.64,7.64,0,0,0-7.48,5.43,6.74,6.74,0,0,0,.72,5.29,7.77,7.77,0,0,0,4.88,3.5l29.2,6.84a8.56,8.56,0,0,0,1.89.22A7.66,7.66,0,0,0,108.11,88a6.76,6.76,0,0,0-.73-5.3,7.72,7.72,0,0,0-4.87-3.5l-29.2-6.84a8.56,8.56,0,0,0-1.89-.22Z"/></g><g id="_矩形_" data-name="&lt;矩形&gt;"><path id="_路徑_9" data-name="&lt;路徑&gt;" class="cls-3" d="M74.06,61.67a6.12,6.12,0,0,1-3.69-11l22.6-17a6.11,6.11,0,1,1,7.36,9.76l-22.6,17A6,6,0,0,1,74.06,61.67Z"/><path id="_複合路徑_2" data-name="&lt;複合路徑&gt;" class="cls-4" d="M96.65,32.89A5.62,5.62,0,0,1,100,43L77.43,60a5.62,5.62,0,0,1-6.76-9l22.6-17a5.56,5.56,0,0,1,3.38-1.14m0-1h0a6.56,6.56,0,0,0-4,1.34l-22.6,17a6.62,6.62,0,0,0,4,11.9,6.54,6.54,0,0,0,4-1.34l22.59-17a6.62,6.62,0,0,0-4-11.9Z"/></g><g id="_群組_8" data-name="&lt;群組&gt;"><path id="_路徑_10" data-name="&lt;路徑&gt;" class="cls-3" d="M95.38,99.39a7.59,7.59,0,0,1-2.79-.52l-25.71-10A6.8,6.8,0,0,1,62.58,84a13.17,13.17,0,0,1-7.9-11.15L54,60.72a12.55,12.55,0,0,1,3.3-9.13,14.76,14.76,0,0,1,10.21-4.72h.74c7.58,0,13.83,5.49,14.21,12.51l.68,12.13a12.38,12.38,0,0,1-2.26,7.82.34.34,0,0,0,.16.51l17.14,6.65a6.92,6.92,0,0,1,4,3.82,6.28,6.28,0,0,1-.1,5,7.26,7.26,0,0,1-6.67,4.1Z"/><path id="_複合路徑_3" data-name="&lt;複合路徑&gt;" class="cls-4" d="M68.25,47.35c7.27,0,13.34,5.27,13.71,12l.68,12.13A12,12,0,0,1,80.47,79a.83.83,0,0,0,.39,1.25L98,86.94a6.06,6.06,0,0,1,3.6,8.14,6.76,6.76,0,0,1-6.21,3.81,7.27,7.27,0,0,1-2.61-.49l-25.71-10a6.29,6.29,0,0,1-4-4.77,12.71,12.71,0,0,1-7.86-10.82L54.5,60.69c-.38-7,5.45-13,13-13.32l.72,0m0-1-.76,0a15.25,15.25,0,0,0-10.56,4.89,13,13,0,0,0-3.43,9.49l.68,12.13a13.65,13.65,0,0,0,8,11.47,7.31,7.31,0,0,0,4.55,5l25.71,10a8.36,8.36,0,0,0,3,.55,7.74,7.74,0,0,0,7.12-4.39,6.7,6.7,0,0,0,.11-5.39A7.4,7.4,0,0,0,98.36,86l-17-6.58a12.82,12.82,0,0,0,2.22-8L83,59.34c-.4-7.28-6.86-13-14.71-13Z"/></g><g id="_群組_9" data-name="&lt;群組&gt;"><path id="_路徑_11" data-name="&lt;路徑&gt;" class="cls-3" d="M69.26,52.16A16.6,16.6,0,0,1,68.43,19l.86,0a16.59,16.59,0,0,1,.83,33.16C69.84,52.15,69.55,52.16,69.26,52.16Z"/><path id="_複合路徑_4" data-name="&lt;複合路徑&gt;" class="cls-4" d="M69.29,19.47a16.1,16.1,0,0,1,.81,32.17l-.84,0a16.1,16.1,0,0,1-.8-32.17c.28,0,.55,0,.83,0m0-1-.88,0a17.1,17.1,0,0,0,.85,34.17c.3,0,.59,0,.89,0a17.09,17.09,0,0,0-.86-34.16Z"/></g><path id="_路徑_12" data-name="&lt;路徑&gt;" class="cls-5" d="M67.2,60.24,63,85.84a6.74,6.74,0,0,1-7.73,5.57h0a6.73,6.73,0,0,1-5.56-7.73l4.5-27.63A6.73,6.73,0,0,1,62,50.48h0"/><path id="_路徑_13" data-name="&lt;路徑&gt;" class="cls-4" d="M60.92,50.67a26.93,26.93,0,0,0,4,1.31c.35,0-2.48-1.77-2.48-1.77S60.92,50,60.92,50.67Z"/></g><g id="_群組_10" data-name="&lt;群組&gt;"><rect id="_矩形_2" data-name="&lt;矩形&gt;" class="cls-6" x="96.12" y="-0.25" width="2.08" height="44.75" rx="1.04" ry="1.04" transform="translate(4.92 -15.57) rotate(9.4)"/><g id="_群組_11" data-name="&lt;群組&gt;"><g id="_群組_12" data-name="&lt;群組&gt;"><path id="_路徑_14" data-name="&lt;路徑&gt;" class="cls-7" d="M102.67,1.15l.18-.08Z"/><path id="_路徑_15" data-name="&lt;路徑&gt;" class="cls-7" d="M103.56.9h0Z"/><path id="_路徑_16" data-name="&lt;路徑&gt;" class="cls-7" d="M126.4,4.63l.13,0Z"/><path id="_路徑_17" data-name="&lt;路徑&gt;" class="cls-7" d="M103.82.89h0Z"/><path id="_路徑_18" data-name="&lt;路徑&gt;" class="cls-7" d="M103.32.93l.15,0Z"/><path id="_路徑_19" data-name="&lt;路徑&gt;" class="cls-7" d="M103.09,1l.16,0Z"/><path id="_路徑_20" data-name="&lt;路徑&gt;" class="cls-7" d="M102.88,1.06l.17-.06Z"/><path id="_路徑_21" data-name="&lt;路徑&gt;" class="cls-7" d="M125.39,22.48a1.13,1.13,0,0,1-.1.13A1.13,1.13,0,0,0,125.39,22.48Z"/><path id="_路徑_22" data-name="&lt;路徑&gt;" class="cls-7" d="M127.33,5.11l.14.13Z"/><path id="_路徑_23" data-name="&lt;路徑&gt;" class="cls-7" d="M127.15,5l.16.12Z"/><path id="_路徑_24" data-name="&lt;路徑&gt;" class="cls-7" d="M126.79,4.77l.18.09Z"/><path id="_路徑_25" data-name="&lt;路徑&gt;" class="cls-7" d="M126.61,4.69l.16.07Z"/><path id="_路徑_26" data-name="&lt;路徑&gt;" class="cls-7" d="M124.72,23.11l-.18.11Z"/><path id="_路徑_27" data-name="&lt;路徑&gt;" class="cls-7" d="M127,4.86l.18.11Z"/><path id="_路徑_28" data-name="&lt;路徑&gt;" class="cls-7" d="M101.7,2.06l.08-.13Z"/><path id="_路徑_29" data-name="&lt;路徑&gt;" class="cls-7" d="M100.79,19.75l-.13-.05Z"/><path id="_路徑_30" data-name="&lt;路徑&gt;" class="cls-7" d="M100,19.4l-.16-.12Z"/><path id="_路徑_31" data-name="&lt;路徑&gt;" class="cls-7" d="M123.38,23.48h0Z"/><path id="_路徑_32" data-name="&lt;路徑&gt;" class="cls-7" d="M100.59,19.68l-.17-.07Z"/><path id="_路徑_33" data-name="&lt;路徑&gt;" class="cls-7" d="M123.64,23.48h0Z"/><path id="_路徑_34" data-name="&lt;路徑&gt;" class="cls-7" d="M124.11,23.39l-.16,0Z"/><path id="_路徑_35" data-name="&lt;路徑&gt;" class="cls-7" d="M123.88,23.44l-.15,0Z"/><path id="_路徑_36" data-name="&lt;路徑&gt;" class="cls-7" d="M124.53,23.22l-.18.09Z"/><path id="_路徑_37" data-name="&lt;路徑&gt;" class="cls-7" d="M127.49,5.26l.12.13Z"/><path id="_路徑_38" data-name="&lt;路徑&gt;" class="cls-7" d="M99.18,18.3a1.21,1.21,0,0,1-.05-.14A1.21,1.21,0,0,0,99.18,18.3Z"/><path id="_路徑_39" data-name="&lt;路徑&gt;" class="cls-7" d="M101.6,2.24l.06-.11Z"/><path id="_路徑_40" data-name="&lt;路徑&gt;" class="cls-7" d="M99.26,18.48l-.06-.13Z"/><path id="_路徑_41" data-name="&lt;路徑&gt;" class="cls-7" d="M99.87,19.26l-.14-.12Z"/><path id="_路徑_42" data-name="&lt;路徑&gt;" class="cls-7" d="M124.33,23.32l-.18.06Z"/><path id="_路徑_43" data-name="&lt;路徑&gt;" class="cls-7" d="M99.36,18.67l-.08-.13Z"/><path id="_路徑_44" data-name="&lt;路徑&gt;" class="cls-7" d="M125.6,22.13a.75.75,0,0,1-.07.12A.75.75,0,0,0,125.6,22.13Z"/><polygon id="_路徑_45" data-name="&lt;路徑&gt;" class="cls-7" points="101.28 19.84 122.88 23.43 113.3 14.02 101.28 19.84"/><path id="_路徑_46" data-name="&lt;路徑&gt;" class="cls-7" d="M125.5,22.31l-.08.13Z"/><path id="_路徑_47" data-name="&lt;路徑&gt;" class="cls-7" d="M111,11.76l-9.49-9.33,0-.08a2.43,2.43,0,0,0-.17.54L99,17a2.45,2.45,0,0,0,.07,1.08,2.53,2.53,0,0,1-.09-.55Z"/><path id="_路徑_48" data-name="&lt;路徑&gt;" class="cls-7" d="M102.48,1.26l.18-.1a2.33,2.33,0,0,0-.85.74l.1-.14A2.73,2.73,0,0,1,102.48,1.26Z"/><polygon id="_路徑_49" data-name="&lt;路徑&gt;" class="cls-7" points="125.91 4.54 104.33 0.95 113.9 10.36 125.91 4.54"/><path id="_路徑_50" data-name="&lt;路徑&gt;" class="cls-7" d="M99.37,18.69a2.79,2.79,0,0,0,.34.43L99.58,19A1.94,1.94,0,0,1,99.37,18.69Z"/><path id="_路徑_51" data-name="&lt;路徑&gt;" class="cls-7" d="M124.72,23.11a2.25,2.25,0,0,0,.57-.5A2.25,2.25,0,0,1,124.72,23.11Z"/><path id="_路徑_52" data-name="&lt;路徑&gt;" class="cls-7" d="M127.94,5.89,128,6Z"/><path id="_路徑_53" data-name="&lt;路徑&gt;" class="cls-7" d="M100.05,19.4a1.75,1.75,0,0,0,.35.2l-.18-.09Z"/><path id="_路徑_54" data-name="&lt;路徑&gt;" class="cls-7" d="M127.81,5.67a1.85,1.85,0,0,0-.19-.27A1.85,1.85,0,0,1,127.81,5.67Z"/><path id="_路徑_55" data-name="&lt;路徑&gt;" class="cls-7" d="M127.84,5.71a.75.75,0,0,1,.07.12A.75.75,0,0,0,127.84,5.71Z"/><path id="_路徑_56" data-name="&lt;路徑&gt;" class="cls-7" d="M128.18,6.8l-12,5.81,9.49,9.33,0,.1a2.49,2.49,0,0,0,.16-.55l2.35-14.15a2.34,2.34,0,0,0-.07-1.09A2.54,2.54,0,0,1,128.18,6.8Z"/><path id="_路徑_57" data-name="&lt;路徑&gt;" class="cls-7" d="M128,6.08a.58.58,0,0,1,0,.14A.58.58,0,0,0,128,6.08Z"/><path id="_路徑_58" data-name="&lt;路徑&gt;" class="cls-4" d="M99.2,18.35l0-.05Z"/><path id="_路徑_59" data-name="&lt;路徑&gt;" class="cls-4" d="M99.28,18.54a.14.14,0,0,0,0-.06A.14.14,0,0,1,99.28,18.54Z"/><path id="_路徑_60" data-name="&lt;路徑&gt;" class="cls-4" d="M99.37,18.69v0Z"/><path id="_路徑_61" data-name="&lt;路徑&gt;" class="cls-4" d="M124.54,23.22h0Z"/><path id="_路徑_62" data-name="&lt;路徑&gt;" class="cls-4" d="M125.53,22.25l0,.06Z"/><path id="_路徑_63" data-name="&lt;路徑&gt;" class="cls-4" d="M100.42,19.61h0Z"/><polygon id="_路徑_64" data-name="&lt;路徑&gt;" class="cls-4" points="125.29 22.61 125.29 22.61 125.29 22.61 125.29 22.61"/><path id="_路徑_65" data-name="&lt;路徑&gt;" class="cls-4" d="M123.73,23.47h0Z"/><path id="_路徑_66" data-name="&lt;路徑&gt;" class="cls-4" d="M123.51,23.49h0Z"/><path id="_路徑_67" data-name="&lt;路徑&gt;" class="cls-4" d="M124.35,23.31h0Z"/><path id="_路徑_68" data-name="&lt;路徑&gt;" class="cls-4" d="M124.15,23.38h0Z"/><path id="_路徑_69" data-name="&lt;路徑&gt;" class="cls-4" d="M127.81,5.67l0,0Z"/><path id="_路徑_70" data-name="&lt;路徑&gt;" class="cls-4" d="M101,19.79l-.22,0Z"/><path id="_路徑_71" data-name="&lt;路徑&gt;" class="cls-4" d="M125.64,22a.63.63,0,0,0,0,.09A.63.63,0,0,1,125.64,22Z"/><path id="_路徑_72" data-name="&lt;路徑&gt;" class="cls-4" d="M100.66,19.7l-.07,0Z"/><path id="_路徑_73" data-name="&lt;路徑&gt;" class="cls-4" d="M123.28,23.48l-.23,0Z"/><path id="_路徑_74" data-name="&lt;路徑&gt;" class="cls-4" d="M124,23.43h0Z"/><path id="_路徑_75" data-name="&lt;路徑&gt;" class="cls-4" d="M126.53,4.67l.08,0Z"/><polygon id="_路徑_76" data-name="&lt;路徑&gt;" class="cls-4" points="126.97 4.86 126.97 4.86 126.97 4.86 126.97 4.86"/><path id="_路徑_77" data-name="&lt;路徑&gt;" class="cls-4" d="M99.13,18.16l0,0Z"/><path id="_路徑_78" data-name="&lt;路徑&gt;" class="cls-4" d="M103.69.89h0Z"/><path id="_路徑_79" data-name="&lt;路徑&gt;" class="cls-4" d="M126.4,4.63l-.22,0-.27,0h0l.27,0Z"/><path id="_路徑_80" data-name="&lt;路徑&gt;" class="cls-4" d="M126.77,4.76h0Z"/><path id="_路徑_81" data-name="&lt;路徑&gt;" class="cls-4" d="M103.47.91h0Z"/><path id="_路徑_82" data-name="&lt;路徑&gt;" class="cls-4" d="M125.42,22.44l0,0Z"/><path id="_路徑_83" data-name="&lt;路徑&gt;" class="cls-4" d="M127.91,5.83l0,.06Z"/><path id="_路徑_84" data-name="&lt;路徑&gt;" class="cls-4" d="M128.07,6.22v0Z"/><path id="_路徑_85" data-name="&lt;路徑&gt;" class="cls-4" d="M128,6l0,.06Z"/><polygon id="_路徑_86" data-name="&lt;路徑&gt;" class="cls-4" points="127.62 5.4 127.61 5.39 127.61 5.39 127.62 5.4"/><path id="_路徑_87" data-name="&lt;路徑&gt;" class="cls-4" d="M102.66,1.16h0Z"/><path id="_路徑_88" data-name="&lt;路徑&gt;" class="cls-4" d="M101.66,2.13l0-.07Z"/><path id="_路徑_89" data-name="&lt;路徑&gt;" class="cls-4" d="M101.78,1.93l0,0Z"/><path id="_路徑_90" data-name="&lt;路徑&gt;" class="cls-4" d="M101.56,2.35s0-.08,0-.11S101.57,2.31,101.56,2.35Z"/><path id="_路徑_91" data-name="&lt;路徑&gt;" class="cls-4" d="M103.05,1h0Z"/><path id="_路徑_92" data-name="&lt;路徑&gt;" class="cls-4" d="M103.25,1l.07,0Z"/><path id="_路徑_93" data-name="&lt;路徑&gt;" class="cls-4" d="M104.33,1h0l-.18,0-.23,0,.23,0Z"/><path id="_路徑_94" data-name="&lt;路徑&gt;" class="cls-4" d="M102.85,1.07h0Z"/><path id="_路徑_95" data-name="&lt;路徑&gt;" class="cls-4" d="M99.58,19l12.29-6,.21-1.27-10.17-10-.1.14,0,0-.08.13,0,.07-.06.11s0,.07,0,.11l0,.08L111,11.76,99,17.57a2.53,2.53,0,0,0,.09.55l0,0a1.21,1.21,0,0,0,.05.14l0,.05.06.13a.14.14,0,0,1,0,.06l.08.13v0A1.94,1.94,0,0,0,99.58,19Z"/><path id="_路徑_96" data-name="&lt;路徑&gt;" class="cls-4" d="M114.94,13.51l-.1.63-2.63-.43-12,5.8.18.09h0l.17.07.07,0,.13.05.22,0,.27.05,12-5.83,9.58,9.42.17,0,.23,0h.45l.15,0H124l.16,0h0l.18-.06h0l.18-.09h0l.18-.11h0Z"/><path id="_路徑_97" data-name="&lt;路徑&gt;" class="cls-4" d="M116.19,12.61l12-5.81a2.54,2.54,0,0,0-.1-.55v0a.58.58,0,0,0,0-.14L128,6l-.06-.13,0-.06a.75.75,0,0,0-.07-.12l0,0a1.85,1.85,0,0,0-.19-.27h0l-12.31,6-.2,1.23,10.19,10h0a1.13,1.13,0,0,0,.1-.13l0,0,.08-.13,0-.06a.75.75,0,0,0,.07-.12.63.63,0,0,1,0-.09l0-.1Z"/><path id="_路徑_98" data-name="&lt;路徑&gt;" class="cls-4" d="M112.23,10.84l.1-.57,2.59.43,12-5.84h0l-.18-.09h0l-.16-.07-.08,0-.13,0-.22,0-.27,0-12,5.82L104.33,1l-.18,0-.23,0h-.45l-.15,0-.07,0-.16,0h0l-.17.06h0l-.18.08h0l-.18.1Z"/><polygon id="_路徑_99" data-name="&lt;路徑&gt;" class="cls-8" points="127.61 5.39 127.61 5.39 127.61 5.39 127.61 5.39"/><path id="_路徑_100" data-name="&lt;路徑&gt;" class="cls-8" d="M100.05,19.4h0Z"/><polygon id="_路徑_101" data-name="&lt;路徑&gt;" class="cls-8" points="126.97 4.86 126.97 4.86 126.97 4.86 126.97 4.86"/><polygon id="_路徑_102" data-name="&lt;路徑&gt;" class="cls-8" points="125.29 22.61 125.29 22.61 125.29 22.61 125.29 22.61"/><path id="_路徑_103" data-name="&lt;路徑&gt;" class="cls-8" d="M127.47,5.24l0,0Z"/><path id="_路徑_104" data-name="&lt;路徑&gt;" class="cls-8" d="M99.73,19.14l0,0Z"/><path id="_路徑_105" data-name="&lt;路徑&gt;" class="cls-8" d="M127.31,5.1h0Z"/><path id="_路徑_106" data-name="&lt;路徑&gt;" class="cls-8" d="M99.88,19.28v0Z"/><path id="_路徑_107" data-name="&lt;路徑&gt;" class="cls-8" d="M127.15,5h0Z"/><path id="_複合路徑_5" data-name="&lt;複合路徑&gt;" class="cls-8" d="M115.1,12.59l.2-1.23,12.31-6h0l-.12-.13,0,0-.14-.13h0L127.15,5h0L127,4.86h0l-12,5.84-2.59-.43-.1.57-9.75-9.58a2.73,2.73,0,0,0-.57.5l10.17,10L111.87,13,99.58,19l.13.14,0,0,.14.12v0l.16.12h0l.17.11,12-5.8,2.63.43.1-.63,9.78,9.6h0a2.25,2.25,0,0,0,.57-.5h0Z"/></g><polygon id="_路徑_108" data-name="&lt;路徑&gt;" class="cls-4" points="127.52 11.14 116.45 9.3 117.47 3.14 112.86 2.37 111.83 8.53 100.76 6.69 99.68 13.24 110.75 15.08 109.72 21.24 114.34 22.01 115.36 15.85 126.43 17.68 127.52 11.14"/><polygon id="_路徑_109" data-name="&lt;路徑&gt;" class="cls-8" points="127.32 12.35 115.39 10.37 116.62 2.99 113.72 2.51 112.49 9.88 100.56 7.9 99.88 12.03 111.8 14.01 110.58 21.38 113.48 21.87 114.71 14.49 126.64 16.48 127.32 12.35"/></g></g></g></g></svg>