<svg xmlns="http://www.w3.org/2000/svg" viewBox="0 0 125.5 117.33"><defs><style>.cls-1{fill:none;}.cls-1,.cls-2,.cls-3,.cls-5{stroke:#ffe491;}.cls-1,.cls-2,.cls-3,.cls-4,.cls-5{stroke-linecap:round;stroke-linejoin:round;}.cls-1,.cls-2,.cls-3,.cls-4{stroke-width:5px;}.cls-2,.cls-5{fill:#ffe491;}.cls-3,.cls-4{fill:#fff;}.cls-4{stroke:#fff;}.cls-5{stroke-width:6px;}</style></defs><title>menu_mala</title><g id="work2"><g id="_群組_" data-name="&lt;群組&gt;"><line id="_路徑_" data-name="&lt;路徑&gt;" class="cls-1" x1="102.94" y1="15.8" x2="10.69" y2="95.02"/><line id="_路徑_2" data-name="&lt;路徑&gt;" class="cls-2" x1="77.68" y1="80.09" x2="23.09" y2="16.52"/><polygon id="_路徑_3" data-name="&lt;路徑&gt;" class="cls-3" points="66.92 67.57 75.96 67.14 87.34 80.39 78.3 80.82 66.92 67.57"/><line id="_路徑_4" data-name="&lt;路徑&gt;" class="cls-3" x1="83.34" y1="75.73" x2="74.42" y2="76.31"/><line id="_路徑_5" data-name="&lt;路徑&gt;" class="cls-3" x1="79.84" y1="71.65" x2="70.93" y2="72.23"/><polygon id="_路徑_6" data-name="&lt;路徑&gt;" class="cls-3" points="66.92 67.57 65.13 76.44 76.51 89.69 78.3 80.82 66.92 67.57"/><line id="_路徑_7" data-name="&lt;路徑&gt;" class="cls-3" x1="72.5" y1="85.03" x2="74.42" y2="76.31"/><line id="_路徑_8" data-name="&lt;路徑&gt;" class="cls-3" x1="69.01" y1="80.96" x2="70.93" y2="72.23"/><polygon id="_路徑_9" data-name="&lt;路徑&gt;" class="cls-4" points="19.07 19.98 13.32 5.16 27.11 13.07 19.07 19.98"/><path id="_路徑_10" data-name="&lt;路徑&gt;" class="cls-5" d="M5.3,114.13l12.06-7a1.46,1.46,0,0,0,.73-1.43,188.07,188.07,0,0,0-7.4-35.14c-6.41-20.18,7.15-34.81,19.79-34,4.06.27,6.6-.62,8.19-1.95s2.82-3.75,3.16-7.8C42.92,14.25,59.42,3.06,78.4,12.44A187.38,187.38,0,0,0,112,25.07a1.48,1.48,0,0,0,1.53-.5l8.71-10.88a1.48,1.48,0,0,0-1.47-2.36C112.7,13.07,94.2,15.41,76.1,6.16,58.21-3,40,10.83,38.9,23.46c-.35,4.05-1.61,6.43-3.16,7.8s-4.13,2.21-8.19,1.95C14.91,32.37-1.51,48.29,4.83,67.36c6.4,19.29,1.3,37.22-1.64,45A1.48,1.48,0,0,0,5.3,114.13Z"/></g></g></svg>