<svg xmlns="http://www.w3.org/2000/svg" viewBox="0 0 88.48 142.81"><defs><style>.cls-1{fill:#ffe7e6;}.cls-2{fill:#968756;}.cls-3,.cls-4,.cls-5{fill:none;}.cls-3,.cls-4{stroke:#ffd557;}.cls-3,.cls-4,.cls-5,.cls-7{stroke-linecap:round;stroke-linejoin:round;}.cls-4{stroke-width:2px;}.cls-5{stroke:#968756;stroke-width:8px;}.cls-6,.cls-7,.cls-8{fill:#ffabb7;}.cls-6,.cls-7{stroke:#fff;}.cls-6{stroke-miterlimit:10;}.cls-9{fill:#fff;}</style></defs><title>menu_mala_hover</title><g id="d"><g id="_群組_" data-name="&lt;群組&gt;"><g id="_群組_2" data-name="&lt;群組&gt;"><path id="_路徑_" data-name="&lt;路徑&gt;" class="cls-1" d="M20.46,115.7H9.09A4.79,4.79,0,0,0,4.65,112C2.08,112,0,114.36,0,117.31A5.83,5.83,0,0,0,.63,120,5.9,5.9,0,0,0,0,122.64c0,3,2.09,5.33,4.65,5.33a4.77,4.77,0,0,0,4.44-3.73H20.47Z"/><path id="_路徑_2" data-name="&lt;路徑&gt;" class="cls-1" d="M68,115.68H79.39a4.77,4.77,0,0,1,4.44-3.74c2.56,0,4.65,2.39,4.65,5.33a5.84,5.84,0,0,1-.63,2.67,5.87,5.87,0,0,1,.63,2.67c0,2.94-2.08,5.33-4.65,5.33a4.79,4.79,0,0,1-4.44-3.73H68Z"/><path id="_路徑_3" data-name="&lt;路徑&gt;" class="cls-2" d="M61.17,97.14a6.44,6.44,0,0,0-1.06.22c-1.88.53-8.72,4-14.89,4.71a20.52,20.52,0,0,1-4.7,0c-6.17-.72-12.15-2.94-14-3.46a5.61,5.61,0,0,0-1.05-.22c-5.68-.56-10.59,5.71-10.59,13.75l-.05,17.08c.35,7.25,4.41,12.76,9.28,13.52a7.5,7.5,0,0,0,4.62-.91l.88-.46c8.61-4.29,19.57-5.24,28.18-1l.89.46a7.41,7.41,0,0,0,4.61.9c4.88-.76,8.93-6.27,9.28-13.52l-.77-17.37C71.76,102.85,66.85,96.58,61.17,97.14Z"/></g><g id="_群組_3" data-name="&lt;群組&gt;"><g id="_群組_4" data-name="&lt;群組&gt;"><g id="_群組_5" data-name="&lt;群組&gt;"><polygon id="_路徑_4" data-name="&lt;路徑&gt;" class="cls-1" points="44.57 11.93 41.68 8.63 43.29 0 46.17 3.3 44.57 11.93"/><line id="_路徑_5" data-name="&lt;路徑&gt;" class="cls-3" x1="42.22" y1="5.75" x2="45.1" y2="9.05"/><line id="_路徑_6" data-name="&lt;路徑&gt;" class="cls-3" x1="42.76" y1="2.88" x2="45.64" y2="6.18"/><polygon id="_路徑_7" data-name="&lt;路徑&gt;" class="cls-1" points="44.57 11.93 48.44 9.89 50.05 1.26 46.17 3.3 44.57 11.93"/><line id="_路徑_8" data-name="&lt;路徑&gt;" class="cls-3" x1="48.98" y1="7.01" x2="45.1" y2="9.05"/><line id="_路徑_9" data-name="&lt;路徑&gt;" class="cls-3" x1="49.52" y1="4.14" x2="45.64" y2="6.18"/><line id="_路徑_10" data-name="&lt;路徑&gt;" class="cls-3" x1="46.17" y1="3.3" x2="42.33" y2="23.93"/></g><g id="_群組_6" data-name="&lt;群組&gt;"><polygon id="_路徑_11" data-name="&lt;路徑&gt;" class="cls-1" points="39.84 16.5 36.4 13.78 36.4 5 39.84 7.72 39.84 16.5"/><line id="_路徑_12" data-name="&lt;路徑&gt;" class="cls-3" x1="36.4" y1="10.86" x2="39.84" y2="13.57"/><line id="_路徑_13" data-name="&lt;路徑&gt;" class="cls-3" x1="36.4" y1="7.93" x2="39.84" y2="10.65"/><polygon id="_路徑_14" data-name="&lt;路徑&gt;" class="cls-1" points="39.84 16.5 43.28 13.78 43.27 5 39.84 7.72 39.84 16.5"/><line id="_路徑_15" data-name="&lt;路徑&gt;" class="cls-3" x1="43.28" y1="10.85" x2="39.84" y2="13.57"/><line id="_路徑_16" data-name="&lt;路徑&gt;" class="cls-3" x1="43.28" y1="7.93" x2="39.84" y2="10.65"/><line id="_路徑_17" data-name="&lt;路徑&gt;" class="cls-3" x1="39.84" y1="7.72" x2="39.85" y2="28.7"/></g><g id="_群組_7" data-name="&lt;群組&gt;"><polygon id="_路徑_18" data-name="&lt;路徑&gt;" class="cls-1" points="47.56 19 45.16 15.34 47.94 7.01 50.34 10.68 47.56 19"/><line id="_路徑_19" data-name="&lt;路徑&gt;" class="cls-3" x1="46.09" y1="12.56" x2="48.49" y2="16.23"/><line id="_路徑_20" data-name="&lt;路徑&gt;" class="cls-3" x1="47.01" y1="9.79" x2="49.41" y2="13.45"/><polygon id="_路徑_21" data-name="&lt;路徑&gt;" class="cls-1" points="47.56 19 51.68 17.51 54.46 9.18 50.34 10.68 47.56 19"/><line id="_路徑_22" data-name="&lt;路徑&gt;" class="cls-3" x1="52.61" y1="14.74" x2="48.49" y2="16.23"/><line id="_路徑_23" data-name="&lt;路徑&gt;" class="cls-3" x1="53.53" y1="11.96" x2="49.41" y2="13.45"/><line id="_路徑_24" data-name="&lt;路徑&gt;" class="cls-3" x1="50.34" y1="10.67" x2="43.7" y2="30.58"/></g></g><g id="_群組_8" data-name="&lt;群組&gt;"><line id="_路徑_25" data-name="&lt;路徑&gt;" class="cls-4" x1="27.53" y1="10.33" x2="34.76" y2="38.81"/><path id="_路徑_26" data-name="&lt;路徑&gt;" class="cls-5" d="M27.08,7.13s-7,14.58-10.25,20.7C13.42,34.23,15.93,40,22,40.41c7.66.54,8.54,7.89,7.26,9.81s-5.55,5.55-2.52,9.84c1.82,2.57,12.57,8.5,13.1,16.61"/></g><g id="_群組_9" data-name="&lt;群組&gt;"><g id="_群組_10" data-name="&lt;群組&gt;"><rect id="_矩形_" data-name="&lt;矩形&gt;" class="cls-6" x="22.17" y="51.54" width="11.41" height="34.76" rx="5.7" ry="5.7" transform="translate(14.76 142.1) rotate(-147.83)"/></g><g id="_群組_11" data-name="&lt;群組&gt;"><rect id="_矩形_2" data-name="&lt;矩形&gt;" class="cls-6" x="53.54" y="51.53" width="11.41" height="34.76" rx="5.7" ry="5.7" transform="translate(-27.61 42.19) rotate(-32.21)"/></g><path id="_路徑_27" data-name="&lt;路徑&gt;" class="cls-7" d="M32.52,64.37s-1.23,10.75-1.58,17.9c-.16,3.13-.45,6.26-.87,9.37l-2.9,21.2a6.24,6.24,0,0,0,4.78,7,6.1,6.1,0,0,0,7.26-5.14L42.6,89.82a1,1,0,0,1,1-.84h0a1,1,0,0,1,1,.84l3.29,24a7.27,7.27,0,0,0,7,6.09h0a5.23,5.23,0,0,0,5.31-6.09l-3-22.18c-.42-3.11-.72-6.24-.87-9.38l-1.6-17.89"/><rect id="_矩形_3" data-name="&lt;矩形&gt;" class="cls-8" x="35.66" y="51.8" width="16.03" height="18.69"/><g id="_群組_12" data-name="&lt;群組&gt;"><path class="cls-8" d="M43.49,55.4a16.62,16.62,0,1,1,.06,0Z"/><path class="cls-9" d="M43.54,22.71h.06a16.1,16.1,0,0,1-.05,32.19h-.06a16.1,16.1,0,0,1,0-32.19m0-1h0a17.1,17.1,0,0,0,0,34.19h.06a17.1,17.1,0,0,0,.05-34.19Z"/></g></g></g></g></g></svg>