<svg xmlns="http://www.w3.org/2000/svg" viewBox="0 0 132.12 120.5"><defs><style>.cls-1{fill:#ffe491;}.cls-2{fill:#fff;}.cls-3{fill:#6ed8e6;}</style></defs><title>menu_holi</title><g id="work2"><g id="_群組_" data-name="&lt;群組&gt;"><path id="_路徑_" data-name="&lt;路徑&gt;" class="cls-1" d="M93.11,50.21c-.76-.13-8.61-3.37-10.39,3.06-3,10.63,6.94,10.28,12.76,14,3.88,2.5,3.55,4.94,3.2,7.48,0,.29-.08.59-.15.88-1.29,5.5-6.7,13.76-14.72,11.63C78.28,85.8,77,76.44,71.64,72.1a6.8,6.8,0,0,0-8.12-.73c-1.54.82-3.09,2-3.28,5.39-.38,6.69,7.67,12.16,4.93,18.74-1.1,3.29-4,5.16-7.39,6.17-4.6,1.38-15,.86-20-2.88-7.54-5.62-3.56-14.39,1.1-18.09,5.39-4.29,1.88-9.53-.28-11.81-1.69-1.78-8-3-10.55,3.75-2,4.65-8.37,8.06-15,5.86C3.19,75.22-4.63,56.7,3.19,47.24,8.43,40.9,20.84,47,28.42,45.05c3.22-.83,5.81-5.78,3.88-9.4-2.76-5.17-7.93-4.66-12.66-9.8s-3-13.46,2.44-17.67C26.16,5,32.81,2.4,38.4.92c6.3-1.66,17-1.6,20.18,4.64,2.89,5.7-2,15.28,1.65,21.39,3.76,6.32,7.89,6.18,11.58,2.49,2-2,9.33-10.31,14.76-11.34,6.91-1.31,12.48,2.75,15.79,8.36a39.15,39.15,0,0,1,4,12A10.59,10.59,0,0,1,93.21,50.24Z"/><circle id="_路徑_2" data-name="&lt;路徑&gt;" class="cls-2" cx="95.91" cy="109.25" r="11.25"/><circle id="_路徑_3" data-name="&lt;路徑&gt;" class="cls-2" cx="124.57" cy="69.77" r="7.55"/></g><circle id="_路徑_4" data-name="&lt;路徑&gt;" class="cls-3" cx="124.57" cy="67.72" r="4.6"/></g></svg>