<svg xmlns="http://www.w3.org/2000/svg" viewBox="0 0 561.5 626.84"><defs><style>.cls-1{fill:#c7423a;stroke:#c7423a;}.cls-1,.cls-12,.cls-2,.cls-4,.cls-5,.cls-7,.cls-8{stroke-linecap:round;stroke-linejoin:round;}.cls-1,.cls-10,.cls-12,.cls-2,.cls-4,.cls-7,.cls-8{stroke-width:0.94px;}.cls-2{fill:#eb9994;stroke:#eb9994;}.cls-10,.cls-3,.cls-8{fill:#fff;}.cls-4,.cls-5{fill:none;}.cls-10,.cls-4,.cls-5,.cls-7{stroke:#1f5d73;}.cls-5{stroke-width:4.69px;}.cls-6,.cls-7{fill:#1f5d73;}.cls-8{stroke:#fff;}.cls-9{fill:#968756;}.cls-10{stroke-miterlimit:10;}.cls-11{fill:#1a7291;}.cls-12{fill:#ffe7e6;stroke:#ffe7e6;}.cls-13{fill:#ffccc9;}</style></defs><title>nebutasai_face_right</title><g id="ghost_face" data-name="ghost face"><path id="_路徑_" data-name="&lt;路徑&gt;" class="cls-1" d="M180.55,419.5s-4.22-16.65-39.87-31.19S52.05,371.43,29.07,327.82c0,0-4.22,40.79,18.76,62.84s19.69,24.82,19.69,24.82,19.7-2.7,33.77,5.47S113.39,453,113.39,453s14.16-7.34,27.76-1.79,13.13,31.19,13.13,31.19,6.34-10.17,22.63-2.66,16.3,13.37,16.3,13.37Z"/><path id="_路徑_2" data-name="&lt;路徑&gt;" class="cls-1" d="M424.57,414.86s3.75-30.42,48.15-52.87,71.29-55.59,70-82.48c0,0,16.34,31.89,0,60.66s-18.8,41.57-15.68,50.49c0,0-21.26-2.83-33.14,10.55s-2.58,35.41-2.58,35.41-19.3,0-26.81,12.12A42.86,42.86,0,0,0,458,472.42a20.8,20.8,0,0,0-17.79,7.19c-7.51,8.75-4.62,13.53-4.62,13.53l-27.07-37.5Z"/><path id="_路徑_3" data-name="&lt;路徑&gt;" class="cls-2" d="M179.61,436.62s-8-14.54-21.1-19.23S116.93,403.9,111,395.87c0,0,16.09,17.76,16.09,29,0,0,22-1.54,28.14,15.88,0,0,11.73-3.81,24.39,7.74Z"/><path id="_路徑_4" data-name="&lt;路徑&gt;" class="cls-2" d="M426.29,428.12S462.87,369.43,491,371.6c0,0-22.87,19.51-17.35,43.26,0,0-16.88,4.41-22.51,17.54,0,0-32.79.35-32.11,30.19Z"/><path id="_路徑_5" data-name="&lt;路徑&gt;" class="cls-1" d="M365.17,277.64s-32.52-16.26-81.92-7.51S217.6,293.89,213.84,302,180.7,360.8,180.7,360.8s-10,79.42,2.51,96.3-15.64,32.51,1.87,58.15,53.78,76.91,56.28,95.67,50,20.64,81.29,18.14,68.78-11.88,73.78-33.14,15-61.28,28.77-81.29,12.5-30,6.88-37.52-8.76-13.59-8.13-28.37,9.38-6,6.25-40.73-8.75-72.22-16.88-79.72S365.17,277.64,365.17,277.64Z"/><path id="_路徑_6" data-name="&lt;路徑&gt;" class="cls-3" d="M210.72,391.75s-9.07,21.26,0,37.21,17.82,23.14,39.71,22.2,30.38-9.38,30.38-9.38,8.7-23.14-26.95-33.77C253.86,408,219.47,385.5,210.72,391.75Z"/><path id="_路徑_7" data-name="&lt;路徑&gt;" class="cls-3" d="M328.92,432.71s2.17,4.69,10.3,7.19,48.15-3.12,54.09-36.27-19.39-29.45-19.39-29.45l-32.2,27-12.8,14.93Z"/><path id="_路徑_8" data-name="&lt;路徑&gt;" class="cls-4" d="M270.75,495.06s-14,.65-17-10.37,5.42-31.66,28-27L281.46,438"/><path id="_路徑_9" data-name="&lt;路徑&gt;" class="cls-4" d="M351.72,488.68s12.2,1.17,15.25-12.43-12-33.61-35.18-25l-3.67-14.76"/><path id="_路徑_10" data-name="&lt;路徑&gt;" class="cls-5" d="M292.4,455.14s8.68,8.21,27.67-2.11"/><path id="_路徑_11" data-name="&lt;路徑&gt;" class="cls-6" d="M295,488.7s-6.8,4-14.31,3.73-16.88-12.66,0-10.08,26.5,11.25,45.26,1.17,18.33-14.78,21.36-7.74-5.8,10.94-10.89,11.33-10.16-1.4-11.64-.93-10.94,3.28-15.2,3.75S298.58,487,295,488.7Z"/><path id="_路徑_12" data-name="&lt;路徑&gt;" class="cls-7" d="M208.69,507.2s-12.9,4.93,1.17,21.34,16.88,24.86,20.87,34.94,21.57,37.52,36.7,37,22.62-14.77,47.95-15.71,42.44,6.56,56,4.69,22.51-49.71,34.47-65.19,17.35-21.57,9.38-29.08-21.34,2.58-41,10.79S258.4,514.7,239.4,509.31,213.84,505.33,208.69,507.2Z"/><path id="_路徑_13" data-name="&lt;路徑&gt;" class="cls-8" d="M250.66,511.14a71.69,71.69,0,0,1-11.26-1.83,115.23,115.23,0,0,0-13.79-3.15c-1.63,7.19-4.82,23.81-3.37,39,1,11,4.53,21.3,12.78,26.74a23,23,0,0,0,4.62,2.34S225.58,559.9,250.66,511.14Z"/><g id="_群組_" data-name="&lt;群組&gt;"><path id="_路徑_14" data-name="&lt;路徑&gt;" class="cls-8" d="M271.21,543.08s-3.55-17.13,1-30.58c-7-.25-13.46-.62-18.87-1.1C254,518.49,257.13,539.2,271.21,543.08Z"/></g><g id="_群組_2" data-name="&lt;群組&gt;"><path id="_路徑_15" data-name="&lt;路徑&gt;" class="cls-8" d="M365.48,534.32s13.15-9,10.46-29l-1.7.72c-3.14,1.3-8.22,2.41-14.6,3.34C363.42,513.31,366.91,520.67,365.48,534.32Z"/></g><path id="_路徑_16" data-name="&lt;路徑&gt;" class="cls-8" d="M404.21,493.14c-6.45,1.51-14.54,6-24.41,10.46,5.43,7.09,15.5,22,17.58,37.15a34.46,34.46,0,0,1-.63,13.58,67.19,67.19,0,0,0,11.59-33.18A65.47,65.47,0,0,0,404.21,493.14Z"/><g id="_群組_3" data-name="&lt;群組&gt;"><path id="_路徑_17" data-name="&lt;路徑&gt;" class="cls-8" d="M260.12,578.41c-6.88-21.58-1.88-31.84-1.88-31.84s-20.45,15.73-15,37.42c7.08,8.9,16,16.79,24.14,16.54a26.65,26.65,0,0,0,9.55-2.2A33.24,33.24,0,0,1,260.12,578.41Z"/></g><g id="_群組_4" data-name="&lt;群組&gt;"><path id="_路徑_18" data-name="&lt;路徑&gt;" class="cls-8" d="M371.11,535.89c5.83,27.71-2.15,44.46-9.82,53.62a43.4,43.4,0,0,0,10.13,0c6.88-1,12.56-13.65,18-28C385.63,540.15,371.11,535.89,371.11,535.89Z"/></g><g id="_群組_5" data-name="&lt;群組&gt;"><path id="_路徑_19" data-name="&lt;路徑&gt;" class="cls-8" d="M283.45,538.39l8.13-9.07s.93-.31,1.25-5.47a60.65,60.65,0,0,0-.91-11c-8.26,0-16.23-.2-23.44-.51.15,3.57.69,14.27,2,16.35C272,531.2,283.45,538.39,283.45,538.39Z"/></g><g id="_群組_6" data-name="&lt;群組&gt;"><path id="_路徑_20" data-name="&lt;路徑&gt;" class="cls-8" d="M306.29,536.21l8.13-9.06s.94-.32,1.25-5.48a51.94,51.94,0,0,0-.63-9.09c-7.86.22-15.85.31-23.58.28.25,4.63.81,12,1.86,13.66C294.88,529,306.29,536.21,306.29,536.21Z"/></g><g id="_群組_7" data-name="&lt;群組&gt;"><path id="_路徑_21" data-name="&lt;路徑&gt;" class="cls-8" d="M329.24,534.88l8.13-9.07s.94-.31,1.25-5.47a50.65,50.65,0,0,0-.59-8.82c-7.43.5-15.43.86-23.56,1.08.28,4.61.83,11,1.8,12.58C317.83,527.68,329.24,534.88,329.24,534.88Z"/></g><g id="_群組_8" data-name="&lt;群組&gt;"><path id="_路徑_22" data-name="&lt;路徑&gt;" class="cls-8" d="M352.18,531.9l8.13-9.07s.94-.31,1.25-5.47a48.38,48.38,0,0,0-.5-8.21c-6.56,1-14.64,1.81-23.52,2.4.3,4.31.83,9.31,1.67,10.66C340.77,524.71,352.18,531.9,352.18,531.9Z"/></g><g id="_群組_9" data-name="&lt;群組&gt;"><path id="_路徑_23" data-name="&lt;路徑&gt;" class="cls-8" d="M282.5,565l-7,11.14s-.93.5-.38,6.13c.46,4.76,3.09,12.77,3.9,15.15,6.54-3.13,13-7.82,22.68-10.52-1.06-5-2.75-12-4-13.52C295.64,570.91,282.5,565,282.5,565Z"/></g><g id="_群組_10" data-name="&lt;群組&gt;"><path id="_路徑_24" data-name="&lt;路徑&gt;" class="cls-8" d="M365.3,573c-.81-3.18-10.37-14.55-10.37-14.55s-12.57,7.12-14.6,12.54c-1.56,4.19-2.66,11.69-3.07,14.89,9.71,1.24,17.93,3.1,25.14,3.69C363.63,584.82,365.9,575.39,365.3,573Z"/></g><g id="_群組_11" data-name="&lt;群組&gt;"><path id="_路徑_25" data-name="&lt;路徑&gt;" class="cls-8" d="M305.76,561.13l-7.46,9.56s-.9.36-.94,5.59a65.4,65.4,0,0,0,1.52,11.48,57.09,57.09,0,0,1,16.5-2.94q3.14-.12,6.1-.07c-.46-4.56-1.41-12.72-2.59-14.47C317.24,567.83,305.76,561.13,305.76,561.13Z"/></g><g id="_群組_12" data-name="&lt;群組&gt;"><path id="_路徑_26" data-name="&lt;路徑&gt;" class="cls-8" d="M341.25,569.65c-1.19-2.71-11.31-11.35-11.31-11.35S318.8,566.37,319,571.72c.13,3.74.76,9.83.87,13a124.2,124.2,0,0,1,21.18,1.7C341.35,583,342.25,571.92,341.25,569.65Z"/></g><g id="_群組_13" data-name="&lt;群組&gt;"><path id="_路徑_27" data-name="&lt;路徑&gt;" class="cls-9" d="M299.21,577.35a15.36,15.36,0,0,1-2.11,11.55,54.32,54.32,0,0,1,7.46-2.22A31.93,31.93,0,0,1,299.21,577.35Z"/><path id="_路徑_28" data-name="&lt;路徑&gt;" class="cls-9" d="M340.23,584.39a6.73,6.73,0,0,1-.85,2.32l3,.44a102.17,102.17,0,0,1-1.18-13.78A95.74,95.74,0,0,1,340.23,584.39Z"/><path id="_路徑_29" data-name="&lt;路徑&gt;" class="cls-9" d="M319,574.06a53.6,53.6,0,0,1-1.81,11.22c.94,0,1.88,0,2.8,0A44.54,44.54,0,0,1,319,574.06Z"/></g><g id="_群組_14" data-name="&lt;群組&gt;"><path id="_路徑_30" data-name="&lt;路徑&gt;" class="cls-9" d="M338.63,519a23.79,23.79,0,0,1,1.56-8.14c-1.6.12-3.24.23-4.9.33C337.66,512.63,338.67,514.9,338.63,519Z"/><path id="_路徑_31" data-name="&lt;路徑&gt;" class="cls-9" d="M338.62,519.86c0-.3,0-.57,0-.84C338.62,519.54,338.62,519.86,338.62,519.86Z"/><path id="_路徑_32" data-name="&lt;路徑&gt;" class="cls-9" d="M361.29,511.87s.45-1.12-2.32-2.89l-1,.14C359.78,509.74,361.19,510.62,361.29,511.87Z"/><path id="_路徑_33" data-name="&lt;路徑&gt;" class="cls-9" d="M315.67,521.2s-.26-5.44,2-9.18l-4.36.13C314.71,514.19,315.62,517.09,315.67,521.2Z"/><path id="_路徑_34" data-name="&lt;路徑&gt;" class="cls-9" d="M270.06,523.26s2.08-7.6,6.25-11.11l-4.15-.13h0S270.21,519.92,270.06,523.26Z"/><path id="_路徑_35" data-name="&lt;路徑&gt;" class="cls-9" d="M292.83,523.37c0-.49,0-1,0-1.42C292.8,522.83,292.83,523.37,292.83,523.37Z"/><path id="_路徑_36" data-name="&lt;路徑&gt;" class="cls-9" d="M292.81,522a26.73,26.73,0,0,1,1.66-9.56l-5.24,0C291.21,514.22,292.63,517.28,292.81,522Z"/></g><g id="_群組_15" data-name="&lt;群組&gt;"><ellipse id="_路徑_37" data-name="&lt;路徑&gt;" class="cls-10" cx="257.42" cy="428.12" rx="12.39" ry="15.44" transform="translate(-224.54 559.53) rotate(-74.23)"/><ellipse id="_路徑_38" data-name="&lt;路徑&gt;" class="cls-6" cx="257.42" cy="428.12" rx="8.33" ry="10.37" transform="translate(-224.54 559.53) rotate(-74.23)"/></g><g id="_群組_16" data-name="&lt;群組&gt;"><ellipse id="_路徑_39" data-name="&lt;路徑&gt;" class="cls-10" cx="375.19" cy="405.37" rx="15.44" ry="12.39" transform="translate(-177.15 407.82) rotate(-47.47)"/><ellipse id="_路徑_40" data-name="&lt;路徑&gt;" class="cls-6" cx="375.19" cy="405.37" rx="10.37" ry="8.33" transform="translate(-177.15 407.82) rotate(-47.47)"/></g><path id="_路徑_41" data-name="&lt;路徑&gt;" class="cls-11" d="M275.44,380.81c-7.18,2-11.36,25.88-9.38,32.2s10,5.63,12,12.2,2.56,11.94,4.62,9.59,6.94-4.43,4-13.34-13.13-10.79-6.72-24.39S280.44,379.4,275.44,380.81Z"/><path id="_路徑_42" data-name="&lt;路徑&gt;" class="cls-11" d="M317.65,378.62c-3.43,2.18,8.59,14.07,5.94,18.29S311.46,411,317,418.17s10.83,8,9.73,5.32-5.47-16.73,5.94-21.73S328,372.06,317.65,378.62Z"/><path id="_路徑_43" data-name="&lt;路徑&gt;" class="cls-11" d="M260.74,315.39c-7.74,5.63,9.14,13.55,7.74,17.82-4,12.19-15.94,18.52-11.25,26.73s9.84,17.82,15.94,12.9-6.33-10.55,0-17.59,15-20.63,8-29.07S267.38,310.56,260.74,315.39Z"/><path id="_路徑_44" data-name="&lt;路徑&gt;" class="cls-11" d="M336.58,298.74c-11.1-5-22.37,9.14-13.46,30.95s6.09,21.45-1.41,32.3-1.15,11.55,6.46,6.86,20.27-12.66,14.64-26.26-20.4-19.7-12.66-27.44S346.52,303.2,336.58,298.74Z"/><path id="_路徑_45" data-name="&lt;路徑&gt;" class="cls-7" d="M281.53,442.83s.21-9-8-19.81c-7.41-9.77-18.13-8.13-29.08-15s-31.26-16.88-43.77-15-16.3-6.09-7.81-13.44a19.41,19.41,0,0,1,15-4.69s-12.5-7.5-5-11.57,27.83.63,39.71,23.76c0,0-1.88-11.88,6.88-8.75S291.84,422,281.53,442.83Z"/><path id="_路徑_46" data-name="&lt;路徑&gt;" class="cls-7" d="M331.32,448.74s-8-20.8-6.56-27.6,3.52-23,16.65-38.92,18.52-18.06,20.87-14.07a8.35,8.35,0,0,1,0,8s13.36-26.73,29.07-27.2,2.82,15.24,2.82,15.24,13.13-10.78,21.1-6.33,3.52,13.6,1.64,16.18-10.55,10.55-29.31,7.5-55.57,32.83-56.74,38S326.87,435.77,331.32,448.74Z"/><path id="_路徑_47" data-name="&lt;路徑&gt;" class="cls-12" d="M362.67,280.76s.62,40.65,51.27,56.91c0,0,233.24-153.83,96.3-337.67C510.24,0,585.47,167.59,362.67,280.76Z"/><path id="_路徑_48" data-name="&lt;路徑&gt;" class="cls-12" d="M224.36,298.33s7.68,39.92-38.6,66.16c0,0-259.7-103-163.11-310.94C22.65,53.55-16.84,233,224.36,298.33Z"/><path id="_路徑_49" data-name="&lt;路徑&gt;" class="cls-13" d="M13.13,107.1C8.62,114.84,15,141.94,20,153.51s16.83,38.08,23.71,43.08,9.07,7.49,9.07,2.48-8.08-11.78-14.33-20.85-14.7-31-15.32-37.21S17.51,99.6,13.13,107.1Z"/><path id="_路徑_50" data-name="&lt;路徑&gt;" class="cls-13" d="M79.15,236.2c-6,3,38.06,35.5,44.94,43.31,10.14,11.53,40.19,19.86,52.82,27.05,16,9.06,30.09,10.52,29.78,3.33s-59.31-24.2-74.23-34.67c-10.82-7.58-28.61-15.57-32.05-20.57S86,232.76,79.15,236.2Z"/><path id="_路徑_51" data-name="&lt;路徑&gt;" class="cls-13" d="M531.81,94.26c-2.89-5.36-17.82,85.36-60.5,119.13S455.94,236.83,458,234s54.12-47.84,62.56-65.19S541.39,112,531.81,94.26Z"/><path id="_路徑_52" data-name="&lt;路徑&gt;" class="cls-13" d="M427.7,254.66c1.26-8.81-34.7,22-40.33,25.32s-.94,6.1,4.69,3.75,17.82-13.42,24.85-14.21S426.76,261.22,427.7,254.66Z"/></g></svg>