<svg id="圖層_1" data-name="圖層 1" xmlns="http://www.w3.org/2000/svg" viewBox="0 0 234 225"><defs><style>.cls-1{fill:#ffffff;stroke:#efefef;}</style></defs><title>paint</title><path id="_路徑_" data-name="&lt;路徑&gt;" class="cls-1" d="M234,98a54.87,54.87,0,0,0-19.3-41.83c-12.08-10.31-38.89-22-48-35C159,10.29,148.62,0,137.25,0A43,43,0,0,0,115,6.16a46.16,46.16,0,0,1-30.79,5.73,34.56,34.56,0,0,0-35,16.72C44.29,37,37.3,44.11,28.5,48.28A49.88,49.88,0,0,0,4,112.89a125.24,125.24,0,0,1,10.53,45.55c0,1.11.1,2.24.2,3.37A56.27,56.27,0,0,0,76.59,212.7,80.09,80.09,0,0,1,118,219a67.28,67.28,0,0,0,94.93-58.52,64.87,64.87,0,0,0-.12-7.65c-1-14.32,16.89-29.16,19.93-43.19A54.69,54.69,0,0,0,234,98Z"/></svg>