<svg xmlns="http://www.w3.org/2000/svg" viewBox="0 0 115.35 109.5"><defs><style>.cls-1,.cls-3{fill:#ffbf00;}.cls-2{fill:#ffd557;}.cls-3{opacity:0.5;}.cls-4{opacity:0.3;}.cls-5{fill:#968756;}.cls-6{fill:#eb9994;}.cls-7{opacity:0.25;}</style></defs><title>bell</title><g id="bell1"><path id="_路徑_" data-name="&lt;路徑&gt;" class="cls-1" d="M11.43,75A48.25,48.25,0,0,0,104,74.88C94.29,78.55,77.11,81,57.51,81,38.15,81,21.16,78.61,11.43,75Z"/><path id="_路徑_2" data-name="&lt;路徑&gt;" class="cls-2" d="M104.16,48.34a48.24,48.24,0,0,0-93,0c9.66,3.68,26.86,6.14,46.48,6.14S94.5,52,104.16,48.34Z"/><path id="_路徑_3" data-name="&lt;路徑&gt;" class="cls-3" d="M104.16,48.34a48.24,48.24,0,0,0-93,0c9.66,3.68,26.86,6.14,46.48,6.14S94.5,52,104.16,48.34Z"/><g id="_群組_" data-name="&lt;群組&gt;"><path id="_路徑_4" data-name="&lt;路徑&gt;" class="cls-2" d="M109.67,61.82A24.07,24.07,0,0,1,104,64.75c-9.67,3.67-26.85,6.12-46.45,6.12-19.36,0-36.35-2.39-46.08-6-3.45-1.27-6-2.7-7.4-4.22a11.57,11.57,0,0,1-3-4.17,12.79,12.79,0,0,0-1,5.07,12.16,12.16,0,0,0,4,9.22c1.4,1.53,4,3,7.4,4.23,9.73,3.6,26.72,6,46.08,6,19.6,0,36.78-2.45,46.45-6.12A24.07,24.07,0,0,0,109.67,72a11.86,11.86,0,0,0,5.68-10.39,12.7,12.7,0,0,0-1-5.05A11.08,11.08,0,0,1,109.67,61.82Z"/></g><path id="_路徑_5" data-name="&lt;路徑&gt;" class="cls-3" d="M109.67,61.82A24.07,24.07,0,0,1,104,64.75c-9.67,3.67-26.85,6.12-46.45,6.12-19.36,0-36.35-2.39-46.08-6-3.45-1.27-6-2.7-7.4-4.22a11.57,11.57,0,0,1-3-4.17,12.79,12.79,0,0,0-1,5.07,12.16,12.16,0,0,0,4,9.22c1.4,1.53,4,3,7.4,4.23,9.73,3.6,26.72,6,46.08,6,19.6,0,36.78-2.45,46.45-6.12A24.07,24.07,0,0,0,109.67,72a11.86,11.86,0,0,0,5.68-10.39,12.7,12.7,0,0,0-1-5.05A11.08,11.08,0,0,1,109.67,61.82Z"/><path id="_路徑_6" data-name="&lt;路徑&gt;" class="cls-2" d="M4,60.66c1.4,1.52,4,3,7.4,4.22,9.73,3.6,26.72,6,46.08,6,19.6,0,36.78-2.45,46.45-6.12a24.07,24.07,0,0,0,5.71-2.93,11.08,11.08,0,0,0,4.63-5.31,11.26,11.26,0,0,0-4-4.92,20.84,20.84,0,0,0-6-3.32l-.19.07C94.5,52,77.3,54.48,57.67,54.48S20.85,52,11.19,48.34l-.35-.13c-3.5,1.35-6,2.87-7.21,4.49A11.68,11.68,0,0,0,1,56.49,11.57,11.57,0,0,0,4,60.66Z"/><g id="_群組_2" data-name="&lt;群組&gt;"><path id="_路徑_7" data-name="&lt;路徑&gt;" class="cls-1" d="M63.82,100.83a9.83,9.83,0,1,0-12.3,0h0v8.26a46.56,46.56,0,0,0,12.33,0v-8.26Z"/></g><g id="_群組_3" data-name="&lt;群組&gt;" class="cls-4"><path id="_路徑_8" data-name="&lt;路徑&gt;" class="cls-5" d="M63.82,100.83a9.83,9.83,0,1,0-12.3,0h0v8.26a46.56,46.56,0,0,0,12.33,0v-8.26Z"/></g><circle id="_路徑_9" data-name="&lt;路徑&gt;" class="cls-6" cx="57.67" cy="9.25" r="9.25"/><g id="_群組_4" data-name="&lt;群組&gt;" class="cls-7"><path id="_路徑_10" data-name="&lt;路徑&gt;" class="cls-5" d="M74.6,81c-37.75,0-38-11.11-38-11.11,0-12.37,10.32-15.66,10.32-15.66-4.42-20,10-35.76,10-35.76a9.24,9.24,0,0,0,7.39-2.78C53.7,14.15,53.08,5.41,53.47,1a9.24,9.24,0,0,0-3.92,12.66A48.3,48.3,0,0,0,11.19,48.34l-.35-.13c-3.5,1.35-6,2.87-7.21,4.49A11.68,11.68,0,0,0,1,56.49a12.79,12.79,0,0,0-1,5.07,12.16,12.16,0,0,0,4,9.22c1.4,1.53,4,3,7.4,4.23a48.27,48.27,0,0,0,43.05,34.38h.19c1,.06,2,.1,3,.1s2,0,3-.1h.19A48,48,0,0,0,87.78,98.94C76,94.13,74.6,81,74.6,81Z"/></g></g></svg>