<svg id="bg1" xmlns="http://www.w3.org/2000/svg" xmlns:xlink="http://www.w3.org/1999/xlink" viewBox="0 0 147.61 163.32"><defs><style>.cls-1{fill:#727171;}.cls-2,.cls-4{fill:#ffd557;}.cls-3{fill:url(#未命名漸層_33);}.cls-4{opacity:0.5;}.cls-5{fill:#968756;}.cls-6{fill:url(#未命名漸層_21);}.cls-7{fill:url(#未命名漸層_33-2);}</style><radialGradient id="未命名漸層_33" cx="74.47" cy="-1669.97" r="40.73" gradientTransform="matrix(1, 0, 0, -0.75, 0, -1132.39)" gradientUnits="userSpaceOnUse"><stop offset="0" stop-color="#fff"/><stop offset="0.73" stop-color="#eb9994"/></radialGradient><linearGradient id="未命名漸層_21" x1="73.8" y1="79.79" x2="73.8" y2="159.29" gradientUnits="userSpaceOnUse"><stop offset="0" stop-color="#1a7291" stop-opacity="0.5"/><stop offset="0.66" stop-color="#1a7291" stop-opacity="0.9"/><stop offset="1" stop-color="#1a7291"/></linearGradient><radialGradient id="未命名漸層_33-2" cx="74.47" cy="157.86" r="40.73" gradientTransform="translate(0 -86.44) scale(1 0.87)" xlink:href="#未命名漸層_33"/></defs><title>water_latern</title><g id="_群組_" data-name="&lt;群組&gt;"><g id="_群組_2" data-name="&lt;群組&gt;"><rect id="_矩形_" data-name="&lt;矩形&gt;" class="cls-1" x="24.13" y="89.17" width="99.35" height="74.15" rx="3.83" ry="3.83"/><rect id="_矩形_2" data-name="&lt;矩形&gt;" class="cls-2" x="31.79" y="94.88" width="84.04" height="62.72" rx="3.24" ry="3.24"/><rect id="_矩形_3" data-name="&lt;矩形&gt;" class="cls-3" x="31.79" y="94.88" width="84.04" height="62.72" rx="3.24" ry="3.24"/><rect id="_矩形_4" data-name="&lt;矩形&gt;" class="cls-4" x="31.79" y="94.88" width="84.04" height="62.72" rx="3.24" ry="3.24"/><rect id="_矩形_5" data-name="&lt;矩形&gt;" class="cls-5" y="81.05" width="147.61" height="10.74" rx="1.89" ry="1.89"/></g><path id="_路徑_" data-name="&lt;路徑&gt;" class="cls-6" d="M145.57,81.05H2A1.91,1.91,0,0,0,0,82.8V90a1.91,1.91,0,0,0,2,1.75H24.28a2.83,2.83,0,0,0-.15.93v67.05a3.87,3.87,0,0,0,4.13,3.55h91.09a3.87,3.87,0,0,0,4.13-3.55V92.72a3.12,3.12,0,0,0-.15-.93h22.24a1.92,1.92,0,0,0,2-1.75V82.8A1.91,1.91,0,0,0,145.57,81.05Z"/><g id="_群組_3" data-name="&lt;群組&gt;"><rect id="_矩形_6" data-name="&lt;矩形&gt;" class="cls-1" x="24.13" y="-6.65" width="99.35" height="86.31" rx="4.13" ry="4.13"/><rect id="_矩形_7" data-name="&lt;矩形&gt;" class="cls-2" x="31.79" width="84.04" height="73.01" rx="3.49" ry="3.49"/><rect id="_矩形_8" data-name="&lt;矩形&gt;" class="cls-7" x="31.79" width="84.04" height="73.01" rx="3.49" ry="3.49"/><rect id="_矩形_9" data-name="&lt;矩形&gt;" class="cls-4" x="31.79" width="84.04" height="73.01" rx="3.49" ry="3.49"/><rect id="_矩形_10" data-name="&lt;矩形&gt;" class="cls-5" y="76.61" width="147.61" height="9.17" rx="1.74" ry="1.74"/></g></g></svg>